<?xml version="1.0" encoding="UTF-8" standalone="no"?><svg xmlns="http://www.w3.org/2000/svg" xmlns:xlink="http://www.w3.org/1999/xlink" height="6144.000000000001" width="4096">
 <g>
  <title>Layer 1</title>
  <rect class=" imageannotationLine imageannotationLinked" fill="#FFFF00" fill-opacity="0.2" height="80.000002" id="svg_2" stroke="#000000" stroke-opacity="0.5" transform="rotate(90, 3742.09, 1785.88)" width="157.691452" x="3663.246258" xlink:href="#la" y="1745.874831"/>
  <rect class=" imageannotationLine imageannotationLinked" fill="#FFFF00" fill-opacity="0.2" height="120" id="svg_4" stroke="#000000" stroke-opacity="0.5" transform="rotate(87, 3712.09, 3260.88)" width="3057.692258" x="2183.24452" xlink:href="#lb" y="3200.874634"/>
  <rect class=" imageannotationLine imageannotationLinked" fill="#FFFF00" fill-opacity="0.2" height="115.006856" id="svg_6" stroke="#000000" stroke-opacity="0.5" transform="rotate(87, 3608.52, 3030.41)" width="2594.868402" x="2311.084311" xlink:href="#lc" y="2972.901382"/>
  <rect class=" imageannotationLine imageannotationLinked" fill="#FFFF00" fill-opacity="0.2" height="105.28224" id="svg_8" stroke="#000000" stroke-opacity="0.5" transform="rotate(87, 3542.75, 3359.26)" width="3307.692383" x="1888.899298" xlink:href="#ld" y="3306.622187"/>
  <rect class=" imageannotationLine imageannotationLinked" fill="#FFFF00" fill-opacity="0.2" height="120" id="svg_10" stroke="#000000" stroke-opacity="0.5" transform="rotate(88, 3327.09, 2528.38)" width="1642.691918" x="2505.745124" xlink:href="#le" y="2468.37439"/>
  <rect class=" imageannotationLine imageannotationLinked" fill="#FFFF00" fill-opacity="0.2" height="120" id="svg_12" stroke="#000000" stroke-opacity="0.5" transform="rotate(87, 3212.09, 3393.38)" width="3332.692277" x="1545.744126" xlink:href="#lf" y="3333.37439"/>
  <rect class=" imageannotationLine imageannotationLinked" fill="#FFFF00" fill-opacity="0.2" height="120" id="svg_14" stroke="#000000" stroke-opacity="0.5" transform="rotate(88, 3022.09, 3290.88)" width="3187.692339" x="1428.244211" xlink:href="#lg" y="3230.87439"/>
  <rect class=" imageannotationLine imageannotationLinked" fill="#FFFF00" fill-opacity="0.2" height="119.651074" id="svg_16" stroke="#000000" stroke-opacity="0.5" transform="rotate(88, 2852.1, 3253.55)" width="3092.692386" x="1305.753601" xlink:href="#lh" y="3193.721076"/>
  <rect class=" imageannotationLine imageannotationLinked" fill="#FFFF00" fill-opacity="0.2" height="117.557176" id="svg_18" stroke="#000000" stroke-opacity="0.5" transform="rotate(87, 2625.87, 2763.42)" width="2202.692091" x="1524.524406" xlink:href="#li" y="2704.642949"/>
  <rect class=" imageannotationLine imageannotationLinked" fill="#FFFF00" fill-opacity="0.2" height="104.470413" id="svg_20" stroke="#000000" stroke-opacity="0.5" transform="rotate(88, 2429.5, 3105.62)" width="2087.5117" x="1385.741445" xlink:href="#lj" y="3053.382352"/>
  <rect class=" imageannotationLine imageannotationLinked" fill="#FFFF00" fill-opacity="0.2" height="80.018274" id="svg_22" stroke="#000000" stroke-opacity="0.5" transform="rotate(88, 2357.11, 2656.39)" width="957.691707" x="1878.260693" xlink:href="#lk" y="2616.380736"/>
  <rect class=" imageannotationLine imageannotationLinked" fill="#FFFF00" fill-opacity="0.2" height="125.241121" id="svg_24" stroke="#000000" stroke-opacity="0.5" transform="rotate(87, 2309.7, 3182.98)" width="3012.692291" x="803.35452" xlink:href="#ll" y="3120.354825"/>
  <rect class=" imageannotationLine imageannotationLinked" fill="#FFFF00" fill-opacity="0.2" height="124.979438" id="svg_26" stroke="#000000" stroke-opacity="0.5" transform="rotate(87, 2114.57, 3097.98)" width="2902.692283" x="663.223748" xlink:href="#lm" y="3035.492286"/>
  <rect class=" imageannotationLine imageannotationLinked" fill="#FFFF00" fill-opacity="0.2" height="119.470421" id="svg_28" stroke="#000000" stroke-opacity="0.5" transform="rotate(88, 1786.82, 3265.71)" width="3037.692382" x="267.976745" xlink:href="#ln" y="3205.973949"/>
  <rect class=" imageannotationLine imageannotationLinked" fill="#FFFF00" fill-opacity="0.2" height="110" id="svg_30" stroke="#000000" stroke-opacity="0.5" transform="rotate(87, 1622.09, 2963.38)" width="2482.692128" x="380.744626" xlink:href="#lo" y="2908.37439"/>
  <rect class=" imageannotationLine imageannotationLinked" fill="#FFFF00" fill-opacity="0.2" height="118.423425" id="svg_32" stroke="#000000" stroke-opacity="0.5" transform="rotate(88, 1461.3, 3028.23)" width="2602.692173" x="159.953296" xlink:href="#lp" y="2969.015246"/>
  <rect class=" imageannotationLine imageannotationLinked" fill="#FFFF00" fill-opacity="0.2" height="97.737626" id="svg_34" stroke="#000000" stroke-opacity="0.5" transform="rotate(88, 1185.96, 2833.59)" width="2202.692091" x="84.617097" xlink:href="#lq" y="2784.719624"/>
  <rect class=" imageannotationLine imageannotationLinked" fill="#FFFF00" fill-opacity="0.2" height="110" id="svg_36" stroke="#000000" stroke-opacity="0.5" transform="rotate(87, 927.092, 2815.88)" width="2277.692168" x="-211.755255" xlink:href="#lr" y="2760.87439"/>
  <rect class=" imageannotationLine imageannotationLinked" fill="#FFFF00" fill-opacity="0.2" height="109.825505" id="svg_38" stroke="#000000" stroke-opacity="0.5" transform="rotate(88, 777.005, 3053.38)" width="2792.692275" x="-619.342845" xlink:href="#ls" y="2998.464844"/>
  <rect class=" imageannotationLine imageannotationLinked" fill="#FFFF00" fill-opacity="0.2" height="110" id="svg_40" stroke="#000000" stroke-opacity="0.5" transform="rotate(88, 627.092, 3100.88)" width="2857.692316" x="-801.755592" xlink:href="#lt" y="3045.87439"/>
  <rect class=" imageannotationLine imageannotationLinked" fill="#FFFF00" fill-opacity="0.2" height="110" id="svg_42" stroke="#000000" stroke-opacity="0.5" transform="rotate(87, 457.092, 3035.88)" width="2827.692206" x="-956.755575" xlink:href="#lu" y="2980.87439"/>
 </g>

</svg>