<?xml version="1.0" encoding="UTF-8" standalone="no"?><svg xmlns="http://www.w3.org/2000/svg" xmlns:xlink="http://www.w3.org/1999/xlink" height="6144.000000000001" width="4096">
 <g>
  <title>Layer 1</title>
  <rect class=" imageannotationLine imageannotationLinked" fill="#FFFF00" fill-opacity="0.2" height="90" id="svg_2" stroke="#000000" stroke-opacity="0.5" transform="rotate(90, 3407.33, 649.332)" width="299.999991" x="3257.334006" xlink:href="#la" y="604.332214"/>
  <rect class=" imageannotationLine imageannotationLinked" fill="#FFFF00" fill-opacity="0.2" height="95.000002" id="svg_5" stroke="#000000" stroke-opacity="0.5" transform="rotate(89, 3312.36, 2904.33)" width="4039.92309" x="1292.396628" xlink:href="#lb" y="2856.832409"/>
  <rect class=" imageannotationLine imageannotationLinked" fill="#FFFF00" fill-opacity="0.2" height="84.999999" id="svg_7" stroke="#000000" stroke-opacity="0.5" transform="rotate(90, 3181.5, 1786.83)" width="455.000003" x="2954.004098" xlink:href="#lc" y="1744.332337"/>
  <rect class=" imageannotationLine imageannotationLinked" fill="#FFFF00" fill-opacity="0.2" height="127.438526" id="svg_9" stroke="#000000" stroke-opacity="0.5" transform="rotate(88, 3163.03, 2733.39)" width="3619.943023" x="1353.06224" xlink:href="#ld" y="2669.667898"/>
  <rect class=" imageannotationLine imageannotationLinked" fill="#FFFF00" fill-opacity="0.2" height="131.200157" id="svg_11" stroke="#000000" stroke-opacity="0.5" transform="rotate(88, 2929.8, 2905.64)" width="3903.533156" x="978.030435" xlink:href="#le" y="2840.037966"/>
  <rect class=" imageannotationLine imageannotationLinked" fill="#FFFF00" fill-opacity="0.2" height="95" id="svg_13" stroke="#000000" stroke-opacity="0.5" transform="rotate(88, 2660.01, 2852.64)" width="3876.211401" x="721.901122" xlink:href="#lf" y="2805.135666"/>
  <rect class=" imageannotationLine imageannotationLinked" fill="#FFFF00" fill-opacity="0.2" height="95" id="svg_15" stroke="#000000" stroke-opacity="0.5" transform="rotate(90, 2481.5, 2616.83)" width="245.000002" x="2359.003927" xlink:href="#lg" y="2569.332092"/>
  <rect class=" imageannotationLine imageannotationLinked" fill="#FFFF00" fill-opacity="0.2" height="104.470548" id="svg_17" stroke="#000000" stroke-opacity="0.5" transform="rotate(88, 2310.37, 2564.94)" width="3393.137227" x="613.796064" xlink:href="#lh" y="2512.702937"/>
  <rect class=" imageannotationLine imageannotationLinked" fill="#FFFF00" fill-opacity="0.2" height="108.94397" id="svg_19" stroke="#000000" stroke-opacity="0.5" transform="rotate(88, 2151.94, 2587.52)" width="3436.456249" x="433.712067" xlink:href="#li" y="2533.045518"/>
  <rect class=" imageannotationLine imageannotationLinked" fill="#FFFF00" fill-opacity="0.2" height="104.993903" id="svg_21" stroke="#000000" stroke-opacity="0.5" transform="rotate(88, 1992.23, 3149.03)" width="4627.21025" x="-321.377135" xlink:href="#lj" y="3096.530691"/>
  <rect class=" imageannotationLine imageannotationLinked" fill="#FFFF00" fill-opacity="0.2" height="90.524333" id="svg_25" stroke="#000000" stroke-opacity="0.5" transform="rotate(89, 2183.53, 5222.36)" width="415.972806" x="1975.542955" xlink:href="#lk" y="5177.102636"/>
  <rect class=" imageannotationLine imageannotationLinked" fill="#FFFF00" fill-opacity="0.2" height="99.684341" id="svg_27" stroke="#000000" stroke-opacity="0.5" transform="rotate(88, 1930.53, 3191.98)" width="3077.890432" x="391.583716" xlink:href="#ll" y="3142.142063"/>
  <rect class=" imageannotationLine imageannotationLinked" fill="#FFFF00" fill-opacity="0.2" height="94.670315" id="svg_31" stroke="#000000" stroke-opacity="0.5" transform="rotate(88, 1832.97, 3140.94)" width="4601.046834" x="-467.556298" xlink:href="#lm" y="3093.607087"/>
  <rect class=" imageannotationLine imageannotationLinked" fill="#FFFF00" fill-opacity="0.2" height="108.162111" id="svg_33" stroke="#000000" stroke-opacity="0.5" transform="rotate(88, 1680.31, 2587.47)" width="3485.978858" x="-62.676967" xlink:href="#ln" y="2533.384908"/>
  <rect class=" imageannotationLine imageannotationLinked" fill="#FFFF00" fill-opacity="0.2" height="110.850738" id="svg_35" stroke="#000000" stroke-opacity="0.5" transform="rotate(88, 1493.16, 2592.39)" width="3444.656919" x="-229.171656" xlink:href="#lo" y="2536.964952"/>
  <rect class=" imageannotationLine imageannotationLinked" fill="#FFFF00" fill-opacity="0.2" height="106.649125" id="svg_37" stroke="#000000" stroke-opacity="0.5" transform="rotate(89, 1218.56, 1618.28)" width="1456.083229" x="490.520733" xlink:href="#lp" y="1564.955392"/>
  <rect class=" imageannotationLine imageannotationLinked" fill="#FFFF00" fill-opacity="0.2" height="95" id="svg_39" stroke="#000000" stroke-opacity="0.5" transform="rotate(90, 1106.5, 2428.33)" width="229.999992" x="991.503932" xlink:href="#lq" y="2380.832092"/>
  <rect class=" imageannotationLine imageannotationLinked" fill="#FFFF00" fill-opacity="0.2" height="138.441522" id="svg_41" stroke="#000000" stroke-opacity="0.5" transform="rotate(89, 1045.78, 3794.83)" width="2194.999957" x="-51.717188" xlink:href="#lr" y="3725.606488"/>
 </g>
</svg>