<?xml version="1.0" encoding="UTF-8" standalone="no"?><svg xmlns="http://www.w3.org/2000/svg" xmlns:xlink="http://www.w3.org/1999/xlink" height="6144.000000000001" width="4096">
 <g>
  <title>Layer 1</title>
  <rect class=" imageannotationLine imageannotationLinked" fill="#FFFF00" fill-opacity="0.2" height="110.000006" id="svg_2" stroke="#000000" stroke-opacity="0.5" transform="rotate(90, 3314, 3353.05)" width="2029.545112" x="2299.227342" xlink:href="#la" y="3298.045769"/>
  <rect class=" imageannotationLine imageannotationLinked" fill="#FFFF00" fill-opacity="0.2" height="110" id="svg_4" stroke="#000000" stroke-opacity="0.5" transform="rotate(90, 3224, 3680.55)" width="314.546604" x="3066.726593" xlink:href="#lb" y="3625.54541"/>
  <rect class=" imageannotationLine imageannotationLinked" fill="#FFFF00" fill-opacity="0.2" height="100.001524" id="svg_6" stroke="#000000" stroke-opacity="0.5" transform="rotate(89, 3142.8, 3387.76)" width="2220.946494" x="2032.325212" xlink:href="#lc" y="3337.755207"/>
  <rect class=" imageannotationLine imageannotationLinked" fill="#FFFF00" fill-opacity="0.2" height="110" id="svg_8" stroke="#000000" stroke-opacity="0.5" transform="rotate(90, 2969, 3383.05)" width="2129.545003" x="1904.226564" xlink:href="#ld" y="3328.04541"/>
  <rect class=" imageannotationLine imageannotationLinked" fill="#FFFF00" fill-opacity="0.2" height="110" id="svg_10" stroke="#000000" stroke-opacity="0.5" transform="rotate(88, 2774, 3283.05)" width="1829.545226" x="1859.226556" xlink:href="#le" y="3228.04541"/>
  <rect class=" imageannotationLine imageannotationLinked" fill="#FFFF00" fill-opacity="0.2" height="110" id="svg_12" stroke="#000000" stroke-opacity="0.5" transform="rotate(88, 2634, 3373.05)" width="2049.545099" x="1609.226565" xlink:href="#lf" y="3318.04541"/>
  <rect class=" imageannotationLine imageannotationLinked" fill="#FFFF00" fill-opacity="0.2" height="100.001524" id="svg_14" stroke="#000000" stroke-opacity="0.5" transform="rotate(89, 2473.74, 3278.36)" width="1829.986283" x="1558.749172" xlink:href="#lg" y="3228.354925"/>
  <rect class=" imageannotationLine imageannotationLinked" fill="#FFFF00" fill-opacity="0.2" height="110" id="svg_16" stroke="#000000" stroke-opacity="0.5" transform="rotate(90, 2334, 3843.05)" width="689.546244" x="1989.22658" xlink:href="#lh" y="3788.04541"/>
  <rect class=" imageannotationLine imageannotationLinked" fill="#FFFF00" fill-opacity="0.2" height="110" id="svg_18" stroke="#000000" stroke-opacity="0.5" transform="rotate(90, 2084, 3410.55)" width="2024.545132" x="1071.726597" xlink:href="#li" y="3355.54541"/>
  <rect class=" imageannotationLine imageannotationLinked" fill="#FFFF00" fill-opacity="0.2" height="100.000003" id="svg_20" stroke="#000000" stroke-opacity="0.5" transform="rotate(90, 1919, 3410.55)" width="2054.54516" x="891.726444" xlink:href="#lj" y="3360.545418"/>
  <rect class=" imageannotationLine imageannotationLinked" fill="#FFFF00" fill-opacity="0.2" height="75.000001" id="svg_22" stroke="#000000" stroke-opacity="0.5" transform="rotate(90, 1766.5, 3775.55)" width="564.546352" x="1484.226311" xlink:href="#lk" y="3738.045586"/>
  <rect class=" imageannotationLine imageannotationLinked" fill="#FFFF00" fill-opacity="0.2" height="120.000008" id="svg_24" stroke="#000000" stroke-opacity="0.5" transform="rotate(90, 1624, 3375.55)" width="1954.545151" x="646.727085" xlink:href="#ll" y="3315.545753"/>
  <rect class=" imageannotationLine imageannotationLinked" fill="#FFFF00" fill-opacity="0.2" height="100.000003" id="svg_26" stroke="#000000" stroke-opacity="0.5" transform="rotate(90, 1474, 3715.55)" width="554.546364" x="1196.726589" xlink:href="#lm" y="3665.545538"/>
  <rect class=" imageannotationLine imageannotationLinked" fill="#FFFF00" fill-opacity="0.2" height="110" id="svg_28" stroke="#000000" stroke-opacity="0.5" transform="rotate(90, 1399, 3208.05)" width="1629.545452" x="584.226567" xlink:href="#ln" y="3153.04541"/>
  <rect class=" imageannotationLine imageannotationLinked" fill="#FFFF00" fill-opacity="0.2" height="100.000003" id="svg_30" stroke="#000000" stroke-opacity="0.5" transform="rotate(90, 1289, 3405.55)" width="2084.54498" x="246.726806" xlink:href="#lo" y="3355.545304"/>
  <rect class=" imageannotationLine imageannotationLinked" fill="#FFFF00" fill-opacity="0.2" height="110" id="svg_32" stroke="#000000" stroke-opacity="0.5" transform="rotate(90, 1144, 3438.05)" width="2119.545015" x="84.226564" xlink:href="#lp" y="3383.04541"/>
  <rect class=" imageannotationLine imageannotationLinked" fill="#FFFF00" fill-opacity="0.2" height="120.000004" id="svg_34" stroke="#000000" stroke-opacity="0.5" transform="rotate(90, 994, 3745.55)" width="254.546657" x="866.726531" xlink:href="#lq" y="3685.545264"/>
 </g>
</svg>