<?xml version="1.0" encoding="UTF-8" standalone="no"?><svg xmlns="http://www.w3.org/2000/svg" xmlns:xlink="http://www.w3.org/1999/xlink" height="6144" width="4096">
 <g>
  <title>Layer 1</title>
  <rect class=" imageannotationLine imageannotationLinked" fill="#FFFF00" fill-opacity="0.2" height="108.235295" id="svg_2" stroke="#000000" stroke-opacity="0.5" transform="rotate(90, 3469.88, 839.691)" width="294.650132" x="3322.554303" xlink:href="#sigle" y="785.572916"/>
  <rect class=" imageannotationLine imageannotationLinked" fill="#FFFF00" fill-opacity="0.2" height="102.352939" id="svg_6" stroke="#000000" stroke-opacity="0.5" transform="rotate(90, 3472.82, 4824.99)" width="124.062604" x="3410.790801" xlink:href="#la" y="4773.809722"/>
  <rect class=" imageannotationLine imageannotationLinked" fill="#FFFF00" fill-opacity="0.2" height="90.588233" id="svg_8" stroke="#000000" stroke-opacity="0.5" transform="rotate(88, 3219.88, 2483.81)" width="3100.534175" x="1669.611518" xlink:href="#lb" y="2438.517791"/>
  <rect class=" imageannotationLine imageannotationLinked" fill="#FFFF00" fill-opacity="0.2" height="90.588234" id="svg_10" stroke="#000000" stroke-opacity="0.5" transform="rotate(89, 3072.83, 2719.11)" width="3665.240133" x="1240.204802" xlink:href="#lc" y="2673.811922"/>
  <rect class=" imageannotationLine imageannotationLinked" fill="#FFFF00" fill-opacity="0.2" height="90.588234" id="svg_12" stroke="#000000" stroke-opacity="0.5" transform="rotate(90, 2919.88, 2466.16)" width="3182.886952" x="1328.44084" xlink:href="#ld" y="2420.868856"/>
  <rect class=" imageannotationLine imageannotationLinked" fill="#FFFF00" fill-opacity="0.2" height="90.588234" id="svg_14" stroke="#000000" stroke-opacity="0.5" transform="rotate(89, 2790.47, 2751.46)" width="3871.122561" x="854.909431" xlink:href="#le" y="2706.160728"/>
  <rect class=" imageannotationLine imageannotationLinked" fill="#FFFF00" fill-opacity="0.2" height="114.117222" id="svg_16" stroke="#000000" stroke-opacity="0.5" transform="rotate(90, 2631.69, 2656.83)" width="3599.506716" x="831.935632" xlink:href="#lf" y="2599.765336"/>
  <rect class=" imageannotationLine imageannotationLinked" fill="#FFFF00" fill-opacity="0.2" height="90.588234" id="svg_18" stroke="#000000" stroke-opacity="0.5" transform="rotate(89, 2502.23, 2607.34)" width="3559.357771" x="722.555211" xlink:href="#lg" y="2562.046032"/>
  <rect class=" imageannotationLine imageannotationLinked" fill="#FFFF00" fill-opacity="0.2" height="90.588234" id="svg_20" stroke="#000000" stroke-opacity="0.5" transform="rotate(89, 2378.55, 2730.72)" width="3770.817196" x="493.137669" xlink:href="#lh" y="2685.426063"/>
  <rect class=" imageannotationLine imageannotationLinked" fill="#FFFF00" fill-opacity="0.2" height="84.705987" id="svg_22" stroke="#000000" stroke-opacity="0.5" transform="rotate(90, 2293.41, 2807.34)" width="241.711186" x="2172.556137" xlink:href="#li" y="2764.985846"/>
  <rect class=" imageannotationLine imageannotationLinked" fill="#FFFF00" fill-opacity="0.2" height="90.485574" id="svg_24" stroke="#000000" stroke-opacity="0.5" transform="rotate(90, 2219.79, 2769.26)" width="3836.139467" x="301.717585" xlink:href="#lj" y="2724.022514"/>
  <rect class=" imageannotationLine imageannotationLinked" fill="#FFFF00" fill-opacity="0.2" height="90.588234" id="svg_26" stroke="#000000" stroke-opacity="0.5" transform="rotate(90, 2066.94, 2554.4)" width="3359.35764" x="387.264038" xlink:href="#lk" y="2509.107767"/>
  <rect class=" imageannotationLine imageannotationLinked" fill="#FFFF00" fill-opacity="0.2" height="114.11786" id="svg_28" stroke="#000000" stroke-opacity="0.5" transform="rotate(90, 1972.82, 2563.23)" width="224.064655" x="1860.790782" xlink:href="#ll" y="2506.166388"/>
  <rect class=" imageannotationLine imageannotationLinked" fill="#FFFF00" fill-opacity="0.2" height="90.588234" id="svg_30" stroke="#000000" stroke-opacity="0.5" transform="rotate(90, 1778.7, 2395.58)" width="3065.239994" x="246.084171" xlink:href="#lm" y="2350.28211"/>
  <rect class=" imageannotationLine imageannotationLinked" fill="#FFFF00" fill-opacity="0.2" height="90.588234" id="svg_32" stroke="#000000" stroke-opacity="0.5" transform="rotate(90, 1625.77, 2651.46)" width="3565.240068" x="-156.853082" xlink:href="#ln" y="2606.163967"/>
  <rect class=" imageannotationLine imageannotationLinked" fill="#FFFF00" fill-opacity="0.2" height="90.588234" id="svg_34" stroke="#000000" stroke-opacity="0.5" transform="rotate(90, 1490.47, 2327.93)" width="224.064082" x="1378.435821" xlink:href="#lo" y="2282.634926"/>
  <rect class=" imageannotationLine imageannotationLinked" fill="#FFFF00" fill-opacity="0.2" height="90.588234" id="svg_36" stroke="#000000" stroke-opacity="0.5" transform="rotate(90, 1425.76, 3151.46)" width="1471.118425" x="690.197761" xlink:href="#lp" y="3106.16647"/>
  <rect class=" imageannotationLine imageannotationLinked" fill="#FFFF00" fill-opacity="0.2" height="90.588234" id="svg_38" stroke="#000000" stroke-opacity="0.5" transform="rotate(90, 1319.88, 2624.99)" width="3512.298887" x="-436.267822" xlink:href="#lq" y="2579.692884"/>
  <rect class=" imageannotationLine imageannotationLinked" fill="#FFFF00" fill-opacity="0.2" height="102.350935" id="svg_40" stroke="#000000" stroke-opacity="0.5" transform="rotate(89, 1190.31, 2677.52)" width="3664.216243" x="-641.796577" xlink:href="#lr" y="2626.345472"/>
  <rect class=" imageannotationLine imageannotationLinked" fill="#FFFF00" fill-opacity="0.2" height="90.588234" id="svg_42" stroke="#000000" stroke-opacity="0.5" transform="rotate(90, 1090.47, 2877.93)" width="1947.591799" x="116.676058" xlink:href="#ls" y="2832.632843"/>
  <rect class=" imageannotationLine imageannotationLinked" fill="#FFFF00" fill-opacity="0.2" height="90.588234" id="svg_44" stroke="#000000" stroke-opacity="0.5" transform="rotate(89, 1002.23, 2766.17)" width="3818.18172" x="-906.85657" xlink:href="#lt" y="2720.87266"/>
  <rect class=" imageannotationLine imageannotationLinked" fill="#FFFF00" fill-opacity="0.2" height="90.588234" id="svg_46" stroke="#000000" stroke-opacity="0.5" transform="rotate(89, 825.766, 2339.7)" width="2871.122161" x="-609.795255" xlink:href="#lu" y="2294.399626"/>
  <rect class=" imageannotationLine imageannotationLinked" fill="#FFFF00" fill-opacity="0.2" height="84.705987" id="svg_48" stroke="#000000" stroke-opacity="0.5" transform="rotate(90, 663.999, 2139.7)" width="2541.710226" x="-606.856535" xlink:href="#lv" y="2097.34145"/>
  <rect class=" imageannotationLine imageannotationLinked" fill="#FFFF00" fill-opacity="0.2" height="90.588234" id="svg_50" stroke="#000000" stroke-opacity="0.5" transform="rotate(90, 537.528, 3333.81)" width="1741.71053" x="-333.326502" xlink:href="#lw" y="3288.516636"/>
 </g>

</svg>