<?xml version="1.0" encoding="UTF-8" standalone="no"?><svg xmlns="http://www.w3.org/2000/svg" xmlns:xlink="http://www.w3.org/1999/xlink" height="6144.000000000001" width="4096">
 <g>
  <title>Layer 1</title>
  <rect class=" imageannotationLine imageannotationLinked" fill="#FFFF00" fill-opacity="0.2" height="99.999998" id="svg_4" stroke="#000000" stroke-opacity="0.5" transform="rotate(90, 3584, 1043.5)" width="365.000009" x="3401.499347" xlink:href="#la" y="993.500178"/>
  <rect class=" imageannotationLine imageannotationLinked" fill="#FFFF00" fill-opacity="0.2" height="120" id="svg_6" stroke="#000000" stroke-opacity="0.5" transform="rotate(90, 3384, 2608.5)" width="485.000022" x="3141.500043" xlink:href="#lb" y="2548.500061"/>
  <rect class=" imageannotationLine imageannotationLinked" fill="#FFFF00" fill-opacity="0.2" height="139.999995" id="svg_8" stroke="#000000" stroke-opacity="0.5" transform="rotate(90, 3194, 3016)" width="3630.000075" x="1378.999996" xlink:href="#lc" y="2946.000056"/>
  <rect class=" imageannotationLine imageannotationLinked" fill="#FFFF00" fill-opacity="0.2" height="120" id="svg_10" stroke="#000000" stroke-opacity="0.5" transform="rotate(90, 2994, 2861)" width="3460.000022" x="1263.999999" xlink:href="#ld" y="2801.000061"/>
  <rect class=" imageannotationLine imageannotationLinked" fill="#FFFF00" fill-opacity="0.2" height="130.000005" id="svg_12" stroke="#000000" stroke-opacity="0.5" transform="rotate(90, 2799, 2733.5)" width="595.000002" x="2501.499684" xlink:href="#le" y="2668.500058"/>
  <rect class=" imageannotationLine imageannotationLinked" fill="#FFFF00" fill-opacity="0.2" height="110.000002" id="svg_14" stroke="#000000" stroke-opacity="0.5" transform="rotate(90, 2614, 3018.5)" width="3754.999967" x="736.5" xlink:href="#lf" y="2963.500059"/>
  <rect class=" imageannotationLine imageannotationLinked" fill="#FFFF00" fill-opacity="0.2" height="99.999998" id="svg_16" stroke="#000000" stroke-opacity="0.5" transform="rotate(90, 2434, 3026)" width="3840.000227" x="514.000244" xlink:href="#lg" y="2976.000755"/>
  <rect class=" imageannotationLine imageannotationLinked" fill="#FFFF00" fill-opacity="0.2" height="130.000005" id="svg_18" stroke="#000000" stroke-opacity="0.5" transform="rotate(90, 2249, 2843.5)" width="605.000034" x="1946.499972" xlink:href="#lh" y="2778.50006"/>
  <rect class=" imageannotationLine imageannotationLinked" fill="#FFFF00" fill-opacity="0.2" height="120" id="svg_20" stroke="#000000" stroke-opacity="0.5" transform="rotate(90, 2124, 3043.5)" width="3784.999907" x="231.5" xlink:href="#li" y="2983.500061"/>
  <rect class=" imageannotationLine imageannotationLinked" fill="#FFFF00" fill-opacity="0.2" height="120" id="svg_22" stroke="#000000" stroke-opacity="0.5" transform="rotate(91, 1945.76, 2841.38)" width="3365.182646" x="263.170883" xlink:href="#lj" y="2781.376404"/>
  <rect class=" imageannotationLine imageannotationLinked" fill="#FFFF00" fill-opacity="0.2" height="120" id="svg_24" stroke="#000000" stroke-opacity="0.5" transform="rotate(90, 1774, 2963.5)" width="3615.000013" x="-33.5" xlink:href="#lk" y="2903.500061"/>
  <rect class=" imageannotationLine imageannotationLinked" fill="#FFFF00" fill-opacity="0.2" height="120" id="svg_26" stroke="#000000" stroke-opacity="0.5" transform="rotate(91, 1599, 3023.5)" width="3715.000007" x="-258.5" xlink:href="#ll" y="2963.500061"/>
  <rect class=" imageannotationLine imageannotationLinked" fill="#FFFF00" fill-opacity="0.2" height="120" id="svg_28" stroke="#000000" stroke-opacity="0.5" transform="rotate(90, 1459, 2763.5)" width="3224.999997" x="-153.5" xlink:href="#lm" y="2703.500061"/>
  <rect class=" imageannotationLine imageannotationLinked" fill="#FFFF00" fill-opacity="0.2" height="120" id="svg_30" stroke="#000000" stroke-opacity="0.5" transform="rotate(91, 1293.92, 2970.87)" width="3669.736615" x="-540.953134" xlink:href="#ln" y="2910.867493"/>
  <rect class=" imageannotationLine imageannotationLinked" fill="#FFFF00" fill-opacity="0.2" height="136.03785" id="svg_33" stroke="#000000" stroke-opacity="0.5" transform="rotate(-92, 550.558, 2843.13)" width="3256.231181" x="-1077.557541" xlink:href="#lo" y="2775.109717"/>
  <rect class=" imageannotationLine imageannotationLinked" fill="#FFFF00" fill-opacity="0.2" height="109.307786" id="svg_35" stroke="#000000" stroke-opacity="0.5" transform="rotate(-92, 813.755, 2968.07)" width="3265.416004" x="-818.952163" xlink:href="#lp" y="2913.418277"/>
  <rect class=" imageannotationLine imageannotationLinked" fill="#FFFF00" fill-opacity="0.2" height="123.949971" id="svg_37" stroke="#000000" stroke-opacity="0.5" transform="rotate(-92, 1059.58, 3497.87)" width="2225.70046" x="-53.265362" xlink:href="#lq" y="3435.894907"/>
 </g>

</svg>