<?xml version="1.0" encoding="UTF-8" standalone="no"?><svg xmlns="http://www.w3.org/2000/svg" xmlns:xlink="http://www.w3.org/1999/xlink" height="6144" width="4096">
 <g>
  <title>Layer 1</title>
  <rect class=" imageannotationLine imageannotationLinked" fill="#FFFF00" fill-opacity="0.2" height="64.000003" id="svg_2" stroke="#000000" stroke-opacity="0.5" width="101.144455" x="3237.999885" xlink:href="#la" y="651.999988"/>
  <rect class=" imageannotationLine imageannotationLinked" fill="#FFFF00" fill-opacity="0.2" height="88" id="svg_4" stroke="#000000" stroke-opacity="0.5" width="141.144429" x="3089.999886" xlink:href="#lb" y="720"/>
  <rect class=" imageannotationLine imageannotationLinked" fill="#FFFF00" fill-opacity="0.2" height="88" id="svg_6" stroke="#000000" stroke-opacity="0.5" transform="rotate(-3, 2144.57, 1028)" width="1749.143264" x="1269.998473" xlink:href="#lc" y="984"/>
  <rect class=" imageannotationLine imageannotationLinked" fill="#FFFF00" fill-opacity="0.2" height="88" id="svg_8" stroke="#000000" stroke-opacity="0.5" transform="rotate(-2, 1848.57, 1248)" width="1941.143129" x="877.998321" xlink:href="#ld" y="1204"/>
  <rect class=" imageannotationLine imageannotationLinked" fill="#FFFF00" fill-opacity="0.2" height="88" id="svg_10" stroke="#000000" stroke-opacity="0.5" transform="rotate(-2, 2000.57, 1416)" width="2165.142935" x="917.998126" xlink:href="#le" y="1372"/>
  <rect class=" imageannotationLine imageannotationLinked" fill="#FFFF00" fill-opacity="0.2" height="88" id="svg_12" stroke="#000000" stroke-opacity="0.5" transform="rotate(-2, 1855.45, 1591.83)" width="1914.902302" x="897.995371" xlink:href="#lf" y="1547.829696"/>
  <rect class=" imageannotationLine imageannotationLinked" fill="#FFFF00" fill-opacity="0.2" height="88" id="svg_14" stroke="#000000" stroke-opacity="0.5" transform="rotate(-2, 1948.5, 1759.93)" width="2061.000894" x="917.997042" xlink:href="#lg" y="1715.932677"/>
  <rect class=" imageannotationLine imageannotationLinked" fill="#FFFF00" fill-opacity="0.2" height="88" id="svg_16" stroke="#000000" stroke-opacity="0.5" transform="rotate(-2, 1840.57, 1940)" width="1853.143137" x="913.998399" xlink:href="#lh" y="1896"/>
  <rect class=" imageannotationLine imageannotationLinked" fill="#FFFF00" fill-opacity="0.2" height="84.142034" id="svg_18" stroke="#000000" stroke-opacity="0.5" transform="rotate(-2, 2080.64, 2109.93)" width="2333.142858" x="914.065309" xlink:href="#li" y="2067.856798"/>
  <rect class=" imageannotationLine imageannotationLinked" fill="#FFFF00" fill-opacity="0.2" height="88" id="svg_20" stroke="#000000" stroke-opacity="0.5" transform="rotate(-3, 2002.57, 2280)" width="2153.142845" x="925.998138" xlink:href="#lj" y="2236"/>
  <rect class=" imageannotationLine imageannotationLinked" fill="#FFFF00" fill-opacity="0.2" height="88" id="svg_22" stroke="#000000" stroke-opacity="0.5" transform="rotate(-3, 2006.57, 2464)" width="2177.142891" x="917.998116" xlink:href="#lk" y="2420"/>
  <rect class=" imageannotationLine imageannotationLinked" fill="#FFFF00" fill-opacity="0.2" height="88" id="svg_24" stroke="#000000" stroke-opacity="0.5" transform="rotate(-3, 1938.57, 2648)" width="1993.142983" x="941.998278" xlink:href="#ll" y="2604"/>
  <rect class=" imageannotationLine imageannotationLinked" fill="#FFFF00" fill-opacity="0.2" height="75.388415" id="svg_26" stroke="#000000" stroke-opacity="0.5" transform="rotate(-3, 1984.94, 2843.13)" width="2157.099057" x="906.393772" xlink:href="#lm" y="2805.439297"/>
  <rect class=" imageannotationLine imageannotationLinked" fill="#FFFF00" fill-opacity="0.2" height="88" id="svg_28" stroke="#000000" stroke-opacity="0.5" transform="rotate(-3, 1876.57, 3032)" width="1901.143096" x="925.998357" xlink:href="#ln" y="2988"/>
  <rect class=" imageannotationLine imageannotationLinked" fill="#FFFF00" fill-opacity="0.2" height="88" id="svg_30" stroke="#000000" stroke-opacity="0.5" transform="rotate(-3, 1980.57, 3196)" width="2133.142963" x="913.998156" xlink:href="#lo" y="3152"/>
  <rect class=" imageannotationLine imageannotationLinked" fill="#FFFF00" fill-opacity="0.2" height="88" id="svg_32" stroke="#000000" stroke-opacity="0.5" transform="rotate(-2, 1860.62, 3387.23)" width="1973.255763" x="873.984854" xlink:href="#lp" y="3343.230243"/>
  <rect class=" imageannotationLine imageannotationLinked" fill="#FFFF00" fill-opacity="0.2" height="88" id="svg_34" stroke="#000000" stroke-opacity="0.5" transform="rotate(-2, 2004.57, 3560)" width="2093.14293" x="957.998188" xlink:href="#lq" y="3516"/>
  <rect class=" imageannotationLine imageannotationLinked" fill="#FFFF00" fill-opacity="0.2" height="76.007308" id="svg_36" stroke="#000000" stroke-opacity="0.5" transform="rotate(-2, 1944.36, 3746.01)" width="2069.143018" x="909.788945" xlink:href="#lr" y="3708.003659"/>
  <rect class=" imageannotationLine imageannotationLinked" fill="#FFFF00" fill-opacity="0.2" height="88.139617" id="svg_38" stroke="#000000" stroke-opacity="0.5" transform="rotate(-1, 1992.57, 3932.07)" width="2173.142861" x="905.999338" xlink:href="#ls" y="3887.999986"/>
  <rect class=" imageannotationLine imageannotationLinked" fill="#FFFF00" fill-opacity="0.2" height="80.000002" id="svg_40" stroke="#000000" stroke-opacity="0.5" width="417.144207" x="1397.999598" xlink:href="#lt" y="4096"/>
  <rect class=" imageannotationLine imageannotationLinked" fill="#FFFF00" fill-opacity="0.2" height="88" id="svg_42" stroke="#000000" stroke-opacity="0.5" transform="rotate(-2, 1716.57, 4296)" width="1597.143358" x="917.998613" xlink:href="#lu" y="4252"/>
  <rect class=" imageannotationLine imageannotationLinked" fill="#FFFF00" fill-opacity="0.2" height="79.725678" id="svg_44" stroke="#000000" stroke-opacity="0.5" transform="rotate(-2, 1754.43, 4451.87)" width="1657.143273" x="925.85419" xlink:href="#lv" y="4412.002524"/>
  <rect class=" imageannotationLine imageannotationLinked" fill="#FFFF00" fill-opacity="0.2" height="80.000002" id="svg_46" stroke="#000000" stroke-opacity="0.5" width="613.144088" x="1405.999447" xlink:href="#lw" y="4603.999989"/>
  <rect class=" imageannotationLine imageannotationLinked" fill="#FFFF00" fill-opacity="0.2" height="80.004875" id="svg_48" stroke="#000000" stroke-opacity="0.5" transform="rotate(-2, 2018.43, 4840)" width="1817.143237" x="1109.858873" xlink:href="#lx" y="4800.002424"/>
  <rect class=" imageannotationLine imageannotationLinked" fill="#FFFF00" fill-opacity="0.2" height="88" id="svg_50" stroke="#000000" stroke-opacity="0.5" transform="rotate(-1, 1940.57, 4996)" width="1677.143196" x="1101.998596" xlink:href="#ly" y="4952"/>
  <rect class=" imageannotationLine imageannotationLinked" fill="#FFFF00" fill-opacity="0.2" height="76.001768" id="svg_52" stroke="#000000" stroke-opacity="0.5" transform="rotate(-1, 2070.47, 5150)" width="1953.142984" x="1093.893611" xlink:href="#lz" y="5112.00089"/>
  <rect class=" imageannotationLine imageannotationLinked" fill="#FFFF00" fill-opacity="0.2" height="88" id="svg_54" stroke="#000000" stroke-opacity="0.5" transform="rotate(-1, 2074.57, 5292)" width="1889.143104" x="1129.99839" xlink:href="#laa" y="5248"/>
 </g>

</svg>