<?xml version="1.0" encoding="UTF-8" standalone="no"?><svg xmlns="http://www.w3.org/2000/svg" xmlns:xlink="http://www.w3.org/1999/xlink" height="6144.000000000001" width="4096">
 <g>
  <title>Layer 1</title>
  <rect class=" imageannotationLine imageannotationLinked" fill="#FFFF00" fill-opacity="0.2" height="120" id="svg_2" stroke="#000000" stroke-opacity="0.5" transform="rotate(90, 3524, 3554.75)" width="3662.500392" x="1692.75" xlink:href="#la" y="3494.750061"/>
  <rect class=" imageannotationLine imageannotationLinked" fill="#FFFF00" fill-opacity="0.2" height="100.090306" id="svg_4" stroke="#000000" stroke-opacity="0.5" transform="rotate(89, 3327.09, 3587.19)" width="3671.534944" x="1491.323263" xlink:href="#lb" y="3537.14433"/>
  <rect class=" imageannotationLine imageannotationLinked" fill="#FFFF00" fill-opacity="0.2" height="145.000005" id="svg_6" stroke="#000000" stroke-opacity="0.5" transform="rotate(90, 3159.25, 3320)" width="3077.500316" x="1620.499903" xlink:href="#lc" y="3247.500041"/>
  <rect class=" imageannotationLine imageannotationLinked" fill="#FFFF00" fill-opacity="0.2" height="90" id="svg_8" stroke="#000000" stroke-opacity="0.5" transform="rotate(90, 2974, 3379.75)" width="172.499999" x="2887.750065" xlink:href="#ld" y="3334.750046"/>
  <rect class=" imageannotationLine imageannotationLinked" fill="#FFFF00" fill-opacity="0.2" height="110.000002" id="svg_10" stroke="#000000" stroke-opacity="0.5" transform="rotate(90, 2844, 3422.25)" width="3297.500154" x="1195.250067" xlink:href="#le" y="3367.250062"/>
  <rect class=" imageannotationLine imageannotationLinked" fill="#FFFF00" fill-opacity="0.2" height="104.999996" id="svg_12" stroke="#000000" stroke-opacity="0.5" transform="rotate(90, 2646.5, 3357.25)" width="3167.500156" x="1062.749757" xlink:href="#lf" y="3304.749832"/>
  <rect class=" imageannotationLine imageannotationLinked" fill="#FFFF00" fill-opacity="0.2" height="95.000002" id="svg_14" stroke="#000000" stroke-opacity="0.5" transform="rotate(90, 2541.5, 3384.75)" width="3182.500262" x="950.249997" xlink:href="#lg" y="3337.250069"/>
  <rect class=" imageannotationLine imageannotationLinked" fill="#FFFF00" fill-opacity="0.2" height="95.000002" id="svg_16" stroke="#000000" stroke-opacity="0.5" transform="rotate(91, 2442.17, 3227.62)" width="2988.14814" x="948.09216" xlink:href="#lh" y="3180.123441"/>
  <rect class=" imageannotationLine imageannotationLinked" fill="#FFFF00" fill-opacity="0.2" height="140.174511" id="svg_18" stroke="#000000" stroke-opacity="0.5" transform="rotate(89, 1974.09, 3102.25)" width="2567.500072" x="690.338009" xlink:href="#li" y="3032.162027"/>
  <rect class=" imageannotationLine imageannotationLinked" fill="#FFFF00" fill-opacity="0.2" height="120" id="svg_20" stroke="#000000" stroke-opacity="0.5" transform="rotate(90, 1814, 3164.75)" width="2782.500092" x="422.750004" xlink:href="#lj" y="3104.750061"/>
  <rect class=" imageannotationLine imageannotationLinked" fill="#FFFF00" fill-opacity="0.2" height="130.000005" id="svg_22" stroke="#000000" stroke-opacity="0.5" transform="rotate(90, 1639, 3237.25)" width="2957.500163" x="160.250019" xlink:href="#lk" y="3172.25006"/>
  <rect class=" imageannotationLine imageannotationLinked" fill="#FFFF00" fill-opacity="0.2" height="130.085756" id="svg_24" stroke="#000000" stroke-opacity="0.5" transform="rotate(89, 1474.16, 2971.68)" width="2397.066082" x="275.627602" xlink:href="#ll" y="2906.637652"/>
  <rect class=" imageannotationLine imageannotationLinked" fill="#FFFF00" fill-opacity="0.2" height="110.699728" id="svg_26" stroke="#000000" stroke-opacity="0.5" transform="rotate(89, 1284.71, 3618.07)" width="1026.012065" x="771.705795" xlink:href="#lm" y="3562.717246"/>
  <rect class=" imageannotationLine imageannotationLinked" fill="#FFFF00" fill-opacity="0.2" height="95.000002" id="svg_28" stroke="#000000" stroke-opacity="0.5" transform="rotate(90, 1146.5, 3387.25)" width="3247.500391" x="-477.250037" xlink:href="#ln" y="3339.750033"/>
  <rect class=" imageannotationLine imageannotationLinked" fill="#FFFF00" fill-opacity="0.2" height="114.826185" id="svg_30" stroke="#000000" stroke-opacity="0.5" transform="rotate(89, 1026.74, 3541.1)" width="575.464704" x="739.008744" xlink:href="#lo" y="3483.685469"/>
  <rect class=" imageannotationLine imageannotationLinked" fill="#FFFF00" fill-opacity="0.2" height="105" id="svg_32" stroke="#000000" stroke-opacity="0.5" transform="rotate(91, 956.473, 3246.33)" width="3025.667018" x="-556.360649" xlink:href="#lp" y="3193.83378"/>
  <rect class=" imageannotationLine imageannotationLinked" fill="#FFFF00" fill-opacity="0.2" height="105" id="svg_35" stroke="#000000" stroke-opacity="0.5" transform="rotate(180, 2069, 5013.5)" width="2090" x="1024" xlink:href="#lq" y="4681.000244"/>
  <rect class=" imageannotationLine imageannotationLinked" fill="#FFFF00" fill-opacity="0.2" height="105" id="svg_37" stroke="#000000" stroke-opacity="0.5" transform="rotate(180, 2126.5, 5143.5)" width="1115.000058" x="1569.000391" xlink:href="#lr" y="5091.000244"/>
  <rect class=" imageannotationLine imageannotationLinked" fill="#FFFF00" fill-opacity="0.2" height="100.175288" id="svg_39" stroke="#000000" stroke-opacity="0.5" transform="rotate(179, 2054, 4936.26)" width="1990.800508" x="1058.60183" xlink:href="#ls" y="4886.169342"/>
  <rect class=" imageannotationLine imageannotationLinked" fill="#FFFF00" fill-opacity="0.2" height="105" id="svg_41" stroke="#000000" stroke-opacity="0.5" transform="rotate(180, 2076.5, 4743.5)" width="904.999998" x="1624.000372" xlink:href="#lt" y="4691.000244"/>
 </g>

</svg>