<?xml version="1.0" encoding="UTF-8" standalone="no"?><svg xmlns="http://www.w3.org/2000/svg" xmlns:xlink="http://www.w3.org/1999/xlink" height="6144.000000000001" width="4096">
 <g>
  <title>Layer 1</title>
  <rect class=" imageannotationLine imageannotationLinked" fill="#FFFF00" fill-opacity="0.2" height="120" id="svg_2" stroke="#000000" stroke-opacity="0.5" transform="rotate(90, 3429, 2510.09)" width="195.453197" x="3331.273404" xlink:href="#la" y="2450.087952"/>
  <rect class=" imageannotationLine imageannotationLinked" fill="#FFFF00" fill-opacity="0.2" height="120" id="svg_4" stroke="#000000" stroke-opacity="0.5" transform="rotate(88, 3409, 3212.59)" width="2740.454278" x="2038.773438" xlink:href="#lb" y="3152.587952"/>
  <rect class=" imageannotationLine imageannotationLinked" fill="#FFFF00" fill-opacity="0.2" height="120" id="svg_6" stroke="#000000" stroke-opacity="0.5" transform="rotate(88, 3274, 2925.09)" width="3765.454486" x="1391.273438" xlink:href="#lc" y="2865.087952"/>
  <rect class=" imageannotationLine imageannotationLinked" fill="#FFFF00" fill-opacity="0.2" height="120" id="svg_8" stroke="#000000" stroke-opacity="0.5" transform="rotate(89, 3039.44, 2924.08)" width="3791.597373" x="1143.64204" xlink:href="#ld" y="2864.073786"/>
  <rect class=" imageannotationLine imageannotationLinked" fill="#FFFF00" fill-opacity="0.2" height="120" id="svg_10" stroke="#000000" stroke-opacity="0.5" transform="rotate(90, 2884, 2522.59)" width="180.453207" x="2793.777362" xlink:href="#le" y="2462.591858"/>
  <rect class=" imageannotationLine imageannotationLinked" fill="#FFFF00" fill-opacity="0.2" height="120" id="svg_12" stroke="#000000" stroke-opacity="0.5" transform="rotate(88, 2734.91, 2921)" width="3845.45459" x="812.183594" xlink:href="#lf" y="2860.998108"/>
  <rect class=" imageannotationLine imageannotationLinked" fill="#FFFF00" fill-opacity="0.2" height="120" id="svg_16" stroke="#000000" stroke-opacity="0.5" transform="rotate(90, 2659, 4170.09)" width="605.453313" x="2356.273543" xlink:href="#lg" y="4110.087952"/>
  <rect class=" imageannotationLine imageannotationLinked" fill="#FFFF00" fill-opacity="0.2" height="120" id="svg_18" stroke="#000000" stroke-opacity="0.5" transform="rotate(88, 2438.99, 2854.91)" width="3635.105403" x="621.441757" xlink:href="#lh" y="2794.913619"/>
  <rect class=" imageannotationLine imageannotationLinked" fill="#FFFF00" fill-opacity="0.2" height="120" id="svg_20" stroke="#000000" stroke-opacity="0.5" transform="rotate(90, 2309, 3510.09)" width="935.453536" x="1841.277298" xlink:href="#li" y="3450.091858"/>
  <rect class=" imageannotationLine imageannotationLinked" fill="#FFFF00" fill-opacity="0.2" height="120" id="svg_22" stroke="#000000" stroke-opacity="0.5" transform="rotate(90, 2209, 2495.09)" width="255.453222" x="2081.273411" xlink:href="#lj" y="2435.087952"/>
  <rect class=" imageannotationLine imageannotationLinked" fill="#FFFF00" fill-opacity="0.2" height="105.002238" id="svg_24" stroke="#000000" stroke-opacity="0.5" transform="rotate(89, 2011.5, 2844.88)" width="3815.454461" x="103.777209" xlink:href="#lk" y="2792.375474"/>
  <rect class=" imageannotationLine imageannotationLinked" fill="#FFFF00" fill-opacity="0.2" height="130.00914" id="svg_26" stroke="#000000" stroke-opacity="0.5" transform="rotate(88, 1811.39, 2963.3)" width="3781.419244" x="-79.32194" xlink:href="#ll" y="2898.289491"/>
  <rect class=" imageannotationLine imageannotationLinked" fill="#FFFF00" fill-opacity="0.2" height="120" id="svg_28" stroke="#000000" stroke-opacity="0.5" transform="rotate(90, 1629, 2492.59)" width="210.453203" x="1523.777343" xlink:href="#lm" y="2432.591858"/>
  <rect class=" imageannotationLine imageannotationLinked" fill="#FFFF00" fill-opacity="0.2" height="95.003808" id="svg_38" stroke="#000000" stroke-opacity="0.5" transform="rotate(89, 1566.5, 2817.38)" width="3280.45431" x="-73.726135" xlink:href="#ln" y="2769.872228"/>
  <rect class=" imageannotationLine imageannotationLinked" fill="#FFFF00" fill-opacity="0.2" height="120" id="svg_40" stroke="#000000" stroke-opacity="0.5" transform="rotate(89, 1414, 2825.09)" width="3485.454354" x="-328.726562" xlink:href="#lo" y="2765.087952"/>
  <rect class=" imageannotationLine imageannotationLinked" fill="#FFFF00" fill-opacity="0.2" height="99.999998" id="svg_42" stroke="#000000" stroke-opacity="0.5" transform="rotate(90, 1269, 3537.59)" width="1070.453519" x="733.773795" xlink:href="#lp" y="3487.588951"/>
  <rect class=" imageannotationLine imageannotationLinked" fill="#FFFF00" fill-opacity="0.2" height="95.000002" id="svg_44" stroke="#000000" stroke-opacity="0.5" transform="rotate(90, 1206.5, 3072.59)" width="950.453416" x="731.277384" xlink:href="#lq" y="3025.091437"/>
  <rect class=" imageannotationLine imageannotationLinked" fill="#FFFF00" fill-opacity="0.2" height="120" id="svg_46" stroke="#000000" stroke-opacity="0.5" transform="rotate(89, 1099, 2907.59)" width="3640.454411" x="-721.226563" xlink:href="#lr" y="2847.587952"/>
  <rect class=" imageannotationLine imageannotationLinked" fill="#FFFF00" fill-opacity="0.2" height="99.999995" id="svg_48" stroke="#000000" stroke-opacity="0.5" transform="rotate(88, 972.514, 2870.05)" width="3415.331618" x="-735.150404" xlink:href="#ls" y="2820.052571"/>
  <rect class=" imageannotationLine imageannotationLinked" fill="#FFFF00" fill-opacity="0.2" height="70" id="svg_50" stroke="#000000" stroke-opacity="0.5" transform="rotate(90, 904, 3567.59)" width="230.453206" x="788.773446" xlink:href="#lt" y="3532.587952"/>
  <rect class=" imageannotationLine imageannotationLinked" fill="#FFFF00" fill-opacity="0.2" height="130.000006" id="svg_52" stroke="#000000" stroke-opacity="0.5" transform="rotate(90, 894.004, 4130.09)" width="505.453303" x="641.277075" xlink:href="#lu" y="4065.089275"/>
  <rect class=" imageannotationLine imageannotationLinked" fill="#FFFF00" fill-opacity="0.2" height="120.000001" id="svg_54" stroke="#000000" stroke-opacity="0.5" transform="rotate(90, 909, 2400.09)" width="235.453203" x="791.273247" xlink:href="#lv" y="2340.086475"/>
  <rect class=" imageannotationLine imageannotationLinked" fill="#FFFF00" fill-opacity="0.2" height="119.999997" id="svg_56" stroke="#000000" stroke-opacity="0.5" transform="rotate(90, 749.004, 2852.59)" width="3550.454587" x="-1026.222494" xlink:href="#lw" y="2792.590315"/>
  <rect class=" imageannotationLine imageannotationLinked" fill="#FFFF00" fill-opacity="0.2" height="124.999999" id="svg_58" stroke="#000000" stroke-opacity="0.5" transform="rotate(90, 646.5, 2857.59)" width="3410.454525" x="-1058.72664" xlink:href="#lx" y="2795.089554"/>
  <rect class=" imageannotationLine imageannotationLinked" fill="#FFFF00" fill-opacity="0.2" height="80.000004" id="svg_60" stroke="#000000" stroke-opacity="0.5" transform="rotate(90, 534, 2795.09)" width="3435.454342" x="-1183.726502" xlink:href="#ly" y="2755.087735"/>
 </g>

</svg>