<?xml version="1.0" encoding="UTF-8" standalone="no"?><svg xmlns="http://www.w3.org/2000/svg" xmlns:xlink="http://www.w3.org/1999/xlink" height="6144.000000000001" width="4096">
 <g>
  <title>Layer 1</title>
  <rect class=" imageannotationLine imageannotationLinked" fill="#FFFF00" fill-opacity="0.2" height="120" id="svg_2" stroke="#000000" stroke-opacity="0.5" transform="rotate(90, 3842.33, 1205.29)" width="355.980677" x="3664.343467" xlink:href="#la" y="1145.285217"/>
  <rect class=" imageannotationLine imageannotationLinked" fill="#FFFF00" fill-opacity="0.2" height="120" id="svg_4" stroke="#000000" stroke-opacity="0.5" transform="rotate(90, 3791.78, 2654.99)" width="201.009617" x="3691.274404" xlink:href="#lb" y="2594.989349"/>
  <rect class=" imageannotationLine imageannotationLinked" fill="#FFFF00" fill-opacity="0.2" height="120" id="svg_6" stroke="#000000" stroke-opacity="0.5" transform="rotate(88, 3597.34, 2949.44)" width="3445.454536" x="1874.60847" xlink:href="#lc" y="2889.436739"/>
  <rect class=" imageannotationLine imageannotationLinked" fill="#FFFF00" fill-opacity="0.2" height="120" id="svg_8" stroke="#000000" stroke-opacity="0.5" transform="rotate(90, 3458.45, 3341.1)" width="595.45445" x="3160.717533" xlink:href="#ld" y="3281.102587"/>
  <rect class=" imageannotationLine imageannotationLinked" fill="#FFFF00" fill-opacity="0.2" height="125.555549" id="svg_12" stroke="#000000" stroke-opacity="0.5" transform="rotate(90, 3472.33, 4493.88)" width="512.12013" x="3216.270908" xlink:href="#le" y="4431.102786"/>
  <rect class=" imageannotationLine imageannotationLinked" fill="#FFFF00" fill-opacity="0.2" height="120.193982" id="svg_14" stroke="#000000" stroke-opacity="0.5" transform="rotate(88, 3291.89, 2930.37)" width="3439.898967" x="1571.938719" xlink:href="#lf" y="2870.273955"/>
  <rect class=" imageannotationLine imageannotationLinked" fill="#FFFF00" fill-opacity="0.2" height="103.333333" id="svg_16" stroke="#000000" stroke-opacity="0.5" transform="rotate(90, 3094.56, 2571.66)" width="245.454471" x="2971.830218" xlink:href="#lg" y="2519.99263"/>
  <rect class=" imageannotationLine imageannotationLinked" fill="#FFFF00" fill-opacity="0.2" height="58.888996" id="svg_18" stroke="#000000" stroke-opacity="0.5" transform="rotate(90, 2989, 2241.1)" width="284.343765" x="2846.830882" xlink:href="#lh" y="2211.660062"/>
  <rect class=" imageannotationLine imageannotationLinked" fill="#FFFF00" fill-opacity="0.2" height="136.664128" id="svg_20" stroke="#000000" stroke-opacity="0.5" transform="rotate(89, 2950.5, 2955.08)" width="3423.128568" x="1238.93775" xlink:href="#li" y="2886.749731"/>
  <rect class=" imageannotationLine imageannotationLinked" fill="#FFFF00" fill-opacity="0.2" height="75.55609" id="svg_22" stroke="#000000" stroke-opacity="0.5" transform="rotate(90, 2864, 4435.55)" width="384.342516" x="2671.82901" xlink:href="#lj" y="4397.771029"/>
  <rect class=" imageannotationLine imageannotationLinked" fill="#FFFF00" fill-opacity="0.2" height="120" id="svg_24" stroke="#000000" stroke-opacity="0.5" transform="rotate(88, 2752.89, 2804.99)" width="3056.565568" x="1224.611646" xlink:href="#lk" y="2744.991558"/>
  <rect class=" imageannotationLine imageannotationLinked" fill="#FFFF00" fill-opacity="0.2" height="120" id="svg_26" stroke="#000000" stroke-opacity="0.5" transform="rotate(90, 2575.11, 2668.88)" width="217.676245" x="2466.274548" xlink:href="#ll" y="2608.88397"/>
  <rect class=" imageannotationLine imageannotationLinked" fill="#FFFF00" fill-opacity="0.2" height="125.555287" id="svg_28" stroke="#000000" stroke-opacity="0.5" transform="rotate(90, 2622.34, 4477.21)" width="412.121232" x="2416.278274" xlink:href="#lm" y="4414.43797"/>
  <rect class=" imageannotationLine imageannotationLinked" fill="#FFFF00" fill-opacity="0.2" height="131.111112" id="svg_30" stroke="#000000" stroke-opacity="0.5" transform="rotate(90, 2569.56, 3674.44)" width="1395.454353" x="1871.832223" xlink:href="#ln" y="3608.881281"/>
  <rect class=" imageannotationLine imageannotationLinked" fill="#FFFF00" fill-opacity="0.2" height="120" id="svg_32" stroke="#000000" stroke-opacity="0.5" transform="rotate(88, 2430.9, 2992.17)" width="3430.916193" x="715.436614" xlink:href="#lo" y="2932.171585"/>
  <rect class=" imageannotationLine imageannotationLinked" fill="#FFFF00" fill-opacity="0.2" height="97.777745" id="svg_34" stroke="#000000" stroke-opacity="0.5" transform="rotate(90, 2397.33, 4179.99)" width="384.341906" x="2205.161088" xlink:href="#lp" y="4131.101089"/>
  <rect class=" imageannotationLine imageannotationLinked" fill="#FFFF00" fill-opacity="0.2" height="101.105841" id="svg_36" stroke="#000000" stroke-opacity="0.5" transform="rotate(89, 2221.22, 2974.51)" width="3362.120382" x="540.159125" xlink:href="#lq" y="2923.953716"/>
  <rect class=" imageannotationLine imageannotationLinked" fill="#FFFF00" fill-opacity="0.2" height="81.111109" id="svg_38" stroke="#000000" stroke-opacity="0.5" transform="rotate(90, 2105.67, 4135.55)" width="362.119932" x="1924.608108" xlink:href="#lr" y="4094.991279"/>
  <rect class=" imageannotationLine imageannotationLinked" fill="#FFFF00" fill-opacity="0.2" height="120" id="svg_40" stroke="#000000" stroke-opacity="0.5" transform="rotate(90, 2025.11, 2610.55)" width="189.899251" x="1930.165144" xlink:href="#ls" y="2550.54694"/>
  <rect class=" imageannotationLine imageannotationLinked" fill="#FFFF00" fill-opacity="0.2" height="108.890584" id="svg_42" stroke="#000000" stroke-opacity="0.5" transform="rotate(89, 2008.45, 3221.56)" width="701.010252" x="1657.940274" xlink:href="#lt" y="3167.116379"/>
  <rect class=" imageannotationLine imageannotationLinked" fill="#FFFF00" fill-opacity="0.2" height="120" id="svg_44" stroke="#000000" stroke-opacity="0.5" transform="rotate(88, 1864, 2943.88)" width="3401.009984" x="163.498256" xlink:href="#lu" y="2883.878323"/>
  <rect class=" imageannotationLine imageannotationLinked" fill="#FFFF00" fill-opacity="0.2" height="81.111109" id="svg_46" stroke="#000000" stroke-opacity="0.5" transform="rotate(90, 1711.22, 3449.43)" width="356.563843" x="1532.941996" xlink:href="#lv" y="3408.87787"/>
  <rect class=" imageannotationLine imageannotationLinked" fill="#FFFF00" fill-opacity="0.2" height="64.444824" id="svg_48" stroke="#000000" stroke-opacity="0.5" transform="rotate(90, 1702.89, 3349.44)" width="1612.120648" x="896.829815" xlink:href="#lw" y="3317.214161"/>
  <rect class=" imageannotationLine imageannotationLinked" fill="#FFFF00" fill-opacity="0.2" height="114.44434" id="svg_50" stroke="#000000" stroke-opacity="0.5" transform="rotate(90, 1594.56, 3004.99)" width="3489.899111" x="-150.390409" xlink:href="#lx" y="2947.769234"/>
  <rect class=" imageannotationLine imageannotationLinked" fill="#FFFF00" fill-opacity="0.2" height="142.222714" id="svg_52" stroke="#000000" stroke-opacity="0.5" transform="rotate(90, 1425.11, 2538.33)" width="212.12092" x="1319.052962" xlink:href="#ly" y="2467.217608"/>
  <rect class=" imageannotationLine imageannotationLinked" fill="#FFFF00" fill-opacity="0.2" height="120" id="svg_54" stroke="#000000" stroke-opacity="0.5" transform="rotate(89, 1286.23, 3027.21)" width="3512.121133" x="-469.835086" xlink:href="#lz" y="2967.210648"/>
  <rect class=" imageannotationLine imageannotationLinked" fill="#FFFF00" fill-opacity="0.2" height="120" id="svg_56" stroke="#000000" stroke-opacity="0.5" transform="rotate(89, 1075.11, 2871.66)" width="3156.565505" x="-503.168943" xlink:href="#laa" y="2811.658651"/>
  <rect class=" imageannotationLine imageannotationLinked" fill="#FFFF00" fill-opacity="0.2" height="131.111112" id="svg_58" stroke="#000000" stroke-opacity="0.5" transform="rotate(90, 947.335, 4154.99)" width="1034.342468" x="430.163392" xlink:href="#lab" y="4089.436697"/>
  <rect class=" imageannotationLine imageannotationLinked" fill="#FFFF00" fill-opacity="0.2" height="131.204512" id="svg_60" stroke="#000000" stroke-opacity="0.5" transform="rotate(89, 786.323, 2874.53)" width="3239.801118" x="-833.576779" xlink:href="#lac" y="2808.926746"/>
  <rect class=" imageannotationLine imageannotationLinked" fill="#FFFF00" fill-opacity="0.2" height="86.670465" id="svg_62" stroke="#000000" stroke-opacity="0.5" transform="rotate(89, 652.889, 2366)" width="1434.342542" x="-64.281938" xlink:href="#lad" y="2322.665146"/>
  <rect class=" imageannotationLine imageannotationLinked" fill="#FFFF00" fill-opacity="0.2" height="120" id="svg_64" stroke="#000000" stroke-opacity="0.5" transform="rotate(90, 425.115, 2735.55)" width="1484.343548" x="-317.055093" xlink:href="#lae" y="2675.547873"/>
  <rect class=" imageannotationLine imageannotationLinked" fill="#FFFF00" fill-opacity="0.2" height="131.109424" id="svg_66" stroke="#000000" stroke-opacity="0.5" transform="rotate(91, 314.002, 2977.31)" width="3456.565675" x="-1414.281555" xlink:href="#laf" y="2911.75451"/>
  <rect class=" imageannotationLine imageannotationLinked" fill="#FFFF00" fill-opacity="0.2" height="92.222458" id="svg_68" stroke="#000000" stroke-opacity="0.5" transform="rotate(90, 177.893, 3021.66)" width="2067.676492" x="-855.945368" xlink:href="#lag" y="2975.550219"/>
 </g>
</svg>