<?xml version="1.0" encoding="UTF-8" standalone="no"?><svg xmlns="http://www.w3.org/2000/svg" xmlns:xlink="http://www.w3.org/1999/xlink" height="6144" width="4096">
 <g>
  <title>Layer 1</title>
  <rect class=" imageannotationLine imageannotationLinked" fill="#FFFF00" fill-opacity="0.2" height="123.999996" id="svg_2" stroke="#000000" stroke-opacity="0.5" transform="rotate(180, 2071.28, 5726)" width="1666.909123" x="1237.818493" xlink:href="#la" y="5663.995126"/>
  <rect class=" imageannotationLine imageannotationLinked" fill="#FFFF00" fill-opacity="0.2" height="120" id="svg_4" stroke="#000000" stroke-opacity="0.5" transform="rotate(179, 2169.17, 5540.35)" width="1703.112404" x="1317.617731" xlink:href="#lb" y="5480.346443"/>
  <rect class=" imageannotationLine imageannotationLinked" fill="#FFFF00" fill-opacity="0.2" height="72.000003" id="svg_6" stroke="#000000" stroke-opacity="0.5" transform="rotate(179, 1999.28, 5432)" width="394.90994" x="1801.820287" xlink:href="#lc" y="5395.996108"/>
  <rect class=" imageannotationLine imageannotationLinked" fill="#FFFF00" fill-opacity="0.2" height="103.999998" id="svg_8" stroke="#000000" stroke-opacity="0.5" transform="rotate(179, 2153.27, 5327.99)" width="1678.909137" x="1313.817991" xlink:href="#ld" y="5275.994203"/>
  <rect class=" imageannotationLine imageannotationLinked" fill="#FFFF00" fill-opacity="0.2" height="92.000001" id="svg_10" stroke="#000000" stroke-opacity="0.5" transform="rotate(179, 2145.27, 5126.1)" width="1678.907405" x="1305.820501" xlink:href="#le" y="5080.096456"/>
  <rect class=" imageannotationLine imageannotationLinked" fill="#FFFF00" fill-opacity="0.2" height="127.782043" id="svg_12" stroke="#000000" stroke-opacity="0.5" transform="rotate(179, 2157.76, 4955.88)" width="1694.909156" x="1310.305824" xlink:href="#lf" y="4891.991755"/>
  <rect class=" imageannotationLine imageannotationLinked" fill="#FFFF00" fill-opacity="0.2" height="80.000004" id="svg_14" stroke="#000000" stroke-opacity="0.5" transform="rotate(180, 2845.28, 4836)" width="462.909872" x="2613.81978" xlink:href="#lg" y="4795.99607"/>
  <rect class=" imageannotationLine imageannotationLinked" fill="#FFFF00" fill-opacity="0.2" height="119.999997" id="svg_16" stroke="#000000" stroke-opacity="0.5" transform="rotate(180, 2137.28, 4768)" width="1726.909088" x="1273.825266" xlink:href="#lh" y="4707.99615"/>
  <rect class=" imageannotationLine imageannotationLinked" fill="#FFFF00" fill-opacity="0.2" height="119.999997" id="svg_18" stroke="#000000" stroke-opacity="0.5" transform="rotate(180, 2191.28, 4584)" width="1658.909113" x="1361.818501" xlink:href="#li" y="4523.995995"/>
  <rect class=" imageannotationLine imageannotationLinked" fill="#FFFF00" fill-opacity="0.2" height="115.932015" id="svg_20" stroke="#000000" stroke-opacity="0.5" transform="rotate(179, 2189.38, 4414.03)" width="1678.909137" x="1349.924119" xlink:href="#lj" y="4356.063416"/>
  <rect class=" imageannotationLine imageannotationLinked" fill="#FFFF00" fill-opacity="0.2" height="115.932014" id="svg_23" stroke="#000000" stroke-opacity="0.5" transform="rotate(180, 2210.67, 4191.37)" width="693.334362" x="1863.999142" xlink:href="#lk" y="4133.401562"/>
  <rect class=" imageannotationLine imageannotationLinked" fill="#FFFF00" fill-opacity="0.2" height="115.932014" id="svg_25" stroke="#000000" stroke-opacity="0.5" transform="rotate(88, 2955.2, 2132.19)" width="3489.878647" x="1210.262302" xlink:href="#ll" y="2074.223276"/>
  <rect class=" imageannotationLine imageannotationLinked" fill="#FFFF00" fill-opacity="0.2" height="115.932014" id="svg_27" stroke="#000000" stroke-opacity="0.5" transform="rotate(89, 2774.74, 2283.5)" width="3955.015055" x="797.23492" xlink:href="#lm" y="2225.53273"/>
  <rect class=" imageannotationLine imageannotationLinked" fill="#FFFF00" fill-opacity="0.2" height="121.963167" id="svg_29" stroke="#000000" stroke-opacity="0.5" transform="rotate(89, 2608.72, 2051.76)" width="3542.083396" x="837.683363" xlink:href="#ln" y="1990.783195"/>
  <rect class=" imageannotationLine imageannotationLinked" fill="#FFFF00" fill-opacity="0.2" height="128.424156" id="svg_31" stroke="#000000" stroke-opacity="0.5" transform="rotate(88, 2412.01, 2218.97)" width="3698.333311" x="562.839415" xlink:href="#lo" y="2154.757059"/>
  <rect class=" imageannotationLine imageannotationLinked" fill="#FFFF00" fill-opacity="0.2" height="78.432529" id="svg_33" stroke="#000000" stroke-opacity="0.5" transform="rotate(90, 2343.21, 2433.29)" width="329.582151" x="2178.420268" xlink:href="#lp" y="2394.072027"/>
  <rect class=" imageannotationLine imageannotationLinked" fill="#FFFF00" fill-opacity="0.2" height="115.932014" id="svg_35" stroke="#000000" stroke-opacity="0.5" transform="rotate(88, 2255.71, 2217.66)" width="3798.33349" x="356.545054" xlink:href="#lq" y="2159.696343"/>
  <rect class=" imageannotationLine imageannotationLinked" fill="#FFFF00" fill-opacity="0.2" height="115.932014" id="svg_37" stroke="#000000" stroke-opacity="0.5" transform="rotate(88, 2105.71, 2527.04)" width="4417.083747" x="-102.830243" xlink:href="#lr" y="2469.071343"/>
  <rect class=" imageannotationLine imageannotationLinked" fill="#FFFF00" fill-opacity="0.2" height="140.698331" id="svg_39" stroke="#000000" stroke-opacity="0.5" transform="rotate(88, 1899.34, 1167.23)" width="1673.332559" x="1062.671918" xlink:href="#ls" y="1096.881165"/>
  <rect class=" imageannotationLine imageannotationLinked" fill="#FFFF00" fill-opacity="0.2" height="115.932014" id="svg_41" stroke="#000000" stroke-opacity="0.5" transform="rotate(88, 1761.96, 2208.29)" width="3679.583365" x="-77.829889" xlink:href="#lt" y="2150.321342"/>
  <rect class=" imageannotationLine imageannotationLinked" fill="#FFFF00" fill-opacity="0.2" height="121.741891" id="svg_43" stroke="#000000" stroke-opacity="0.5" transform="rotate(88, 1577.37, 2026.94)" width="3354.583303" x="-99.926716" xlink:href="#lu" y="1966.064965"/>
  <rect class=" imageannotationLine imageannotationLinked" fill="#FFFF00" fill-opacity="0.2" height="128.429942" id="svg_45" stroke="#000000" stroke-opacity="0.5" transform="rotate(89, 1436.96, 2020.68)" width="3354.583303" x="-240.331739" xlink:href="#lv" y="1956.463337"/>
  <rect class=" imageannotationLine imageannotationLinked" fill="#FFFF00" fill-opacity="0.2" height="115.932014" id="svg_47" stroke="#000000" stroke-opacity="0.5" transform="rotate(89, 1324.09, 2396.01)" width="3992.526417" x="-672.179405" xlink:href="#lw" y="2338.046293"/>
 </g>

</svg>