<?xml version="1.0" encoding="UTF-8" standalone="no"?><svg xmlns="http://www.w3.org/2000/svg" xmlns:xlink="http://www.w3.org/1999/xlink" height="6144.000000000001" width="4096">
 <g>
  <title>Layer 1</title>
  <rect class=" imageannotationLine imageannotationLinked" fill="#FFFF00" fill-opacity="0.2" height="95.091069" id="svg_2" stroke="#000000" stroke-opacity="0.5" transform="rotate(-89, 193.264, 1958.29)" width="1831.292371" x="-722.381238" xlink:href="#la" y="1910.743393"/>
  <rect class=" imageannotationLine imageannotationLinked" fill="#FFFF00" fill-opacity="0.2" height="105.088865" id="svg_4" stroke="#000000" stroke-opacity="0.5" transform="rotate(-89, 376.46, 1988.27)" width="1816.363623" x="-531.72056" xlink:href="#lb" y="1935.722071"/>
  <rect class=" imageannotationLine imageannotationLinked" fill="#FFFF00" fill-opacity="0.2" height="124.999995" id="svg_6" stroke="#000000" stroke-opacity="0.5" transform="rotate(-89, 576.066, 1968.26)" width="1886.371207" x="-367.121692" xlink:href="#lc" y="1905.759123"/>
  <rect class=" imageannotationLine imageannotationLinked" fill="#FFFF00" fill-opacity="0.2" height="114.999998" id="svg_8" stroke="#000000" stroke-opacity="0.5" transform="rotate(-89, 791.412, 1963.22)" width="1886.452375" x="-151.814661" xlink:href="#ld" y="1905.717718"/>
  <rect class=" imageannotationLine imageannotationLinked" fill="#FFFF00" fill-opacity="0.2" height="110.001526" id="svg_10" stroke="#000000" stroke-opacity="0.5" transform="rotate(-89, 979, 2000.85)" width="1821.363621" x="68.31685" xlink:href="#le" y="1945.853091"/>
  <rect class=" imageannotationLine imageannotationLinked" fill="#FFFF00" fill-opacity="0.2" height="120" id="svg_12" stroke="#000000" stroke-opacity="0.5" transform="rotate(-89, 1173.78, 2005.72)" width="1791.454742" x="278.055514" xlink:href="#lf" y="1945.719103"/>
  <rect class=" imageannotationLine imageannotationLinked" fill="#FFFF00" fill-opacity="0.2" height="115.000763" id="svg_14" stroke="#000000" stroke-opacity="0.5" transform="rotate(-89, 1391.5, 1995.81)" width="1821.363571" x="480.817454" xlink:href="#lg" y="1938.309909"/>
  <rect class=" imageannotationLine imageannotationLinked" fill="#FFFF00" fill-opacity="0.2" height="125.352799" id="svg_16" stroke="#000000" stroke-opacity="0.5" transform="rotate(-88, 1581.57, 1981.16)" width="1851.18613" x="655.979069" xlink:href="#lh" y="1918.480879"/>
  <rect class=" imageannotationLine imageannotationLinked" fill="#FFFF00" fill-opacity="0.2" height="120" id="svg_18" stroke="#000000" stroke-opacity="0.5" transform="rotate(-89, 1769, 2083.27)" width="1626.363571" x="955.818679" xlink:href="#li" y="2023.266785"/>
  <rect class=" imageannotationLine imageannotationLinked" fill="#FFFF00" fill-opacity="0.2" height="115.000763" id="svg_20" stroke="#000000" stroke-opacity="0.5" transform="rotate(-89, 1966.5, 1953.31)" width="1816.363663" x="1058.317599" xlink:href="#lj" y="1895.809789"/>
  <rect class=" imageannotationLine imageannotationLinked" fill="#FFFF00" fill-opacity="0.2" height="124.996948" id="svg_22" stroke="#000000" stroke-opacity="0.5" transform="rotate(-88, 2171.5, 1968.18)" width="1866.363681" x="1238.321523" xlink:href="#lk" y="1905.681443"/>
  <rect class=" imageannotationLine imageannotationLinked" fill="#FFFF00" fill-opacity="0.2" height="115.52654" id="svg_24" stroke="#000000" stroke-opacity="0.5" transform="rotate(-88, 2386.24, 2030.84)" width="1751.363605" x="1510.553354" xlink:href="#ll" y="1973.081022"/>
  <rect class=" imageannotationLine imageannotationLinked" fill="#FFFF00" fill-opacity="0.2" height="115.177456" id="svg_26" stroke="#000000" stroke-opacity="0.5" transform="rotate(-88, 2600.2, 2023.48)" width="1766.93549" x="1716.735962" xlink:href="#lm" y="1965.893994"/>
  <rect class=" imageannotationLine imageannotationLinked" fill="#FFFF00" fill-opacity="0.2" height="120" id="svg_28" stroke="#000000" stroke-opacity="0.5" transform="rotate(-87, 2783.36, 1963.1)" width="1856.659525" x="1855.024089" xlink:href="#ln" y="1903.102014"/>
  <rect class=" imageannotationLine imageannotationLinked" fill="#FFFF00" fill-opacity="0.2" height="120" id="svg_30" stroke="#000000" stroke-opacity="0.5" transform="rotate(-87, 2994, 1960.77)" width="1881.363641" x="2053.318292" xlink:href="#lo" y="1900.766663"/>
  <rect class=" imageannotationLine imageannotationLinked" fill="#FFFF00" fill-opacity="0.2" height="120" id="svg_32" stroke="#000000" stroke-opacity="0.5" transform="rotate(-87, 3184, 1960.77)" width="1931.363699" x="2218.318364" xlink:href="#lp" y="1900.766785"/>
  <rect class=" imageannotationLine imageannotationLinked" fill="#FFFF00" fill-opacity="0.2" height="120" id="svg_34" stroke="#000000" stroke-opacity="0.5" transform="rotate(-87, 3384, 2003.27)" width="1816.363623" x="2475.818604" xlink:href="#lq" y="1943.2669"/>
  <rect class=" imageannotationLine imageannotationLinked" fill="#FFFF00" fill-opacity="0.2" height="120" id="svg_36" stroke="#000000" stroke-opacity="0.5" transform="rotate(-88, 3583.85, 2032.94)" width="1771.464156" x="2698.117524" xlink:href="#lr" y="1972.939865"/>
  <rect class=" imageannotationLine imageannotationLinked" fill="#FFFF00" fill-opacity="0.2" height="120" id="svg_38" stroke="#000000" stroke-opacity="0.5" transform="rotate(-86, 3728.36, 1974.97)" width="1842.912313" x="2806.900618" xlink:href="#ls" y="1914.970033"/>
  <rect class=" imageannotationLine imageannotationLinked" fill="#FFFF00" fill-opacity="0.2" height="110.013707" id="svg_40" stroke="#000000" stroke-opacity="0.5" transform="rotate(-87, 3909.52, 2170.78)" width="1421.868807" x="3198.583892" xlink:href="#lt" y="2115.775701"/>
 </g>
</svg>