<?xml version="1.0" encoding="UTF-8" standalone="no"?><svg xmlns="http://www.w3.org/2000/svg" xmlns:xlink="http://www.w3.org/1999/xlink" height="6144" width="4096">
 <g>
  <title>Layer 1</title>
  <rect class=" imageannotationLine imageannotationLinked" fill="#FFFF00" fill-opacity="0.2" height="83.999998" id="svg_2" stroke="#000000" stroke-opacity="0.5" transform="rotate(180, 1427.64, 5230)" width="1450.182906" x="702.547509" xlink:href="#la" y="5187.999931"/>
  <rect class=" imageannotationLine imageannotationLinked" fill="#FFFF00" fill-opacity="0.2" height="84" id="svg_4" stroke="#000000" stroke-opacity="0.5" transform="rotate(180, 1419.64, 5066)" width="1506.1828" x="666.549041" xlink:href="#lb" y="5024"/>
  <rect class=" imageannotationLine imageannotationLinked" fill="#FFFF00" fill-opacity="0.2" height="72.000001" id="svg_6" stroke="#000000" stroke-opacity="0.5" transform="rotate(180, 1453.64, 4884)" width="1486.182825" x="710.548999" xlink:href="#lc" y="4847.998062"/>
  <rect class=" imageannotationLine imageannotationLinked" fill="#FFFF00" fill-opacity="0.2" height="59.999999" id="svg_8" stroke="#000000" stroke-opacity="0.5" transform="rotate(180, 1433.64, 4706)" width="1534.182779" x="666.548313" xlink:href="#ld" y="4676.000986"/>
  <rect class=" imageannotationLine imageannotationLinked" fill="#FFFF00" fill-opacity="0.2" height="83.999997" id="svg_10" stroke="#000000" stroke-opacity="0.5" transform="rotate(180, 1465.64, 4522)" width="1478.18276" x="726.547778" xlink:href="#le" y="4479.997895"/>
  <rect class=" imageannotationLine imageannotationLinked" fill="#FFFF00" fill-opacity="0.2" height="72.000001" id="svg_12" stroke="#000000" stroke-opacity="0.5" transform="rotate(180, 1485.64, 4336)" width="1390.182932" x="790.547761" xlink:href="#lf" y="4300.000028"/>
  <rect class=" imageannotationLine imageannotationLinked" fill="#FFFF00" fill-opacity="0.2" height="72" id="svg_14" stroke="#000000" stroke-opacity="0.5" transform="rotate(180, 1425.64, 4144)" width="1526.182717" x="662.547582" xlink:href="#lg" y="4108"/>
  <rect class=" imageannotationLine imageannotationLinked" fill="#FFFF00" fill-opacity="0.2" height="75.999998" id="svg_16" stroke="#000000" stroke-opacity="0.5" transform="rotate(180, 1471.64, 3958)" width="1434.182786" x="754.549766" xlink:href="#lh" y="3920.00096"/>
  <rect class=" imageannotationLine imageannotationLinked" fill="#FFFF00" fill-opacity="0.2" height="76" id="svg_18" stroke="#000000" stroke-opacity="0.5" transform="rotate(180, 1481.64, 3786)" width="1446.182752" x="758.548925" xlink:href="#li" y="3748"/>
  <rect class=" imageannotationLine imageannotationLinked" fill="#FFFF00" fill-opacity="0.2" height="76" id="svg_20" stroke="#000000" stroke-opacity="0.5" transform="rotate(180, 1463.64, 3594)" width="1442.182765" x="742.548308" xlink:href="#lj" y="3556"/>
  <rect class=" imageannotationLine imageannotationLinked" fill="#FFFF00" fill-opacity="0.2" height="76" id="svg_22" stroke="#000000" stroke-opacity="0.5" transform="rotate(180, 1441.64, 3406)" width="1526.182693" x="678.548594" xlink:href="#lk" y="3368"/>
  <rect class=" imageannotationLine imageannotationLinked" fill="#FFFF00" fill-opacity="0.2" height="76.000004" id="svg_26" stroke="#000000" stroke-opacity="0.5" transform="rotate(180, 1429.64, 3210)" width="1558.182774" x="650.546852" xlink:href="#ll" y="3171.999502"/>
  <rect class=" imageannotationLine imageannotationLinked" fill="#FFFF00" fill-opacity="0.2" height="76" id="svg_28" stroke="#000000" stroke-opacity="0.5" transform="rotate(180, 1461.64, 3038)" width="1518.182674" x="702.546194" xlink:href="#lm" y="3000"/>
  <rect class=" imageannotationLine imageannotationLinked" fill="#FFFF00" fill-opacity="0.2" height="83.999998" id="svg_30" stroke="#000000" stroke-opacity="0.5" transform="rotate(180, 1455.64, 2858)" width="1546.182783" x="682.548838" xlink:href="#ln" y="2816.002878"/>
  <rect class=" imageannotationLine imageannotationLinked" fill="#FFFF00" fill-opacity="0.2" height="84" id="svg_32" stroke="#000000" stroke-opacity="0.5" transform="rotate(180, 1467.64, 2674)" width="1498.182833" x="718.547546" xlink:href="#lo" y="2632"/>
  <rect class=" imageannotationLine imageannotationLinked" fill="#FFFF00" fill-opacity="0.2" height="83.93022" id="svg_34" stroke="#000000" stroke-opacity="0.5" transform="rotate(179, 1675.32, 2497.62)" width="1065.576432" x="1142.529929" xlink:href="#lp" y="2455.650317"/>
  <rect class=" imageannotationLine imageannotationLinked" fill="#FFFF00" fill-opacity="0.2" height="107.930374" id="svg_36" stroke="#000000" stroke-opacity="0.5" transform="rotate(180, 3655.64, 5194.04)" width="130.183524" x="3590.548845" xlink:href="#lq" y="5140.071622"/>
  <rect class=" imageannotationLine imageannotationLinked" fill="#FFFF00" fill-opacity="0.2" height="107.930374" id="svg_38" stroke="#000000" stroke-opacity="0.5" transform="rotate(180, 2973.64, 5010.04)" width="1390.182889" x="2278.548206" xlink:href="#lr" y="4956.069626"/>
  <rect class=" imageannotationLine imageannotationLinked" fill="#FFFF00" fill-opacity="0.2" height="107.930374" id="svg_40" stroke="#000000" stroke-opacity="0.5" transform="rotate(180, 3255.64, 4846.04)" width="474.183325" x="3018.547397" xlink:href="#ls" y="4792.069626"/>
  <rect class=" imageannotationLine imageannotationLinked" fill="#FFFF00" fill-opacity="0.2" height="131.930533" id="svg_42" stroke="#000000" stroke-opacity="0.5" transform="rotate(180, 2611.64, 4738.03)" width="282.183445" x="2470.547154" xlink:href="#lt" y="4672.06843"/>
 </g>

</svg>