<?xml version="1.0" encoding="UTF-8" standalone="no"?><svg xmlns="http://www.w3.org/2000/svg" xmlns:xlink="http://www.w3.org/1999/xlink" height="6144" width="4096">
 <g>
  <title>Layer 1</title>
  <rect class=" imageannotationLine imageannotationLinked" fill="#FFFF00" fill-opacity="0.2" height="95.000002" id="svg_2" stroke="#000000" stroke-opacity="0.5" transform="rotate(90, 3703.16, 3506)" width="579.999962" x="3413.164083" xlink:href="#la" y="3458.500838"/>
  <rect class=" imageannotationLine imageannotationLinked" fill="#FFFF00" fill-opacity="0.2" height="124.999237" id="svg_4" stroke="#000000" stroke-opacity="0.5" transform="rotate(89, 3553.16, 2293.46)" width="2765.000404" x="2170.663646" xlink:href="#Wenn" y="2230.958027"/>
  <rect class=" imageannotationLine imageannotationLinked" fill="#FFFF00" fill-opacity="0.2" height="120" id="svg_6" stroke="#000000" stroke-opacity="0.5" transform="rotate(90, 3368.99, 1737.66)" width="1883.333564" x="2427.330016" xlink:href="#lb" y="1677.662824"/>
  <rect class=" imageannotationLine imageannotationLinked" fill="#FFFF00" fill-opacity="0.2" height="119.301712" id="svg_8" stroke="#000000" stroke-opacity="0.5" transform="rotate(89, 3188.65, 2253.77)" width="2835.000473" x="1771.14992" xlink:href="#lc" y="2194.118338"/>
  <rect class=" imageannotationLine imageannotationLinked" fill="#FFFF00" fill-opacity="0.2" height="115.52654" id="svg_10" stroke="#000000" stroke-opacity="0.5" transform="rotate(88, 3011.67, 1446.08)" width="1270.003104" x="2376.67179" xlink:href="#ld" y="1388.316071"/>
  <rect class=" imageannotationLine imageannotationLinked" fill="#FFFF00" fill-opacity="0.2" height="122.634274" id="svg_12" stroke="#000000" stroke-opacity="0.5" transform="rotate(89, 2840.31, 2500.92)" width="3170.000472" x="1255.312233" xlink:href="#Meer" y="2439.600202"/>
  <rect class=" imageannotationLine imageannotationLinked" fill="#FFFF00" fill-opacity="0.2" height="118.333833" id="svg_14" stroke="#000000" stroke-opacity="0.5" transform="rotate(91, 2509.83, 1756.83)" width="1931.666969" x="1544.001868" xlink:href="#Tochter" y="1697.669247"/>
  <rect class=" imageannotationLine imageannotationLinked" fill="#FFFF00" fill-opacity="0.2" height="73.33315" id="svg_16" stroke="#000000" stroke-opacity="0.5" transform="rotate(90, 2344, 1606)" width="139.999967" x="2274.000034" xlink:href="#le" y="1569.336361"/>
  <rect class=" imageannotationLine imageannotationLinked" fill="#FFFF00" fill-opacity="0.2" height="113.333755" id="svg_18" stroke="#000000" stroke-opacity="0.5" transform="rotate(91, 2237.33, 1936)" width="2290.000435" x="1092.33203" xlink:href="#Vater" y="1879.335305"/>
  <rect class=" imageannotationLine imageannotationLinked" fill="#FFFF00" fill-opacity="0.2" height="113.333755" id="svg_20" stroke="#000000" stroke-opacity="0.5" transform="rotate(90, 2100.67, 1685.17)" width="155.000465" x="2023.166536" xlink:href="#lf" y="1628.500637"/>
  <rect class=" imageannotationLine imageannotationLinked" fill="#FFFF00" fill-opacity="0.2" height="133.334065" id="svg_22" stroke="#000000" stroke-opacity="0.5" transform="rotate(90, 1965.67, 1194.33)" width="946.666784" x="1492.333007" xlink:href="#Schon" y="1127.668728"/>
  <rect class=" imageannotationLine imageannotationLinked" fill="#FFFF00" fill-opacity="0.2" height="95.614011" id="svg_24" stroke="#000000" stroke-opacity="0.5" transform="rotate(88, 1838.29, 1941.81)" width="2235.964659" x="720.308638" xlink:href="#lg" y="1894.005752"/>
  <rect class=" imageannotationLine imageannotationLinked" fill="#FFFF00" fill-opacity="0.2" height="86.666679" id="svg_26" stroke="#000000" stroke-opacity="0.5" transform="rotate(88, 1787.33, 2558.5)" width="325.000034" x="1624.828164" xlink:href="#lh" y="2515.164925"/>
  <rect class=" imageannotationLine imageannotationLinked" fill="#FFFF00" fill-opacity="0.2" height="96.752573" id="svg_28" stroke="#000000" stroke-opacity="0.5" transform="rotate(88, 1732.38, 1926.56)" width="2310.962019" x="576.89829" xlink:href="#li" y="1878.188844"/>
  <rect class=" imageannotationLine imageannotationLinked" fill="#FFFF00" fill-opacity="0.2" height="86.666679" id="svg_30" stroke="#000000" stroke-opacity="0.5" transform="rotate(90, 1602.33, 1151)" width="640.000105" x="1282.32812" xlink:href="#lj" y="1107.664925"/>
  <rect class=" imageannotationLine imageannotationLinked" fill="#FFFF00" fill-opacity="0.2" height="86.687997" id="svg_32" stroke="#000000" stroke-opacity="0.5" transform="rotate(92, 1442.35, 1565.39)" width="1480.000336" x="702.349223" xlink:href="#lk" y="1522.04375"/>
  <rect class=" imageannotationLine imageannotationLinked" fill="#FFFF00" fill-opacity="0.2" height="111.491132" id="svg_34" stroke="#000000" stroke-opacity="0.5" transform="rotate(90, 1299.91, 1925.96)" width="2200.000452" x="199.916131" xlink:href="#ll" y="1870.210393"/>
  <rect class=" imageannotationLine imageannotationLinked" fill="#FFFF00" fill-opacity="0.2" height="104.449315" id="svg_36" stroke="#000000" stroke-opacity="0.5" transform="rotate(92, 1096.83, 2194.32)" width="2928.702819" x="-367.519263" xlink:href="#Ozean" y="2142.096348"/>
  <rect class=" imageannotationLine imageannotationLinked" fill="#FFFF00" fill-opacity="0.2" height="86.666679" id="svg_38" stroke="#000000" stroke-opacity="0.5" transform="rotate(90, 942.328, 1658.5)" width="1615.000313" x="134.828115" xlink:href="#Vom" y="1615.164925"/>
  <rect class=" imageannotationLine imageannotationLinked" fill="#FFFF00" fill-opacity="0.2" height="86.666679" id="svg_40" stroke="#000000" stroke-opacity="0.5" transform="rotate(88, 862.328, 1903.5)" width="2205.000388" x="-240.171878" xlink:href="#lm" y="1860.164925"/>
  <rect class=" imageannotationLine imageannotationLinked" fill="#FFFF00" fill-opacity="0.2" height="86.666679" id="svg_42" stroke="#000000" stroke-opacity="0.5" transform="rotate(89, 756.203, 1891.27)" width="2180.499891" x="-334.047373" xlink:href="#ln" y="1847.934357"/>
  <rect class=" imageannotationLine imageannotationLinked" fill="#FFFF00" fill-opacity="0.2" height="86.666679" id="svg_44" stroke="#000000" stroke-opacity="0.5" transform="rotate(88, 657.328, 2068.5)" width="2535.000325" x="-610.171873" xlink:href="#Goenn" y="2025.164925"/>
  <rect class=" imageannotationLine imageannotationLinked" fill="#FFFF00" fill-opacity="0.2" height="66.666977" id="svg_47" stroke="#000000" stroke-opacity="0.5" transform="rotate(90, 3508.33, 552.498)" width="128" x="3444.332013" xlink:href="#lo" y="519.164729"/>
  <rect class=" imageannotationLine imageannotationLinked" fill="#FFFF00" fill-opacity="0.2" height="58.667095" id="svg_49" stroke="#000000" stroke-opacity="0.5" transform="rotate(90, 2789.33, 580.498)" width="128" x="2725.331986" xlink:href="#lp" y="551.164729"/>
  <rect class=" imageannotationLine imageannotationLinked" fill="#FFFF00" fill-opacity="0.2" height="54.667157" id="svg_51" stroke="#000000" stroke-opacity="0.5" transform="rotate(90, 2470.33, 658.498)" width="140.000007" x="2400.331973" xlink:href="#lq" y="631.164594"/>
  <rect class=" imageannotationLine imageannotationLinked" fill="#FFFF00" fill-opacity="0.2" height="54.667157" id="svg_53" stroke="#000000" stroke-opacity="0.5" transform="rotate(90, 2217.33, 666.498)" width="124" x="2155.331978" xlink:href="#lr" y="639.164619"/>
  <rect class=" imageannotationLine imageannotationLinked" fill="#FFFF00" fill-opacity="0.2" height="62.667039" id="svg_55" stroke="#000000" stroke-opacity="0.5" transform="rotate(90, 1945.33, 504.498)" width="112.000007" x="1889.33219" xlink:href="#ls" y="473.164737"/>
  <rect class=" imageannotationLine imageannotationLinked" fill="#FFFF00" fill-opacity="0.2" height="66.666977" id="svg_57" stroke="#000000" stroke-opacity="0.5" transform="rotate(90, 927.332, 552.498)" width="120.000003" x="867.331972" xlink:href="#lt" y="519.164668"/>
  <rect class=" imageannotationLine imageannotationLinked" fill="#FFFF00" fill-opacity="0.2" height="62.667039" id="svg_59" stroke="#000000" stroke-opacity="0.5" transform="rotate(90, 634.332, 570.498)" width="148.000007" x="560.332025" xlink:href="#lu" y="539.164661"/>
  <rect class=" imageannotationLine imageannotationLinked" fill="#FFFF00" fill-opacity="0.2" height="121.792929" id="svg_62" stroke="#000000" stroke-opacity="0.5" transform="rotate(92, 2509.07, 4573.48)" width="1945.355022" x="1536.392363" xlink:href="#Was_waere" y="4512.578806"/>
  <rect class=" imageannotationLine imageannotationLinked" fill="#FFFF00" fill-opacity="0.2" height="114.666273" id="svg_64" stroke="#000000" stroke-opacity="0.5" transform="rotate(90, 2373.33, 4902)" width="552.000088" x="2097.32889" xlink:href="#lv" y="4844.660248"/>
  <rect class=" imageannotationLine imageannotationLinked" fill="#FFFF00" fill-opacity="0.2" height="129.83639" id="svg_66" stroke="#000000" stroke-opacity="0.5" transform="rotate(94, 2244.96, 4616.96)" width="2024.000122" x="1232.963361" xlink:href="#lw" y="4552.043003"/>
  <rect class=" imageannotationLine imageannotationLinked" fill="#FFFF00" fill-opacity="0.2" height="106.666382" id="svg_68" stroke="#000000" stroke-opacity="0.5" transform="rotate(90, 2053.33, 5154)" width="960.00005" x="1573.332308" xlink:href="#lx" y="5100.665672"/>
  <rect class=" imageannotationLine imageannotationLinked" fill="#FFFF00" fill-opacity="0.2" height="114.243916" id="svg_70" stroke="#000000" stroke-opacity="0.5" transform="rotate(89, 1773.26, 4607.86)" width="2020.000068" x="763.262841" xlink:href="#Was_flamt" y="4550.738111"/>
  <rect class=" imageannotationLine imageannotationLinked" fill="#FFFF00" fill-opacity="0.2" height="86.74012" id="svg_72" stroke="#000000" stroke-opacity="0.5" transform="rotate(89, 1651.3, 5056.14)" width="1036.000071" x="1133.296727" xlink:href="#ly" y="5012.767695"/>
  <rect class=" imageannotationLine imageannotationLinked" fill="#FFFF00" fill-opacity="0.2" height="118.666204" id="svg_74" stroke="#000000" stroke-opacity="0.5" transform="rotate(90, 1523.33, 4540)" width="1868.000062" x="589.331299" xlink:href="#lz" y="4480.666002"/>
  <rect class=" imageannotationLine imageannotationLinked" fill="#FFFF00" fill-opacity="0.2" height="90.666627" id="svg_76" stroke="#000000" stroke-opacity="0.5" transform="rotate(88, 1421.33, 4820)" width="1052.000139" x="895.33224" xlink:href="#laa" y="4774.665627"/>
  <rect class=" imageannotationLine imageannotationLinked" fill="#FFFF00" fill-opacity="0.2" height="90.666625" id="svg_78" stroke="#000000" stroke-opacity="0.5" transform="rotate(90, 1325.33, 4582)" width="1944.000125" x="353.331069" xlink:href="#Homunculus" y="4536.66648"/>
  <rect class=" imageannotationLine imageannotationLinked" fill="#FFFF00" fill-opacity="0.2" height="102.666648" id="svg_80" stroke="#000000" stroke-opacity="0.5" transform="rotate(89, 1167.37, 4988.03)" width="1188.070572" x="573.333752" xlink:href="#lab" y="4936.700538"/>
  <rect class=" imageannotationLine imageannotationLinked" fill="#FFFF00" fill-opacity="0.2" height="130.666039" id="svg_82" stroke="#000000" stroke-opacity="0.5" transform="rotate(90, 1005.33, 4552)" width="1772.000159" x="119.331329" xlink:href="#Als" y="4486.667399"/>
  <rect class=" imageannotationLine imageannotationLinked" fill="#FFFF00" fill-opacity="0.2" height="110.667538" id="svg_84" stroke="#000000" stroke-opacity="0.5" transform="rotate(89, 847.329, 4804.07)" width="1132.000144" x="281.329572" xlink:href="#lac" y="4748.732683"/>
  <rect class=" imageannotationLine imageannotationLinked" fill="#FFFF00" fill-opacity="0.2" height="66.670145" id="svg_87" stroke="#000000" stroke-opacity="0.5" transform="rotate(92, 2509.33, 3427.93)" width="164.000011" x="2427.33457" xlink:href="#lad" y="3394.593049"/>
  <rect class=" imageannotationLine imageannotationLinked" fill="#FFFF00" fill-opacity="0.2" height="74.667683" id="svg_89" stroke="#000000" stroke-opacity="0.5" transform="rotate(90, 1729.33, 3332)" width="107.999998" x="1675.332006" xlink:href="#lae" y="3294.664003"/>
  <rect class=" imageannotationLine imageannotationLinked" fill="#FFFF00" fill-opacity="0.2" height="94.667604" id="svg_91" stroke="#000000" stroke-opacity="0.5" transform="rotate(90, 1307.33, 3488)" width="84" x="1265.332222" xlink:href="#laf" y="3440.664283"/>
  <rect class=" imageannotationLine imageannotationLinked" fill="#FFFF00" fill-opacity="0.2" height="130.667469" id="svg_93" stroke="#000000" stroke-opacity="0.5" transform="rotate(90, 1041.33, 3484)" width="99.999996" x="991.331875" xlink:href="#lag" y="3418.663881"/>
  <rect class=" imageannotationLine imageannotationLinked" fill="#FFFF00" fill-opacity="0.2" height="130.667465" id="svg_98" stroke="#000000" stroke-opacity="0.5" width="1136" x="920" xlink:href="#lah" y="549.332535"/>
 </g>

</svg>