<?xml version="1.0" encoding="UTF-8" standalone="no"?><svg xmlns="http://www.w3.org/2000/svg" xmlns:xlink="http://www.w3.org/1999/xlink" height="6144" width="4096">
 <g>
  <title>Layer 1</title>
  <rect class=" imageannotationLine imageannotationLinked" fill="#FFFF00" fill-opacity="0.2" height="108.001888" id="svg_2" stroke="#000000" stroke-opacity="0.5" transform="rotate(89, 2839.21, 3031.22)" width="352.226301" x="1243.105125" xlink:href="#la" y="2125.21667"/>
  <rect class=" imageannotationLine imageannotationLinked" fill="#FFFF00" fill-opacity="0.2" height="120" id="svg_4" stroke="#000000" stroke-opacity="0.5" transform="rotate(89, 3321.07, 3642.25)" width="3349.096717" x="1646.517624" xlink:href="#lb" y="3582.245819"/>
  <rect class=" imageannotationLine imageannotationLinked" fill="#FFFF00" fill-opacity="0.2" height="84.005124" id="svg_6" stroke="#000000" stroke-opacity="0.5" transform="rotate(88, 3130.49, 3689.8)" width="3512.652683" x="1374.167775" xlink:href="#lc" y="3647.799681"/>
  <rect class=" imageannotationLine imageannotationLinked" fill="#FFFF00" fill-opacity="0.2" height="60.00105" id="svg_8" stroke="#000000" stroke-opacity="0.5" transform="rotate(90, 3071.14, 4192)" width="420.57045" x="2860.855727" xlink:href="#ld" y="4161.999158"/>
  <rect class=" imageannotationLine imageannotationLinked" fill="#FFFF00" fill-opacity="0.2" height="84.005127" id="svg_10" stroke="#000000" stroke-opacity="0.5" transform="rotate(89, 2959.44, 3732.31)" width="3621.264577" x="1148.80867" xlink:href="#le" y="3690.30394"/>
  <rect class=" imageannotationLine imageannotationLinked" fill="#FFFF00" fill-opacity="0.2" height="84.005127" id="svg_12" stroke="#000000" stroke-opacity="0.5" transform="rotate(89, 2807.49, 3537.96)" width="3168.495598" x="1223.241592" xlink:href="#lf" y="3495.953617"/>
  <rect class=" imageannotationLine imageannotationLinked" fill="#FFFF00" fill-opacity="0.2" height="60.019509" id="svg_14" stroke="#000000" stroke-opacity="0.5" transform="rotate(88, 2652.31, 3762.43)" width="3722.36628" x="791.127975" xlink:href="#lg" y="3732.421163"/>
  <rect class=" imageannotationLine imageannotationLinked" fill="#FFFF00" fill-opacity="0.2" height="95.933232" id="svg_16" stroke="#000000" stroke-opacity="0.5" transform="rotate(89, 2477.81, 3703.67)" width="3668.908433" x="643.360989" xlink:href="#lh" y="3655.70577"/>
  <rect class=" imageannotationLine imageannotationLinked" fill="#FFFF00" fill-opacity="0.2" height="60.019508" id="svg_18" stroke="#000000" stroke-opacity="0.5" transform="rotate(89, 2369.87, 4066.08)" width="808.644383" x="1965.543237" xlink:href="#li" y="4036.073265"/>
  <rect class=" imageannotationLine imageannotationLinked" fill="#FFFF00" fill-opacity="0.2" height="80.007318" id="svg_20" stroke="#000000" stroke-opacity="0.5" transform="rotate(88, 2297.64, 2511.86)" width="1323.905625" x="1635.682795" xlink:href="#lj" y="2471.857546"/>
  <rect class=" imageannotationLine imageannotationLinked" fill="#FFFF00" fill-opacity="0.2" height="140.007269" id="svg_22" stroke="#000000" stroke-opacity="0.5" transform="rotate(89, 2164.64, 3126.84)" width="145.096082" x="2092.09302" xlink:href="#lk" y="3056.834373"/>
  <rect class=" imageannotationLine imageannotationLinked" fill="#FFFF00" fill-opacity="0.2" height="88.015235" id="svg_24" stroke="#000000" stroke-opacity="0.5" transform="rotate(89, 2037.88, 4076.75)" width="1838.373412" x="1118.690894" xlink:href="#ll" y="4032.738563"/>
  <rect class=" imageannotationLine imageannotationLinked" fill="#FFFF00" fill-opacity="0.2" height="100.083325" id="svg_26" stroke="#000000" stroke-opacity="0.5" transform="rotate(89, 1925.69, 1746.05)" width="207.530147" x="1821.925806" xlink:href="#lm" y="1696.004147"/>
  <rect class=" imageannotationLine imageannotationLinked" fill="#FFFF00" fill-opacity="0.2" height="68.084925" id="svg_30" stroke="#000000" stroke-opacity="0.5" transform="rotate(90, 1030.38, 3372.46)" width="3036.655333" x="-487.945999" xlink:href="#ln" y="3338.42335"/>
  <rect class=" imageannotationLine imageannotationLinked" fill="#FFFF00" fill-opacity="0.2" height="76.086811" id="svg_32" stroke="#000000" stroke-opacity="0.5" transform="rotate(89, 1162.15, 4042.12)" width="2002.139118" x="161.079246" xlink:href="#lo" y="4004.073306"/>
  <rect class=" imageannotationLine imageannotationLinked" fill="#FFFF00" fill-opacity="0.2" height="64.297774" id="svg_36" stroke="#000000" stroke-opacity="0.5" transform="rotate(89, 1308.69, 4074.42)" width="1688.650711" x="464.361261" xlink:href="#lp" y="4042.272439"/>
  <rect class=" imageannotationLine imageannotationLinked" fill="#FFFF00" fill-opacity="0.2" height="76.086815" id="svg_38" stroke="#000000" stroke-opacity="0.5" transform="rotate(89, 1365.76, 3123.97)" width="100.174142" x="1315.674315" xlink:href="#lq" y="3085.924265"/>
  <rect class=" imageannotationLine imageannotationLinked" fill="#FFFF00" fill-opacity="0.2" height="60.089066" id="svg_40" stroke="#000000" stroke-opacity="0.5" transform="rotate(89, 1428.99, 2390.27)" width="1048.608819" x="904.688809" xlink:href="#lr" y="2360.229548"/>
  <rect class=" imageannotationLine imageannotationLinked" fill="#FFFF00" fill-opacity="0.2" height="104.01306" id="svg_42" stroke="#000000" stroke-opacity="0.5" transform="rotate(89, 1508, 3054.64)" width="223.338137" x="1396.332387" xlink:href="#ls" y="3002.63101"/>
  <rect class=" imageannotationLine imageannotationLinked" fill="#FFFF00" fill-opacity="0.2" height="68.014701" id="svg_54" stroke="#000000" stroke-opacity="0.5" transform="rotate(88, 1704.84, 4059.62)" width="1715.108391" x="847.283652" xlink:href="#lt" y="4025.61592"/>
  <rect class=" imageannotationLine imageannotationLinked" fill="#FFFF00" fill-opacity="0.2" height="95.933232" id="svg_59" stroke="#000000" stroke-opacity="0.5" transform="rotate(89, 1797.87, 3071.44)" width="65.268279" x="1765.238449" xlink:href="#lu" y="3023.474385"/>
  <rect class=" imageannotationLine imageannotationLinked" fill="#FFFF00" fill-opacity="0.2" height="87.934336" id="svg_62" stroke="#000000" stroke-opacity="0.5" transform="rotate(89, 1914.9, 2450.04)" width="1014.639366" x="1407.575827" xlink:href="#Du" y="2406.074157"/>
  <rect class=" imageannotationLine imageannotationLinked" fill="#FFFF00" fill-opacity="0.2" height="16.04608" id="svg_65" stroke="#000000" stroke-opacity="0.5" transform="rotate(88, 2040.82, 2927.55)" width="204.170481" x="1938.732722" xlink:href="#lv" y="2919.529881"/>
  <rect class=" imageannotationLine imageannotationLinked" fill="#FFFF00" fill-opacity="0.2" height="114.728788" id="svg_66" stroke="#000000" stroke-opacity="0.5" transform="rotate(88, 1966.79, 3039.79)" width="133.10345" x="1900.240581" xlink:href="#lw" y="2982.42103"/>
 </g>

</svg>