<?xml version="1.0" encoding="UTF-8" standalone="no"?><svg xmlns="http://www.w3.org/2000/svg" xmlns:xlink="http://www.w3.org/1999/xlink" height="6144" width="4096">
 <g>
  <title>Layer 1</title>
  <rect class=" imageannotationLine imageannotationLinked" fill="#FFFF00" fill-opacity="0.2" height="107.380714" id="svg_6" stroke="#000000" stroke-opacity="0.5" transform="rotate(88, 3558.34, 2083.37)" width="2690.118801" x="2213.281357" xlink:href="#la" y="2029.67918"/>
  <rect class=" imageannotationLine imageannotationLinked" fill="#FFFF00" fill-opacity="0.2" height="98.179954" id="svg_8" stroke="#000000" stroke-opacity="0.5" transform="rotate(88, 3214.83, 2159.61)" width="2937.94485" x="1745.855759" xlink:href="#lb" y="2110.52349"/>
  <rect class=" imageannotationLine imageannotationLinked" fill="#FFFF00" fill-opacity="0.2" height="63.913044" id="svg_10" stroke="#000000" stroke-opacity="0.5" transform="rotate(90, 3014.22, 955.411)" width="277.074242" x="2875.679133" xlink:href="#lc" y="923.453316"/>
  <rect class=" imageannotationLine imageannotationLinked" fill="#FFFF00" fill-opacity="0.2" height="90" id="svg_12" stroke="#000000" stroke-opacity="0.5" transform="rotate(88, 2957.69, 2094.54)" width="2677.075344" x="1619.157842" xlink:href="#ld" y="2049.539923"/>
  <rect class=" imageannotationLine imageannotationLinked" fill="#FFFF00" fill-opacity="0.2" height="63.913044" id="svg_14" stroke="#000000" stroke-opacity="0.5" transform="rotate(90, 2840.31, 2153.24)" width="290.117651" x="2695.248204" xlink:href="#le" y="2121.281314"/>
  <rect class=" imageannotationLine imageannotationLinked" fill="#FFFF00" fill-opacity="0.2" height="72.608696" id="svg_16" stroke="#000000" stroke-opacity="0.5" transform="rotate(90, 2653.35, 1022.8)" width="733.59642" x="2286.54831" xlink:href="#lf" y="986.498559"/>
  <rect class=" imageannotationLine imageannotationLinked" fill="#FFFF00" fill-opacity="0.2" height="107.367489" id="svg_18" stroke="#000000" stroke-opacity="0.5" transform="rotate(87, 2449, 1866.28)" width="2220.553588" x="1338.722126" xlink:href="#schickt" y="1812.596478"/>
  <rect class=" imageannotationLine imageannotationLinked" fill="#FFFF00" fill-opacity="0.2" height="85.652171" id="svg_20" stroke="#000000" stroke-opacity="0.5" transform="rotate(90, 2285.96, 1327.15)" width="307.509117" x="2132.205104" xlink:href="#lg" y="1284.323144"/>
  <rect class=" imageannotationLine imageannotationLinked" fill="#FFFF00" fill-opacity="0.2" height="89.007282" id="svg_22" stroke="#000000" stroke-opacity="0.5" transform="rotate(80, 2035.47, 1266.37)" width="498.814012" x="1786.062752" xlink:href="#lh" y="1221.86097"/>
  <rect class=" imageannotationLine imageannotationLinked" fill="#FFFF00" fill-opacity="0.2" height="89.392921" id="svg_24" stroke="#000000" stroke-opacity="0.5" transform="rotate(88, 1892.16, 1963.66)" width="2494.46663" x="644.927432" xlink:href="#li" y="1918.966057"/>
  <rect class=" imageannotationLine imageannotationLinked" fill="#FFFF00" fill-opacity="0.2" height="46.521741" id="svg_26" stroke="#000000" stroke-opacity="0.5" transform="rotate(90, 1792.48, 2235.84)" width="177.073426" x="1703.942665" xlink:href="#mir" y="2212.583815"/>
  <rect class=" imageannotationLine imageannotationLinked" fill="#FFFF00" fill-opacity="0.2" height="68.260868" id="svg_28" stroke="#000000" stroke-opacity="0.5" transform="rotate(90, 1720.74, 2033.67)" width="555.335335" x="1443.073026" xlink:href="#lj" y="1999.543058"/>
  <rect class=" imageannotationLine imageannotationLinked" fill="#FFFF00" fill-opacity="0.2" height="85.652837" id="svg_30" stroke="#000000" stroke-opacity="0.5" transform="rotate(89, 1677.49, 2670.57)" width="2376.801626" x="489.089626" xlink:href="#lk" y="2627.745535"/>
  <rect class=" imageannotationLine imageannotationLinked" fill="#FFFF00" fill-opacity="0.2" height="59.565216" id="svg_32" stroke="#000000" stroke-opacity="0.5" transform="rotate(90, 1559.87, 1674.98)" width="203.160343" x="1458.292435" xlink:href="#ll" y="1645.195174"/>
  <rect class=" imageannotationLine imageannotationLinked" fill="#FFFF00" fill-opacity="0.2" height="90" id="svg_34" stroke="#000000" stroke-opacity="0.5" transform="rotate(88, 1505.52, 1990.19)" width="2677.075406" x="166.986923" xlink:href="#lm" y="1945.193052"/>
  <rect class=" imageannotationLine imageannotationLinked" fill="#FFFF00" fill-opacity="0.2" height="50.869564" id="svg_36" stroke="#000000" stroke-opacity="0.5" transform="rotate(90, 1359.87, 964.106)" width="381.422131" x="1169.162871" xlink:href="#ln" y="938.671499"/>
  <rect class=" imageannotationLine imageannotationLinked" fill="#FFFF00" fill-opacity="0.2" height="90" id="svg_38" stroke="#000000" stroke-opacity="0.5" transform="rotate(88, 1262.05, 1622.8)" width="2020.553308" x="251.771248" xlink:href="#lo" y="1577.800869"/>
  <rect class=" imageannotationLine imageannotationLinked" fill="#FFFF00" fill-opacity="0.2" height="90" id="svg_40" stroke="#000000" stroke-opacity="0.5" transform="rotate(88, 1172.87, 2155.46)" width="2538.132733" x="-96.19811" xlink:href="#Trimeter-Schema" y="2110.462971"/>
  <rect class=" imageannotationLine imageannotationLinked" fill="#FFFF00" fill-opacity="0.2" height="68.274112" id="svg_44" stroke="#000000" stroke-opacity="0.5" transform="rotate(88, 1112.03, 2891.99)" width="385.770784" x="919.15029" xlink:href="#lp" y="2857.850829"/>
  <rect class=" imageannotationLine imageannotationLinked" fill="#FFFF00" fill-opacity="0.2" height="115.919365" id="svg_46" stroke="#000000" stroke-opacity="0.5" transform="rotate(88, 875.002, 1574.52)" width="1046.640142" x="351.681676" xlink:href="#lq" y="1516.56088"/>
  <rect class=" imageannotationLine imageannotationLinked" fill="#FFFF00" fill-opacity="0.2" height="90" id="svg_49" stroke="#000000" stroke-opacity="0.5" transform="rotate(-91, 802.478, 4249.48)" width="2721.739004" x="-558.392452" xlink:href="#lr" y="4204.479601"/>
  <rect class=" imageannotationLine imageannotationLinked" fill="#FFFF00" fill-opacity="0.2" height="63.913124" id="svg_51" stroke="#000000" stroke-opacity="0.5" transform="rotate(-90, 924.213, 4925.56)" width="413.043596" x="717.691037" xlink:href="#ls" y="4893.608537"/>
  <rect class=" imageannotationLine imageannotationLinked" fill="#FFFF00" fill-opacity="0.2" height="90" id="svg_53" stroke="#000000" stroke-opacity="0.5" transform="rotate(-91, 1032.91, 4514.7)" width="2278.260329" x="-106.219935" xlink:href="#lt" y="4469.69961"/>
  <rect class=" imageannotationLine imageannotationLinked" fill="#FFFF00" fill-opacity="0.2" height="90" id="svg_55" stroke="#000000" stroke-opacity="0.5" transform="rotate(-90, 1293.78, 5523.39)" width="269.564286" x="1158.99461" xlink:href="#lu" y="5478.390314"/>
  <rect class=" imageannotationLine imageannotationLinked" fill="#FFFF00" fill-opacity="0.2" height="107.325128" id="svg_58" stroke="#000000" stroke-opacity="0.5" transform="rotate(-95, 1506.89, 4645.89)" width="1234.782457" x="889.50459" xlink:href="#lv" y="4592.229629"/>
  <rect class=" imageannotationLine imageannotationLinked" fill="#FFFF00" fill-opacity="0.2" height="81.771358" id="svg_60" stroke="#000000" stroke-opacity="0.5" transform="rotate(-93, 1806.99, 4978.77)" width="471.409127" x="1571.287103" xlink:href="#stuerzten" y="4937.879435"/>
  <rect class=" imageannotationLine imageannotationLinked" fill="#FFFF00" fill-opacity="0.2" height="81.771355" id="svg_65" stroke="#000000" stroke-opacity="0.5" transform="rotate(90, 2753.59, 3453.83)" width="534.782303" x="2486.196241" xlink:href="#lw" y="3412.946652"/>
  <rect class=" imageannotationLine imageannotationLinked" fill="#FFFF00" fill-opacity="0.2" height="107.858893" id="svg_67" stroke="#000000" stroke-opacity="0.5" transform="rotate(90, 2605.76, 3466.87)" width="673.912996" x="2268.802428" xlink:href="#lx" y="3412.941293"/>
  <rect class=" imageannotationLine imageannotationLinked" fill="#FFFF00" fill-opacity="0.2" height="108.086371" id="svg_70" stroke="#000000" stroke-opacity="0.5" transform="rotate(-87, 1953.61, 3373.58)" width="1765.252072" x="1070.979252" xlink:href="#ly" y="3319.537647"/>
  <rect class=" imageannotationLine imageannotationLinked" fill="#FFFF00" fill-opacity="0.2" height="124.936064" id="svg_72" stroke="#000000" stroke-opacity="0.5" transform="rotate(-92, 2283.79, 4375.46)" width="2152.800056" x="1207.386798" xlink:href="#lz" y="4312.986312"/>
  <rect class=" imageannotationLine imageannotationLinked" fill="#FFFF00" fill-opacity="0.2" height="86.347187" id="svg_75" stroke="#000000" stroke-opacity="0.5" transform="rotate(-90, 1852.13, 5579.92)" width="443.478422" x="1630.396433" xlink:href="#laa" y="5536.741203"/>
  <rect class=" imageannotationLine imageannotationLinked" fill="#FFFF00" fill-opacity="0.2" height="116.781803" id="svg_77" stroke="#000000" stroke-opacity="0.5" transform="rotate(90, 3027.61, 4749.49)" width="713.043945" x="2671.086393" xlink:href="#lab" y="4691.097122"/>
  <rect class=" imageannotationLine imageannotationLinked" fill="#FFFF00" fill-opacity="0.2" height="99.390565" id="svg_79" stroke="#000000" stroke-opacity="0.5" transform="rotate(90, 2684.13, 4727.75)" width="713.043945" x="2327.607889" xlink:href="#lac" y="4678.049209"/>
  <rect class=" imageannotationLine imageannotationLinked" fill="#FFFF00" fill-opacity="0.2" height="81.99927" id="svg_81" stroke="#000000" stroke-opacity="0.5" transform="rotate(90, 2545, 4619.05)" width="617.391661" x="2236.301629" xlink:href="#lad" y="4578.045233"/>
  <rect class=" imageannotationLine imageannotationLinked" fill="#FFFF00" fill-opacity="0.2" height="125.477137" id="svg_83" stroke="#000000" stroke-opacity="0.5" transform="rotate(180, 3221.39, 5544.82)" width="560.870941" x="2940.953252" xlink:href="#lae" y="5482.08126"/>
  <rect class=" imageannotationLine imageannotationLinked" fill="#FFFF00" fill-opacity="0.2" height="47.216972" id="svg_85" stroke="#000000" stroke-opacity="0.5" transform="rotate(180, 3488.78, 5314.39)" width="400.001273" x="3288.783223" xlink:href="#laf" y="5290.777585"/>
  <rect class=" imageannotationLine imageannotationLinked" fill="#FFFF00" fill-opacity="0.2" height="95.042647" id="svg_87" stroke="#000000" stroke-opacity="0.5" transform="rotate(180, 3447.48, 5164.39)" width="595.653521" x="3149.651683" xlink:href="#lag" y="5116.863807"/>
  <rect class=" imageannotationLine imageannotationLinked" fill="#FFFF00" fill-opacity="0.2" height="81.72785" id="svg_89" stroke="#000000" stroke-opacity="0.5" transform="rotate(86, 1753.96, 1136.83)" width="776.524311" x="1365.704556" xlink:href="#lah" y="1095.967597"/>
 </g>
</svg>