<?xml version="1.0" encoding="UTF-8" standalone="no"?><svg xmlns="http://www.w3.org/2000/svg" xmlns:xlink="http://www.w3.org/1999/xlink" height="6144" width="4096">
 <g>
  <title>Layer 1</title>
  <rect class=" imageannotationLine imageannotationLinked" fill="#FFFF00" fill-opacity="0.2" height="64.000003" id="svg_2" stroke="#000000" stroke-opacity="0.5" transform="rotate(90, 3978.55, 5208)" width="474.909994" x="3741.093644" xlink:href="#la" y="5176.000251"/>
  <rect class=" imageannotationLine imageannotationLinked" fill="#FFFF00" fill-opacity="0.2" height="104.063681" id="svg_4" stroke="#000000" stroke-opacity="0.5" transform="rotate(89, 3925.11, 2875.26)" width="2930.375205" x="2459.916184" xlink:href="#lb" y="2823.224001"/>
  <rect class=" imageannotationLine imageannotationLinked" fill="#FFFF00" fill-opacity="0.2" height="96.064807" id="svg_6" stroke="#000000" stroke-opacity="0.5" transform="rotate(89, 3790.54, 3139.9)" width="3450.90915" x="2065.090311" xlink:href="#lc" y="3091.865971"/>
  <rect class=" imageannotationLine imageannotationLinked" fill="#FFFF00" fill-opacity="0.2" height="96.064804" id="svg_8" stroke="#000000" stroke-opacity="0.5" transform="rotate(88, 3683.81, 3279.45)" width="3809.924437" x="1778.845262" xlink:href="#ld" y="3231.414669"/>
  <rect class=" imageannotationLine imageannotationLinked" fill="#FFFF00" fill-opacity="0.2" height="76.065137" id="svg_10" stroke="#000000" stroke-opacity="0.5" transform="rotate(90, 3548.55, 1583.97)" width="218.910091" x="3439.093307" xlink:href="#le" y="1545.934675"/>
  <rect class=" imageannotationLine imageannotationLinked" fill="#FFFF00" fill-opacity="0.2" height="92.055126" id="svg_12" stroke="#000000" stroke-opacity="0.5" transform="rotate(88, 3517.76, 2962.06)" width="3275.774378" x="1879.877065" xlink:href="#lf" y="2916.028632"/>
  <rect class=" imageannotationLine imageannotationLinked" fill="#FFFF00" fill-opacity="0.2" height="108.045446" id="svg_14" stroke="#000000" stroke-opacity="0.5" transform="rotate(88, 3337.04, 2989.46)" width="3234.542398" x="1719.774074" xlink:href="#lg" y="2935.440111"/>
  <rect class=" imageannotationLine imageannotationLinked" fill="#FFFF00" fill-opacity="0.2" height="104.047941" id="svg_16" stroke="#000000" stroke-opacity="0.5" transform="rotate(88, 3109.66, 2873.86)" width="3154.870297" x="1532.228342" xlink:href="#lh" y="2821.841443"/>
  <rect class=" imageannotationLine imageannotationLinked" fill="#FFFF00" fill-opacity="0.2" height="64.047534" id="svg_18" stroke="#000000" stroke-opacity="0.5" transform="rotate(90, 3062.55, 3263.98)" width="1034.909815" x="2545.09313" xlink:href="#li" y="3231.952505"/>
  <rect class=" imageannotationLine imageannotationLinked" fill="#FFFF00" fill-opacity="0.2" height="96.047857" id="svg_20" stroke="#000000" stroke-opacity="0.5" transform="rotate(90, 2958.55, 2369.98)" width="414.910043" x="2751.093433" xlink:href="#lj" y="2321.952101"/>
  <rect class=" imageannotationLine imageannotationLinked" fill="#FFFF00" fill-opacity="0.2" height="127.609658" id="svg_22" stroke="#000000" stroke-opacity="0.5" transform="rotate(88, 2916.57, 3205)" width="3742.930519" x="1045.105418" xlink:href="#lk" y="3141.19282"/>
  <rect class=" imageannotationLine imageannotationLinked" fill="#FFFF00" fill-opacity="0.2" height="123.549567" id="svg_24" stroke="#000000" stroke-opacity="0.5" transform="rotate(89, 2738.16, 3404.2)" width="4063.180804" x="706.570158" xlink:href="#ll" y="3342.423227"/>
  <rect class=" imageannotationLine imageannotationLinked" fill="#FFFF00" fill-opacity="0.2" height="119.759614" id="svg_26" stroke="#000000" stroke-opacity="0.5" transform="rotate(89, 2560.12, 3357.88)" width="3994.422157" x="562.904181" xlink:href="#lm" y="3298.001014"/>
  <rect class=" imageannotationLine imageannotationLinked" fill="#FFFF00" fill-opacity="0.2" height="115.690272" id="svg_28" stroke="#000000" stroke-opacity="0.5" transform="rotate(89, 2372.4, 3150.57)" width="3535.958436" x="604.418825" xlink:href="#ln" y="3092.729306"/>
  <rect class=" imageannotationLine imageannotationLinked" fill="#FFFF00" fill-opacity="0.2" height="115.62017" id="svg_30" stroke="#000000" stroke-opacity="0.5" transform="rotate(89, 2174.77, 3314.88)" width="3891.53149" x="229.002097" xlink:href="#lo" y="3257.073548"/>
  <rect class=" imageannotationLine imageannotationLinked" fill="#FFFF00" fill-opacity="0.2" height="95.620328" id="svg_32" stroke="#000000" stroke-opacity="0.5" transform="rotate(90, 2052.55, 4280.19)" width="1958.909482" x="1073.093263" xlink:href="#lp" y="4232.379436"/>
  <rect class=" imageannotationLine imageannotationLinked" fill="#FFFF00" fill-opacity="0.2" height="135.619996" id="svg_34" stroke="#000000" stroke-opacity="0.5" transform="rotate(90, 1890.55, 3354.19)" width="3894.908774" x="-56.90487" xlink:href="#lq" y="3286.376052"/>
  <rect class=" imageannotationLine imageannotationLinked" fill="#FFFF00" fill-opacity="0.2" height="119.620123" id="svg_36" stroke="#000000" stroke-opacity="0.5" transform="rotate(90, 1714.55, 3088.19)" width="3322.909169" x="53.092016" xlink:href="#lr" y="3028.380258"/>
  <rect class=" imageannotationLine imageannotationLinked" fill="#FFFF00" fill-opacity="0.2" height="107.620223" id="svg_38" stroke="#000000" stroke-opacity="0.5" transform="rotate(90, 1536.55, 3316.19)" width="3802.909007" x="-364.905113" xlink:href="#ls" y="3262.375994"/>
  <rect class=" imageannotationLine imageannotationLinked" fill="#FFFF00" fill-opacity="0.2" height="107.620224" id="svg_40" stroke="#000000" stroke-opacity="0.5" transform="rotate(89, 1214.93, 3292.32)" width="3703.181524" x="-636.658605" xlink:href="#lt" y="3238.51273"/>
  <rect class=" imageannotationLine imageannotationLinked" fill="#FFFF00" fill-opacity="0.2" height="131.686315" id="svg_42" stroke="#000000" stroke-opacity="0.5" transform="rotate(89, 1051.77, 3255.43)" width="3662.752136" x="-779.604078" xlink:href="#lu" y="3189.591537"/>
 </g>

</svg>