<?xml version="1.0" encoding="UTF-8" standalone="no"?><svg xmlns="http://www.w3.org/2000/svg" xmlns:xlink="http://www.w3.org/1999/xlink" height="6144.000000000001" width="4096">
 <g>
  <title>Layer 1</title>
  <rect class=" imageannotationLine imageannotationLinked" fill="#FFFF00" fill-opacity="0.2" height="145.000005" id="svg_2" stroke="#000000" stroke-opacity="0.5" transform="rotate(180, 2668.32, 5613.5)" width="262.273369" x="2537.183544" xlink:href="#la" y="5541.004136"/>
  <rect class=" imageannotationLine imageannotationLinked" fill="#FFFF00" fill-opacity="0.2" height="134.467363" id="svg_4" stroke="#000000" stroke-opacity="0.5" transform="rotate(178, 2323.57, 5393.23)" width="1222.273144" x="1712.435543" xlink:href="#lb" y="5325.998262"/>
  <rect class=" imageannotationLine imageannotationLinked" fill="#FFFF00" fill-opacity="0.2" height="144.647141" id="svg_6" stroke="#000000" stroke-opacity="0.5" transform="rotate(179, 1373.49, 5168.06)" width="962.364989" x="892.305515" xlink:href="#lc" y="5095.737122"/>
  <rect class=" imageannotationLine imageannotationLinked" fill="#FFFF00" fill-opacity="0.2" height="145.000005" id="svg_8" stroke="#000000" stroke-opacity="0.5" transform="rotate(180, 2825.82, 4668.5)" width="337.273369" x="2657.18359" xlink:href="#ld" y="4596.002228"/>
  <rect class=" imageannotationLine imageannotationLinked" fill="#FFFF00" fill-opacity="0.2" height="124.823957" id="svg_10" stroke="#000000" stroke-opacity="0.5" transform="rotate(179, 1553.41, 4418.42)" width="2602.272749" x="252.268989" xlink:href="#le" y="4356.005254"/>
  <rect class=" imageannotationLine imageannotationLinked" fill="#FFFF00" fill-opacity="0.2" height="135.084998" id="svg_12" stroke="#000000" stroke-opacity="0.5" transform="rotate(179, 1648.45, 4178.59)" width="2802.271935" x="247.314796" xlink:href="#lf" y="4111.043049"/>
  <rect class=" imageannotationLine imageannotationLinked" fill="#FFFF00" fill-opacity="0.2" height="45" id="svg_14" stroke="#000000" stroke-opacity="0.5" transform="rotate(180, 2198.32, 4028.5)" width="192.273393" x="2102.18001" xlink:href="#lg" y="4006.004948"/>
  <rect class=" imageannotationLine imageannotationLinked" fill="#FFFF00" fill-opacity="0.2" height="129.635773" id="svg_16" stroke="#000000" stroke-opacity="0.5" transform="rotate(178, 1503.75, 3985.81)" width="2572.272713" x="217.613848" xlink:href="#lh" y="3920.996188"/>
  <rect class=" imageannotationLine imageannotationLinked" fill="#FFFF00" fill-opacity="0.2" height="134.999998" id="svg_18" stroke="#000000" stroke-opacity="0.5" transform="rotate(180, 1888.32, 3718.5)" width="612.273299" x="1582.184075" xlink:href="#li" y="3651.003722"/>
  <rect class=" imageannotationLine imageannotationLinked" fill="#FFFF00" fill-opacity="0.2" height="85.000001" id="svg_20" stroke="#000000" stroke-opacity="0.5" transform="rotate(180, 875.821, 3453.5)" width="377.273363" x="687.18405" xlink:href="#lj" y="3411.004567"/>
  <rect class=" imageannotationLine imageannotationLinked" fill="#FFFF00" fill-opacity="0.2" height="105" id="svg_22" stroke="#000000" stroke-opacity="0.5" transform="rotate(180, 760.82, 3268.5)" width="1067.273195" x="227.183603" xlink:href="#lk" y="3216.00415"/>
  <rect class=" imageannotationLine imageannotationLinked" fill="#FFFF00" fill-opacity="0.2" height="134.999998" id="svg_25" stroke="#000000" stroke-opacity="0.5" transform="rotate(90, 3221.5, 1518.5)" width="335.000001" x="3053.999715" xlink:href="#ll" y="1450.999757"/>
  <rect class=" imageannotationLine imageannotationLinked" fill="#FFFF00" fill-opacity="0.2" height="80.000001" id="svg_27" stroke="#000000" stroke-opacity="0.5" transform="rotate(90, 3154, 1066)" width="100.000006" x="3104.000008" xlink:href="#lm" y="1026"/>
  <rect class=" imageannotationLine imageannotationLinked" fill="#FFFF00" fill-opacity="0.2" height="105" id="svg_29" stroke="#000000" stroke-opacity="0.5" transform="rotate(89, 3041.5, 1708.5)" width="1455.000052" x="2313.999987" xlink:href="#ln" y="1656"/>
  <rect class=" imageannotationLine imageannotationLinked" fill="#FFFF00" fill-opacity="0.2" height="105" id="svg_31" stroke="#000000" stroke-opacity="0.5" transform="rotate(88, 2856.5, 1746)" width="1090.000001" x="2311.499982" xlink:href="#lo" y="1693.5"/>
  <rect class=" imageannotationLine imageannotationLinked" fill="#FFFF00" fill-opacity="0.2" height="100.003048" id="svg_33" stroke="#000000" stroke-opacity="0.5" transform="rotate(88, 2674, 1725.91)" width="1199.999993" x="2073.996679" xlink:href="#lp" y="1675.911304"/>
  <rect class=" imageannotationLine imageannotationLinked" fill="#FFFF00" fill-opacity="0.2" height="105" id="svg_35" stroke="#000000" stroke-opacity="0.5" transform="rotate(90, 2506.5, 1646)" width="629.999982" x="2191.500005" xlink:href="#lq" y="1593.5"/>
  <rect class=" imageannotationLine imageannotationLinked" fill="#FFFF00" fill-opacity="0.2" height="75.000002" id="svg_37" stroke="#000000" stroke-opacity="0.5" transform="rotate(90, 2291.5, 1571)" width="499.99999" x="2041.500035" xlink:href="#lr" y="1533.5"/>
  <rect class=" imageannotationLine imageannotationLinked" fill="#FFFF00" fill-opacity="0.2" height="75.000002" id="svg_39" stroke="#000000" stroke-opacity="0.5" transform="rotate(90, 2181.5, 1571)" width="179.999999" x="2091.500033" xlink:href="#ls" y="1533.5"/>
  <rect class=" imageannotationLine imageannotationLinked" fill="#FFFF00" fill-opacity="0.2" height="134.981723" id="svg_41" stroke="#000000" stroke-opacity="0.5" transform="rotate(88, 2111.48, 1845.48)" width="1859.999899" x="1181.48183" xlink:href="#lt" y="1777.985778"/>
  <rect class=" imageannotationLine imageannotationLinked" fill="#FFFF00" fill-opacity="0.2" height="105" id="svg_43" stroke="#000000" stroke-opacity="0.5" transform="rotate(90, 1886.5, 1596)" width="239.999997" x="1766.500034" xlink:href="#lu" y="1543.5"/>
  <rect class=" imageannotationLine imageannotationLinked" fill="#FFFF00" fill-opacity="0.2" height="100" id="svg_45" stroke="#000000" stroke-opacity="0.5" transform="rotate(90, 1714, 1666)" width="699.999987" x="1364.000115" xlink:href="#lv" y="1616.000122"/>
 </g>

</svg>