<?xml version="1.0" encoding="UTF-8" standalone="no"?><svg xmlns="http://www.w3.org/2000/svg" xmlns:xlink="http://www.w3.org/1999/xlink" height="6144.000000000001" width="4096">
 <g>
  <title>Layer 1</title>
  <rect class=" imageannotationLine imageannotationLinked" fill="#FFFF00" fill-opacity="0.2" height="89.689837" id="svg_44" stroke="#000000" stroke-opacity="0.5" transform="rotate(179.284, 2216.31, 4550.85)" width="2635" x="898.810047" xlink:href="#la" y="4506.001618"/>
  <rect class=" imageannotationLine imageannotationLinked" fill="#FFFF00" fill-opacity="0.2" height="120" id="svg_46" stroke="#000000" stroke-opacity="0.5" transform="rotate(177, 2203.87, 3913.52)" width="2540.130227" x="933.805244" xlink:href="#lb" y="3853.517597"/>
  <rect class=" imageannotationLine imageannotationLinked" fill="#FFFF00" fill-opacity="0.2" height="130.24797" id="svg_48" stroke="#000000" stroke-opacity="0.5" transform="rotate(177, 2181.77, 4241.12)" width="2635" x="864.267953" xlink:href="#lc" y="4175.993813"/>
  <rect class=" imageannotationLine imageannotationLinked" fill="#FFFF00" fill-opacity="0.2" height="114.999998" id="svg_50" stroke="#000000" stroke-opacity="0.5" transform="rotate(-180, 2179, 4078.5)" width="519.999987" x="1918.999585" xlink:href="#ld" y="4020.999376"/>
  <rect class=" imageannotationLine imageannotationLinked" fill="#FFFF00" fill-opacity="0.2" height="90" id="svg_52" stroke="#000000" stroke-opacity="0.5" transform="rotate(-180, 3314, 3951)" width="269.999986" x="3178.999981" xlink:href="#le" y="3906.000275"/>
  <rect class=" imageannotationLine imageannotationLinked" fill="#FFFF00" fill-opacity="0.2" height="69.999998" id="svg_54" stroke="#000000" stroke-opacity="0.5" transform="rotate(-180, 1896.5, 4396)" width="465.00001" x="1664.000266" xlink:href="#lf" y="4361.000197"/>
  <rect class=" imageannotationLine imageannotationLinked" fill="#FFFF00" fill-opacity="0.2" height="90.000001" id="svg_56" stroke="#000000" stroke-opacity="0.5" transform="rotate(-180, 1444, 3891)" width="110.000001" x="1389.000032" xlink:href="#lg" y="3846.000299"/>
  <rect class=" imageannotationLine imageannotationLinked" fill="#FFFF00" fill-opacity="0.2" height="75" id="svg_58" stroke="#000000" stroke-opacity="0.5" transform="rotate(177, 1836.5, 3713.5)" width="395.000023" x="1639.000076" xlink:href="#lh" y="3676.000229"/>
  <rect class=" imageannotationLine imageannotationLinked" fill="#FFFF00" fill-opacity="0.2" height="75" id="svg_60" stroke="#000000" stroke-opacity="0.5" transform="rotate(-180, 1829, 3653.5)" width="480.000021" x="1589.000929" xlink:href="#li" y="3616.000366"/>
  <rect class=" imageannotationLine imageannotationLinked" fill="#FFFF00" fill-opacity="0.2" height="94.972587" id="svg_62" stroke="#000000" stroke-opacity="0.5" transform="rotate(177, 2117.02, 3518.47)" width="2635" x="799.522753" xlink:href="#lj" y="3470.987369"/>
  <rect class=" imageannotationLine imageannotationLinked" fill="#FFFF00" fill-opacity="0.2" height="70.268698" id="svg_64" stroke="#000000" stroke-opacity="0.5" transform="rotate(177, 1499.68, 3436.36)" width="1390.000115" x="804.676475" xlink:href="#lk" y="3401.226346"/>
  <rect class=" imageannotationLine imageannotationLinked" fill="#FFFF00" fill-opacity="0.2" height="96.280986" id="svg_66" stroke="#000000" stroke-opacity="0.5" transform="rotate(177, 2129.98, 3349.76)" width="2720.145103" x="769.906758" xlink:href="#ll" y="3301.616051"/>
  <rect class=" imageannotationLine imageannotationLinked" fill="#FFFF00" fill-opacity="0.2" height="124.931476" id="svg_68" stroke="#000000" stroke-opacity="0.5" transform="rotate(177, 2158.61, 3196.27)" width="2743.540819" x="786.843183" xlink:href="#lm" y="3133.805445"/>
  <rect class=" imageannotationLine imageannotationLinked" fill="#FFFF00" fill-opacity="0.2" height="125.454837" id="svg_70" stroke="#000000" stroke-opacity="0.5" transform="rotate(177, 2130.65, 3042.48)" width="2779.539755" x="740.881368" xlink:href="#ln" y="2979.752038"/>
  <rect class=" imageannotationLine imageannotationLinked" fill="#FFFF00" fill-opacity="0.2" height="65" id="svg_78" stroke="#000000" stroke-opacity="0.5" transform="rotate(-180, 2416.5, 2948.5)" width="244.99999" x="2293.999547" xlink:href="#lo" y="2916.002048"/>
  <rect class=" imageannotationLine imageannotationLinked" fill="#FFFF00" fill-opacity="0.2" height="115.447927" id="svg_80" stroke="#000000" stroke-opacity="0.5" transform="rotate(177, 2160.04, 2873.57)" width="2631.859778" x="844.109746" xlink:href="#lp" y="2815.848481"/>
  <rect class=" imageannotationLine imageannotationLinked" fill="#FFFF00" fill-opacity="0.2" height="59.999996" id="svg_82" stroke="#000000" stroke-opacity="0.5" transform="rotate(-180, 2594, 2756)" width="689.999944" x="2248.998043" xlink:href="#lq" y="2726.00034"/>
  <rect class=" imageannotationLine imageannotationLinked" fill="#FFFF00" fill-opacity="0.2" height="105.72336" id="svg_84" stroke="#000000" stroke-opacity="0.5" transform="rotate(177, 2391.12, 2723.69)" width="2247.627947" x="1267.306016" xlink:href="#lr" y="2670.831524"/>
  <rect class=" imageannotationLine imageannotationLinked" fill="#FFFF00" fill-opacity="0.2" height="75.723155" id="svg_89" stroke="#000000" stroke-opacity="0.5" transform="rotate(-180, 3374, 2563.86)" width="140.000001" x="3303.999941" xlink:href="#ls" y="2526.0008"/>
  <rect class=" imageannotationLine imageannotationLinked" fill="#FFFF00" fill-opacity="0.2" height="112.245506" id="svg_91" stroke="#000000" stroke-opacity="0.5" transform="rotate(177, 2361.61, 2552.77)" width="2306.23737" x="1208.490394" xlink:href="#lt" y="2496.652084"/>
  <rect class=" imageannotationLine imageannotationLinked" fill="#FFFF00" fill-opacity="0.2" height="112.245506" id="svg_95" stroke="#000000" stroke-opacity="0.5" transform="rotate(176, 2248.67, 2420.18)" width="2500.328842" x="998.507294" xlink:href="#lu" y="2364.057427"/>
  <rect class=" imageannotationLine imageannotationLinked" fill="#FFFF00" fill-opacity="0.2" height="87.802975" id="svg_97" stroke="#000000" stroke-opacity="0.5" transform="rotate(177, 2021.53, 2347.65)" width="1505.105242" x="1268.974931" xlink:href="#lv" y="2303.747886"/>
  <rect class=" imageannotationLine imageannotationLinked" fill="#FFFF00" fill-opacity="0.2" height="87.453827" id="svg_99" stroke="#000000" stroke-opacity="0.5" transform="rotate(176, 2192.55, 2272.21)" width="2635" x="875.053221" xlink:href="#lw" y="2228.477998"/>
  <rect class=" imageannotationLine imageannotationLinked" fill="#FFFF00" fill-opacity="0.2" height="118.72136" id="svg_101" stroke="#000000" stroke-opacity="0.5" transform="rotate(177, 2119.87, 2131.42)" width="2770.076682" x="734.830781" xlink:href="#lx" y="2072.0621"/>
  <rect class=" imageannotationLine imageannotationLinked" fill="#FFFF00" fill-opacity="0.2" height="98.748986" id="svg_103" stroke="#000000" stroke-opacity="0.5" transform="rotate(177, 2142.37, 1973.17)" width="2694.3944" x="795.173004" xlink:href="#ly" y="1923.791271"/>
  <rect class=" imageannotationLine imageannotationLinked" fill="#FFFF00" fill-opacity="0.2" height="98.748985" id="svg_105" stroke="#000000" stroke-opacity="0.5" transform="rotate(177, 2481.55, 1810.11)" width="2004.031561" x="1479.535891" xlink:href="#lz" y="1760.740527"/>
  <rect class=" imageannotationLine imageannotationLinked" fill="#FFFF00" fill-opacity="0.2" height="98.748985" id="svg_107" stroke="#000000" stroke-opacity="0.5" transform="rotate(177, 2203.25, 1757.32)" width="640.639688" x="1882.93349" xlink:href="#laa" y="1707.946465"/>
  <rect class=" imageannotationLine imageannotationLinked" fill="#FFFF00" fill-opacity="0.2" height="83.5769" id="svg_109" stroke="#000000" stroke-opacity="0.5" transform="rotate(178, 2550.84, 1642.46)" width="1836.481358" x="1632.600895" xlink:href="#lab" y="1600.673268"/>
  <rect class=" imageannotationLine imageannotationLinked" fill="#FFFF00" fill-opacity="0.2" height="63.577188" id="svg_111" stroke="#000000" stroke-opacity="0.5" transform="rotate(-180, 2729, 1577.79)" width="480.000011" x="2489.000768" xlink:href="#lac" y="1546.000938"/>
  <rect class=" imageannotationLine imageannotationLinked" fill="#FFFF00" fill-opacity="0.2" height="104.599197" id="svg_113" stroke="#000000" stroke-opacity="0.5" transform="rotate(178, 2358.84, 1547.14)" width="2079.116678" x="1319.283951" xlink:href="#Das-Neue" y="1494.844546"/>
  <rect class=" imageannotationLine imageannotationLinked" fill="#FFFF00" fill-opacity="0.2" height="121.672332" id="svg_115" stroke="#000000" stroke-opacity="0.5" transform="rotate(177, 2411.03, 1449.7)" width="2156.181259" x="1332.934946" xlink:href="#lad" y="1388.864088"/>
  <rect class=" imageannotationLine imageannotationLinked" fill="#FFFF00" fill-opacity="0.2" height="101.437985" id="svg_117" stroke="#000000" stroke-opacity="0.5" transform="rotate(177, 3035.59, 1312.63)" width="413.833811" x="2828.676792" xlink:href="#lae" y="1261.909501"/>
  <rect class=" imageannotationLine imageannotationLinked" fill="#FFFF00" fill-opacity="0.2" height="96.612873" id="svg_121" stroke="#000000" stroke-opacity="0.5" transform="rotate(179, 2441.27, 1239.64)" width="2085.869029" x="1398.339208" xlink:href="#laf" y="1191.339712"/>
  <rect class=" imageannotationLine imageannotationLinked" fill="#FFFF00" fill-opacity="0.2" height="111.681602" id="svg_123" stroke="#000000" stroke-opacity="0.5" transform="rotate(178, 2372.26, 1099.53)" width="2294.509203" x="1225.003449" xlink:href="#lag" y="1043.691003"/>
  <rect class=" imageannotationLine imageannotationLinked" fill="#FFFF00" fill-opacity="0.2" height="103.003557" id="svg_125" stroke="#000000" stroke-opacity="0.5" transform="rotate(177, 2404.34, 964.14)" width="2200.857888" x="1303.910667" xlink:href="#lah" y="912.640526"/>
  <rect class=" imageannotationLine imageannotationLinked" fill="#FFFF00" fill-opacity="0.2" height="103.003555" id="svg_127" stroke="#000000" stroke-opacity="0.5" transform="rotate(177, 2905.27, 776.043)" width="1165.444537" x="2322.548464" xlink:href="#lai" y="724.541645"/>
  <rect class=" imageannotationLine imageannotationLinked" fill="#FFFF00" fill-opacity="0.2" height="103.003555" id="svg_129" stroke="#000000" stroke-opacity="0.5" transform="rotate(-180, 3699, 1467.51)" width="380.000014" x="3508.999969" xlink:href="#laj" y="1416.004578"/>
  <rect class=" imageannotationLine imageannotationLinked" fill="#FFFF00" fill-opacity="0.2" height="93.009676" id="svg_132" stroke="#000000" stroke-opacity="0.5" transform="rotate(179, 2089.38, 5576.64)" width="1999.98509" x="1089.386917" xlink:href="#lak" y="5530.138875"/>
  <rect class=" imageannotationLine imageannotationLinked" fill="#FFFF00" fill-opacity="0.2" height="108.175339" id="svg_134" stroke="#000000" stroke-opacity="0.5" transform="rotate(178, 2403.92, 5314.84)" width="2250.427314" x="1278.709387" xlink:href="#lal" y="5260.755108"/>
  <rect class=" imageannotationLine imageannotationLinked" fill="#FFFF00" fill-opacity="0.2" height="108.175339" id="svg_136" stroke="#000000" stroke-opacity="0.5" transform="rotate(177, 2269.97, 5150.44)" width="2417.718919" x="1061.111311" xlink:href="#lam" y="5096.355313"/>
  <rect class=" imageannotationLine imageannotationLinked" fill="#FFFF00" fill-opacity="0.2" height="103.175358" id="svg_138" stroke="#000000" stroke-opacity="0.5" transform="rotate(180, 2066.5, 5007.59)" width="325.000006" x="1904.000545" xlink:href="#lan" y="4956.004561"/>
  <rect class=" imageannotationLine imageannotationLinked" fill="#FFFF00" fill-opacity="0.2" height="113.684969" id="svg_140" stroke="#000000" stroke-opacity="0.5" transform="rotate(177, 2183.98, 4899.04)" width="2450.294657" x="958.833574" xlink:href="#lao" y="4842.197663"/>
  <rect class=" imageannotationLine imageannotationLinked" fill="#FFFF00" fill-opacity="0.2" height="73.690579" id="svg_142" stroke="#000000" stroke-opacity="0.5" transform="rotate(179, 1401.48, 4828.15)" width="455.163179" x="1173.898357" xlink:href="#lap" y="4791.304747"/>
  <rect class=" imageannotationLine imageannotationLinked" fill="#FFFF00" fill-opacity="0.2" height="118.366911" id="svg_144" stroke="#000000" stroke-opacity="0.5" transform="rotate(177, 2197.67, 4741.46)" width="2665" x="865.171315" xlink:href="#laq" y="4682.276397"/>
  <rect class=" imageannotationLine imageannotationLinked" fill="#FFFF00" fill-opacity="0.2" height="138.366857" id="svg_146" stroke="#000000" stroke-opacity="0.5" transform="rotate(180, 1491.5, 4765.18)" width="345.000015" x="1319.003741" xlink:href="#lar" y="4696.002813"/>
 </g>

</svg>