<?xml version="1.0" encoding="UTF-8" standalone="no"?><svg xmlns="http://www.w3.org/2000/svg" xmlns:xlink="http://www.w3.org/1999/xlink" height="6144" width="4096">
 <g>
  <title>Layer 1</title>
  <rect class=" imageannotationLine imageannotationLinked" fill="#FFFF00" fill-opacity="0.2" height="120" id="svg_2" stroke="#000000" stroke-opacity="0.5" transform="rotate(89, 3025.2, 2560.49)" width="213.039639" x="2918.681107" xlink:href="#la" y="2500.490619"/>
  <rect class=" imageannotationLine imageannotationLinked" fill="#FFFF00" fill-opacity="0.2" height="95.514987" id="svg_4" stroke="#000000" stroke-opacity="0.5" transform="rotate(89, 2782.89, 2830.51)" width="3153.848936" x="1205.969657" xlink:href="#lb" y="2782.751814"/>
  <rect class=" imageannotationLine imageannotationLinked" fill="#FFFF00" fill-opacity="0.2" height="120" id="svg_6" stroke="#000000" stroke-opacity="0.5" transform="rotate(89, 2670.57, 2618.41)" width="1705.481413" x="1817.829621" xlink:href="#lc" y="2558.413981"/>
  <rect class=" imageannotationLine imageannotationLinked" fill="#FFFF00" fill-opacity="0.2" height="100.003045" id="svg_8" stroke="#000000" stroke-opacity="0.5" transform="rotate(89, 2589.07, 2593.23)" width="2680.73438" x="1248.700502" xlink:href="#ld" y="2543.228325"/>
  <rect class=" imageannotationLine imageannotationLinked" fill="#FFFF00" fill-opacity="0.2" height="96.422819" id="svg_10" stroke="#000000" stroke-opacity="0.5" transform="rotate(89, 2463.14, 1983.43)" width="400.94123" x="2262.670021" xlink:href="#le" y="1935.217002"/>
  <rect class=" imageannotationLine imageannotationLinked" fill="#FFFF00" fill-opacity="0.2" height="120" id="svg_12" stroke="#000000" stroke-opacity="0.5" transform="rotate(89, 2390.03, 2754.92)" width="3029.937679" x="875.062318" xlink:href="#lf" y="2694.91658"/>
  <rect class=" imageannotationLine imageannotationLinked" fill="#FFFF00" fill-opacity="0.2" height="120" id="svg_14" stroke="#000000" stroke-opacity="0.5" transform="rotate(88, 2218.59, 2710.7)" width="2924.789959" x="756.194857" xlink:href="#lg" y="2650.696115"/>
  <rect class=" imageannotationLine imageannotationLinked" fill="#FFFF00" fill-opacity="0.2" height="120" id="svg_16" stroke="#000000" stroke-opacity="0.5" transform="rotate(89, 2031.2, 2588.76)" width="2740.305972" x="661.045259" xlink:href="#lh" y="2528.758616"/>
  <rect class=" imageannotationLine imageannotationLinked" fill="#FFFF00" fill-opacity="0.2" height="132.2078" id="svg_18" stroke="#000000" stroke-opacity="0.5" transform="rotate(89, 1834.62, 2688.25)" width="2932.396287" x="368.422575" xlink:href="#li" y="2622.14519"/>
  <rect class=" imageannotationLine imageannotationLinked" fill="#FFFF00" fill-opacity="0.2" height="111.931407" id="svg_20" stroke="#000000" stroke-opacity="0.5" transform="rotate(89, 1661.03, 2763.46)" width="3037.587452" x="142.233412" xlink:href="#lj" y="2707.498506"/>
  <rect class=" imageannotationLine imageannotationLinked" fill="#FFFF00" fill-opacity="0.2" height="120" id="svg_22" stroke="#000000" stroke-opacity="0.5" transform="rotate(89, 1487.63, 2412.15)" width="2289.143394" x="343.052948" xlink:href="#lk" y="2352.143806"/>
  <rect class=" imageannotationLine imageannotationLinked" fill="#FFFF00" fill-opacity="0.2" height="104.00244" id="svg_24" stroke="#000000" stroke-opacity="0.5" transform="rotate(89, 1346.12, 2453.98)" width="2287.188065" x="202.529719" xlink:href="#ll" y="2401.980895"/>
  <rect class=" imageannotationLine imageannotationLinked" fill="#FFFF00" fill-opacity="0.2" height="139.927255" id="svg_26" stroke="#000000" stroke-opacity="0.5" transform="rotate(89, 1197.11, 2808.94)" width="791.694413" x="801.259996" xlink:href="#lm" y="2738.972594"/>
  <rect class=" imageannotationLine imageannotationLinked" fill="#FFFF00" fill-opacity="0.2" height="120" id="svg_28" stroke="#000000" stroke-opacity="0.5" transform="rotate(89, 1082.13, 3110.02)" width="3601.620855" x="-718.678384" xlink:href="#ln" y="3050.021741"/>
 </g>

</svg>