<?xml version="1.0" encoding="UTF-8" standalone="no"?><svg xmlns="http://www.w3.org/2000/svg" xmlns:xlink="http://www.w3.org/1999/xlink" height="6144.000000000001" width="4096">
 <g>
  <title>Layer 1</title>
  <rect class=" imageannotationLine imageannotationLinked" fill="#FFFF00" fill-opacity="0.2" height="154.804187" id="svg_4" stroke="#000000" stroke-opacity="0.5" transform="rotate(88, 3071.83, 1788.56)" width="2709.075657" x="1717.28925" xlink:href="#la" y="1711.157583"/>
  <rect class=" imageannotationLine imageannotationLinked" fill="#FFFF00" fill-opacity="0.2" height="115.268533" id="svg_6" stroke="#000000" stroke-opacity="0.5" transform="rotate(87, 2845.37, 1240.03)" width="1650.467359" x="2020.13317" xlink:href="#lb" y="1182.391381"/>
  <rect class=" imageannotationLine imageannotationLinked" fill="#FFFF00" fill-opacity="0.2" height="133.219543" id="svg_8" stroke="#000000" stroke-opacity="0.5" transform="rotate(86, 2705.59, 1668.71)" width="2609.09082" x="1401.048808" xlink:href="#lc" y="1602.105913"/>
  <rect class=" imageannotationLine imageannotationLinked" fill="#FFFF00" fill-opacity="0.2" height="127.892542" id="svg_10" stroke="#000000" stroke-opacity="0.5" transform="rotate(87, 2504.61, 1505.05)" width="2281.876912" x="1363.672015" xlink:href="#ld" y="1441.102035"/>
  <rect class=" imageannotationLine imageannotationLinked" fill="#FFFF00" fill-opacity="0.2" height="120" id="svg_12" stroke="#000000" stroke-opacity="0.5" transform="rotate(87, 2329, 1934.18)" width="3189.090827" x="734.454825" xlink:href="#le" y="1874.183899"/>
  <rect class=" imageannotationLine imageannotationLinked" fill="#FFFF00" fill-opacity="0.2" height="134.979444" id="svg_14" stroke="#000000" stroke-opacity="0.5" transform="rotate(87, 2115.43, 1698.71)" width="2699.83492" x="765.515146" xlink:href="#lf" y="1631.219803"/>
  <rect class=" imageannotationLine imageannotationLinked" fill="#FFFF00" fill-opacity="0.2" height="120" id="svg_16" stroke="#000000" stroke-opacity="0.5" transform="rotate(87, 1846.98, 1058.09)" width="1366.795495" x="1163.582945" xlink:href="#lg" y="998.086067"/>
  <rect class=" imageannotationLine imageannotationLinked" fill="#FFFF00" fill-opacity="0.2" height="121.067948" id="svg_18" stroke="#000000" stroke-opacity="0.5" transform="rotate(87, 1694.54, 1424.15)" width="2029.090571" x="679.992" xlink:href="#lh" y="1363.618765"/>
  <rect class=" imageannotationLine imageannotationLinked" fill="#FFFF00" fill-opacity="0.2" height="120" id="svg_20" stroke="#000000" stroke-opacity="0.5" transform="rotate(87, 1534, 1629.18)" width="2289.090736" x="389.458746" xlink:href="#li" y="1569.180481"/>
  <rect class=" imageannotationLine imageannotationLinked" fill="#FFFF00" fill-opacity="0.2" height="124.804282" id="svg_23" stroke="#000000" stroke-opacity="0.5" transform="rotate(88, 3111.4, 4433.5)" width="2234.999953" x="1993.90259" xlink:href="#lj" y="4371.098328"/>
  <rect class=" imageannotationLine imageannotationLinked" fill="#FFFF00" fill-opacity="0.2" height="114.804311" id="svg_25" stroke="#000000" stroke-opacity="0.5" transform="rotate(90, 2936.4, 4588.5)" width="804.999964" x="2533.902436" xlink:href="#lk" y="4531.098018"/>
  <rect class=" imageannotationLine imageannotationLinked" fill="#FFFF00" fill-opacity="0.2" height="148.934757" id="svg_27" stroke="#000000" stroke-opacity="0.5" transform="rotate(88, 2728.47, 4581.1)" width="2490.000048" x="1483.469126" xlink:href="#ll" y="4506.635285"/>
  <rect class=" imageannotationLine imageannotationLinked" fill="#FFFF00" fill-opacity="0.2" height="134.831626" id="svg_29" stroke="#000000" stroke-opacity="0.5" transform="rotate(87, 2516.55, 4746.39)" width="2138.698413" x="1447.202473" xlink:href="#lm" y="4678.970748"/>
  <rect class=" imageannotationLine imageannotationLinked" fill="#FFFF00" fill-opacity="0.2" height="129.516358" id="svg_31" stroke="#000000" stroke-opacity="0.5" transform="rotate(86, 2284.04, 4532.97)" width="2185.000038" x="1191.540594" xlink:href="#ln" y="4468.208589"/>
  <rect class=" imageannotationLine imageannotationLinked" fill="#FFFF00" fill-opacity="0.2" height="144.556246" id="svg_33" stroke="#000000" stroke-opacity="0.5" transform="rotate(87, 2085.81, 4337.21)" width="1831.859183" x="1169.879685" xlink:href="#lo" y="4264.934321"/>
  <rect class=" imageannotationLine imageannotationLinked" fill="#FFFF00" fill-opacity="0.2" height="149.81105" id="svg_35" stroke="#000000" stroke-opacity="0.5" transform="rotate(87, 1888.91, 4236.13)" width="1689.999926" x="1043.909571" xlink:href="#lp" y="4161.225275"/>
  <rect class=" imageannotationLine imageannotationLinked" fill="#FFFF00" fill-opacity="0.2" height="134.831656" id="svg_37" stroke="#000000" stroke-opacity="0.5" transform="rotate(87, 1711.43, 4544.02)" width="2264.999991" x="578.929758" xlink:href="#lq" y="4476.606755"/>
  <rect class=" imageannotationLine imageannotationLinked" fill="#FFFF00" fill-opacity="0.2" height="84.804409" id="svg_39" stroke="#000000" stroke-opacity="0.5" transform="rotate(90, 1606.4, 4668.5)" width="285.00001" x="1463.902194" xlink:href="#lr" y="4626.097755"/>
  <rect class=" imageannotationLine imageannotationLinked" fill="#FFFF00" fill-opacity="0.2" height="149.7177" id="svg_41" stroke="#000000" stroke-opacity="0.5" transform="rotate(89, 1468.95, 4658.46)" width="2505" x="216.445359" xlink:href="#ls" y="4583.597129"/>
 </g>

</svg>