<?xml version="1.0" encoding="UTF-8" standalone="no"?><svg xmlns="http://www.w3.org/2000/svg" xmlns:xlink="http://www.w3.org/1999/xlink" height="6144.000000000001" width="4096">
 <g>
  <title>Layer 1</title>
  <rect class=" imageannotationLine imageannotationLinked" fill="#FFFF00" fill-opacity="0.2" height="134.813316" id="svg_2" stroke="#000000" stroke-opacity="0.5" transform="rotate(-92, 846.605, 4303.17)" width="1371.817264" x="160.698274" xlink:href="#la" y="4235.763001"/>
  <rect class=" imageannotationLine imageannotationLinked" fill="#FFFF00" fill-opacity="0.2" height="93.441893" id="svg_4" stroke="#000000" stroke-opacity="0.5" transform="rotate(-92, 962.292, 3927.79)" width="711.816811" x="606.382345" xlink:href="#lb" y="3881.06756"/>
  <rect class=" imageannotationLine imageannotationLinked" fill="#FFFF00" fill-opacity="0.2" height="119.996955" id="svg_6" stroke="#000000" stroke-opacity="0.5" transform="rotate(-92, 1049.01, 3997.91)" width="2051.817603" x="23.09899" xlink:href="#lc" y="3937.908731"/>
  <rect class=" imageannotationLine imageannotationLinked" fill="#FFFF00" fill-opacity="0.2" height="115" id="svg_8" stroke="#000000" stroke-opacity="0.5" transform="rotate(-92, 1242.4, 4060.93)" width="1925.563048" x="279.617439" xlink:href="#ld" y="4003.431355"/>
  <rect class=" imageannotationLine imageannotationLinked" fill="#FFFF00" fill-opacity="0.2" height="115" id="svg_10" stroke="#000000" stroke-opacity="0.5" transform="rotate(-91, 1431.51, 4157.82)" width="1691.817438" x="585.596062" xlink:href="#le" y="4100.319824"/>
  <rect class=" imageannotationLine imageannotationLinked" fill="#FFFF00" fill-opacity="0.2" height="115" id="svg_12" stroke="#000000" stroke-opacity="0.5" transform="rotate(-92, 1584.59, 4192.85)" width="1631.044458" x="769.071074" xlink:href="#lf" y="4135.3461"/>
  <rect class=" imageannotationLine imageannotationLinked" fill="#FFFF00" fill-opacity="0.2" height="95.186681" id="svg_14" stroke="#000000" stroke-opacity="0.5" transform="rotate(-92, 1740.81, 4140.29)" width="1763.550202" x="859.029347" xlink:href="#lg" y="4092.697074"/>
  <rect class=" imageannotationLine imageannotationLinked" fill="#FFFF00" fill-opacity="0.2" height="85" id="svg_16" stroke="#000000" stroke-opacity="0.5" transform="rotate(-90, 1846.51, 3812.82)" width="501.816691" x="1595.598213" xlink:href="#lh" y="3770.319656"/>
  <rect class=" imageannotationLine imageannotationLinked" fill="#FFFF00" fill-opacity="0.2" height="94.314246" id="svg_18" stroke="#000000" stroke-opacity="0.5" transform="rotate(-92, 1920.98, 4185.34)" width="1706.450247" x="1067.756276" xlink:href="#li" y="4138.183677"/>
  <rect class=" imageannotationLine imageannotationLinked" fill="#FFFF00" fill-opacity="0.2" height="115" id="svg_20" stroke="#000000" stroke-opacity="0.5" transform="rotate(-91, 2076.05, 3822.34)" width="2352.786174" x="899.658144" xlink:href="#lj" y="3764.843479"/>
  <rect class=" imageannotationLine imageannotationLinked" fill="#FFFF00" fill-opacity="0.2" height="115" id="svg_22" stroke="#000000" stroke-opacity="0.5" transform="rotate(-93, 2236.33, 3902.02)" width="2253.423536" x="1109.619595" xlink:href="#lk" y="3844.521233"/>
  <rect class=" imageannotationLine imageannotationLinked" fill="#FFFF00" fill-opacity="0.2" height="115" id="svg_24" stroke="#000000" stroke-opacity="0.5" transform="rotate(-93, 2436.5, 3947.82)" width="2161.817608" x="1355.595383" xlink:href="#ll" y="3890.31958"/>
  <rect class=" imageannotationLine imageannotationLinked" fill="#FFFF00" fill-opacity="0.2" height="104.490347" id="svg_26" stroke="#000000" stroke-opacity="0.5" transform="rotate(-93, 2586.75, 4015.05)" width="1916.817495" x="1628.343781" xlink:href="#lm" y="3962.799626"/>
  <rect class=" imageannotationLine imageannotationLinked" fill="#FFFF00" fill-opacity="0.2" height="124.986289" id="svg_28" stroke="#000000" stroke-opacity="0.5" transform="rotate(-93, 2751.52, 4040.58)" width="1936.817552" x="1783.109405" xlink:href="#ln" y="3978.088381"/>
  <rect class=" imageannotationLine imageannotationLinked" fill="#FFFF00" fill-opacity="0.2" height="99.985905" id="svg_31" stroke="#000000" stroke-opacity="0.5" transform="rotate(-90, 1004, 1458.5)" width="1450.000026" x="279.003879" xlink:href="#lo" y="1408.509305"/>
  <rect class=" imageannotationLine imageannotationLinked" fill="#FFFF00" fill-opacity="0.2" height="99.985901" id="svg_33" stroke="#000000" stroke-opacity="0.5" transform="rotate(-92, 1174.01, 1461)" width="1444.999963" x="451.507815" xlink:href="#lp" y="1411.006043"/>
  <rect class=" imageannotationLine imageannotationLinked" fill="#FFFF00" fill-opacity="0.2" height="99.985901" id="svg_35" stroke="#000000" stroke-opacity="0.5" transform="rotate(-92, 1369.02, 1553.79)" width="1649.412996" x="544.311582" xlink:href="#lq" y="1503.799367"/>
  <rect class=" imageannotationLine imageannotationLinked" fill="#FFFF00" fill-opacity="0.2" height="99.985901" id="svg_37" stroke="#000000" stroke-opacity="0.5" transform="rotate(-92, 1538.71, 1540.08)" width="1596.846882" x="740.290646" xlink:href="#lr" y="1490.087931"/>
  <rect class=" imageannotationLine imageannotationLinked" fill="#FFFF00" fill-opacity="0.2" height="99.985901" id="svg_39" stroke="#000000" stroke-opacity="0.5" transform="rotate(-92, 1694.01, 1541)" width="1595" x="896.507813" xlink:href="#ls" y="1491.006043"/>
  <rect class=" imageannotationLine imageannotationLinked" fill="#FFFF00" fill-opacity="0.2" height="99.985901" id="svg_41" stroke="#000000" stroke-opacity="0.5" transform="rotate(-92, 1864.01, 1536)" width="1575.000017" x="1076.50836" xlink:href="#lt" y="1486.006043"/>
  <rect class=" imageannotationLine imageannotationLinked" fill="#FFFF00" fill-opacity="0.2" height="99.985901" id="svg_43" stroke="#000000" stroke-opacity="0.5" transform="rotate(-92, 2009.01, 1501)" width="1525.000014" x="1246.50769" xlink:href="#lu" y="1451.005921"/>
  <rect class=" imageannotationLine imageannotationLinked" fill="#FFFF00" fill-opacity="0.2" height="99.985901" id="svg_45" stroke="#000000" stroke-opacity="0.5" transform="rotate(-92, 2159.01, 1518.5)" width="1600.00008" x="1359.007812" xlink:href="#lv" y="1468.506043"/>
  <rect class=" imageannotationLine imageannotationLinked" fill="#FFFF00" fill-opacity="0.2" height="99.985901" id="svg_47" stroke="#000000" stroke-opacity="0.5" transform="rotate(-93, 2334.01, 1556)" width="1494.999998" x="1586.507688" xlink:href="#lw" y="1506.005921"/>
  <rect class=" imageannotationLine imageannotationLinked" fill="#FFFF00" fill-opacity="0.2" height="99.985901" id="svg_49" stroke="#000000" stroke-opacity="0.5" transform="rotate(-93, 2484.27, 1500.99)" width="1555.013673" x="1706.762221" xlink:href="#lx" y="1450.991955"/>
  <rect class=" imageannotationLine imageannotationLinked" fill="#FFFF00" fill-opacity="0.2" height="99.985901" id="svg_51" stroke="#000000" stroke-opacity="0.5" transform="rotate(-93, 2643.61, 1498.39)" width="1560.241082" x="1863.488699" xlink:href="#ly" y="1448.396411"/>
  <rect class=" imageannotationLine imageannotationLinked" fill="#FFFF00" fill-opacity="0.2" height="99.985901" id="svg_53" stroke="#000000" stroke-opacity="0.5" transform="rotate(-90, 2854.01, 2068.5)" width="450.000017" x="2629.007827" xlink:href="#lz" y="2018.506043"/>
 </g>
</svg>