<?xml version="1.0" encoding="UTF-8" standalone="no"?><svg xmlns="http://www.w3.org/2000/svg" xmlns:xlink="http://www.w3.org/1999/xlink" height="6144.000000000001" width="4096">
 <g>
  <title>Layer 1</title>
  <rect class=" imageannotationLine imageannotationLinked" fill="#FFFF00" fill-opacity="0.2" height="90.000001" id="svg_2" stroke="#000000" stroke-opacity="0.5" transform="rotate(90, 3874, 1869.34)" width="493.332285" x="3627.335807" xlink:href="#la" y="1824.336592"/>
  <rect class=" imageannotationLine imageannotationLinked" fill="#FFFF00" fill-opacity="0.2" height="105" id="svg_4" stroke="#000000" stroke-opacity="0.5" transform="rotate(90, 3646.5, 2694.34)" width="693.332429" x="3299.835436" xlink:href="#lb" y="2641.836487"/>
  <rect class=" imageannotationLine imageannotationLinked" fill="#FFFF00" fill-opacity="0.2" height="105" id="svg_6" stroke="#000000" stroke-opacity="0.5" transform="rotate(90, 3656.5, 4116.84)" width="248.332182" x="3532.335802" xlink:href="#lc" y="4064.336487"/>
  <rect class=" imageannotationLine imageannotationLinked" fill="#FFFF00" fill-opacity="0.2" height="90.009138" id="svg_8" stroke="#000000" stroke-opacity="0.5" transform="rotate(88, 3473.99, 3306.57)" width="2698.333488" x="2124.824693" xlink:href="#Concepte" y="3261.570232"/>
  <rect class=" imageannotationLine imageannotationLinked" fill="#FFFF00" fill-opacity="0.2" height="105" id="svg_10" stroke="#000000" stroke-opacity="0.5" transform="rotate(88, 3276.5, 3306.84)" width="2648.333404" x="1952.334114" xlink:href="#ld" y="3254.336487"/>
  <rect class=" imageannotationLine imageannotationLinked" fill="#FFFF00" fill-opacity="0.2" height="105" id="svg_12" stroke="#000000" stroke-opacity="0.5" transform="rotate(88, 3071.5, 3376.84)" width="2708.33337" x="1717.33407" xlink:href="#le" y="3324.336487"/>
  <rect class=" imageannotationLine imageannotationLinked" fill="#FFFF00" fill-opacity="0.2" height="105" id="svg_14" stroke="#000000" stroke-opacity="0.5" transform="rotate(89, 2856.5, 3399.34)" width="2683.333412" x="1514.834087" xlink:href="#lf" y="3346.836487"/>
  <rect class=" imageannotationLine imageannotationLinked" fill="#FFFF00" fill-opacity="0.2" height="105" id="svg_16" stroke="#000000" stroke-opacity="0.5" transform="rotate(89, 2641.5, 3291.84)" width="2598.333319" x="1342.334147" xlink:href="#lg" y="3239.336487"/>
  <rect class=" imageannotationLine imageannotationLinked" fill="#FFFF00" fill-opacity="0.2" height="94.831597" id="svg_18" stroke="#000000" stroke-opacity="0.5" transform="rotate(88, 2421.42, 3342.01)" width="2678.333387" x="1082.252988" xlink:href="#lh" y="3294.597696"/>
  <rect class=" imageannotationLine imageannotationLinked" fill="#FFFF00" fill-opacity="0.2" height="95.001521" id="svg_20" stroke="#000000" stroke-opacity="0.5" transform="rotate(88, 2216.41, 3384.21)" width="2713.59967" x="859.609906" xlink:href="#li" y="3336.707671"/>
  <rect class=" imageannotationLine imageannotationLinked" fill="#FFFF00" fill-opacity="0.2" height="104.813324" id="svg_22" stroke="#000000" stroke-opacity="0.5" transform="rotate(89, 2016.6, 3402.18)" width="2758.333454" x="637.433428" xlink:href="#lj" y="3349.775962"/>
  <rect class=" imageannotationLine imageannotationLinked" fill="#FFFF00" fill-opacity="0.2" height="95.263308" id="svg_24" stroke="#000000" stroke-opacity="0.5" transform="rotate(89, 1816.63, 3384.42)" width="2623.333446" x="504.966697" xlink:href="#lk" y="3336.789923"/>
  <rect class=" imageannotationLine imageannotationLinked" fill="#FFFF00" fill-opacity="0.2" height="105" id="svg_26" stroke="#000000" stroke-opacity="0.5" transform="rotate(89, 1611.5, 3396.84)" width="2808.333538" x="207.334001" xlink:href="#ll" y="3344.336487"/>
  <rect class=" imageannotationLine imageannotationLinked" fill="#FFFF00" fill-opacity="0.2" height="105" id="svg_28" stroke="#000000" stroke-opacity="0.5" transform="rotate(88, 1406.5, 3374.34)" width="2803.333513" x="4.834005" xlink:href="#lm" y="3321.836487"/>
  <rect class=" imageannotationLine imageannotationLinked" fill="#FFFF00" fill-opacity="0.2" height="105" id="svg_30" stroke="#000000" stroke-opacity="0.5" transform="rotate(89, 1211.5, 3379.34)" width="2753.333429" x="-165.165961" xlink:href="#ln" y="3326.836487"/>
  <rect class=" imageannotationLine imageannotationLinked" fill="#FFFF00" fill-opacity="0.2" height="105" id="svg_32" stroke="#000000" stroke-opacity="0.5" transform="rotate(89, 1016.5, 3359.34)" width="2723.333446" x="-345.165939" xlink:href="#lo" y="3306.836487"/>
  <rect class=" imageannotationLine imageannotationLinked" fill="#FFFF00" fill-opacity="0.2" height="100" id="svg_34" stroke="#000000" stroke-opacity="0.5" transform="rotate(89, 803.26, 3391.85)" width="2748.346407" x="-570.914061" xlink:href="#lp" y="3341.849384"/>
  <rect class=" imageannotationLine imageannotationLinked" fill="#FFFF00" fill-opacity="0.2" height="105" id="svg_36" stroke="#000000" stroke-opacity="0.5" transform="rotate(89, 621.502, 3404.34)" width="2713.333395" x="-735.165933" xlink:href="#lq" y="3351.836487"/>
  <rect class=" imageannotationLine imageannotationLinked" fill="#FFFF00" fill-opacity="0.2" height="109.999242" id="svg_38" stroke="#000000" stroke-opacity="0.5" transform="rotate(89, 414, 3429.29)" width="2753.333429" x="-962.664557" xlink:href="#lr" y="3374.289449"/>
 </g>
</svg>