<?xml version="1.0" encoding="UTF-8" standalone="no"?><svg xmlns="http://www.w3.org/2000/svg" xmlns:xlink="http://www.w3.org/1999/xlink" height="6144.000000000001" width="4096">
 <g>
  <title>Layer 1</title>
  <rect class=" imageannotationLine imageannotationLinked" fill="#FFFF00" fill-opacity="0.2" height="120" id="svg_2" stroke="#000000" stroke-opacity="0.5" transform="rotate(176, 2025.66, 5146.21)" width="2909.925307" x="570.695875" xlink:href="#la" y="5086.213523"/>
  <rect class=" imageannotationLine imageannotationLinked" fill="#FFFF00" fill-opacity="0.2" height="119.128439" id="svg_4" stroke="#000000" stroke-opacity="0.5" transform="rotate(175, 2066.02, 4960.57)" width="2999.54543" x="566.241684" xlink:href="#lb" y="4901.001274"/>
  <rect class=" imageannotationLine imageannotationLinked" fill="#FFFF00" fill-opacity="0.2" height="110.038054" id="svg_6" stroke="#000000" stroke-opacity="0.5" transform="rotate(175, 1770.62, 4836.04)" width="539.546635" x="1500.84517" xlink:href="#lc" y="4781.018691"/>
  <rect class=" imageannotationLine imageannotationLinked" fill="#FFFF00" fill-opacity="0.2" height="109.166493" id="svg_8" stroke="#000000" stroke-opacity="0.5" transform="rotate(175, 2065.58, 4630.6)" width="2889.545572" x="620.807569" xlink:href="#ld" y="4576.020428"/>
  <rect class=" imageannotationLine imageannotationLinked" fill="#FFFF00" fill-opacity="0.2" height="100.076108" id="svg_10" stroke="#000000" stroke-opacity="0.5" transform="rotate(175, 1832.68, 4441.08)" width="434.546684" x="1615.411493" xlink:href="#le" y="4391.036837"/>
  <rect class=" imageannotationLine imageannotationLinked" fill="#FFFF00" fill-opacity="0.2" height="129.961953" id="svg_12" stroke="#000000" stroke-opacity="0.5" transform="rotate(175, 2021.06, 4248.62)" width="3000.624621" x="520.751631" xlink:href="#lf" y="4183.643981"/>
  <rect class=" imageannotationLine imageannotationLinked" fill="#FFFF00" fill-opacity="0.2" height="120" id="svg_14" stroke="#000000" stroke-opacity="0.5" transform="rotate(180, 1788.55, 4091)" width="534.5466" x="1521.273456" xlink:href="#lg" y="4031.000244"/>
  <rect class=" imageannotationLine imageannotationLinked" fill="#FFFF00" fill-opacity="0.2" height="109.228663" id="svg_16" stroke="#000000" stroke-opacity="0.5" transform="rotate(177, 2045.55, 3846.42)" width="2980.027873" x="555.531173" xlink:href="#lh" y="3791.807758"/>
  <rect class=" imageannotationLine imageannotationLinked" fill="#FFFF00" fill-opacity="0.2" height="99.999998" id="svg_20" stroke="#000000" stroke-opacity="0.5" transform="rotate(175, 1638.55, 3736)" width="564.546607" x="1356.273431" xlink:href="#li" y="3686.000191"/>
  <rect class=" imageannotationLine imageannotationLinked" fill="#FFFF00" fill-opacity="0.2" height="109.236144" id="svg_22" stroke="#000000" stroke-opacity="0.5" transform="rotate(178, 2236.09, 3624.91)" width="2497.971559" x="987.101371" xlink:href="#lj" y="3570.288922"/>
  <rect class=" imageannotationLine imageannotationLinked" fill="#FFFF00" fill-opacity="0.2" height="118.953016" id="svg_24" stroke="#000000" stroke-opacity="0.5" transform="rotate(178, 2086.03, 3515.48)" width="2879.545503" x="646.257875" xlink:href="#lk" y="3456.001007"/>
  <rect class=" imageannotationLine imageannotationLinked" fill="#FFFF00" fill-opacity="0.2" height="90.038053" id="svg_26" stroke="#000000" stroke-opacity="0.5" transform="rotate(175, 2540.13, 3364.33)" width="494.548415" x="2292.8521" xlink:href="#ll" y="3319.312208"/>
  <rect class=" imageannotationLine imageannotationLinked" fill="#FFFF00" fill-opacity="0.2" height="100" id="svg_28" stroke="#000000" stroke-opacity="0.5" transform="rotate(178, 1950.73, 3272.06)" width="3060.206714" x="420.630697" xlink:href="#lm" y="3222.058904"/>
  <rect class=" imageannotationLine imageannotationLinked" fill="#FFFF00" fill-opacity="0.2" height="109.462976" id="svg_30" stroke="#000000" stroke-opacity="0.5" transform="rotate(177, 2017.84, 3092.48)" width="2977.073256" x="529.300613" xlink:href="#ln" y="3037.741868"/>
  <rect class=" imageannotationLine imageannotationLinked" fill="#FFFF00" fill-opacity="0.2" height="109.462941" id="svg_32" stroke="#000000" stroke-opacity="0.5" transform="rotate(177, 2114.25, 2879.13)" width="2783.559832" x="722.469465" xlink:href="#lo" y="2824.397271"/>
  <rect class=" imageannotationLine imageannotationLinked" fill="#FFFF00" fill-opacity="0.2" height="100" id="svg_34" stroke="#000000" stroke-opacity="0.5" transform="rotate(175, 1430.1, 2717.64)" width="1252.025928" x="804.084178" xlink:href="#lp" y="2667.644569"/>
  <rect class=" imageannotationLine imageannotationLinked" fill="#FFFF00" fill-opacity="0.2" height="132.073862" id="svg_36" stroke="#000000" stroke-opacity="0.5" transform="rotate(177, 2105.88, 2514.82)" width="2871.71399" x="670.022405" xlink:href="#lq" y="2448.779324"/>
  <rect class=" imageannotationLine imageannotationLinked" fill="#FFFF00" fill-opacity="0.2" height="109.999996" id="svg_38" stroke="#000000" stroke-opacity="0.5" transform="rotate(178, 1463.55, 2376)" width="404.546656" x="1261.276179" xlink:href="#lr" y="2321.000266"/>
  <rect class=" imageannotationLine imageannotationLinked" fill="#FFFF00" fill-opacity="0.2" height="113.932729" id="svg_40" stroke="#000000" stroke-opacity="0.5" transform="rotate(177, 2077.78, 2213.93)" width="2916.852738" x="619.35898" xlink:href="#ls" y="2156.963218"/>
  <rect class=" imageannotationLine imageannotationLinked" fill="#FFFF00" fill-opacity="0.2" height="100" id="svg_42" stroke="#000000" stroke-opacity="0.5" transform="rotate(180, 1721.05, 2066)" width="499.546632" x="1471.273997" xlink:href="#lt" y="2016.000244"/>
  <rect class=" imageannotationLine imageannotationLinked" fill="#FFFF00" fill-opacity="0.2" height="104.993153" id="svg_44" stroke="#000000" stroke-opacity="0.5" transform="rotate(177, 2006.18, 1903.49)" width="2989.545461" x="511.404745" xlink:href="#lu" y="1850.996622"/>
  <rect class=" imageannotationLine imageannotationLinked" fill="#FFFF00" fill-opacity="0.2" height="108.654632" id="svg_46" stroke="#000000" stroke-opacity="0.5" transform="rotate(175, 2479.73, 1735.89)" width="1409.546265" x="1774.958241" xlink:href="#lv" y="1681.565117"/>
  <rect class=" imageannotationLine imageannotationLinked" fill="#FFFF00" fill-opacity="0.2" height="95.019025" id="svg_48" stroke="#000000" stroke-opacity="0.5" transform="rotate(-175, 1084.27, 1646.31)" width="1151.544063" x="508.499109" xlink:href="#lw" y="1598.798098"/>
  <rect class=" imageannotationLine imageannotationLinked" fill="#FFFF00" fill-opacity="0.2" height="93.697939" id="svg_50" stroke="#000000" stroke-opacity="0.5" transform="rotate(177, 2348.98, 1534.22)" width="2382.378279" x="1157.795775" xlink:href="#lx" y="1487.369342"/>
  <rect class=" imageannotationLine imageannotationLinked" fill="#FFFF00" fill-opacity="0.2" height="119.565175" id="svg_52" stroke="#000000" stroke-opacity="0.5" transform="rotate(178, 1923.29, 1361.31)" width="3204.034084" x="321.275923" xlink:href="#ly" y="1301.526474"/>
  <rect class=" imageannotationLine imageannotationLinked" fill="#FFFF00" fill-opacity="0.2" height="70" id="svg_5" stroke="#000000" stroke-opacity="0.5" transform="rotate(180 1016.5 1513.15)" width="375.000009" x="829.000231" xlink:href="#lx1" y="1478.147693"/>
 </g>
</svg>