<?xml version="1.0" encoding="UTF-8" standalone="no"?><svg xmlns="http://www.w3.org/2000/svg" xmlns:xlink="http://www.w3.org/1999/xlink" height="6144.000000000001" width="4096">
 <g>
  <title>Layer 1</title>
  <rect class=" imageannotationLine imageannotationLinked" fill="#FFFF00" fill-opacity="0.2" height="79.91426" id="svg_4" stroke="#000000" stroke-opacity="0.5" transform="rotate(-1, 3306.41, 690.958)" width="978.636532" x="2817.092545" xlink:href="#la" y="651.000607"/>
  <rect class=" imageannotationLine imageannotationLinked" fill="#FFFF00" fill-opacity="0.2" height="100" id="svg_6" stroke="#000000" stroke-opacity="0.5" transform="rotate(-1, 2613.25, 840.926)" width="2352.15125" x="1437.180904" xlink:href="#lb" y="790.925453"/>
  <rect class=" imageannotationLine imageannotationLinked" fill="#FFFF00" fill-opacity="0.2" height="100" id="svg_8" stroke="#000000" stroke-opacity="0.5" transform="rotate(-1, 2609, 1006)" width="2383.636265" x="1417.181576" xlink:href="#lc" y="955.999756"/>
  <rect class=" imageannotationLine imageannotationLinked" fill="#FFFF00" fill-opacity="0.2" height="84.915024" id="svg_10" stroke="#000000" stroke-opacity="0.5" transform="rotate(-1, 2416.63, 1163.54)" width="2018.636303" x="1407.312928" xlink:href="#ld" y="1121.083615"/>
  <rect class=" imageannotationLine imageannotationLinked" fill="#FFFF00" fill-opacity="0.2" height="95.000762" id="svg_12" stroke="#000000" stroke-opacity="0.5" transform="rotate(-1, 2544.04, 1303.5)" width="2343.636209" x="1372.225169" xlink:href="#le" y="1255.998626"/>
  <rect class=" imageannotationLine imageannotationLinked" fill="#FFFF00" fill-opacity="0.2" height="90.001523" id="svg_14" stroke="#000000" stroke-opacity="0.5" transform="rotate(-1, 2566.59, 1426)" width="2378.636221" x="1377.26882" xlink:href="#lf" y="1380.997494"/>
  <rect class=" imageannotationLine imageannotationLinked" fill="#FFFF00" fill-opacity="0.2" height="100.000035" id="svg_16" stroke="#000000" stroke-opacity="0.5" transform="rotate(-1, 2366.5, 1571)" width="2008.636363" x="1362.18129" xlink:href="#lg" y="1520.999639"/>
  <rect class=" imageannotationLine imageannotationLinked" fill="#FFFF00" fill-opacity="0.2" height="90.001523" id="svg_18" stroke="#000000" stroke-opacity="0.5" transform="rotate(-1, 2548.91, 1701)" width="2403.636293" x="1347.094344" xlink:href="#lh" y="1656.000537"/>
  <rect class=" imageannotationLine imageannotationLinked" fill="#FFFF00" fill-opacity="0.2" height="100" id="svg_20" stroke="#000000" stroke-opacity="0.5" transform="rotate(-2, 2421.5, 1841)" width="2068.6363" x="1387.181326" xlink:href="#li" y="1790.999756"/>
  <rect class=" imageannotationLine imageannotationLinked" fill="#FFFF00" fill-opacity="0.2" height="115.165439" id="svg_22" stroke="#000000" stroke-opacity="0.5" transform="rotate(-2, 2589.09, 1963.58)" width="2413.636234" x="1382.271803" xlink:href="#lj" y="1906.001204"/>
  <rect class=" imageannotationLine imageannotationLinked" fill="#FFFF00" fill-opacity="0.2" height="104.647958" id="svg_24" stroke="#000000" stroke-opacity="0.5" transform="rotate(-2, 2356.42, 2108.68)" width="1988.636335" x="1362.100138" xlink:href="#lk" y="2056.353203"/>
  <rect class=" imageannotationLine imageannotationLinked" fill="#FFFF00" fill-opacity="0.2" height="114.471864" id="svg_27" stroke="#000000" stroke-opacity="0.5" transform="rotate(179, 2191.59, 5408.24)" width="2795.000029" x="794.086639" xlink:href="#ll" y="5350.999834"/>
  <rect class=" imageannotationLine imageannotationLinked" fill="#FFFF00" fill-opacity="0.2" height="109.644884" id="svg_29" stroke="#000000" stroke-opacity="0.5" transform="rotate(178, 2262.31, 5254.83)" width="2743.526548" x="890.543798" xlink:href="#lm" y="5200.012283"/>
  <rect class=" imageannotationLine imageannotationLinked" fill="#FFFF00" fill-opacity="0.2" height="99.302035" id="svg_31" stroke="#000000" stroke-opacity="0.5" transform="rotate(178, 2286.41, 5085.65)" width="2695.000036" x="938.906258" xlink:href="#ln" y="5036.003196"/>
  <rect class=" imageannotationLine imageannotationLinked" fill="#FFFF00" fill-opacity="0.2" height="94.828511" id="svg_33" stroke="#000000" stroke-opacity="0.5" transform="rotate(178, 2173.83, 4898.42)" width="2840" x="753.82955" xlink:href="#lo" y="4851.003497"/>
  <rect class=" imageannotationLine imageannotationLinked" fill="#FFFF00" fill-opacity="0.2" height="104.473419" id="svg_35" stroke="#000000" stroke-opacity="0.5" transform="rotate(178, 2283.95, 4739.37)" width="2710.134822" x="928.881124" xlink:href="#lp" y="4687.139084"/>
  <rect class=" imageannotationLine imageannotationLinked" fill="#FFFF00" fill-opacity="0.2" height="104.647957" id="svg_37" stroke="#000000" stroke-opacity="0.5" transform="rotate(177, 2569.23, 4555.28)" width="2059.635644" x="1539.416132" xlink:href="#lq" y="4502.953927"/>
 </g>

</svg>