<?xml version="1.0" encoding="UTF-8" standalone="no"?><svg xmlns="http://www.w3.org/2000/svg" xmlns:xlink="http://www.w3.org/1999/xlink" height="6144" width="4096">
 <g>
  <title>Layer 1</title>
  <rect class=" imageannotationLine imageannotationLinked" fill="#FFFF00" fill-opacity="0.2" height="116.002231" id="svg_2" stroke="#000000" stroke-opacity="0.5" transform="rotate(88, 2839.82, 3149.56)" width="3174.023731" x="1252.80871" xlink:href="#la" y="3091.561865"/>
  <rect class=" imageannotationLine imageannotationLinked" fill="#FFFF00" fill-opacity="0.2" height="126.738746" id="svg_4" stroke="#000000" stroke-opacity="0.5" transform="rotate(88, 2672.6, 3147.92)" width="3276.149912" x="1034.524003" xlink:href="#Du-hoerst" y="3084.556639"/>
  <rect class=" imageannotationLine imageannotationLinked" fill="#FFFF00" fill-opacity="0.2" height="143.287396" id="svg_6" stroke="#000000" stroke-opacity="0.5" transform="rotate(88, 2480.75, 3148.63)" width="3366.558388" x="797.472223" xlink:href="#Beginnt" y="3076.984754"/>
  <rect class=" imageannotationLine imageannotationLinked" fill="#FFFF00" fill-opacity="0.2" height="120" id="svg_8" stroke="#000000" stroke-opacity="0.5" transform="rotate(88, 2309.03, 3150.23)" width="3370.793328" x="623.629281" xlink:href="#lb" y="3090.23491"/>
  <rect class=" imageannotationLine imageannotationLinked" fill="#FFFF00" fill-opacity="0.2" height="120" id="svg_10" stroke="#000000" stroke-opacity="0.5" transform="rotate(88, 2123.09, 3159.03)" width="3358.725194" x="443.721948" xlink:href="#lc" y="3099.026755"/>
  <rect class=" imageannotationLine imageannotationLinked" fill="#FFFF00" fill-opacity="0.2" height="120" id="svg_12" stroke="#000000" stroke-opacity="0.5" transform="rotate(88, 1940.36, 3002.23)" width="3143.392951" x="368.661094" xlink:href="#ld" y="2942.234495"/>
  <rect class=" imageannotationLine imageannotationLinked" fill="#FFFF00" fill-opacity="0.2" height="147.752365" id="svg_14" stroke="#000000" stroke-opacity="0.5" transform="rotate(87, 1763.32, 3117.25)" width="3366.631585" x="80.000126" xlink:href="#le" y="3043.374267"/>
  <rect class=" imageannotationLine imageannotationLinked" fill="#FFFF00" fill-opacity="0.2" height="131.983581" id="svg_16" stroke="#000000" stroke-opacity="0.5" transform="rotate(87, 1552.01, 3048.24)" width="3279.8158" x="-87.894225" xlink:href="#lf" y="2982.245933"/>
  <rect class=" imageannotationLine imageannotationLinked" fill="#FFFF00" fill-opacity="0.2" height="120" id="svg_18" stroke="#000000" stroke-opacity="0.5" transform="rotate(87, 1348.78, 3082.7)" width="3385.766688" x="-344.102329" xlink:href="#lg" y="3022.697914"/>
  <rect class=" imageannotationLine imageannotationLinked" fill="#FFFF00" fill-opacity="0.2" height="120" id="svg_20" stroke="#000000" stroke-opacity="0.5" transform="rotate(87, 1178.79, 3120.15)" width="3462.5" x="-552.460938" xlink:href="#lh" y="3060.149781"/>
  <rect class=" imageannotationLine imageannotationLinked" fill="#FFFF00" fill-opacity="0.2" height="120" id="svg_22" stroke="#000000" stroke-opacity="0.5" transform="rotate(89, 974.789, 3121.11)" width="3462.5" x="-756.460938" xlink:href="#li" y="3061.106405"/>
  <rect class=" imageannotationLine imageannotationLinked" fill="#FFFF00" fill-opacity="0.2" height="120" id="svg_24" stroke="#000000" stroke-opacity="0.5" transform="rotate(89, 804.661, 3121.31)" width="3342.51819" x="-866.596884" xlink:href="#lj" y="3061.305791"/>
  <rect class=" imageannotationLine imageannotationLinked" fill="#FFFF00" fill-opacity="0.2" height="120" id="svg_26" stroke="#000000" stroke-opacity="0.5" transform="rotate(89, 626.867, 3062.62)" width="3330.659637" x="-1038.462524" xlink:href="#lk" y="3002.61879"/>
  <rect class=" imageannotationLine imageannotationLinked" fill="#FFFF00" fill-opacity="0.2" height="120" id="svg_29" stroke="#000000" stroke-opacity="0.5" transform="rotate(90, 3144, 1346)" width="324" x="2982" xlink:href="#ll" y="1270.000488"/>
 </g>

</svg>