<?xml version="1.0" encoding="UTF-8" standalone="no"?><svg xmlns="http://www.w3.org/2000/svg" xmlns:xlink="http://www.w3.org/1999/xlink" height="6144.000000000001" width="4096">
 <g>
  <title>Layer 1</title>
  <rect class=" imageannotationLine imageannotationLinked" fill="#FFFF00" fill-opacity="0.2" height="120" id="svg_2" stroke="#000000" stroke-opacity="0.5" transform="rotate(88, 3004, 2462.59)" width="2449.545849" x="1779.226564" xlink:href="#la" y="2402.586426"/>
  <rect class=" imageannotationLine imageannotationLinked" fill="#FFFF00" fill-opacity="0.2" height="120" id="svg_4" stroke="#000000" stroke-opacity="0.5" transform="rotate(88, 2819, 2467.59)" width="2439.545795" x="1599.226562" xlink:href="#lb" y="2407.586426"/>
  <rect class=" imageannotationLine imageannotationLinked" fill="#FFFF00" fill-opacity="0.2" height="80.000002" id="svg_8" stroke="#000000" stroke-opacity="0.5" transform="rotate(90, 2724, 2702.59)" width="539.54664" x="2454.226524" xlink:href="#lc" y="2662.586275"/>
  <rect class=" imageannotationLine imageannotationLinked" fill="#FFFF00" fill-opacity="0.2" height="120" id="svg_10" stroke="#000000" stroke-opacity="0.5" transform="rotate(88, 2645.47, 2440.99)" width="2417.891375" x="1436.528011" xlink:href="#ld" y="2380.985718"/>
  <rect class=" imageannotationLine imageannotationLinked" fill="#FFFF00" fill-opacity="0.2" height="99.999998" id="svg_12" stroke="#000000" stroke-opacity="0.5" transform="rotate(90, 2484, 2547.59)" width="839.546536" x="2064.226557" xlink:href="#le" y="2497.586356"/>
  <rect class=" imageannotationLine imageannotationLinked" fill="#FFFF00" fill-opacity="0.2" height="105.009141" id="svg_14" stroke="#000000" stroke-opacity="0.5" transform="rotate(88, 2365.13, 1536.01)" width="665.816851" x="2032.224952" xlink:href="#lf" y="1483.502357"/>
  <rect class=" imageannotationLine imageannotationLinked" fill="#FFFF00" fill-opacity="0.2" height="120" id="svg_16" stroke="#000000" stroke-opacity="0.5" transform="rotate(88, 2304, 2535.09)" width="2554.545735" x="1026.726561" xlink:href="#lg" y="2475.086426"/>
  <rect class=" imageannotationLine imageannotationLinked" fill="#FFFF00" fill-opacity="0.2" height="120" id="svg_18" stroke="#000000" stroke-opacity="0.5" transform="rotate(88, 1439, 2715.09)" width="2894.54553" x="-8.273438" xlink:href="#lh" y="2655.086426"/>
  <rect class=" imageannotationLine imageannotationLinked" fill="#FFFF00" fill-opacity="0.2" height="110.006089" id="svg_20" stroke="#000000" stroke-opacity="0.5" transform="rotate(88, 1185.84, 2609.81)" width="2725.386556" x="-176.849214" xlink:href="#li" y="2554.809795"/>
  <rect class=" imageannotationLine imageannotationLinked" fill="#FFFF00" fill-opacity="0.2" height="110.000002" id="svg_22" stroke="#000000" stroke-opacity="0.5" transform="rotate(90, 1094, 3452.59)" width="939.546479" x="624.226635" xlink:href="#lj" y="3397.586503"/>
  <rect class=" imageannotationLine imageannotationLinked" fill="#FFFF00" fill-opacity="0.2" height="120" id="svg_24" stroke="#000000" stroke-opacity="0.5" transform="rotate(89, 944, 2677.59)" width="2779.54576" x="-445.773437" xlink:href="#lk" y="2617.586426"/>
  <rect class=" imageannotationLine imageannotationLinked" fill="#FFFF00" fill-opacity="0.2" height="105.009141" id="svg_26" stroke="#000000" stroke-opacity="0.5" transform="rotate(88, 780.914, 2388.3)" width="2240.439698" x="-339.305375" xlink:href="#ll" y="2335.799497"/>
  <rect class=" imageannotationLine imageannotationLinked" fill="#FFFF00" fill-opacity="0.2" height="105.001522" id="svg_28" stroke="#000000" stroke-opacity="0.5" transform="rotate(89, 586.499, 2060)" width="1604.54616" x="-215.774826" xlink:href="#lm" y="2007.498623"/>
 </g>

</svg>