<?xml version="1.0" encoding="UTF-8" standalone="no"?><svg xmlns="http://www.w3.org/2000/svg" xmlns:xlink="http://www.w3.org/1999/xlink" height="6144.000000000001" width="4096">
 <g>
  <title>Layer 1</title>
  <rect class=" imageannotationLine imageannotationLinked" fill="#FFFF00" fill-opacity="0.2" height="79.999999" id="svg_14" stroke="#000000" stroke-opacity="0.5" transform="rotate(90, 3929, 3617.59)" width="1156.819464" x="3350.590432" xlink:href="#la" y="3577.593967"/>
  <rect class=" imageannotationLine imageannotationLinked" fill="#FFFF00" fill-opacity="0.2" height="129.656972" id="svg_16" stroke="#000000" stroke-opacity="0.5" transform="rotate(88, 3759.39, 3808.68)" width="2701.809128" x="2408.481883" xlink:href="#lb" y="3743.855879"/>
  <rect class=" imageannotationLine imageannotationLinked" fill="#FFFF00" fill-opacity="0.2" height="145.08029" id="svg_18" stroke="#000000" stroke-opacity="0.5" transform="rotate(89, 3461.62, 3757.07)" width="2735.857098" x="2093.694669" xlink:href="#lc" y="3684.526035"/>
  <rect class=" imageannotationLine imageannotationLinked" fill="#FFFF00" fill-opacity="0.2" height="120.000006" id="svg_20" stroke="#000000" stroke-opacity="0.5" transform="rotate(90, 3289, 4405.09)" width="411.820027" x="3083.089431" xlink:href="#ld" y="4345.095311"/>
  <rect class=" imageannotationLine imageannotationLinked" fill="#FFFF00" fill-opacity="0.2" height="110.168546" id="svg_22" stroke="#000000" stroke-opacity="0.5" transform="rotate(92, 3210.34, 4069.27)" width="1511.170065" x="2454.750815" xlink:href="#le" y="4014.185098"/>
  <rect class=" imageannotationLine imageannotationLinked" fill="#FFFF00" fill-opacity="0.2" height="114.999998" id="svg_24" stroke="#000000" stroke-opacity="0.5" transform="rotate(90, 3116.5, 3775.09)" width="2661.818495" x="1785.588914" xlink:href="#lf" y="3717.594314"/>
  <rect class=" imageannotationLine imageannotationLinked" fill="#FFFF00" fill-opacity="0.2" height="99.488687" id="svg_26" stroke="#000000" stroke-opacity="0.5" transform="rotate(88, 2999.27, 3935.43)" width="1001.837872" x="2498.355267" xlink:href="#lg" y="3885.690685"/>
  <rect class=" imageannotationLine imageannotationLinked" fill="#FFFF00" fill-opacity="0.2" height="109.819412" id="svg_28" stroke="#000000" stroke-opacity="0.5" transform="rotate(88, 2923.47, 3659.85)" width="2381.659285" x="1732.636416" xlink:href="#lh" y="3604.938695"/>
  <rect class=" imageannotationLine imageannotationLinked" fill="#FFFF00" fill-opacity="0.2" height="123.862086" id="svg_30" stroke="#000000" stroke-opacity="0.5" transform="rotate(90, 2676.22, 3781.77)" width="2685.594487" x="1333.425614" xlink:href="#li" y="3719.839281"/>
  <rect class=" imageannotationLine imageannotationLinked" fill="#FFFF00" fill-opacity="0.2" height="129.98172" id="svg_32" stroke="#000000" stroke-opacity="0.5" transform="rotate(88, 2454.21, 3751.4)" width="2525.487379" x="1191.461549" xlink:href="#lj" y="3686.405428"/>
  <rect class=" imageannotationLine imageannotationLinked" fill="#FFFF00" fill-opacity="0.2" height="129.999995" id="svg_34" stroke="#000000" stroke-opacity="0.5" transform="rotate(90, 2284, 4145.09)" width="711.819783" x="1928.089859" xlink:href="#lk" y="4080.093805"/>
  <rect class=" imageannotationLine imageannotationLinked" fill="#FFFF00" fill-opacity="0.2" height="120.162434" id="svg_36" stroke="#000000" stroke-opacity="0.5" transform="rotate(88, 2114.46, 3795.78)" width="2513.551595" x="857.684732" xlink:href="#ll" y="3735.696259"/>
  <rect class=" imageannotationLine imageannotationLinked" fill="#FFFF00" fill-opacity="0.2" height="64.999997" id="svg_38" stroke="#000000" stroke-opacity="0.5" transform="rotate(90, 1906.5, 4185.09)" width="961.819627" x="1425.589656" xlink:href="#lm" y="4152.593566"/>
  <rect class=" imageannotationLine imageannotationLinked" fill="#FFFF00" fill-opacity="0.2" height="100" id="svg_40" stroke="#000000" stroke-opacity="0.5" transform="rotate(90, 1709, 3520.09)" width="261.82014" x="1578.089849" xlink:href="#ln" y="3470.093811"/>
  <rect class=" imageannotationLine imageannotationLinked" fill="#FFFF00" fill-opacity="0.2" height="143.751015" id="svg_42" stroke="#000000" stroke-opacity="0.5" transform="rotate(88, 1570.87, 3697.01)" width="2506.818548" x="317.456123" xlink:href="#lo" y="3625.134772"/>
  <rect class=" imageannotationLine imageannotationLinked" fill="#FFFF00" fill-opacity="0.2" height="125" id="svg_44" stroke="#000000" stroke-opacity="0.5" transform="rotate(90, 1421.5, 3860.09)" width="401.820033" x="1220.589606" xlink:href="#lp" y="3797.594031"/>
  <rect class=" imageannotationLine imageannotationLinked" fill="#FFFF00" fill-opacity="0.2" height="109.998512" id="svg_46" stroke="#000000" stroke-opacity="0.5" transform="rotate(89, 1294.08, 3822.33)" width="2656.815452" x="-34.33411" xlink:href="#lq" y="3767.32759"/>
  <rect class=" imageannotationLine imageannotationLinked" fill="#FFFF00" fill-opacity="0.2" height="133.58927" id="svg_48" stroke="#000000" stroke-opacity="0.5" transform="rotate(89, 1116.17, 3722.99)" width="2496.469568" x="-132.067479" xlink:href="#lr" y="3656.194116"/>
  <rect class=" imageannotationLine imageannotationLinked" fill="#FFFF00" fill-opacity="0.2" height="120.000005" id="svg_50" stroke="#000000" stroke-opacity="0.5" transform="rotate(89, 963.651, 3727.6)" width="2506.824929" x="-289.761986" xlink:href="#ls" y="3667.599807"/>
  <rect class=" imageannotationLine imageannotationLinked" fill="#FFFF00" fill-opacity="0.2" height="129.475193" id="svg_6" stroke="#000000" stroke-opacity="0.5" transform="rotate(89, 823.554, 3787.25)" width="2666.475581" x="-509.684205" xlink:href="#lv" y="3722.513664"/>
  <rect class=" imageannotationLine imageannotationLinked" fill="#FFFF00" fill-opacity="0.2" height="110.001145" id="svg_8" stroke="#000000" stroke-opacity="0.5" transform="rotate(88, 609.343, 3707.41)" width="2456.4573" x="-618.885522" xlink:href="#lu" y="3652.405118"/>
  <rect class=" imageannotationLine imageannotationLinked" fill="#FFFF00" fill-opacity="0.2" height="124.643607" id="svg_10" stroke="#000000" stroke-opacity="0.5" transform="rotate(88, 396.153, 3785.19)" width="2631.475534" x="-919.585247" xlink:href="#lt" y="3722.868638"/>
 </g>

</svg>