<?xml version="1.0" encoding="UTF-8" standalone="no"?><svg xmlns="http://www.w3.org/2000/svg" xmlns:xlink="http://www.w3.org/1999/xlink" height="6144.000000000001" width="4096">
 <g>
  <title>Layer 1</title>
  <rect class=" imageannotationLine imageannotationLinked" fill="#FFFF00" fill-opacity="0.2" height="120" id="svg_4" stroke="#000000" stroke-opacity="0.5" transform="rotate(180, 3271.27, 5526)" width="452.726843" x="3044.91014" xlink:href="#la" y="5466.000244"/>
  <rect class=" imageannotationLine imageannotationLinked" fill="#FFFF00" fill-opacity="0.2" height="95.000002" id="svg_6" stroke="#000000" stroke-opacity="0.5" transform="rotate(180, 3026.27, 5363.5)" width="532.726858" x="2759.91059" xlink:href="#lb" y="5315.996266"/>
  <rect class=" imageannotationLine imageannotationLinked" fill="#FFFF00" fill-opacity="0.2" height="95" id="svg_8" stroke="#000000" stroke-opacity="0.5" transform="rotate(180, 2951.27, 5213.5) translate(2694.91, 5166) scale(0.72695, 1) translate(-2694.91, -5166)" width="512.726841" x="2694.910676" xlink:href="#lc" y="5166.000244"/>
  <rect class=" imageannotationLine imageannotationLinked" fill="#FFFF00" fill-opacity="0.2" height="95" id="svg_10" stroke="#000000" stroke-opacity="0.5" transform="rotate(180, 3311.27, 5003.5)" width="1142.727212" x="2739.911111" xlink:href="#S-" y="4956.000244"/>
  <rect class=" imageannotationLine imageannotationLinked" fill="#FFFF00" fill-opacity="0.2" height="95" id="svg_14" stroke="#000000" stroke-opacity="0.5" transform="rotate(180, 3346.27, 4798.5)" width="542.726842" x="3074.910431" xlink:href="#ld" y="4751.000244"/>
  <rect class=" imageannotationLine imageannotationLinked" fill="#FFFF00" fill-opacity="0.2" height="95" id="svg_16" stroke="#000000" stroke-opacity="0.5" transform="rotate(180, 2998.77, 4663.5)" width="517.726842" x="2739.909612" xlink:href="#le" y="4616.000244"/>
  <rect class=" imageannotationLine imageannotationLinked" fill="#FFFF00" fill-opacity="0.2" height="95" id="svg_18" stroke="#000000" stroke-opacity="0.5" transform="rotate(180, 2888.77, 4498.5)" width="557.726886" x="2609.910039" xlink:href="#lf" y="4451.000244"/>
  <rect class=" imageannotationLine imageannotationLinked" fill="#FFFF00" fill-opacity="0.2" height="95" id="svg_20" stroke="#000000" stroke-opacity="0.5" transform="rotate(180, 3321.27, 4283.5)" width="382.726785" x="3129.910355" xlink:href="#lg" y="4236.000244"/>
  <rect class=" imageannotationLine imageannotationLinked" fill="#FFFF00" fill-opacity="0.2" height="109.999999" id="svg_22" stroke="#000000" stroke-opacity="0.5" transform="rotate(180, 2933.77, 4141)" width="557.726886" x="2654.910674" xlink:href="#lh" y="4086.0003"/>
  <rect class=" imageannotationLine imageannotationLinked" fill="#FFFF00" fill-opacity="0.2" height="104.999996" id="svg_24" stroke="#000000" stroke-opacity="0.5" transform="rotate(180, 3206.27, 3953.5)" width="592.726891" x="2909.911176" xlink:href="#li" y="3901.001245"/>
  <rect class=" imageannotationLine imageannotationLinked" fill="#FFFF00" fill-opacity="0.2" height="114.115033" id="svg_27" stroke="#000000" stroke-opacity="0.5" transform="rotate(-2, 2103.64, 773.077)" width="2040" x="1083.636004" xlink:href="#lj" y="716.018317"/>
  <rect class=" imageannotationLine imageannotationLinked" fill="#FFFF00" fill-opacity="0.2" height="109.99093" id="svg_29" stroke="#000000" stroke-opacity="0.5" transform="rotate(-2, 2114.08, 950.823)" width="2170.000044" x="1029.081126" xlink:href="#lk" y="895.826811"/>
  <rect class=" imageannotationLine imageannotationLinked" fill="#FFFF00" fill-opacity="0.2" height="104.910866" id="svg_31" stroke="#000000" stroke-opacity="0.5" transform="rotate(-1, 2244, 1128.46)" width="2450.000123" x="1018.999193" xlink:href="#ll" y="1076.000312"/>
  <rect class=" imageannotationLine imageannotationLinked" fill="#FFFF00" fill-opacity="0.2" height="119.81059" id="svg_33" stroke="#000000" stroke-opacity="0.5" transform="rotate(-2, 2293.74, 1305.92)" width="2659.999919" x="963.735391" xlink:href="#lm" y="1246.016458"/>
  <rect class=" imageannotationLine imageannotationLinked" fill="#FFFF00" fill-opacity="0.2" height="110.434026" id="svg_35" stroke="#000000" stroke-opacity="0.5" transform="rotate(-1, 2166.37, 1495.78)" width="2344.999957" x="993.865318" xlink:href="#ln" y="1440.566868"/>
  <rect class=" imageannotationLine imageannotationLinked" fill="#FFFF00" fill-opacity="0.2" height="94.912736" id="svg_37" stroke="#000000" stroke-opacity="0.5" transform="rotate(-1, 1976.5, 1653.46)" width="1944.999981" x="1003.999237" xlink:href="#lo" y="1605.999758"/>
  <rect class=" imageannotationLine imageannotationLinked" fill="#FFFF00" fill-opacity="0.2" height="105.342903" id="svg_39" stroke="#000000" stroke-opacity="0.5" transform="rotate(-2, 2143.64, 1798.34)" width="2330.000055" x="978.645108" xlink:href="#lp" y="1745.666088"/>
  <rect class=" imageannotationLine imageannotationLinked" fill="#FFFF00" fill-opacity="0.2" height="105.517396" id="svg_41" stroke="#000000" stroke-opacity="0.5" transform="rotate(-2, 1933.82, 1973.24)" width="1960.000038" x="953.816477" xlink:href="#lq" y="1920.485544"/>
  <rect class=" imageannotationLine imageannotationLinked" fill="#FFFF00" fill-opacity="0.2" height="114.987546" id="svg_43" stroke="#000000" stroke-opacity="0.5" transform="rotate(-2, 2201.32, 2118.33)" width="2474.999988" x="963.819601" xlink:href="#lr" y="2060.837211"/>
  <rect class=" imageannotationLine imageannotationLinked" fill="#FFFF00" fill-opacity="0.2" height="119.984775" id="svg_45" stroke="#000000" stroke-opacity="0.5" transform="rotate(-2, 2144.44, 2475.98)" width="2299.99994" x="994.43598" xlink:href="#ls" y="2415.992064"/>
  <rect class=" imageannotationLine imageannotationLinked" fill="#FFFF00" fill-opacity="0.2" height="134.975574" id="svg_47" stroke="#000000" stroke-opacity="0.5" transform="rotate(-2, 2020.8, 2648.53)" width="2155.000007" x="943.30246" xlink:href="#lt" y="2581.036258"/>
  <rect class=" imageannotationLine imageannotationLinked" fill="#FFFF00" fill-opacity="0.2" height="119.984775" id="svg_49" stroke="#000000" stroke-opacity="0.5" transform="rotate(-2, 2171.06, 2816.02)" width="2394.999993" x="973.564029" xlink:href="#lu" y="2756.022541"/>
  <rect class=" imageannotationLine imageannotationLinked" fill="#FFFF00" fill-opacity="0.2" height="119.461333" id="svg_51" stroke="#000000" stroke-opacity="0.5" transform="rotate(-2, 2075.89, 2990.94)" width="2195.000005" x="978.386655" xlink:href="#lv" y="2931.203183"/>
  <rect class=" imageannotationLine imageannotationLinked" fill="#FFFF00" fill-opacity="0.2" height="110.165231" id="svg_53" stroke="#000000" stroke-opacity="0.5" transform="rotate(-2, 2101.24, 3150.92)" width="2254.999924" x="973.735281" xlink:href="#lw" y="3095.838649"/>
  <rect class=" imageannotationLine imageannotationLinked" fill="#FFFF00" fill-opacity="0.2" height="110.339859" id="svg_55" stroke="#000000" stroke-opacity="0.5" transform="rotate(-2, 2043.73, 3310.83)" width="2149.999988" x="968.732336" xlink:href="#lx" y="3255.664523"/>
  <rect class=" imageannotationLine imageannotationLinked" fill="#FFFF00" fill-opacity="0.2" height="105.342902" id="svg_57" stroke="#000000" stroke-opacity="0.5" transform="rotate(-2, 2126.32, 3453.33)" width="2335.000074" x="958.819523" xlink:href="#ly" y="3400.659974"/>
  <rect class=" imageannotationLine imageannotationLinked" fill="#FFFF00" fill-opacity="0.2" height="120.857255" id="svg_59" stroke="#000000" stroke-opacity="0.5" transform="rotate(-2, 2096.05, 3730.58)" width="2214.999926" x="988.548828" xlink:href="#lz" y="3670.150293"/>
  <rect class=" imageannotationLine imageannotationLinked" fill="#FFFF00" fill-opacity="0.2" height="99.996957" id="svg_61" stroke="#000000" stroke-opacity="0.5" transform="rotate(-2, 2126.41, 3891)" width="2314.999998" x="968.9128" xlink:href="#laa" y="3841.0043"/>
  <rect class=" imageannotationLine imageannotationLinked" fill="#FFFF00" fill-opacity="0.2" height="95" id="svg_63" stroke="#000000" stroke-opacity="0.5" width="1364.999938" x="974.000001" xlink:href="#lab" y="4035.999756"/>
  <rect class=" imageannotationLine imageannotationLinked" fill="#FFFF00" fill-opacity="0.2" height="95" id="svg_65" stroke="#000000" stroke-opacity="0.5" transform="rotate(-2, 1884, 4208.5)" width="1840.000045" x="963.999999" xlink:href="#lac" y="4160.999756"/>
  <rect class=" imageannotationLine imageannotationLinked" fill="#FFFF00" fill-opacity="0.2" height="115.336816" id="svg_67" stroke="#000000" stroke-opacity="0.5" transform="rotate(-2, 2013.65, 4368.34)" width="2040.000033" x="993.645137" xlink:href="#lad" y="4310.669091"/>
  <rect class=" imageannotationLine imageannotationLinked" fill="#FFFF00" fill-opacity="0.2" height="95" id="svg_69" stroke="#000000" stroke-opacity="0.5" transform="rotate(-1, 1941.5, 4558.5)" width="1955.000019" x="964.000004" xlink:href="#lae" y="4510.999756"/>
  <rect class=" imageannotationLine imageannotationLinked" fill="#FFFF00" fill-opacity="0.2" height="95" id="svg_71" stroke="#000000" stroke-opacity="0.5" transform="rotate(-1, 2119, 4688.5)" width="2299.99994" x="969.000002" xlink:href="#laf" y="4640.999756"/>
  <rect class=" imageannotationLine imageannotationLinked" fill="#FFFF00" fill-opacity="0.2" height="95.261786" id="svg_73" stroke="#000000" stroke-opacity="0.5" transform="rotate(-1, 1979, 4818.37)" width="2069.999828" x="943.997717" xlink:href="#lag" y="4770.737988"/>
  <rect class=" imageannotationLine imageannotationLinked" fill="#FFFF00" fill-opacity="0.2" height="109.999999" id="svg_75" stroke="#000000" stroke-opacity="0.5" width="774.999988" x="3088.999853" xlink:href="#lah" y="4740.999729"/>
  <rect class=" imageannotationLine imageannotationLinked" fill="#FFFF00" fill-opacity="0.2" height="104.999999" id="svg_77" stroke="#000000" stroke-opacity="0.5" width="335.000015" x="793.999944" xlink:href="#lai" y="510.999726"/>
 </g>
</svg>