<?xml version="1.0" encoding="UTF-8" standalone="no"?><svg xmlns="http://www.w3.org/2000/svg" xmlns:xlink="http://www.w3.org/1999/xlink" height="6144.000000000001" width="4096">
 <g>
  <title>Layer 1</title>
  <rect class=" imageannotationLine imageannotationLinked" fill="#FFFF00" fill-opacity="0.2" height="110.000006" id="svg_2" stroke="#000000" stroke-opacity="0.5" transform="rotate(180, 2444, 5412.25)" width="399.999991" x="2244.001767" xlink:href="#la" y="5357.251135"/>
  <rect class=" imageannotationLine imageannotationLinked" fill="#FFFF00" fill-opacity="0.2" height="70.000004" id="svg_4" stroke="#000000" stroke-opacity="0.5" transform="rotate(180, 1949, 5337.25)" width="210.000006" x="1843.998234" xlink:href="#lb" y="5302.254292"/>
  <rect class=" imageannotationLine imageannotationLinked" fill="#FFFF00" fill-opacity="0.2" height="95.336813" id="svg_6" stroke="#000000" stroke-opacity="0.5" transform="rotate(178, 2374.39, 5225.78)" width="2029.969444" x="1359.39945" xlink:href="#lc" y="5178.114115"/>
  <rect class=" imageannotationLine imageannotationLinked" fill="#FFFF00" fill-opacity="0.2" height="95.336813" id="svg_8" stroke="#000000" stroke-opacity="0.5" transform="rotate(178, 2244.81, 5058.87)" width="2339.192333" x="1075.215035" xlink:href="#ld" y="5011.203925"/>
  <rect class=" imageannotationLine imageannotationLinked" fill="#FFFF00" fill-opacity="0.2" height="105.156219" id="svg_10" stroke="#000000" stroke-opacity="0.5" transform="rotate(178, 2274.53, 4885.65)" width="2160" x="1194.52603" xlink:href="#le" y="4833.076944"/>
  <rect class=" imageannotationLine imageannotationLinked" fill="#FFFF00" fill-opacity="0.2" height="125.493032" id="svg_12" stroke="#000000" stroke-opacity="0.5" transform="rotate(178, 2249.39, 4714.26)" width="2170.517446" x="1164.134126" xlink:href="#lf" y="4651.516861"/>
  <rect class=" imageannotationLine imageannotationLinked" fill="#FFFF00" fill-opacity="0.2" height="100.489095" id="svg_14" stroke="#000000" stroke-opacity="0.5" transform="rotate(177, 2050.73, 4541.12)" width="2458.280354" x="821.586804" xlink:href="#lg" y="4490.876971"/>
  <rect class=" imageannotationLine imageannotationLinked" fill="#FFFF00" fill-opacity="0.2" height="79.996955" id="svg_16" stroke="#000000" stroke-opacity="0.5" transform="rotate(178, 2171.54, 4356.78)" width="2085.045733" x="1129.014232" xlink:href="#lh" y="4316.777549"/>
  <rect class=" imageannotationLine imageannotationLinked" fill="#FFFF00" fill-opacity="0.2" height="75" id="svg_18" stroke="#000000" stroke-opacity="0.5" transform="rotate(178, 2064, 4190.59)" width="2160" x="984" xlink:href="#li" y="4153.086181"/>
  <rect class=" imageannotationLine imageannotationLinked" fill="#FFFF00" fill-opacity="0.2" height="105.624488" id="svg_20" stroke="#000000" stroke-opacity="0.5" transform="rotate(176, 2147.83, 4039.62)" width="2026.026416" x="1134.821513" xlink:href="#lj" y="3986.802371"/>
  <rect class=" imageannotationLine imageannotationLinked" fill="#FFFF00" fill-opacity="0.2" height="99.136671" id="svg_22" stroke="#000000" stroke-opacity="0.5" transform="rotate(176, 2203.91, 3874.3)" width="1921.282196" x="1243.271583" xlink:href="#lk" y="3824.733341"/>
  <rect class=" imageannotationLine imageannotationLinked" fill="#FFFF00" fill-opacity="0.2" height="85.834504" id="svg_24" stroke="#000000" stroke-opacity="0.5" transform="rotate(175, 2059.43, 3755.53)" width="2190.624426" x="964.114544" xlink:href="#ll" y="3712.611189"/>
  <rect class=" imageannotationLine imageannotationLinked" fill="#FFFF00" fill-opacity="0.2" height="102.083758" id="svg_26" stroke="#000000" stroke-opacity="0.5" transform="rotate(175, 2309.66, 3605.56)" width="1849.872308" x="1384.719833" xlink:href="#lm" y="3554.517683"/>
  <rect class=" imageannotationLine imageannotationLinked" fill="#FFFF00" fill-opacity="0.2" height="104.696771" id="svg_28" stroke="#000000" stroke-opacity="0.5" transform="rotate(177, 2092.68, 3438.14)" width="2234.897232" x="975.231132" xlink:href="#ln" y="3385.789162"/>
  <rect class=" imageannotationLine imageannotationLinked" fill="#FFFF00" fill-opacity="0.2" height="55" id="svg_30" stroke="#000000" stroke-opacity="0.5" transform="rotate(180, 1886.5, 3349.75)" width="184.999994" x="1794.000112" xlink:href="#lo" y="3322.249999"/>
  <rect class=" imageannotationLine imageannotationLinked" fill="#FFFF00" fill-opacity="0.2" height="94.951281" id="svg_32" stroke="#000000" stroke-opacity="0.5" transform="rotate(176, 1955.05, 3273.9)" width="2449.747388" x="730.178348" xlink:href="#lp" y="3226.425787"/>
  <rect class=" imageannotationLine imageannotationLinked" fill="#FFFF00" fill-opacity="0.2" height="86.02209" id="svg_34" stroke="#000000" stroke-opacity="0.5" transform="rotate(176, 2094.46, 3094.68)" width="2119.748712" x="1034.582463" xlink:href="#lq" y="3051.671483"/>
  <rect class=" imageannotationLine imageannotationLinked" fill="#FFFF00" fill-opacity="0.2" height="99.939099" id="svg_36" stroke="#000000" stroke-opacity="0.5" transform="rotate(176, 2109.65, 2949.89)" width="2070.219212" x="1074.539273" xlink:href="#lr" y="2899.926536"/>
  <rect class=" imageannotationLine imageannotationLinked" fill="#FFFF00" fill-opacity="0.2" height="91.250127" id="svg_38" stroke="#000000" stroke-opacity="0.5" transform="rotate(175, 2120.31, 2750.56)" width="2088.52326" x="1076.046639" xlink:href="#ls" y="2704.936502"/>
  <rect class=" imageannotationLine imageannotationLinked" fill="#FFFF00" fill-opacity="0.2" height="110.26352" id="svg_40" stroke="#000000" stroke-opacity="0.5" transform="rotate(176, 2240.94, 2572.64)" width="1857.835636" x="1312.025279" xlink:href="#lt" y="2517.506859"/>
  <rect class=" imageannotationLine imageannotationLinked" fill="#FFFF00" fill-opacity="0.2" height="90.31224" id="svg_42" stroke="#000000" stroke-opacity="0.5" transform="rotate(176, 2284.5, 2415.29)" width="1789.157352" x="1389.927381" xlink:href="#lu" y="2370.133409"/>
  <rect class=" imageannotationLine imageannotationLinked" fill="#FFFF00" fill-opacity="0.2" height="119.972594" id="svg_44" stroke="#000000" stroke-opacity="0.5" transform="rotate(178, 2174.58, 2187.19)" width="2070.05472" x="1139.552331" xlink:href="#Farbig" y="2127.208751"/>
  <rect class=" imageannotationLine imageannotationLinked" fill="#FFFF00" fill-opacity="0.2" height="110.32767" id="svg_46" stroke="#000000" stroke-opacity="0.5" transform="rotate(178, 2057.15, 2044.2)" width="2214.966574" x="949.667158" xlink:href="#lv" y="1989.030145"/>
  <rect class=" imageannotationLine imageannotationLinked" fill="#FFFF00" fill-opacity="0.2" height="104.999998" id="svg_48" stroke="#000000" stroke-opacity="0.5" transform="rotate(180, 3044, 1819.75)" width="249.999988" x="2918.999035" xlink:href="#lw" y="1767.250421"/>
 </g>

</svg>