<?xml version="1.0" encoding="UTF-8" standalone="no"?><svg xmlns="http://www.w3.org/2000/svg" xmlns:xlink="http://www.w3.org/1999/xlink" height="6144" width="4096">
 <g>
  <title>Layer 1</title>
  <rect class=" imageannotationLine imageannotationLinked" fill="#FFFF00" fill-opacity="0.2" height="142.881446" id="svg_2" stroke="#000000" stroke-opacity="0.5" transform="rotate(87, 3220.52, 3001.96)" width="2986.055114" x="1727.488572" xlink:href="#la" y="2930.515922"/>
  <rect class=" imageannotationLine imageannotationLinked" fill="#FFFF00" fill-opacity="0.2" height="154.862037" id="svg_4" stroke="#000000" stroke-opacity="0.5" transform="rotate(88, 2986.99, 3177.71)" width="3267.087997" x="1353.448507" xlink:href="#lb" y="3100.276744"/>
  <rect class=" imageannotationLine imageannotationLinked" fill="#FFFF00" fill-opacity="0.2" height="149.393849" id="svg_6" stroke="#000000" stroke-opacity="0.5" transform="rotate(88, 2766.93, 3139.7)" width="3308.556013" x="1112.652305" xlink:href="#lc" y="3065.00906"/>
  <rect class=" imageannotationLine imageannotationLinked" fill="#FFFF00" fill-opacity="0.2" height="120" id="svg_8" stroke="#000000" stroke-opacity="0.5" transform="rotate(88, 2523.26, 3205.53)" width="3462.714782" x="791.901741" xlink:href="#ld" y="3145.526313"/>
  <rect class=" imageannotationLine imageannotationLinked" fill="#FFFF00" fill-opacity="0.2" height="137.644372" id="svg_10" stroke="#000000" stroke-opacity="0.5" transform="rotate(89, 2302.49, 3181.24)" width="3320.316516" x="642.327263" xlink:href="#le" y="3112.41358"/>
  <rect class=" imageannotationLine imageannotationLinked" fill="#FFFF00" fill-opacity="0.2" height="149.063588" id="svg_12" stroke="#000000" stroke-opacity="0.5" transform="rotate(87, 2078.02, 3072.18)" width="3009.264743" x="573.38882" xlink:href="#lf" y="2997.644112"/>
  <rect class=" imageannotationLine imageannotationLinked" fill="#FFFF00" fill-opacity="0.2" height="137.431011" id="svg_14" stroke="#000000" stroke-opacity="0.5" transform="rotate(88, 1879.05, 3158.78)" width="3240.416978" x="258.841877" xlink:href="#lg" y="3090.063009"/>
  <rect class=" imageannotationLine imageannotationLinked" fill="#FFFF00" fill-opacity="0.2" height="131.346833" id="svg_16" stroke="#000000" stroke-opacity="0.5" transform="rotate(88, 1704.33, 3180.6)" width="3320.349858" x="44.150814" xlink:href="#lh" y="3114.930744"/>
  <rect class=" imageannotationLine imageannotationLinked" fill="#FFFF00" fill-opacity="0.2" height="114.121227" id="svg_18" stroke="#000000" stroke-opacity="0.5" transform="rotate(88, 1484.45, 3252.71) translate(-244.086, 3313.21) scale(1, 1.30078) translate(244.086, -3313.21)" width="3428.656182" x="-229.874103" xlink:href="#li" y="3209.637527"/>
  <rect class=" imageannotationLine imageannotationLinked" fill="#FFFF00" fill-opacity="0.2" height="137.02044" id="svg_20" stroke="#000000" stroke-opacity="0.5" transform="rotate(88, 1283.83, 3159.7)" width="3230.457719" x="-331.39553" xlink:href="#lj" y="3091.191885"/>
  <rect class=" imageannotationLine imageannotationLinked" fill="#FFFF00" fill-opacity="0.2" height="116.613557" id="svg_22" stroke="#000000" stroke-opacity="0.5" transform="rotate(87, 1116.1, 2915.34)" width="2705.712294" x="-236.754773" xlink:href="#lk" y="2857.029136"/>
  <rect class=" imageannotationLine imageannotationLinked" fill="#FFFF00" fill-opacity="0.2" height="102.363689" id="svg_24" stroke="#000000" stroke-opacity="0.5" transform="rotate(88, 1031.05, 3187.71)" width="3321.77951" x="-629.841093" xlink:href="#ll" y="3136.530899"/>
  <rect class=" imageannotationLine imageannotationLinked" fill="#FFFF00" fill-opacity="0.2" height="149.539694" id="svg_26" stroke="#000000" stroke-opacity="0.5" transform="rotate(89, 819.944, 2425.25)" width="1679.144985" x="-19.628117" xlink:href="#lm" y="2350.483064"/>
  <rect class=" imageannotationLine imageannotationLinked" fill="#FFFF00" fill-opacity="0.2" height="146.327448" id="svg_28" stroke="#000000" stroke-opacity="0.5" transform="rotate(89, 606.574, 2169.4)" width="1061.496944" x="75.827554" xlink:href="#ln" y="2096.236103"/>
  <rect class=" imageannotationLine imageannotationLinked" fill="#FFFF00" fill-opacity="0.2" height="139.111263" id="svg_30" stroke="#000000" stroke-opacity="0.5" transform="rotate(89, 438.268, 2381.33)" width="1520.321652" x="-321.892015" xlink:href="#lo" y="2311.776469"/>
  <rect class=" imageannotationLine imageannotationLinked" fill="#FFFF00" fill-opacity="0.2" height="161.176472" id="svg_32" stroke="#000000" stroke-opacity="0.5" transform="rotate(90, 237.535, 1722.57)" width="202.674542" x="136.198877" xlink:href="#lp" y="1641.981989"/>
 </g>
</svg>