<?xml version="1.0" encoding="UTF-8" standalone="no"?><svg xmlns="http://www.w3.org/2000/svg" xmlns:xlink="http://www.w3.org/1999/xlink" height="6144.000000000001" width="4096">
 <g>
  <title>Layer 1</title>
  <rect class=" imageannotationLine imageannotationLinked" fill="#FFFF00" fill-opacity="0.2" height="120" id="svg_4" stroke="#000000" stroke-opacity="0.5" transform="rotate(90, 3364, 2581)" width="2875.000046" x="1926.500013" xlink:href="#la" y="2520.998489"/>
  <rect class=" imageannotationLine imageannotationLinked" fill="#FFFF00" fill-opacity="0.2" height="120" id="svg_6" stroke="#000000" stroke-opacity="0.5" transform="rotate(90, 3164, 3047.67)" width="3841.666905" x="1243.164591" xlink:href="#lb" y="2987.666393"/>
  <rect class=" imageannotationLine imageannotationLinked" fill="#FFFF00" fill-opacity="0.2" height="99.999998" id="svg_9" stroke="#000000" stroke-opacity="0.5" transform="rotate(-90, 960.666, 2585.16)" width="2891.666992" x="-485.166016" xlink:href="#lc" y="2535.163074"/>
  <rect class=" imageannotationLine imageannotationLinked" fill="#FFFF00" fill-opacity="0.2" height="110.000002" id="svg_11" stroke="#000000" stroke-opacity="0.5" transform="rotate(-90, 1149, 2810.16)" width="2261.667155" x="18.165579" xlink:href="#ld" y="2755.163963"/>
  <rect class=" imageannotationLine imageannotationLinked" fill="#FFFF00" fill-opacity="0.2" height="120" id="svg_13" stroke="#000000" stroke-opacity="0.5" transform="rotate(-90, 1369, 3342.66)" width="466.667825" x="1135.664338" xlink:href="#le" y="3282.663973"/>
  <rect class=" imageannotationLine imageannotationLinked" fill="#FFFF00" fill-opacity="0.2" height="120" id="svg_15" stroke="#000000" stroke-opacity="0.5" transform="rotate(-90, 1544, 3292.66)" width="436.667829" x="1325.664336" xlink:href="#lf" y="3232.663986"/>
  <rect class=" imageannotationLine imageannotationLinked" fill="#FFFF00" fill-opacity="0.2" height="120" id="svg_17" stroke="#000000" stroke-opacity="0.5" transform="rotate(-90, 1700.67, 3310.16)" width="431.667796" x="1484.833018" xlink:href="#lg" y="3250.162209"/>
  <rect class=" imageannotationLine imageannotationLinked" fill="#FFFF00" fill-opacity="0.2" height="120" id="svg_19" stroke="#000000" stroke-opacity="0.5" transform="rotate(-90, 1900.67, 3290.16)" width="451.667827" x="1674.831782" xlink:href="#lh" y="3230.163075"/>
  <rect class=" imageannotationLine imageannotationLinked" fill="#FFFF00" fill-opacity="0.2" height="120" id="svg_21" stroke="#000000" stroke-opacity="0.5" transform="rotate(-90, 2097.33, 3305.16)" width="421.667825" x="1886.496409" xlink:href="#li" y="3245.166063"/>
  <rect class=" imageannotationLine imageannotationLinked" fill="#FFFF00" fill-opacity="0.2" height="120" id="svg_23" stroke="#000000" stroke-opacity="0.5" transform="rotate(-90, 2259, 3287.66)" width="476.667812" x="2020.664384" xlink:href="#lj" y="3227.66404"/>
  <rect class=" imageannotationLine imageannotationLinked" fill="#FFFF00" fill-opacity="0.2" height="120" id="svg_25" stroke="#000000" stroke-opacity="0.5" transform="rotate(-90, 2444, 3315.16)" width="451.66783" x="2218.16436" xlink:href="#lk" y="3255.164055"/>
  <rect class=" imageannotationLine imageannotationLinked" fill="#FFFF00" fill-opacity="0.2" height="120" id="svg_27" stroke="#000000" stroke-opacity="0.5" transform="rotate(-90, 2619, 3270.16)" width="491.667811" x="2373.164842" xlink:href="#ll" y="3210.163824"/>
  <rect class=" imageannotationLine imageannotationLinked" fill="#FFFF00" fill-opacity="0.2" height="120" id="svg_29" stroke="#000000" stroke-opacity="0.5" transform="rotate(-90, 2822.33, 3280.16)" width="481.667811" x="2581.496398" xlink:href="#lm" y="3220.165386"/>
  <rect class=" imageannotationLine imageannotationLinked" fill="#FFFF00" fill-opacity="0.2" height="120" id="svg_31" stroke="#000000" stroke-opacity="0.5" transform="rotate(-90, 3032.33, 3295.16)" width="491.667805" x="2786.496857" xlink:href="#ln" y="3235.165157"/>
  <rect class=" imageannotationLine imageannotationLinked" fill="#FFFF00" fill-opacity="0.2" height="120" id="svg_33" stroke="#000000" stroke-opacity="0.5" transform="rotate(-90, 3240.67, 3275.16)" width="471.667783" x="3004.83277" xlink:href="#lo" y="3215.162081"/>
  <rect class=" imageannotationLine imageannotationLinked" fill="#FFFF00" fill-opacity="0.2" height="120" id="svg_35" stroke="#000000" stroke-opacity="0.5" transform="rotate(-90, 3432.33, 3270.16)" width="491.66778" x="3186.496823" xlink:href="#lp" y="3210.165186"/>
 </g>

</svg>