<?xml version="1.0" encoding="UTF-8" standalone="no"?><svg xmlns="http://www.w3.org/2000/svg" xmlns:xlink="http://www.w3.org/1999/xlink" height="6144.000000000001" width="4096">
 <g>
  <title>Layer 1</title>
  <rect class=" imageannotationLine imageannotationLinked" fill="#FFFF00" fill-opacity="0.2" height="120" id="svg_8" stroke="#000000" stroke-opacity="0.5" transform="rotate(180, 2515.83, 5541)" width="796.364389" x="2117.645253" xlink:href="#la" y="5480.996338"/>
  <rect class=" imageannotationLine imageannotationLinked" fill="#FFFF00" fill-opacity="0.2" height="89.320285" id="svg_10" stroke="#000000" stroke-opacity="0.5" transform="rotate(178, 2249.87, 5346.11)" width="2656.177185" x="921.785552" xlink:href="#lb" y="5301.453384"/>
  <rect class=" imageannotationLine imageannotationLinked" fill="#FFFF00" fill-opacity="0.2" height="85.021319" id="svg_12" stroke="#000000" stroke-opacity="0.5" transform="rotate(178, 2432.86, 5207.55)" width="1441.037731" x="1712.337978" xlink:href="#lc" y="5165.039812"/>
  <rect class=" imageannotationLine imageannotationLinked" fill="#FFFF00" fill-opacity="0.2" height="99.999998" id="svg_14" stroke="#000000" stroke-opacity="0.5" transform="rotate(180, 2445.83, 5036)" width="1036.364827" x="1927.645937" xlink:href="#ld" y="4985.997276"/>
  <rect class=" imageannotationLine imageannotationLinked" fill="#FFFF00" fill-opacity="0.2" height="100.012186" id="svg_16" stroke="#000000" stroke-opacity="0.5" transform="rotate(178, 2675.48, 4876.01)" width="1916.366068" x="1717.296341" xlink:href="#le" y="4826.001477"/>
  <rect class=" imageannotationLine imageannotationLinked" fill="#FFFF00" fill-opacity="0.2" height="99.837685" id="svg_18" stroke="#000000" stroke-opacity="0.5" transform="rotate(178, 2490.47, 4675.92)" width="1126.364879" x="1927.293562" xlink:href="#lf" y="4626.001124"/>
  <rect class=" imageannotationLine imageannotationLinked" fill="#FFFF00" fill-opacity="0.2" height="80.000002" id="svg_20" stroke="#000000" stroke-opacity="0.5" transform="rotate(180, 2695.83, 4481)" width="686.364238" x="2352.645098" xlink:href="#lg" y="4440.996223"/>
  <rect class=" imageannotationLine imageannotationLinked" fill="#FFFF00" fill-opacity="0.2" height="99.999998" id="svg_22" stroke="#000000" stroke-opacity="0.5" transform="rotate(180, 2753.32, 4346)" width="561.364066" x="2472.640874" xlink:href="#lh" y="4295.996313"/>
  <rect class=" imageannotationLine imageannotationLinked" fill="#FFFF00" fill-opacity="0.2" height="90" id="svg_24" stroke="#000000" stroke-opacity="0.5" transform="rotate(180, 2840.82, 4186)" width="336.363777" x="2672.640115" xlink:href="#li" y="4140.996277"/>
  <rect class=" imageannotationLine imageannotationLinked" fill="#FFFF00" fill-opacity="0.2" height="80.000002" id="svg_26" stroke="#000000" stroke-opacity="0.5" transform="rotate(180, 2808.32, 4031)" width="431.363907" x="2592.639287" xlink:href="#lj" y="3990.996214"/>
  <rect class=" imageannotationLine imageannotationLinked" fill="#FFFF00" fill-opacity="0.2" height="95.000002" id="svg_28" stroke="#000000" stroke-opacity="0.5" transform="rotate(179, 2550.83, 3813.5)" width="1356.36524" x="1872.647838" xlink:href="#Floez" y="3765.996303"/>
  <rect class=" imageannotationLine imageannotationLinked" fill="#FFFF00" fill-opacity="0.2" height="95" id="svg_30" stroke="#000000" stroke-opacity="0.5" transform="rotate(180, 2775.82, 3593.5)" width="616.364177" x="2467.639212" xlink:href="#lk" y="3545.996338"/>
  <rect class=" imageannotationLine imageannotationLinked" fill="#FFFF00" fill-opacity="0.2" height="95" id="svg_32" stroke="#000000" stroke-opacity="0.5" transform="rotate(180, 2900.82, 3458.5)" width="406.363851" x="2697.639398" xlink:href="#ll" y="3410.996338"/>
  <rect class=" imageannotationLine imageannotationLinked" fill="#FFFF00" fill-opacity="0.2" height="95" id="svg_34" stroke="#000000" stroke-opacity="0.5" transform="rotate(180, 2785.82, 3871.91)" width="636.364197" x="2467.638672" xlink:href="#lm" y="4372.81665"/>
  <rect class=" imageannotationLine imageannotationLinked" fill="#FFFF00" fill-opacity="0.2" height="95" id="svg_36" stroke="#000000" stroke-opacity="0.5" transform="rotate(180, 2838.33, 3158.5)" width="481.363986" x="2597.643757" xlink:href="#Quitten" y="3110.996338"/>
  <rect class=" imageannotationLine imageannotationLinked" fill="#FFFF00" fill-opacity="0.2" height="95" id="svg_38" stroke="#000000" stroke-opacity="0.5" transform="rotate(180, 2628.33, 2883.5)" width="631.364147" x="2312.645714" xlink:href="#ln" y="2835.996338"/>
  <rect class=" imageannotationLine imageannotationLinked" fill="#FFFF00" fill-opacity="0.2" height="95" id="svg_40" stroke="#000000" stroke-opacity="0.5" transform="rotate(180, 2793.32, 2753.5)" width="431.363896" x="2577.639307" xlink:href="#Eichen" y="2705.996338"/>
  <rect class=" imageannotationLine imageannotationLinked" fill="#FFFF00" fill-opacity="0.2" height="95" id="svg_42" stroke="#000000" stroke-opacity="0.5" transform="rotate(180, 2775.83, 2563.5)" width="506.364006" x="2522.64498" xlink:href="#lo" y="2515.996338"/>
  <rect class=" imageannotationLine imageannotationLinked" fill="#FFFF00" fill-opacity="0.2" height="95" id="svg_44" stroke="#000000" stroke-opacity="0.5" transform="rotate(180, 2855.82, 2413.5)" width="386.36383" x="2662.639451" xlink:href="#lp" y="2365.996338"/>
  <rect class=" imageannotationLine imageannotationLinked" fill="#FFFF00" fill-opacity="0.2" height="95" id="svg_46" stroke="#000000" stroke-opacity="0.5" transform="rotate(180, 2760.82, 3876.91)" width="636.364197" x="2442.638672" xlink:href="#lq" y="5477.81665"/>
  <rect class=" imageannotationLine imageannotationLinked" fill="#FFFF00" fill-opacity="0.2" height="95" id="svg_50" stroke="#000000" stroke-opacity="0.5" transform="rotate(180, 3470.82, 3183.5)" width="516.364018" x="3212.640466" xlink:href="#lr" y="3135.996338"/>
  <rect class=" imageannotationLine imageannotationLinked" fill="#FFFF00" fill-opacity="0.2" height="95" id="svg_52" stroke="#000000" stroke-opacity="0.5" transform="rotate(180, 1338.32, 3868.5)" width="501.363984" x="1087.639325" xlink:href="#ls" y="3820.996338"/>
  <rect class=" imageannotationLine imageannotationLinked" fill="#FFFF00" fill-opacity="0.2" height="95" id="svg_54" stroke="#000000" stroke-opacity="0.5" transform="rotate(180, 1248.32, 3713.5)" width="541.364063" x="977.639203" xlink:href="#lt" y="3665.996338"/>
  <rect class=" imageannotationLine imageannotationLinked" fill="#FFFF00" fill-opacity="0.2" height="95" id="svg_56" stroke="#000000" stroke-opacity="0.5" transform="rotate(180, 1260.82, 3583.5)" width="456.363939" x="1032.639473" xlink:href="#lu" y="3535.996338"/>
  <rect class=" imageannotationLine imageannotationLinked" fill="#FFFF00" fill-opacity="0.2" height="95" id="svg_58" stroke="#000000" stroke-opacity="0.5" transform="rotate(180, 1110.82, 3433.5)" width="756.364394" x="732.63806" xlink:href="#lv" y="3385.996338"/>
  <rect class=" imageannotationLine imageannotationLinked" fill="#FFFF00" fill-opacity="0.2" height="95" id="svg_60" stroke="#000000" stroke-opacity="0.5" transform="rotate(180, 1788.32, 2753.5)" width="661.36426" x="1457.63835" xlink:href="#lw" y="2705.996338"/>
  <rect class=" imageannotationLine imageannotationLinked" fill="#FFFF00" fill-opacity="0.2" height="95" id="svg_62" stroke="#000000" stroke-opacity="0.5" transform="rotate(180, 1870.82, 2583.5)" width="496.363979" x="1622.639097" xlink:href="#lx" y="2535.996338"/>
  <rect class=" imageannotationLine imageannotationLinked" fill="#FFFF00" fill-opacity="0.2" height="95" id="svg_64" stroke="#000000" stroke-opacity="0.5" transform="rotate(180, 1813.32, 2443.5)" width="601.364161" x="1512.638783" xlink:href="#ly" y="2395.996338"/>
  <rect class=" imageannotationLine imageannotationLinked" fill="#FFFF00" fill-opacity="0.2" height="95" id="svg_66" stroke="#000000" stroke-opacity="0.5" transform="rotate(180, 1575.82, 2288.5)" width="1086.364879" x="1032.637232" xlink:href="#lz" y="2240.996338"/>
  <rect class=" imageannotationLine imageannotationLinked" fill="#FFFF00" fill-opacity="0.2" height="95" id="svg_68" stroke="#000000" stroke-opacity="0.5" transform="rotate(180, 1545.82, 2133.5)" width="1146.36494" x="972.637636" xlink:href="#laa" y="2085.996338"/>
  <rect class=" imageannotationLine imageannotationLinked" fill="#FFFF00" fill-opacity="0.2" height="95" id="svg_70" stroke="#000000" stroke-opacity="0.5" transform="rotate(180, 1835.82, 2038.5)" width="586.364119" x="1542.638569" xlink:href="#lab" y="1990.996338"/>
  <rect class=" imageannotationLine imageannotationLinked" fill="#FFFF00" fill-opacity="0.2" height="95" id="svg_72" stroke="#000000" stroke-opacity="0.5" transform="rotate(180, 1865.82, 1903.5)" width="376.363827" x="1677.639218" xlink:href="#lac" y="1855.996338"/>
  <rect class=" imageannotationLine imageannotationLinked" fill="#FFFF00" fill-opacity="0.2" height="95" id="svg_74" stroke="#000000" stroke-opacity="0.5" transform="rotate(180, 1815.82, 1758.5)" width="416.363888" x="1607.639329" xlink:href="#lad" y="1710.996338"/>
 </g>
</svg>