<?xml version="1.0" encoding="UTF-8" standalone="no"?><svg xmlns="http://www.w3.org/2000/svg" xmlns:xlink="http://www.w3.org/1999/xlink" height="6144.000000000001" width="4096">
 <g>
  <title>Layer 1</title>
  <rect class=" imageannotationLine imageannotationLinked" fill="#FFFF00" fill-opacity="0.2" height="80" id="svg_8" stroke="#000000" stroke-opacity="0.5" transform="rotate(180, 2600.6, 4976)" width="1251.363586" x="1974.912237" xlink:href="#la" y="4936.00415"/>
  <rect class=" imageannotationLine imageannotationLinked" fill="#FFFF00" fill-opacity="0.2" height="80" id="svg_10" stroke="#000000" stroke-opacity="0.5" transform="rotate(180, 2603.1, 4826)" width="1216.363608" x="1994.911793" xlink:href="#lb" y="4786.00415"/>
  <rect class=" imageannotationLine imageannotationLinked" fill="#FFFF00" fill-opacity="0.2" height="85" id="svg_12" stroke="#000000" stroke-opacity="0.5" transform="rotate(180, 2645.6, 4608.5)" width="1091.36356" x="2099.911971" xlink:href="#lc" y="4566.004165"/>
  <rect class=" imageannotationLine imageannotationLinked" fill="#FFFF00" fill-opacity="0.2" height="80" id="svg_14" stroke="#000000" stroke-opacity="0.5" transform="rotate(180, 2698.1, 4476)" width="1046.363566" x="2174.913011" xlink:href="#Vier" y="4436.00415"/>
  <rect class=" imageannotationLine imageannotationLinked" fill="#FFFF00" fill-opacity="0.2" height="80" id="svg_16" stroke="#000000" stroke-opacity="0.5" transform="rotate(180, 2703.1, 4311)" width="1036.363549" x="2184.912543" xlink:href="#ld" y="4271.00415"/>
  <rect class=" imageannotationLine imageannotationLinked" fill="#FFFF00" fill-opacity="0.2" height="80" id="svg_18" stroke="#000000" stroke-opacity="0.5" transform="rotate(180, 2680.6, 4126)" width="1071.363607" x="2144.912" xlink:href="#le" y="4086.00415"/>
  <rect class=" imageannotationLine imageannotationLinked" fill="#FFFF00" fill-opacity="0.2" height="80" id="svg_20" stroke="#000000" stroke-opacity="0.5" transform="rotate(180, 2563.1, 3775.55)" width="1336.363647" x="1894.912109" xlink:href="#lf" y="3565.090088"/>
  <rect class=" imageannotationLine imageannotationLinked" fill="#FFFF00" fill-opacity="0.2" height="80" id="svg_22" stroke="#000000" stroke-opacity="0.5" transform="rotate(180, 2713.1, 3791)" width="986.363546" x="2219.91213" xlink:href="#lg" y="3751.00415"/>
  <rect class=" imageannotationLine imageannotationLinked" fill="#FFFF00" fill-opacity="0.2" height="80" id="svg_24" stroke="#000000" stroke-opacity="0.5" transform="rotate(180, 2823.1, 3606)" width="646.363431" x="2499.917966" xlink:href="#lh" y="3566.00415"/>
  <rect class=" imageannotationLine imageannotationLinked" fill="#FFFF00" fill-opacity="0.2" height="80" id="svg_26" stroke="#000000" stroke-opacity="0.5" transform="rotate(180, 2700.6, 3461)" width="561.363437" x="2419.91276" xlink:href="#li" y="3421.00415"/>
  <rect class=" imageannotationLine imageannotationLinked" fill="#FFFF00" fill-opacity="0.2" height="80" id="svg_28" stroke="#000000" stroke-opacity="0.5" transform="rotate(180, 2708.1, 3266)" width="976.363574" x="2219.912114" xlink:href="#lj" y="3226.00415"/>
  <rect class=" imageannotationLine imageannotationLinked" fill="#FFFF00" fill-opacity="0.2" height="80" id="svg_30" stroke="#000000" stroke-opacity="0.5" transform="rotate(180, 2858.1, 3111)" width="716.363497" x="2499.912546" xlink:href="#lk" y="3071.00415"/>
  <rect class=" imageannotationLine imageannotationLinked" fill="#FFFF00" fill-opacity="0.2" height="80" id="svg_32" stroke="#000000" stroke-opacity="0.5" transform="rotate(180, 2693.1, 2976)" width="946.363533" x="2219.913644" xlink:href="#ll" y="2936.00415"/>
  <rect class=" imageannotationLine imageannotationLinked" fill="#FFFF00" fill-opacity="0.2" height="80" id="svg_34" stroke="#000000" stroke-opacity="0.5" transform="rotate(180, 2838.1, 2791)" width="676.363506" x="2499.913032" xlink:href="#lm" y="2751.00415"/>
  <rect class=" imageannotationLine imageannotationLinked" fill="#FFFF00" fill-opacity="0.2" height="80" id="svg_36" stroke="#000000" stroke-opacity="0.5" transform="rotate(180, 2728.1, 2651)" width="886.363534" x="2284.914165" xlink:href="#ln" y="2611.00415"/>
  <rect class=" imageannotationLine imageannotationLinked" fill="#FFFF00" fill-opacity="0.2" height="80" id="svg_38" stroke="#000000" stroke-opacity="0.5" transform="rotate(180, 2805.6, 2456)" width="831.363528" x="2389.912872" xlink:href="#lo" y="2416.00415"/>
  <rect class=" imageannotationLine imageannotationLinked" fill="#FFFF00" fill-opacity="0.2" height="80" id="svg_40" stroke="#000000" stroke-opacity="0.5" transform="rotate(180, 2795.6, 2296)" width="901.363565" x="2344.912282" xlink:href="#lp" y="2256.00415"/>
  <rect class=" imageannotationLine imageannotationLinked" fill="#FFFF00" fill-opacity="0.2" height="80" id="svg_42" stroke="#000000" stroke-opacity="0.5" transform="rotate(180, 3320.6, 3680.55)" width="121.363319" x="3259.912109" xlink:href="#lq" y="2355.090088"/>
  <rect class=" imageannotationLine imageannotationLinked" fill="#FFFF00" fill-opacity="0.2" height="80" id="svg_44" stroke="#000000" stroke-opacity="0.5" transform="rotate(180, 3320.6, 3680.55)" width="121.363319" x="3259.912109" xlink:href="#lr" y="2550.090088"/>
  <rect class=" imageannotationLine imageannotationLinked" fill="#FFFF00" fill-opacity="0.2" height="80" id="svg_46" stroke="#000000" stroke-opacity="0.5" transform="rotate(180, 3320.6, 3680.55)" width="121.363319" x="3259.912109" xlink:href="#ls" y="2705.090088"/>
  <rect class=" imageannotationLine imageannotationLinked" fill="#FFFF00" fill-opacity="0.2" height="80" id="svg_48" stroke="#000000" stroke-opacity="0.5" transform="rotate(180, 3320.6, 3680.55)" width="121.363319" x="3259.912109" xlink:href="#lt" y="2870.090088"/>
  <rect class=" imageannotationLine imageannotationLinked" fill="#FFFF00" fill-opacity="0.2" height="80" id="svg_50" stroke="#000000" stroke-opacity="0.5" transform="rotate(180, 3320.6, 3680.55)" width="121.363319" x="3259.912109" xlink:href="#lu" y="2980.090088"/>
  <rect class=" imageannotationLine imageannotationLinked" fill="#FFFF00" fill-opacity="0.2" height="80" id="svg_52" stroke="#000000" stroke-opacity="0.5" transform="rotate(180, 3320.6, 3680.55)" width="121.363319" x="3259.912109" xlink:href="#lv" y="3155.090088"/>
  <rect class=" imageannotationLine imageannotationLinked" fill="#FFFF00" fill-opacity="0.2" height="80" id="svg_54" stroke="#000000" stroke-opacity="0.5" transform="rotate(180, 3320.6, 3680.55)" width="121.363319" x="3259.912109" xlink:href="#lw" y="3355.090088"/>
  <rect class=" imageannotationLine imageannotationLinked" fill="#FFFF00" fill-opacity="0.2" height="80" id="svg_56" stroke="#000000" stroke-opacity="0.5" transform="rotate(180, 3320.6, 3680.55)" width="121.363319" x="3259.912109" xlink:href="#lx" y="3515.090088"/>
  <rect class=" imageannotationLine imageannotationLinked" fill="#FFFF00" fill-opacity="0.2" height="80" id="svg_58" stroke="#000000" stroke-opacity="0.5" transform="rotate(180, 2700.6, 3616)" width="1331.363748" x="2034.895515" xlink:href="#Schlaengel" y="3576.00415"/>
  <rect class=" imageannotationLine imageannotationLinked" fill="#FFFF00" fill-opacity="0.2" height="130.364222" id="svg_60" stroke="#000000" stroke-opacity="0.5" transform="rotate(88, 3424.99, 3313.87)" width="667.24514" x="3091.362794" xlink:href="#ly" y="3248.68549"/>
  <rect class=" imageannotationLine imageannotationLinked" fill="#FFFF00" fill-opacity="0.2" height="105.364044" id="svg_68" stroke="#000000" stroke-opacity="0.5" transform="rotate(180, 3428.1, 3618.68)" width="156.363332" x="3349.913472" xlink:href="#lz" y="3565.999431"/>
  <rect class=" imageannotationLine imageannotationLinked" fill="#FFFF00" fill-opacity="0.2" height="80" id="svg_3" stroke="#000000" stroke-opacity="0.5" transform="rotate(180 1553.27 4469.46)" width="964.000033" x="1071.272432" xlink:href="#laa" y="4429.461913"/>
 </g>
</svg>