<?xml version="1.0" encoding="UTF-8" standalone="no"?><svg xmlns="http://www.w3.org/2000/svg" xmlns:xlink="http://www.w3.org/1999/xlink" height="6144.000000000001" width="4096">
 <g>
  <title>Layer 1</title>
  <rect class=" imageannotationLine imageannotationLinked" fill="#FFFF00" fill-opacity="0.2" height="120" id="svg_2" stroke="#000000" stroke-opacity="0.5" transform="rotate(89, 3748.75, 2937.02)" width="2727.692531" x="2384.904418" xlink:href="#la" y="2877.023438"/>
  <rect class=" imageannotationLine imageannotationLinked" fill="#FFFF00" fill-opacity="0.2" height="110.006036" id="svg_4" stroke="#000000" stroke-opacity="0.5" transform="rotate(88, 3608.77, 3015.22)" width="2832.692558" x="2192.430337" xlink:href="#lb" y="2960.212956"/>
  <rect class=" imageannotationLine imageannotationLinked" fill="#FFFF00" fill-opacity="0.2" height="104.83464" id="svg_6" stroke="#000000" stroke-opacity="0.5" transform="rotate(88, 3441.17, 2869.79)" width="2552.692486" x="2164.826633" xlink:href="#Was" y="2817.370958"/>
  <rect class=" imageannotationLine imageannotationLinked" fill="#FFFF00" fill-opacity="0.2" height="115.175285" id="svg_8" stroke="#000000" stroke-opacity="0.5" transform="rotate(89, 3151.34, 2969.57)" width="2742.692498" x="1779.992233" xlink:href="#Seyd" y="2911.977911"/>
  <rect class=" imageannotationLine imageannotationLinked" fill="#FFFF00" fill-opacity="0.2" height="119.825499" id="svg_10" stroke="#000000" stroke-opacity="0.5" transform="rotate(88, 2918.66, 2977.03)" width="2827.692507" x="1504.816826" xlink:href="#lc" y="2917.113653"/>
  <rect class=" imageannotationLine imageannotationLinked" fill="#FFFF00" fill-opacity="0.2" height="114.654172" id="svg_12" stroke="#000000" stroke-opacity="0.5" transform="rotate(88, 2736.44, 2937.45)" width="2717.692603" x="1377.595058" xlink:href="#ld" y="2880.12496"/>
  <rect class=" imageannotationLine imageannotationLinked" fill="#FFFF00" fill-opacity="0.2" height="105.003049" id="svg_14" stroke="#000000" stroke-opacity="0.5" transform="rotate(88, 2596.26, 3482.11)" width="1047.691958" x="2072.407501" xlink:href="#le" y="3429.609654"/>
  <rect class=" imageannotationLine imageannotationLinked" fill="#FFFF00" fill-opacity="0.2" height="120" id="svg_16" stroke="#000000" stroke-opacity="0.5" transform="rotate(88, 2463.75, 2722.02)" width="2247.692401" x="1339.904691" xlink:href="#lf" y="2662.023438"/>
  <rect class=" imageannotationLine imageannotationLinked" fill="#FFFF00" fill-opacity="0.2" height="115.003045" id="svg_18" stroke="#000000" stroke-opacity="0.5" transform="rotate(88, 2136.26, 2792.11)" width="2727.692531" x="772.407625" xlink:href="#lg" y="2734.609203"/>
  <rect class=" imageannotationLine imageannotationLinked" fill="#FFFF00" fill-opacity="0.2" height="120.041111" id="svg_20" stroke="#000000" stroke-opacity="0.5" transform="rotate(87, 2003.79, 3130.31)" width="512.691616" x="1747.44712" xlink:href="#lh" y="3070.287012"/>
  <rect class=" imageannotationLine imageannotationLinked" fill="#FFFF00" fill-opacity="0.2" height="110.088787" id="svg_22" stroke="#000000" stroke-opacity="0.5" transform="rotate(89, 1848.71, 2869.44)" width="2872.692521" x="412.359213" xlink:href="#li" y="2814.392716"/>
  <rect class=" imageannotationLine imageannotationLinked" fill="#FFFF00" fill-opacity="0.2" height="115.268533" id="svg_24" stroke="#000000" stroke-opacity="0.5" transform="rotate(87, 1681.39, 2812.15)" width="2767.692591" x="297.541878" xlink:href="#lj" y="2754.512891"/>
  <rect class=" imageannotationLine imageannotationLinked" fill="#FFFF00" fill-opacity="0.2" height="145.159264" id="svg_26" stroke="#000000" stroke-opacity="0.5" transform="rotate(88, 1511.32, 2906.58)" width="2787.69254" x="117.476817" xlink:href="#lk" y="2834.004919"/>
  <rect class=" imageannotationLine imageannotationLinked" fill="#FFFF00" fill-opacity="0.2" height="85" id="svg_28" stroke="#000000" stroke-opacity="0.5" transform="rotate(90, 1441.25, 2759.52)" width="782.691736" x="1049.905706" xlink:href="#ll" y="2717.02342"/>
  <rect class=" imageannotationLine imageannotationLinked" fill="#FFFF00" fill-opacity="0.2" height="125.254827" id="svg_30" stroke="#000000" stroke-opacity="0.5" transform="rotate(87, 1361.38, 2866.89)" width="2717.692603" x="2.52838" xlink:href="#lm" y="2804.258782"/>
  <rect class=" imageannotationLine imageannotationLinked" fill="#FFFF00" fill-opacity="0.2" height="144.965744" id="svg_32" stroke="#000000" stroke-opacity="0.5" transform="rotate(87, 1206.22, 2861.37)" width="2807.692651" x="-197.630034" xlink:href="#ln" y="2788.887086"/>
  <rect class=" imageannotationLine imageannotationLinked" fill="#FFFF00" fill-opacity="0.2" height="115.003045" id="svg_34" stroke="#000000" stroke-opacity="0.5" transform="rotate(88, 1036.26, 2767.11)" width="2577.692538" x="-252.592392" xlink:href="#lo" y="2709.609082"/>
  <rect class=" imageannotationLine imageannotationLinked" fill="#FFFF00" fill-opacity="0.2" height="120" id="svg_36" stroke="#000000" stroke-opacity="0.5" transform="rotate(88, 888.752, 3242.02)" width="1127.691881" x="324.905525" xlink:href="#lp" y="3182.023438"/>
  <rect class=" imageannotationLine imageannotationLinked" fill="#FFFF00" fill-opacity="0.2" height="120" id="svg_38" stroke="#000000" stroke-opacity="0.5" transform="rotate(89, 683.752, 2449.52)" width="1932.692253" x="-282.595052" xlink:href="#lq" y="2389.523438"/>
  <rect class=" imageannotationLine imageannotationLinked" fill="#FFFF00" fill-opacity="0.2" height="95.000002" id="svg_40" stroke="#000000" stroke-opacity="0.5" transform="rotate(90, 3391.25, 1444.52)" width="102.691446" x="3339.906421" xlink:href="#lr" y="1397.023669"/>
  <rect class=" imageannotationLine imageannotationLinked" fill="#FFFF00" fill-opacity="0.2" height="120" id="svg_42" stroke="#000000" stroke-opacity="0.5" transform="rotate(90, 3108.75, 1469.52)" width="112.69145" x="3052.406167" xlink:href="#ls" y="1409.523438"/>
 </g>

</svg>