<?xml version="1.0" encoding="UTF-8" standalone="no"?><svg xmlns="http://www.w3.org/2000/svg" xmlns:xlink="http://www.w3.org/1999/xlink" height="6144.000000000001" width="4096">
 <g>
  <title>Layer 1</title>
  <rect class=" imageannotationLine imageannotationLinked" fill="#FFFF00" fill-opacity="0.2" height="80.000002" id="svg_4" stroke="#000000" stroke-opacity="0.5" transform="rotate(180, 3267.63, 5631)" width="603.636573" x="2965.813776" xlink:href="#la" y="5591.000173"/>
  <rect class=" imageannotationLine imageannotationLinked" fill="#FFFF00" fill-opacity="0.2" height="80" id="svg_6" stroke="#000000" stroke-opacity="0.5" transform="rotate(180, 3172.63, 5521)" width="293.636652" x="3025.813958" xlink:href="#lb" y="5481.000244"/>
  <rect class=" imageannotationLine imageannotationLinked" fill="#FFFF00" fill-opacity="0.2" height="80" id="svg_8" stroke="#000000" stroke-opacity="0.5" transform="rotate(178, 1545.13, 5431)" width="1458.636379" x="815.813806" xlink:href="#lc" y="5391.000244"/>
  <rect class=" imageannotationLine imageannotationLinked" fill="#FFFF00" fill-opacity="0.2" height="65" id="svg_10" stroke="#000000" stroke-opacity="0.5" transform="rotate(180, 1415.13, 5268.5)" width="948.636487" x="940.813448" xlink:href="#ld" y="5236.000198"/>
  <rect class=" imageannotationLine imageannotationLinked" fill="#FFFF00" fill-opacity="0.2" height="80" id="svg_12" stroke="#000000" stroke-opacity="0.5" transform="rotate(177, 1570.13, 5131)" width="718.636552" x="1210.813399" xlink:href="#le" y="5091.000244"/>
  <rect class=" imageannotationLine imageannotationLinked" fill="#FFFF00" fill-opacity="0.2" height="80" id="svg_14" stroke="#000000" stroke-opacity="0.5" transform="rotate(178, 1612.63, 4936)" width="1413.636375" x="905.81402" xlink:href="#lf" y="4896.000244"/>
  <rect class=" imageannotationLine imageannotationLinked" fill="#FFFF00" fill-opacity="0.2" height="80" id="svg_16" stroke="#000000" stroke-opacity="0.5" transform="rotate(180, 1607.63, 4806)" width="1213.636468" x="1000.814016" xlink:href="#lg" y="4766.000244"/>
  <rect class=" imageannotationLine imageannotationLinked" fill="#FFFF00" fill-opacity="0.2" height="80" id="svg_18" stroke="#000000" stroke-opacity="0.5" transform="rotate(180, 2065.13, 4671)" width="478.63662" x="1825.813066" xlink:href="#lh" y="4631.000244"/>
  <rect class=" imageannotationLine imageannotationLinked" fill="#FFFF00" fill-opacity="0.2" height="80" id="svg_26" stroke="#000000" stroke-opacity="0.5" transform="rotate(180, 1722.63, 4611)" width="473.636625" x="1485.813173" xlink:href="#li" y="4571.000244"/>
  <rect class=" imageannotationLine imageannotationLinked" fill="#FFFF00" fill-opacity="0.2" height="80" id="svg_28" stroke="#000000" stroke-opacity="0.5" transform="rotate(180, 1947.63, 4486)" width="703.636573" x="1595.813382" xlink:href="#lj" y="4446.000244"/>
  <rect class=" imageannotationLine imageannotationLinked" fill="#FFFF00" fill-opacity="0.2" height="80" id="svg_30" stroke="#000000" stroke-opacity="0.5" transform="rotate(178, 1557.63, 4321)" width="1483.636371" x="815.814354" xlink:href="#lk" y="4281.000244"/>
  <rect class=" imageannotationLine imageannotationLinked" fill="#FFFF00" fill-opacity="0.2" height="80" id="svg_32" stroke="#000000" stroke-opacity="0.5" transform="rotate(177, 1541.24, 4200.41)" width="1506.335425" x="788.074585" xlink:href="#ll" y="4160.409322"/>
  <rect class=" imageannotationLine imageannotationLinked" fill="#FFFF00" fill-opacity="0.2" height="50" id="svg_34" stroke="#000000" stroke-opacity="0.5" transform="rotate(180, 2005.13, 4021)" width="318.636646" x="1845.813292" xlink:href="#lm" y="3996.000153"/>
  <rect class=" imageannotationLine imageannotationLinked" fill="#FFFF00" fill-opacity="0.2" height="80" id="svg_36" stroke="#000000" stroke-opacity="0.5" transform="rotate(178, 1582.63, 3901)" width="1423.636361" x="870.814523" xlink:href="#ln" y="3861.000244"/>
  <rect class=" imageannotationLine imageannotationLinked" fill="#FFFF00" fill-opacity="0.2" height="80" id="svg_38" stroke="#000000" stroke-opacity="0.5" transform="rotate(177, 1525.13, 3751)" width="1498.636262" x="775.814616" xlink:href="#lo" y="3711.000244"/>
  <rect class=" imageannotationLine imageannotationLinked" fill="#FFFF00" fill-opacity="0.2" height="80" id="svg_40" stroke="#000000" stroke-opacity="0.5" transform="rotate(176, 1475.13, 3611)" width="1278.636377" x="835.813852" xlink:href="#lp" y="3571.000244"/>
  <rect class=" imageannotationLine imageannotationLinked" fill="#FFFF00" fill-opacity="0.2" height="80" id="svg_42" stroke="#000000" stroke-opacity="0.5" transform="rotate(180, 1795.13, 3406)" width="958.63645" x="1315.813449" xlink:href="#lq" y="3366.000244"/>
  <rect class=" imageannotationLine imageannotationLinked" fill="#FFFF00" fill-opacity="0.2" height="80" id="svg_44" stroke="#000000" stroke-opacity="0.5" transform="rotate(177, 1575.13, 3266)" width="1398.636396" x="875.814006" xlink:href="#lr" y="3226.000244"/>
  <rect class=" imageannotationLine imageannotationLinked" fill="#FFFF00" fill-opacity="0.2" height="80" id="svg_46" stroke="#000000" stroke-opacity="0.5" transform="rotate(178, 1845.14, 3076.26)" width="908.627411" x="1390.82737" xlink:href="#ls" y="3036.262091"/>
  <rect class=" imageannotationLine imageannotationLinked" fill="#FFFF00" fill-opacity="0.2" height="80" id="svg_48" stroke="#000000" stroke-opacity="0.5" transform="rotate(178, 1745.13, 2926)" width="1058.636497" x="1215.813582" xlink:href="#lt" y="2886.000244"/>
  <rect class=" imageannotationLine imageannotationLinked" fill="#FFFF00" fill-opacity="0.2" height="80" id="svg_50" stroke="#000000" stroke-opacity="0.5" transform="rotate(178, 1530.13, 2761)" width="1428.636354" x="815.814039" xlink:href="#lu" y="2721.000244"/>
  <rect class=" imageannotationLine imageannotationLinked" fill="#FFFF00" fill-opacity="0.2" height="80" id="svg_52" stroke="#000000" stroke-opacity="0.5" transform="rotate(178, 1792.63, 2596)" width="823.636545" x="1380.813767" xlink:href="#lv" y="2556.000244"/>
  <rect class=" imageannotationLine imageannotationLinked" fill="#FFFF00" fill-opacity="0.2" height="105.227439" id="svg_54" stroke="#000000" stroke-opacity="0.5" transform="rotate(177, 1529, 2444.48)" width="1463.849995" x="797.072653" xlink:href="#lw" y="2391.861159"/>
  <rect class=" imageannotationLine imageannotationLinked" fill="#FFFF00" fill-opacity="0.2" height="80" id="svg_56" stroke="#000000" stroke-opacity="0.5" transform="rotate(177, 1237.63, 2306)" width="993.636486" x="740.813975" xlink:href="#lx" y="2266.000244"/>
  <rect class=" imageannotationLine imageannotationLinked" fill="#FFFF00" fill-opacity="0.2" height="80" id="svg_58" stroke="#000000" stroke-opacity="0.5" transform="rotate(177, 1487.63, 2156)" width="1543.63638" x="715.814184" xlink:href="#ly" y="2116.000244"/>
  <rect class=" imageannotationLine imageannotationLinked" fill="#FFFF00" fill-opacity="0.2" height="80" id="svg_60" stroke="#000000" stroke-opacity="0.5" transform="rotate(177, 1195.13, 2011)" width="1038.636432" x="675.813798" xlink:href="#lz" y="1971.000244"/>
  <rect class=" imageannotationLine imageannotationLinked" fill="#FFFF00" fill-opacity="0.2" height="80" id="svg_62" stroke="#000000" stroke-opacity="0.5" transform="rotate(177, 1702.63, 1826)" width="983.636509" x="1210.813723" xlink:href="#laa" y="1786.000244"/>
  <rect class=" imageannotationLine imageannotationLinked" fill="#FFFF00" fill-opacity="0.2" height="99.950717" id="svg_64" stroke="#000000" stroke-opacity="0.5" transform="rotate(176, 1836.63, 1655.72)" width="893.287763" x="1389.988958" xlink:href="#lab" y="1605.745772"/>
  <rect class=" imageannotationLine imageannotationLinked" fill="#FFFF00" fill-opacity="0.2" height="110.001526" id="svg_66" stroke="#000000" stroke-opacity="0.5" transform="rotate(179, 1587.55, 1471)" width="1323.636411" x="925.727307" xlink:href="#lac" y="1416.000977"/>
  <rect class=" imageannotationLine imageannotationLinked" fill="#FFFF00" fill-opacity="0.2" height="90" id="svg_68" stroke="#000000" stroke-opacity="0.5" transform="rotate(180, 1515.13, 1271)" width="1478.636378" x="775.81386" xlink:href="#lad" y="1226.000274"/>
  <rect class=" imageannotationLine imageannotationLinked" fill="#FFFF00" fill-opacity="0.2" height="105" id="svg_70" stroke="#000000" stroke-opacity="0.5" transform="rotate(178, 1815.13, 1118.5)" width="538.636611" x="1545.813152" xlink:href="#lae" y="1066.00032"/>
 </g>
</svg>