<?xml version="1.0" encoding="UTF-8" standalone="no"?><svg xmlns="http://www.w3.org/2000/svg" xmlns:xlink="http://www.w3.org/1999/xlink" height="6144.000000000001" width="4096">
 <g>
  <title>Layer 1</title>
  <rect class=" imageannotationLine imageannotationLinked" fill="#FFFF00" fill-opacity="0.2" height="80.999998" id="svg_4" stroke="#000000" stroke-opacity="0.5" transform="rotate(179, 1491.27, 5610.5)" width="1209.454362" x="886.547367" xlink:href="#la" y="5570.000176"/>
  <rect class=" imageannotationLine imageannotationLinked" fill="#FFFF00" fill-opacity="0.2" height="81" id="svg_6" stroke="#000000" stroke-opacity="0.5" transform="rotate(180, 1455.27, 5508.5)" width="1137.454299" x="886.546876" xlink:href="#lb" y="5468.001204"/>
  <rect class=" imageannotationLine imageannotationLinked" fill="#FFFF00" fill-opacity="0.2" height="104.857792" id="svg_8" stroke="#000000" stroke-opacity="0.5" transform="rotate(179, 1585.59, 5401.74)" width="1237.448979" x="966.866241" xlink:href="#lc" y="5349.31187"/>
  <rect class=" imageannotationLine imageannotationLinked" fill="#FFFF00" fill-opacity="0.2" height="77" id="svg_10" stroke="#000000" stroke-opacity="0.5" transform="rotate(180, 1599.27, 5218.5)" width="1385.454598" x="906.546387" xlink:href="#ld" y="5180.000227"/>
  <rect class=" imageannotationLine imageannotationLinked" fill="#FFFF00" fill-opacity="0.2" height="77" id="svg_12" stroke="#000000" stroke-opacity="0.5" transform="rotate(180, 1037.27, 4935.5)" width="301.453436" x="886.546859" xlink:href="#le" y="4896.999258"/>
  <rect class=" imageannotationLine imageannotationLinked" fill="#FFFF00" fill-opacity="0.2" height="72.93202" id="svg_14" stroke="#000000" stroke-opacity="0.5" transform="rotate(179, 1565.17, 4816.56)" width="1445.45459" x="842.441736" xlink:href="#lf" y="4780.094424"/>
  <rect class=" imageannotationLine imageannotationLinked" fill="#FFFF00" fill-opacity="0.2" height="97.06798" id="svg_16" stroke="#000000" stroke-opacity="0.5" transform="rotate(179, 1605.27, 4652.5)" width="1525.664613" x="842.44237" xlink:href="#allergnaedigst" y="4603.962759"/>
  <rect class=" imageannotationLine imageannotationLinked" fill="#FFFF00" fill-opacity="0.2" height="88.999392" id="svg_18" stroke="#000000" stroke-opacity="0.5" transform="rotate(179, 1629.31, 4460.5)" width="1549.454643" x="854.581792" xlink:href="#lg" y="4416.000915"/>
  <rect class=" imageannotationLine imageannotationLinked" fill="#FFFF00" fill-opacity="0.2" height="93.068588" id="svg_20" stroke="#000000" stroke-opacity="0.5" transform="rotate(179, 1639.34, 4290.53)" width="1497.454617" x="890.616847" xlink:href="#lh" y="4243.9994"/>
  <rect class=" imageannotationLine imageannotationLinked" fill="#FFFF00" fill-opacity="0.2" height="85" id="svg_22" stroke="#000000" stroke-opacity="0.5" transform="rotate(179, 1607.27, 4106.5)" width="1545.454774" x="834.547122" xlink:href="#die-Zukunft" y="4064"/>
  <rect class=" imageannotationLine imageannotationLinked" fill="#FFFF00" fill-opacity="0.2" height="93.059512" id="svg_24" stroke="#000000" stroke-opacity="0.5" transform="rotate(179, 1638.82, 3942.55)" width="1489.454705" x="894.093986" xlink:href="#li" y="3896.019183"/>
  <rect class=" imageannotationLine imageannotationLinked" fill="#FFFF00" fill-opacity="0.2" height="61.000001" id="svg_26" stroke="#000000" stroke-opacity="0.5" transform="rotate(180, 1785.27, 3846.5)" width="429.45355" x="1570.54575" xlink:href="#lj" y="3816.003906"/>
  <rect class=" imageannotationLine imageannotationLinked" fill="#FFFF00" fill-opacity="0.2" height="76.850468" id="svg_28" stroke="#000000" stroke-opacity="0.5" transform="rotate(178, 1634.11, 3762.4)" width="1469.454668" x="899.383667" xlink:href="#lk" y="3723.973242"/>
  <rect class=" imageannotationLine imageannotationLinked" fill="#FFFF00" fill-opacity="0.2" height="92.98051" id="svg_30" stroke="#000000" stroke-opacity="0.5" transform="rotate(178, 1663.84, 3574.92)" width="1465.442393" x="931.122183" xlink:href="#ll" y="3528.429975"/>
  <rect class=" imageannotationLine imageannotationLinked" fill="#FFFF00" fill-opacity="0.2" height="80.999998" id="svg_32" stroke="#000000" stroke-opacity="0.5" transform="rotate(178, 1643.27, 3376.5)" width="1521.454695" x="882.546631" xlink:href="#lm" y="3336.000023"/>
  <rect class=" imageannotationLine imageannotationLinked" fill="#FFFF00" fill-opacity="0.2" height="100.987917" id="svg_34" stroke="#000000" stroke-opacity="0.5" transform="rotate(178, 1645.62, 3194.58)" width="1445.45459" x="922.896168" xlink:href="#ln" y="3144.083328"/>
  <rect class=" imageannotationLine imageannotationLinked" fill="#FFFF00" fill-opacity="0.2" height="76.860996" id="svg_36" stroke="#000000" stroke-opacity="0.5" transform="rotate(179, 1595.38, 3002.5)" width="1505.4547" x="842.649701" xlink:href="#lo" y="2964.06695"/>
  <rect class=" imageannotationLine imageannotationLinked" fill="#FFFF00" fill-opacity="0.2" height="81" id="svg_38" stroke="#000000" stroke-opacity="0.5" transform="rotate(180, 2177.27, 2800.5)" width="309.453447" x="2022.546891" xlink:href="#lp" y="2760"/>
  <rect class=" imageannotationLine imageannotationLinked" fill="#FFFF00" fill-opacity="0.2" height="81" id="svg_40" stroke="#000000" stroke-opacity="0.5" transform="rotate(180, 1543.27, 2772.5)" width="297.453414" x="1394.547074" xlink:href="#lq" y="2732"/>
  <rect class=" imageannotationLine imageannotationLinked" fill="#FFFF00" fill-opacity="0.2" height="81" id="svg_42" stroke="#000000" stroke-opacity="0.5" transform="rotate(178, 1598.84, 2628.1)" width="1194.306552" x="1001.687967" xlink:href="#lr" y="2587.595331"/>
  <rect class=" imageannotationLine imageannotationLinked" fill="#FFFF00" fill-opacity="0.2" height="81" id="svg_44" stroke="#000000" stroke-opacity="0.5" transform="rotate(178, 1673.27, 2444.5)" width="1317.454458" x="1014.546878" xlink:href="#ls" y="2404"/>
  <rect class=" imageannotationLine imageannotationLinked" fill="#FFFF00" fill-opacity="0.2" height="81" id="svg_46" stroke="#000000" stroke-opacity="0.5" transform="rotate(178, 1650.45, 2260.97)" width="1467.117606" x="916.890621" xlink:href="#lt" y="2220.471598"/>
  <rect class=" imageannotationLine imageannotationLinked" fill="#FFFF00" fill-opacity="0.2" height="81" id="svg_48" stroke="#000000" stroke-opacity="0.5" transform="rotate(178, 1623.29, 2085.08)" width="1473.437479" x="886.572289" xlink:href="#lu" y="2044.582014"/>
  <rect class=" imageannotationLine imageannotationLinked" fill="#FFFF00" fill-opacity="0.2" height="80.999938" id="svg_50" stroke="#000000" stroke-opacity="0.5" transform="rotate(178, 1577.69, 1908.49)" width="1557.454727" x="798.961814" xlink:href="#lv" y="1867.986187"/>
  <rect class=" imageannotationLine imageannotationLinked" fill="#FFFF00" fill-opacity="0.2" height="73.004871" id="svg_52" stroke="#000000" stroke-opacity="0.5" transform="rotate(178, 1587.41, 1712.5)" width="1545.454774" x="814.686171" xlink:href="#lw" y="1675.992666"/>
  <rect class=" imageannotationLine imageannotationLinked" fill="#FFFF00" fill-opacity="0.2" height="84.718296" id="svg_54" stroke="#000000" stroke-opacity="0.5" transform="rotate(178, 1589.76, 1530.34)" width="1493.454575" x="843.028097" xlink:href="#lx" y="1487.981939"/>
  <rect class=" imageannotationLine imageannotationLinked" fill="#FFFF00" fill-opacity="0.2" height="88.995129" id="svg_56" stroke="#000000" stroke-opacity="0.5" transform="rotate(178, 1625.2, 1340.36)" width="1485.878263" x="882.258034" xlink:href="#ly" y="1295.86682"/>
  <rect class=" imageannotationLine imageannotationLinked" fill="#FFFF00" fill-opacity="0.2" height="88.855533" id="svg_58" stroke="#000000" stroke-opacity="0.5" transform="rotate(178, 1632.73, 1188.8)" width="1422.554395" x="921.450369" xlink:href="#lz" y="1144.367405"/>
  <rect class=" imageannotationLine imageannotationLinked" fill="#FFFF00" fill-opacity="0.2" height="73" id="svg_60" stroke="#000000" stroke-opacity="0.5" transform="rotate(-178, 1071.27, 1100.5)" width="481.453625" x="830.54784" xlink:href="#laa" y="1064.000241"/>
  <rect class=" imageannotationLine imageannotationLinked" fill="#FFFF00" fill-opacity="0.2" height="81" id="svg_62" stroke="#000000" stroke-opacity="0.5" transform="rotate(178, 1557.27, 1012.29)" width="1493.462006" x="810.53588" xlink:href="#lab" y="971.79069"/>
  <rect class=" imageannotationLine imageannotationLinked" fill="#FFFF00" fill-opacity="0.2" height="81" id="svg_64" stroke="#000000" stroke-opacity="0.5" transform="rotate(178, 1629.27, 860.594)" width="1445.45459" x="906.546875" xlink:href="#lac" y="820.09375"/>
  <rect class=" imageannotationLine imageannotationLinked" fill="#FFFF00" fill-opacity="0.2" height="57" id="svg_66" stroke="#000000" stroke-opacity="0.5" transform="rotate(180, 2303.27, 692.5)" width="145.453274" x="2230.546892" xlink:href="#lad" y="663.999766"/>
  <rect class=" imageannotationLine imageannotationLinked" fill="#FFFF00" fill-opacity="0.2" height="76.999393" id="svg_69" stroke="#000000" stroke-opacity="0.5" transform="rotate(179, 2996.03, 5566.5)" width="1608.000044" x="2192.034919" xlink:href="#lae" y="5528.000903"/>
  <rect class=" imageannotationLine imageannotationLinked" fill="#FFFF00" fill-opacity="0.2" height="60.999998" id="svg_71" stroke="#000000" stroke-opacity="0.5" transform="rotate(180, 2958, 5458.5)" width="1324.000033" x="2296.000015" xlink:href="#laf" y="5428.000012"/>
  <rect class=" imageannotationLine imageannotationLinked" fill="#FFFF00" fill-opacity="0.2" height="57" id="svg_73" stroke="#000000" stroke-opacity="0.5" transform="rotate(180, 3280, 5404.5)" width="615.999971" x="2971.999994" xlink:href="#lag" y="5376"/>
  <rect class=" imageannotationLine imageannotationLinked" fill="#FFFF00" fill-opacity="0.2" height="77.066906" id="svg_75" stroke="#000000" stroke-opacity="0.5" transform="rotate(179, 3248.03, 5350.54)" width="992.000024" x="2752.031819" xlink:href="#lah" y="5312.008522"/>
  <rect class=" imageannotationLine imageannotationLinked" fill="#FFFF00" fill-opacity="0.2" height="73.129851" id="svg_77" stroke="#000000" stroke-opacity="0.5" transform="rotate(178, 3085.46, 5184.94)" width="1557.662976" x="2306.624561" xlink:href="#lai" y="5148.372004"/>
  <rect class=" imageannotationLine imageannotationLinked" fill="#FFFF00" fill-opacity="0.2" height="76.999998" id="svg_79" stroke="#000000" stroke-opacity="0.5" transform="rotate(179, 3448, 5042.5)" width="439.999988" x="3227.999875" xlink:href="#laj" y="5003.996128"/>
  <rect class=" imageannotationLine imageannotationLinked" fill="#FFFF00" fill-opacity="0.2" height="77" id="svg_83" stroke="#000000" stroke-opacity="0.5" transform="rotate(180, 3022, 4638.5)" width="228.000001" x="2908.000529" xlink:href="#lak" y="4600"/>
  <rect class=" imageannotationLine imageannotationLinked" fill="#FFFF00" fill-opacity="0.2" height="129.000001" id="svg_85" stroke="#000000" stroke-opacity="0.5" transform="rotate(180, 3082, 4468.5)" width="612.000005" x="2776.000003" xlink:href="#lal" y="4404.004091"/>
  <rect class=" imageannotationLine imageannotationLinked" fill="#FFFF00" fill-opacity="0.2" height="76.368595" id="svg_88" stroke="#000000" stroke-opacity="0.5" transform="rotate(-90, 2423.71, 3244.77)" width="945.96542" x="1950.725616" xlink:href="#lam" y="3206.583904"/>
  <rect class=" imageannotationLine imageannotationLinked" fill="#FFFF00" fill-opacity="0.2" height="97.421051" id="svg_90" stroke="#000000" stroke-opacity="0.5" transform="rotate(-90, 2502.66, 2397.4)" width="3388.070304" x="808.624432" xlink:href="#lan" y="2348.6931"/>
  <rect class=" imageannotationLine imageannotationLinked" fill="#FFFF00" fill-opacity="0.2" height="97.421051" id="svg_92" stroke="#000000" stroke-opacity="0.5" transform="rotate(-90, 2644.76, 2386.88)" width="3209.122815" x="1040.200752" xlink:href="#lao" y="2338.164075"/>
  <rect class=" imageannotationLine imageannotationLinked" fill="#FFFF00" fill-opacity="0.2" height="57.273463" id="svg_94" stroke="#000000" stroke-opacity="0.5" transform="rotate(-65, 2658.89, 2150.63)" width="130.17547" x="2593.804725" xlink:href="#lap" y="2121.996324"/>
  <rect class=" imageannotationLine imageannotationLinked" fill="#FFFF00" fill-opacity="0.2" height="86.894821" id="svg_96" stroke="#000000" stroke-opacity="0.5" transform="rotate(-90, 2802.66, 2400.04)" width="3393.333453" x="1105.989802" xlink:href="#laq" y="2356.588844"/>
  <rect class=" imageannotationLine imageannotationLinked" fill="#FFFF00" fill-opacity="0.2" height="76.36847" id="svg_98" stroke="#000000" stroke-opacity="0.5" transform="rotate(-90, 2865.81, 1139.51)" width="945.964033" x="2392.831841" xlink:href="#lar" y="1101.324934"/>
  <rect class=" imageannotationLine imageannotationLinked" fill="#FFFF00" fill-opacity="0.2" height="86.894821" id="svg_100" stroke="#000000" stroke-opacity="0.5" transform="rotate(-91, 2918.44, 2394.77)" width="3382.807155" x="1227.039768" xlink:href="#las" y="2351.324076"/>
  <rect class=" imageannotationLine imageannotationLinked" fill="#FFFF00" fill-opacity="0.2" height="60.578947" id="svg_104" stroke="#000000" stroke-opacity="0.5" transform="rotate(-92, 3010.55, 2428.98)" width="630.175147" x="2695.462963" xlink:href="#lat" y="2398.693167"/>
  <rect class=" imageannotationLine imageannotationLinked" fill="#FFFF00" fill-opacity="0.2" height="86.894821" id="svg_106" stroke="#000000" stroke-opacity="0.5" transform="rotate(-90, 3071.08, 2413.2)" width="3314.386007" x="1413.884043" xlink:href="#lau" y="2369.748532"/>
  <rect class=" imageannotationLine imageannotationLinked" fill="#FFFF00" fill-opacity="0.2" height="87.354094" id="svg_108" stroke="#000000" stroke-opacity="0.5" transform="rotate(-91, 3423.48, 3363.2)" width="1519.64849" x="2663.654407" xlink:href="#lav" y="3319.52211"/>
 </g>
</svg>