<?xml version="1.0" encoding="UTF-8" standalone="no"?><svg xmlns="http://www.w3.org/2000/svg" xmlns:xlink="http://www.w3.org/1999/xlink" height="6143.999999999999" width="4096">
 <g>
  <title>Layer 1</title>
  <rect class=" imageannotationLine imageannotationLinked" fill="#FFFF00" fill-opacity="0.2" height="68" id="svg_2" stroke="#000000" stroke-opacity="0.5" transform="rotate(180, 2426.11, 5418)" width="1118.701718" x="1866.757955" xlink:href="#la" y="5383.998717"/>
  <rect class=" imageannotationLine imageannotationLinked" fill="#FFFF00" fill-opacity="0.2" height="52.00061" id="svg_4" stroke="#000000" stroke-opacity="0.5" transform="rotate(179, 3021.86, 5190)" width="583.273289" x="2730.216762" xlink:href="#lb" y="5164.000261"/>
  <rect class=" imageannotationLine imageannotationLinked" fill="#FFFF00" fill-opacity="0.2" height="60" id="svg_6" stroke="#000000" stroke-opacity="0.5" transform="rotate(180, 1927.82, 5006)" width="1595.273155" x="1130.182602" xlink:href="#lc" y="4976.000028"/>
  <rect class=" imageannotationLine imageannotationLinked" fill="#FFFF00" fill-opacity="0.2" height="80.00163" id="svg_8" stroke="#000000" stroke-opacity="0.5" transform="rotate(-180, 2323.75, 4884)" width="2371.272979" x="1138.114166" xlink:href="#ld" y="4844.00422"/>
  <rect class=" imageannotationLine imageannotationLinked" fill="#FFFF00" fill-opacity="0.2" height="68" id="svg_10" stroke="#000000" stroke-opacity="0.5" transform="rotate(180, 2317.82, 4814)" width="719.273285" x="1958.183613" xlink:href="#le" y="4780"/>
  <rect class=" imageannotationLine imageannotationLinked" fill="#FFFF00" fill-opacity="0.2" height="68" id="svg_12" stroke="#000000" stroke-opacity="0.5" transform="rotate(180, 2311.82, 4734)" width="2387.272888" x="1118.185454" xlink:href="#lf" y="4700"/>
  <rect class=" imageannotationLine imageannotationLinked" fill="#FFFF00" fill-opacity="0.2" height="56.000004" id="svg_14" stroke="#000000" stroke-opacity="0.5" transform="rotate(180, 2437.82, 4668)" width="559.273334" x="2158.181627" xlink:href="#lg" y="4639.998954"/>
  <rect class=" imageannotationLine imageannotationLinked" fill="#FFFF00" fill-opacity="0.2" height="63.998176" id="svg_16" stroke="#000000" stroke-opacity="0.5" transform="rotate(-179, 2249.72, 4588)" width="2495.272997" x="1002.07924" xlink:href="#lh" y="4555.997641"/>
  <rect class=" imageannotationLine imageannotationLinked" fill="#FFFF00" fill-opacity="0.2" height="80.066175" id="svg_18" stroke="#000000" stroke-opacity="0.5" transform="rotate(-179, 2279.5, 4444.64)" width="2435.426905" x="1061.782969" xlink:href="#li" y="4404.603236"/>
  <rect class=" imageannotationLine imageannotationLinked" fill="#FFFF00" fill-opacity="0.2" height="87.920044" id="svg_20" stroke="#000000" stroke-opacity="0.5" transform="rotate(-179, 2245.89, 4317.89)" width="2455.250682" x="1018.266289" xlink:href="#lj" y="4273.927068"/>
  <rect class=" imageannotationLine imageannotationLinked" fill="#FFFF00" fill-opacity="0.2" height="71.997646" id="svg_22" stroke="#000000" stroke-opacity="0.5" transform="rotate(-179, 2189.8, 4169.01)" width="2271.418753" x="1054.084678" xlink:href="#lk" y="4133.004825"/>
  <rect class=" imageannotationLine imageannotationLinked" fill="#FFFF00" fill-opacity="0.2" height="75.996703" id="svg_24" stroke="#000000" stroke-opacity="0.5" transform="rotate(-179, 2293.8, 4036.76)" width="2415.39679" x="1086.103547" xlink:href="#ll" y="3998.75596"/>
  <rect class=" imageannotationLine imageannotationLinked" fill="#FFFF00" fill-opacity="0.2" height="103.992935" id="svg_26" stroke="#000000" stroke-opacity="0.5" transform="rotate(-179, 2281.84, 3906.55)" width="2455.25037" x="1054.216945" xlink:href="#lm" y="3854.554975"/>
  <rect class=" imageannotationLine imageannotationLinked" fill="#FFFF00" fill-opacity="0.2" height="47.992533" id="svg_28" stroke="#000000" stroke-opacity="0.5" transform="rotate(180, 2529.82, 3840)" width="439.273343" x="2310.181849" xlink:href="#ln" y="3816.006981"/>
  <rect class=" imageannotationLine imageannotationLinked" fill="#FFFF00" fill-opacity="0.2" height="72.659833" id="svg_30" stroke="#000000" stroke-opacity="0.5" transform="rotate(-179, 2293.81, 3764.38)" width="2359.272305" x="1114.175761" xlink:href="#lo" y="3728.04558"/>
  <rect class=" imageannotationLine imageannotationLinked" fill="#FFFF00" fill-opacity="0.2" height="48.1308" id="svg_32" stroke="#000000" stroke-opacity="0.5" transform="rotate(-180 2659.12 3710.72)" width="1585.941352" x="1866.154053" xlink:href="#lp" y="3686.653719"/>
  <rect class=" imageannotationLine imageannotationLinked" fill="#FFFF00" fill-opacity="0.2" height="56.131613" id="svg_34" stroke="#000000" stroke-opacity="0.5" transform="rotate(180, 2325.82, 3623.93)" width="2447.272938" x="1102.184631" xlink:href="#lq" y="3595.858284"/>
  <rect class=" imageannotationLine imageannotationLinked" fill="#FFFF00" fill-opacity="0.2" height="48.130814" id="svg_36" stroke="#000000" stroke-opacity="0.5" transform="rotate(180, 2883.82, 3547.93)" width="1155.273157" x="2306.184085" xlink:href="#lr" y="3523.869186"/>
  <rect class=" imageannotationLine imageannotationLinked" fill="#FFFF00" fill-opacity="0.2" height="72.131764" id="svg_38" stroke="#000000" stroke-opacity="0.5" transform="rotate(180, 2327.82, 3495.93)" width="2347.272955" x="1154.187454" xlink:href="#ls" y="3459.869673"/>
  <rect class=" imageannotationLine imageannotationLinked" fill="#FFFF00" fill-opacity="0.2" height="39.465674" id="svg_40" stroke="#000000" stroke-opacity="0.5" transform="rotate(180, 1845.49, 3426.93)" width="1362.606412" x="1164.188674" xlink:href="#lt" y="3407.20071"/>
  <rect class=" imageannotationLine imageannotationLinked" fill="#FFFF00" fill-opacity="0.2" height="72.799299" id="svg_42" stroke="#000000" stroke-opacity="0.5" transform="rotate(180, 2327.49, 3362.93)" width="2337.272782" x="1158.849166" xlink:href="#lu" y="3326.5299"/>
  <rect class=" imageannotationLine imageannotationLinked" fill="#FFFF00" fill-opacity="0.2" height="50.050699" id="svg_44" stroke="#000000" stroke-opacity="0.5" transform="rotate(178, 3125.97, 3293.13)" width="720.643421" x="2765.648221" xlink:href="#lv" y="3268.101096"/>
  <rect class=" imageannotationLine imageannotationLinked" fill="#FFFF00" fill-opacity="0.2" height="73.384477" id="svg_46" stroke="#000000" stroke-opacity="0.5" transform="rotate(180, 2272.49, 3229.31)" width="2460.606064" x="1042.186113" xlink:href="#Arbeit" y="3192.615059"/>
  <rect class=" imageannotationLine imageannotationLinked" fill="#FFFF00" fill-opacity="0.2" height="69.989235" id="svg_48" stroke="#000000" stroke-opacity="0.5" transform="rotate(179, 2780.72, 3100.24)" width="1457.600562" x="2051.919653" xlink:href="#lw" y="3065.248295"/>
  <rect class=" imageannotationLine imageannotationLinked" fill="#FFFF00" fill-opacity="0.2" height="76.717319" id="svg_50" stroke="#000000" stroke-opacity="0.5" transform="rotate(180, 2232.49, 2950.97)" width="2227.272781" x="1118.849515" xlink:href="#lx" y="2912.615104"/>
  <rect class=" imageannotationLine imageannotationLinked" fill="#FFFF00" fill-opacity="0.2" height="66.717217" id="svg_52" stroke="#000000" stroke-opacity="0.5" transform="rotate(180, 2305.82, 2809.31)" width="2393.939584" x="1108.846097" xlink:href="#ly" y="2775.948016"/>
  <rect class=" imageannotationLine imageannotationLinked" fill="#FFFF00" fill-opacity="0.2" height="66.717344" id="svg_54" stroke="#000000" stroke-opacity="0.5" transform="rotate(180, 2327.49, 2679.31)" width="2330.606354" x="1162.182126" xlink:href="#lz" y="2645.953112"/>
  <rect class=" imageannotationLine imageannotationLinked" fill="#FFFF00" fill-opacity="0.2" height="70.050604" id="svg_56" stroke="#000000" stroke-opacity="0.5" transform="rotate(180, 2319.15, 2544.3)" width="2340.606004" x="1148.851946" xlink:href="#laa" y="2509.278521"/>
  <rect class=" imageannotationLine imageannotationLinked" fill="#FFFF00" fill-opacity="0.2" height="73.384019" id="svg_58" stroke="#000000" stroke-opacity="0.5" transform="rotate(180, 2302.49, 2419.31)" width="2360.606405" x="1122.188537" xlink:href="#lab" y="2382.613003"/>
  <rect class=" imageannotationLine imageannotationLinked" fill="#FFFF00" fill-opacity="0.2" height="63.383548" id="svg_60" stroke="#000000" stroke-opacity="0.5" transform="rotate(180, 2272.49, 2277.64)" width="2387.272854" x="1078.856141" xlink:href="#lac" y="2245.948399"/>
  <rect class=" imageannotationLine imageannotationLinked" fill="#FFFF00" fill-opacity="0.2" height="75.714711" id="svg_62" stroke="#000000" stroke-opacity="0.5" transform="rotate(180, 2314.36, 2124.28)" width="2338.701128" x="1145.012358" xlink:href="#lad" y="2086.424472"/>
  <rect class=" imageannotationLine imageannotationLinked" fill="#FFFF00" fill-opacity="0.2" height="58.571994" id="svg_3" stroke="#000000" stroke-opacity="0.5" transform="rotate(180, 2301.06, 2069.57)" width="170.12913" x="2215.98955" xlink:href="#lae" y="2040.28427"/>
  <rect class=" imageannotationLine imageannotationLinked" fill="#FFFF00" fill-opacity="0.2" height="75.714826" id="svg_15" stroke="#000000" stroke-opacity="0.5" transform="rotate(180, 2279.63, 1983.85)" width="2430.129739" x="1064.565392" xlink:href="#laf" y="1945.994092"/>
  <rect class=" imageannotationLine imageannotationLinked" fill="#FFFF00" fill-opacity="0.2" height="78.572439" id="svg_19" stroke="#000000" stroke-opacity="0.5" transform="rotate(180, 2285.34, 1848.14)" width="2401.558528" x="1084.562472" xlink:href="#lag" y="1808.857843"/>
  <rect class=" imageannotationLine imageannotationLinked" fill="#FFFF00" fill-opacity="0.2" height="87.091531" id="svg_23" stroke="#000000" stroke-opacity="0.5" transform="rotate(179, 2331.21, 1692.4)" width="2321.558687" x="1170.425458" xlink:href="#lah" y="1648.855251"/>
  <rect class=" imageannotationLine imageannotationLinked" fill="#FFFF00" fill-opacity="0.2" height="98.564881" id="svg_27" stroke="#000000" stroke-opacity="0.5" transform="rotate(179, 2279.88, 1555.03)" width="2418.697026" x="1070.529044" xlink:href="#lai" y="1505.748121"/>
  <rect class=" imageannotationLine imageannotationLinked" fill="#FFFF00" fill-opacity="0.2" height="89.998927" id="svg_31" stroke="#000000" stroke-opacity="0.5" transform="rotate(179, 2345.42, 1411.05)" width="2327.475201" x="1181.687316" xlink:href="#laj" y="1366.055514"/>
  <rect class=" imageannotationLine imageannotationLinked" fill="#FFFF00" fill-opacity="0.2" height="81.528528" id="svg_35" stroke="#000000" stroke-opacity="0.5" transform="rotate(180, 2322.89, 1235.33)" width="2304.415369" x="1170.678052" xlink:href="#lak" y="1194.56698"/>
  <rect class=" imageannotationLine imageannotationLinked" fill="#FFFF00" fill-opacity="0.2" height="70.000896" id="svg_39" stroke="#000000" stroke-opacity="0.5" transform="rotate(180, 2323.91, 1109.57)" width="2312.987121" x="1167.421326" xlink:href="#lal" y="1074.570962"/>
  <rect class=" imageannotationLine imageannotationLinked" fill="#FFFF00" fill-opacity="0.2" height="92.858511" id="svg_43" stroke="#000000" stroke-opacity="0.5" transform="rotate(178, 2885.45, 978.338)" width="1167.279737" x="2301.808202" xlink:href="#lam" y="931.907637"/>
  <rect class=" imageannotationLine imageannotationLinked" fill="#FFFF00" fill-opacity="0.2" height="93.058078" id="svg_47" stroke="#000000" stroke-opacity="0.5" transform="rotate(178, 2268.41, 872.771)" width="2184.427859" x="1176.194829" xlink:href="#lan" y="826.242111"/>
  <rect class=" imageannotationLine imageannotationLinked" fill="#FFFF00" fill-opacity="0.2" height="84.298946" id="svg_51" stroke="#000000" stroke-opacity="0.5" transform="rotate(177, 3025.39, 729.596)" width="830.89436" x="2609.941636" xlink:href="#lao" y="687.447701"/>
  <rect class=" imageannotationLine imageannotationLinked" fill="#FFFF00" fill-opacity="0.2" height="78.581672" id="svg_55" stroke="#000000" stroke-opacity="0.5" transform="rotate(177, 2992.16, 632.997)" width="937.14101" x="2523.58763" xlink:href="#lap" y="593.706355"/>
  <rect class=" imageannotationLine imageannotationLinked" fill="#FFFF00" fill-opacity="0.2" height="72.671477" id="svg_59" stroke="#000000" stroke-opacity="0.5" transform="rotate(178, 2334.02, 923.03)" width="77.341127" x="2295.348475" xlink:href="#Einweisung" y="886.694873"/>
  <rect class=" imageannotationLine imageannotationLinked" fill="#FFFF00" fill-opacity="0.2" height="86.957111" id="svg_63" stroke="#000000" stroke-opacity="0.5" transform="rotate(-90, 3611.06, 2425.38)" width="1650.129648" x="2785.992351" xlink:href="#laq" y="2381.898959"/>
  <rect class=" imageannotationLine imageannotationLinked" fill="#FFFF00" fill-opacity="0.2" height="86.957108" id="svg_65" stroke="#000000" stroke-opacity="0.5" transform="rotate(90, 992.482, 1098.24)" width="112.987857" x="935.988853" xlink:href="#lar" y="1054.754755"/>
  <rect class=" imageannotationLine imageannotationLinked" fill="#FFFF00" fill-opacity="0.2" height="86.957108" id="svg_69" stroke="#000000" stroke-opacity="0.5" transform="rotate(90, 998.2, 3165.38)" width="3932.987002" x="-968.294495" xlink:href="#las" y="3121.902878"/>
  <rect class=" imageannotationLine imageannotationLinked" fill="#FFFF00" fill-opacity="0.2" height="75.529071" id="svg_71" stroke="#000000" stroke-opacity="0.5" transform="rotate(90, 892.486, 3119.67)" width="3915.843839" x="-1065.436126" xlink:href="#lat" y="3081.900828"/>
  <rect class=" imageannotationLine imageannotationLinked" fill="#FFFF00" fill-opacity="0.2" height="75.528813" id="svg_73" stroke="#000000" stroke-opacity="0.5" transform="rotate(90, 791.057, 3096.81)" width="3844.415405" x="-1131.150837" xlink:href="#lau" y="3059.044792"/>
  <rect class=" imageannotationLine imageannotationLinked" fill="#FFFF00" fill-opacity="0.2" height="58.385784" id="svg_75" stroke="#000000" stroke-opacity="0.5" transform="rotate(90, 1058.2, 3343.95)" width="204.416544" x="955.989131" xlink:href="#lav" y="3314.760681"/>
  <rect class=" imageannotationLine imageannotationLinked" fill="#FFFF00" fill-opacity="0.2" height="75.528816" id="svg_79" stroke="#000000" stroke-opacity="0.5" transform="rotate(90, 683.912, 2208.24)" width="2018.701472" x="-325.440988" xlink:href="#law" y="2170.473678"/>
 </g>
</svg>