<?xml version="1.0" encoding="UTF-8" standalone="no"?><svg xmlns="http://www.w3.org/2000/svg" xmlns:xlink="http://www.w3.org/1999/xlink" height="6144.000000000001" width="4096">
 <g>
  <title>Layer 1</title>
  <rect class=" imageannotationLine imageannotationLinked" fill="#FFFF00" fill-opacity="0.2" height="70.000001" id="svg_2" stroke="#000000" stroke-opacity="0.5" transform="rotate(180, 3557.18, 5741)" width="370.000031" x="3372.183583" xlink:href="#la" y="5706.003989"/>
  <rect class=" imageannotationLine imageannotationLinked" fill="#FFFF00" fill-opacity="0.2" height="64.999999" id="svg_4" stroke="#000000" stroke-opacity="0.5" transform="rotate(180, 3532.19, 5673.5)" width="140.000016" x="3462.186175" xlink:href="#lb" y="5641.000142"/>
  <rect class=" imageannotationLine imageannotationLinked" fill="#FFFF00" fill-opacity="0.2" height="90" id="svg_6" stroke="#000000" stroke-opacity="0.5" transform="rotate(179, 1902.18, 5651)" width="1620.000124" x="1092.185054" xlink:href="#lc" y="5606.00415"/>
  <rect class=" imageannotationLine imageannotationLinked" fill="#FFFF00" fill-opacity="0.2" height="90" id="svg_8" stroke="#000000" stroke-opacity="0.5" transform="rotate(179, 1787.18, 5506)" width="1860.000244" x="857.183748" xlink:href="#ld" y="5461.00415"/>
  <rect class=" imageannotationLine imageannotationLinked" fill="#FFFF00" fill-opacity="0.2" height="95.000002" id="svg_10" stroke="#000000" stroke-opacity="0.5" transform="rotate(180, 3229.68, 5508.5)" width="665.000079" x="2897.182597" xlink:href="#Ew" y="5461.005139"/>
  <rect class=" imageannotationLine imageannotationLinked" fill="#FFFF00" fill-opacity="0.2" height="109.909694" id="svg_16" stroke="#000000" stroke-opacity="0.5" transform="rotate(179, 1947.36, 5266.35)" width="1919.993311" x="987.365844" xlink:href="#le" y="5211.390415"/>
  <rect class=" imageannotationLine imageannotationLinked" fill="#FFFF00" fill-opacity="0.2" height="74.999998" id="svg_18" stroke="#000000" stroke-opacity="0.5" transform="rotate(180, 2327.18, 5113.5)" width="2610.000218" x="1022.183594" xlink:href="#lf" y="5076.00409"/>
  <rect class=" imageannotationLine imageannotationLinked" fill="#FFFF00" fill-opacity="0.2" height="80.002287" id="svg_20" stroke="#000000" stroke-opacity="0.5" transform="rotate(179, 2283.68, 4975.8)" width="2614.853865" x="976.251278" xlink:href="#lg" y="4935.800275"/>
  <rect class=" imageannotationLine imageannotationLinked" fill="#FFFF00" fill-opacity="0.2" height="95.000008" id="svg_22" stroke="#000000" stroke-opacity="0.5" transform="rotate(180, 1217.18, 4893.5)" width="180.000018" x="1127.183659" xlink:href="#lh" y="4846.004143"/>
  <rect class=" imageannotationLine imageannotationLinked" fill="#FFFF00" fill-opacity="0.2" height="104.911119" id="svg_24" stroke="#000000" stroke-opacity="0.5" transform="rotate(179, 2289.88, 4835.11)" width="2625.114217" x="977.320226" xlink:href="#li" y="4782.652711"/>
  <rect class=" imageannotationLine imageannotationLinked" fill="#FFFF00" fill-opacity="0.2" height="95.000008" id="svg_26" stroke="#000000" stroke-opacity="0.5" transform="rotate(179, 2246.22, 4683.61)" width="2756.496102" x="867.973292" xlink:href="#lj" y="4636.108114"/>
  <rect class=" imageannotationLine imageannotationLinked" fill="#FFFF00" fill-opacity="0.2" height="95.000008" id="svg_28" stroke="#000000" stroke-opacity="0.5" transform="rotate(179, 2307.11, 4534.94)" width="2600.117982" x="1007.050892" xlink:href="#lk" y="4487.435858"/>
  <rect class=" imageannotationLine imageannotationLinked" fill="#FFFF00" fill-opacity="0.2" height="95.000008" id="svg_30" stroke="#000000" stroke-opacity="0.5" transform="rotate(179, 2918.98, 4378.43)" width="1383.602439" x="2227.18253" xlink:href="#ll" y="4330.928814"/>
  <rect class=" imageannotationLine imageannotationLinked" fill="#FFFF00" fill-opacity="0.2" height="105.000004" id="svg_32" stroke="#000000" stroke-opacity="0.5" transform="rotate(180, 2292.18, 4243.5)" width="2530.000216" x="1027.183597" xlink:href="#lm" y="4191.004168"/>
  <rect class=" imageannotationLine imageannotationLinked" fill="#FFFF00" fill-opacity="0.2" height="95.000008" id="svg_34" stroke="#000000" stroke-opacity="0.5" transform="rotate(179, 2277.36, 4108.41)" width="2739.652777" x="907.530087" xlink:href="#ln" y="4060.913775"/>
  <rect class=" imageannotationLine imageannotationLinked" fill="#FFFF00" fill-opacity="0.2" height="89.913504" id="svg_36" stroke="#000000" stroke-opacity="0.5" transform="rotate(179, 2334.25, 3941.14)" width="2494.217861" x="1087.137203" xlink:href="#lo" y="3896.185226"/>
  <rect class=" imageannotationLine imageannotationLinked" fill="#FFFF00" fill-opacity="0.2" height="95.000008" id="svg_38" stroke="#000000" stroke-opacity="0.5" transform="rotate(180, 2289.94, 3798.2)" width="2624.481876" x="977.698995" xlink:href="#lp" y="3750.694456"/>
  <rect class=" imageannotationLine imageannotationLinked" fill="#FFFF00" fill-opacity="0.2" height="95.000008" id="svg_40" stroke="#000000" stroke-opacity="0.5" transform="rotate(179, 2269.68, 3653.5)" width="2625.000229" x="957.184082" xlink:href="#lq" y="3606.004143"/>
  <rect class=" imageannotationLine imageannotationLinked" fill="#FFFF00" fill-opacity="0.2" height="95.000008" id="svg_42" stroke="#000000" stroke-opacity="0.5" transform="rotate(180, 2254.68, 3528.5)" width="2645.000188" x="932.184081" xlink:href="#lr" y="3481.004142"/>
  <rect class=" imageannotationLine imageannotationLinked" fill="#FFFF00" fill-opacity="0.2" height="95.000008" id="svg_44" stroke="#000000" stroke-opacity="0.5" transform="rotate(180, 2322.18, 3393.5)" width="2530.000216" x="1057.183105" xlink:href="#ls" y="3346.004143"/>
  <rect class=" imageannotationLine imageannotationLinked" fill="#FFFF00" fill-opacity="0.2" height="95.000008" id="svg_46" stroke="#000000" stroke-opacity="0.5" transform="rotate(180, 3312.18, 3263.5)" width="490.000064" x="3067.183603" xlink:href="#lt" y="3216.004142"/>
  <rect class=" imageannotationLine imageannotationLinked" fill="#FFFF00" fill-opacity="0.2" height="95.000008" id="svg_48" stroke="#000000" stroke-opacity="0.5" transform="rotate(179, 2192.19, 3123.85)" width="2549.994119" x="917.193285" xlink:href="#lu" y="3076.353394"/>
  <rect class=" imageannotationLine imageannotationLinked" fill="#FFFF00" fill-opacity="0.2" height="100.000012" id="svg_50" stroke="#000000" stroke-opacity="0.5" transform="rotate(180, 2172.18, 2981)" width="2720.000242" x="812.18457" xlink:href="#lv" y="2931.004644"/>
  <rect class=" imageannotationLine imageannotationLinked" fill="#FFFF00" fill-opacity="0.2" height="95.000008" id="svg_52" stroke="#000000" stroke-opacity="0.5" transform="rotate(180, 2317.18, 2843.5)" width="2330.000127" x="1152.183595" xlink:href="#lw" y="2796.004143"/>
  <rect class=" imageannotationLine imageannotationLinked" fill="#FFFF00" fill-opacity="0.2" height="95.000008" id="svg_54" stroke="#000000" stroke-opacity="0.5" transform="rotate(179, 2264.43, 2684.72)" width="2575.470887" x="976.695312" xlink:href="#lx" y="2637.224657"/>
  <rect class=" imageannotationLine imageannotationLinked" fill="#FFFF00" fill-opacity="0.2" height="95.000008" id="svg_56" stroke="#000000" stroke-opacity="0.5" transform="rotate(179, 2229.68, 2538.5)" width="2555.00029" x="952.183596" xlink:href="#ly" y="2491.004143"/>
  <rect class=" imageannotationLine imageannotationLinked" fill="#FFFF00" fill-opacity="0.2" height="90.000768" id="svg_58" stroke="#000000" stroke-opacity="0.5" transform="rotate(179, 2327.23, 2401)" width="2370.000211" x="1142.22786" xlink:href="#lz" y="2356.003045"/>
  <rect class=" imageannotationLine imageannotationLinked" fill="#FFFF00" fill-opacity="0.2" height="95.000008" id="svg_60" stroke="#000000" stroke-opacity="0.5" transform="rotate(179, 2299.68, 2273.5)" width="2375.000159" x="1112.183596" xlink:href="#laa" y="2226.004143"/>
  <rect class=" imageannotationLine imageannotationLinked" fill="#FFFF00" fill-opacity="0.2" height="90.000768" id="svg_62" stroke="#000000" stroke-opacity="0.5" transform="rotate(179, 2291.76, 2126.45)" width="2460.952366" x="1061.281119" xlink:href="#lab" y="2081.446671"/>
  <rect class=" imageannotationLine imageannotationLinked" fill="#FFFF00" fill-opacity="0.2" height="95.000008" id="svg_64" stroke="#000000" stroke-opacity="0.5" transform="rotate(179, 2177.17, 1960.9)" width="2710.013864" x="822.163589" xlink:href="#lac" y="1913.399005"/>
  <rect class=" imageannotationLine imageannotationLinked" fill="#FFFF00" fill-opacity="0.2" height="95.000008" id="svg_66" stroke="#000000" stroke-opacity="0.5" transform="rotate(178, 2239.58, 1816.36)" width="2495.011482" x="992.079697" xlink:href="#lad" y="1768.861037"/>
  <rect class=" imageannotationLine imageannotationLinked" fill="#FFFF00" fill-opacity="0.2" height="95.000008" id="svg_68" stroke="#000000" stroke-opacity="0.5" transform="rotate(178, 2397.18, 1638.5)" width="2200.000144" x="1297.183586" xlink:href="#lae" y="1591.004143"/>
 </g>

</svg>