<?xml version="1.0" encoding="UTF-8" standalone="no"?><svg xmlns="http://www.w3.org/2000/svg" xmlns:xlink="http://www.w3.org/1999/xlink" height="6144.000000000001" width="4096">
 <g>
  <title>Layer 1</title>
  <rect class=" imageannotationLine imageannotationLinked" fill="#FFFF00" fill-opacity="0.2" height="99.999998" id="svg_2" stroke="#000000" stroke-opacity="0.5" transform="rotate(90, 3574, 852.251)" width="297.500021" x="3425.249405" xlink:href="#la" y="802.251342"/>
  <rect class=" imageannotationLine imageannotationLinked" fill="#FFFF00" fill-opacity="0.2" height="120" id="svg_4" stroke="#000000" stroke-opacity="0.5" transform="rotate(89, 3281.2, 2931.78)" width="3396.501534" x="1582.948279" xlink:href="#lb" y="2871.775284"/>
  <rect class=" imageannotationLine imageannotationLinked" fill="#FFFF00" fill-opacity="0.2" height="99.915783" id="svg_6" stroke="#000000" stroke-opacity="0.5" transform="rotate(89, 3086.29, 2930.31)" width="3452.725612" x="1359.92729" xlink:href="#lc" y="2880.356818"/>
  <rect class=" imageannotationLine imageannotationLinked" fill="#FFFF00" fill-opacity="0.2" height="110.000002" id="svg_8" stroke="#000000" stroke-opacity="0.5" transform="rotate(90, 2939, 2527.25)" width="257.500011" x="2810.249963" xlink:href="#ld" y="2472.250067"/>
  <rect class=" imageannotationLine imageannotationLinked" fill="#FFFF00" fill-opacity="0.2" height="120" id="svg_10" stroke="#000000" stroke-opacity="0.5" transform="rotate(89, 2827.58, 3016.61)" width="3595.696534" x="1029.729224" xlink:href="#le" y="2956.610088"/>
  <rect class=" imageannotationLine imageannotationLinked" fill="#FFFF00" fill-opacity="0.2" height="120" id="svg_12" stroke="#000000" stroke-opacity="0.5" transform="rotate(89, 2668.11, 3087.08)" width="3656.647251" x="839.784867" xlink:href="#lf" y="3027.083801"/>
  <rect class=" imageannotationLine imageannotationLinked" fill="#FFFF00" fill-opacity="0.2" height="105" id="svg_14" stroke="#000000" stroke-opacity="0.5" transform="rotate(90, 2576.5, 2644.75)" width="2882.500001" x="1135.249993" xlink:href="#lg" y="2592.250053"/>
  <rect class=" imageannotationLine imageannotationLinked" fill="#FFFF00" fill-opacity="0.2" height="110.000002" id="svg_16" stroke="#000000" stroke-opacity="0.5" transform="rotate(90, 2499, 2547.25)" width="207.500002" x="2395.250018" xlink:href="#lh" y="2492.25005"/>
  <rect class=" imageannotationLine imageannotationLinked" fill="#FFFF00" fill-opacity="0.2" height="124.999995" id="svg_18" stroke="#000000" stroke-opacity="0.5" transform="rotate(90, 2456.5, 1999.75)" width="412.500048" x="2250.25036" xlink:href="#li" y="1937.250202"/>
  <rect class=" imageannotationLine imageannotationLinked" fill="#FFFF00" fill-opacity="0.2" height="100.090306" id="svg_20" stroke="#000000" stroke-opacity="0.5" transform="rotate(88, 2383.2, 1993.53)" width="1599.696773" x="1583.346484" xlink:href="#lj" y="1943.48265"/>
  <rect class=" imageannotationLine imageannotationLinked" fill="#FFFF00" fill-opacity="0.2" height="100.28909" id="svg_22" stroke="#000000" stroke-opacity="0.5" transform="rotate(87, 2296.55, 2947.74)" width="3308.3557" x="642.374513" xlink:href="#lk" y="2897.597339"/>
  <rect class=" imageannotationLine imageannotationLinked" fill="#FFFF00" fill-opacity="0.2" height="120" id="svg_24" stroke="#000000" stroke-opacity="0.5" transform="rotate(88, 2149.09, 3024.69)" width="3491.696153" x="403.240234" xlink:href="#ll" y="2964.68837"/>
  <rect class=" imageannotationLine imageannotationLinked" fill="#FFFF00" fill-opacity="0.2" height="129.78893" id="svg_26" stroke="#000000" stroke-opacity="0.5" transform="rotate(88, 1950.41, 2657.41)" width="2749.94199" x="575.440149" xlink:href="#lm" y="2592.515301"/>
  <rect class=" imageannotationLine imageannotationLinked" fill="#FFFF00" fill-opacity="0.2" height="100" id="svg_28" stroke="#000000" stroke-opacity="0.5" transform="rotate(90, 1854, 3124.75)" width="392.499991" x="1657.750239" xlink:href="#ln" y="3074.750373"/>
  <rect class=" imageannotationLine imageannotationLinked" fill="#FFFF00" fill-opacity="0.2" height="109.975543" id="svg_30" stroke="#000000" stroke-opacity="0.5" transform="rotate(88, 1739.67, 2730.02)" width="2862.777961" x="308.281211" xlink:href="#lo" y="2675.026996"/>
  <rect class=" imageannotationLine imageannotationLinked" fill="#FFFF00" fill-opacity="0.2" height="109.626641" id="svg_32" stroke="#000000" stroke-opacity="0.5" transform="rotate(88, 1453.11, 2939.11)" width="3222.587763" x="-158.185593" xlink:href="#lp" y="2884.301392"/>
  <rect class=" imageannotationLine imageannotationLinked" fill="#FFFF00" fill-opacity="0.2" height="104.907408" id="svg_34" stroke="#000000" stroke-opacity="0.5" transform="rotate(89, 1301.34, 3011.98)" width="3486.878719" x="-442.098528" xlink:href="#lq" y="2959.524855"/>
 </g>

</svg>