<?xml version="1.0" encoding="UTF-8" standalone="no"?><svg xmlns="http://www.w3.org/2000/svg" xmlns:xlink="http://www.w3.org/1999/xlink" height="6144.000000000001" width="4096">
 <g>
  <title>Layer 1</title>
  <rect class=" imageannotationLine imageannotationLinked" fill="#FFFF00" fill-opacity="0.2" height="115.352039" id="svg_2" stroke="#000000" stroke-opacity="0.5" transform="rotate(178, 2205.74, 5288.68)" width="2573.636338" x="918.920318" xlink:href="#la" y="5231.002244"/>
  <rect class=" imageannotationLine imageannotationLinked" fill="#FFFF00" fill-opacity="0.2" height="99.999998" id="svg_4" stroke="#000000" stroke-opacity="0.5" transform="rotate(180, 2105.82, 5096)" width="1023.636471" x="1594.000763" xlink:href="#lb" y="5046.000194"/>
  <rect class=" imageannotationLine imageannotationLinked" fill="#FFFF00" fill-opacity="0.2" height="105.002282" id="svg_6" stroke="#000000" stroke-opacity="0.5" transform="rotate(179, 2148.05, 4813.28)" width="2658.901766" x="818.59968" xlink:href="#lc" y="4760.781283"/>
  <rect class=" imageannotationLine imageannotationLinked" fill="#FFFF00" fill-opacity="0.2" height="90.000001" id="svg_8" stroke="#000000" stroke-opacity="0.5" transform="rotate(180, 2000.82, 4636)" width="213.636691" x="1894.00043" xlink:href="#ld" y="4590.99629"/>
  <rect class=" imageannotationLine imageannotationLinked" fill="#FFFF00" fill-opacity="0.2" height="89.485647" id="svg_10" stroke="#000000" stroke-opacity="0.5" transform="rotate(178, 2103.05, 4520.75)" width="2648.636241" x="778.730005" xlink:href="#le" y="4476.005945"/>
  <rect class=" imageannotationLine imageannotationLinked" fill="#FFFF00" fill-opacity="0.2" height="75.000002" id="svg_12" stroke="#000000" stroke-opacity="0.5" transform="rotate(180, 1910.82, 4378.5)" width="433.636657" x="1694.000303" xlink:href="#lf" y="4341.000206"/>
  <rect class=" imageannotationLine imageannotationLinked" fill="#FFFF00" fill-opacity="0.2" height="94.644916" id="svg_14" stroke="#000000" stroke-opacity="0.5" transform="rotate(178, 2120.41, 4262.9)" width="2624.761981" x="808.029354" xlink:href="#lg" y="4215.576522"/>
  <rect class=" imageannotationLine imageannotationLinked" fill="#FFFF00" fill-opacity="0.2" height="55.000002" id="svg_16" stroke="#000000" stroke-opacity="0.5" transform="rotate(180, 2020.82, 4113.5)" width="263.636685" x="1889.000188" xlink:href="#lh" y="4086.00015"/>
  <rect class=" imageannotationLine imageannotationLinked" fill="#FFFF00" fill-opacity="0.2" height="74.739735" id="svg_18" stroke="#000000" stroke-opacity="0.5" transform="rotate(179, 2235.73, 4088.37)" width="2373.636236" x="1048.911562" xlink:href="#li" y="4051.000917"/>
  <rect class=" imageannotationLine imageannotationLinked" fill="#FFFF00" fill-opacity="0.2" height="104.822432" id="svg_20" stroke="#000000" stroke-opacity="0.5" transform="rotate(179, 2148.49, 4008.41)" width="2518.636399" x="889.173509" xlink:href="#lj" y="3955.998732"/>
  <rect class=" imageannotationLine imageannotationLinked" fill="#FFFF00" fill-opacity="0.2" height="100.000004" id="svg_22" stroke="#000000" stroke-opacity="0.5" transform="rotate(180, 2050.82, 3856)" width="313.636665" x="1894.000243" xlink:href="#lk" y="3806.000743"/>
  <rect class=" imageannotationLine imageannotationLinked" fill="#FFFF00" fill-opacity="0.2" height="99.816368" id="svg_24" stroke="#000000" stroke-opacity="0.5" transform="rotate(178, 2123.54, 3735.03)" width="2528.666464" x="859.208231" xlink:href="#ll" y="3685.121154"/>
  <rect class=" imageannotationLine imageannotationLinked" fill="#FFFF00" fill-opacity="0.2" height="94.998479" id="svg_26" stroke="#000000" stroke-opacity="0.5" transform="rotate(179, 1765.91, 3613.5)" width="873.636556" x="1329.088398" xlink:href="#lm" y="3565.999617"/>
  <rect class=" imageannotationLine imageannotationLinked" fill="#FFFF00" fill-opacity="0.2" height="85" id="svg_28" stroke="#000000" stroke-opacity="0.5" transform="rotate(178, 2106.33, 3504.01)" width="2592.634691" x="810.012536" xlink:href="#ln" y="3461.505953"/>
  <rect class=" imageannotationLine imageannotationLinked" fill="#FFFF00" fill-opacity="0.2" height="85.000002" id="svg_30" stroke="#000000" stroke-opacity="0.5" transform="rotate(180, 2515.82, 3448.5)" width="323.636657" x="2354.002218" xlink:href="#lo" y="3405.99872"/>
  <rect class=" imageannotationLine imageannotationLinked" fill="#FFFF00" fill-opacity="0.2" height="99.990864" id="svg_32" stroke="#000000" stroke-opacity="0.5" transform="rotate(178, 1880.75, 3351.44)" width="2174.318942" x="793.587121" xlink:href="#lp" y="3301.440355"/>
  <rect class=" imageannotationLine imageannotationLinked" fill="#FFFF00" fill-opacity="0.2" height="75.180582" id="svg_34" stroke="#000000" stroke-opacity="0.5" transform="rotate(178, 1817.57, 3209.48)" width="1829.82747" x="902.65613" xlink:href="#lq" y="3171.893276"/>
  <rect class=" imageannotationLine imageannotationLinked" fill="#FFFF00" fill-opacity="0.2" height="99.641871" id="svg_36" stroke="#000000" stroke-opacity="0.5" transform="rotate(178, 2176.07, 3090.82)" width="2873.636338" x="739.249129" xlink:href="#lr" y="3040.996186"/>
  <rect class=" imageannotationLine imageannotationLinked" fill="#FFFF00" fill-opacity="0.2" height="90.000005" id="svg_38" stroke="#000000" stroke-opacity="0.5" transform="rotate(180, 1715.82, 2926)" width="433.636653" x="1498.996464" xlink:href="#ls" y="2881.000259"/>
  <rect class=" imageannotationLine imageannotationLinked" fill="#FFFF00" fill-opacity="0.2" height="89.563863" id="svg_40" stroke="#000000" stroke-opacity="0.5" transform="rotate(179, 2230.56, 2851.14)" width="2663.636403" x="898.737395" xlink:href="#lt" y="2806.356518"/>
  <rect class=" imageannotationLine imageannotationLinked" fill="#FFFF00" fill-opacity="0.2" height="84.828558" id="svg_42" stroke="#000000" stroke-opacity="0.5" transform="rotate(178, 2265.73, 2768.42)" width="2663.636287" x="933.911454" xlink:href="#lu" y="2726.002125"/>
  <rect class=" imageannotationLine imageannotationLinked" fill="#FFFF00" fill-opacity="0.2" height="90.000008" id="svg_44" stroke="#000000" stroke-opacity="0.5" transform="rotate(180, 1855.82, 2651)" width="403.636654" x="1653.999741" xlink:href="#lv" y="2606.000236"/>
  <rect class=" imageannotationLine imageannotationLinked" fill="#FFFF00" fill-opacity="0.2" height="99.993919" id="svg_46" stroke="#000000" stroke-opacity="0.5" transform="rotate(178, 2253.73, 2516.16)" width="2679.102547" x="914.175633" xlink:href="#lw" y="2466.164871"/>
  <rect class=" imageannotationLine imageannotationLinked" fill="#FFFF00" fill-opacity="0.2" height="110.000012" id="svg_48" stroke="#000000" stroke-opacity="0.5" transform="rotate(180, 1670.82, 2396)" width="783.636606" x="1279.001584" xlink:href="#lx" y="2340.999779"/>
  <rect class=" imageannotationLine imageannotationLinked" fill="#FFFF00" fill-opacity="0.2" height="94.996963" id="svg_50" stroke="#000000" stroke-opacity="0.5" transform="rotate(178, 2780.9, 2358.5)" width="1543.636427" x="2009.083195" xlink:href="#ly" y="2310.998958"/>
  <rect class=" imageannotationLine imageannotationLinked" fill="#FFFF00" fill-opacity="0.2" height="79.65101" id="svg_52" stroke="#000000" stroke-opacity="0.5" transform="rotate(178, 2392.28, 2256.21)" width="2340.718428" x="1221.915039" xlink:href="#lz" y="2216.386551"/>
  <rect class=" imageannotationLine imageannotationLinked" fill="#FFFF00" fill-opacity="0.2" height="60.000007" id="svg_54" stroke="#000000" stroke-opacity="0.5" transform="rotate(180, 1640.82, 2201)" width="273.636659" x="1503.99973" xlink:href="#laa" y="2171.00016"/>
  <rect class=" imageannotationLine imageannotationLinked" fill="#FFFF00" fill-opacity="0.2" height="90.000008" id="svg_58" stroke="#000000" stroke-opacity="0.5" transform="rotate(178, 2220.82, 2116)" width="2513.636208" x="964.001776" xlink:href="#lab" y="2071.000236"/>
  <rect class=" imageannotationLine imageannotationLinked" fill="#FFFF00" fill-opacity="0.2" height="79.228674" id="svg_60" stroke="#000000" stroke-opacity="0.5" transform="rotate(177, 1813.03, 1945.49)" width="588.643517" x="1518.704117" xlink:href="#lac" y="1905.873423"/>
  <rect class=" imageannotationLine imageannotationLinked" fill="#FFFF00" fill-opacity="0.2" height="80.000007" id="svg_62" stroke="#000000" stroke-opacity="0.5" transform="rotate(180, 3430.82, 1901)" width="263.636681" x="3299.001138" xlink:href="#lad" y="1860.999971"/>
  <rect class=" imageannotationLine imageannotationLinked" fill="#FFFF00" fill-opacity="0.2" height="94.993155" id="svg_64" stroke="#000000" stroke-opacity="0.5" transform="rotate(177, 2270.95, 1823.49)" width="2603.636321" x="969.133385" xlink:href="#lae" y="1775.996862"/>
  <rect class=" imageannotationLine imageannotationLinked" fill="#FFFF00" fill-opacity="0.2" height="95.086506" id="svg_66" stroke="#000000" stroke-opacity="0.5" transform="rotate(179, 1715.86, 1708.54)" width="793.636611" x="1319.046255" xlink:href="#laf" y="1660.998379"/>
  <rect class=" imageannotationLine imageannotationLinked" fill="#FFFF00" fill-opacity="0.2" height="94.996963" id="svg_68" stroke="#000000" stroke-opacity="0.5" transform="rotate(178, 2253.41, 1578.5)" width="2638.636219" x="934.089474" xlink:href="#lag" y="1530.998713"/>
  <rect class=" imageannotationLine imageannotationLinked" fill="#FFFF00" fill-opacity="0.2" height="83.960139" id="svg_70" stroke="#000000" stroke-opacity="0.5" transform="rotate(177, 2768.17, 1418.25)" width="1538.622779" x="1998.86128" xlink:href="#lah" y="1376.265776"/>
 </g>

</svg>