<?xml version="1.0" encoding="UTF-8" standalone="no"?><svg xmlns="http://www.w3.org/2000/svg" xmlns:xlink="http://www.w3.org/1999/xlink" height="6144.000000000001" width="4096">
 <g>
  <title>Layer 1</title>
  <rect class=" imageannotationLine imageannotationLinked" fill="#FFFF00" fill-opacity="0.2" height="124.208107" id="svg_2" stroke="#000000" stroke-opacity="0.5" transform="rotate(177, 2205.17, 5358)" width="2349.690059" x="1030.322793" xlink:href="#la" y="5295.90099"/>
  <rect class=" imageannotationLine imageannotationLinked" fill="#FFFF00" fill-opacity="0.2" height="134.683502" id="svg_4" stroke="#000000" stroke-opacity="0.5" transform="rotate(177, 2334.13, 5178.31)" width="2033.63653" x="1317.313646" xlink:href="#lb" y="5110.970632"/>
  <rect class=" imageannotationLine imageannotationLinked" fill="#FFFF00" fill-opacity="0.2" height="114.253716" id="svg_6" stroke="#000000" stroke-opacity="0.5" transform="rotate(176, 2138.76, 5018.1)" width="2543.63641" x="866.94665" xlink:href="#Stuerzt-Fluth" y="4960.973747"/>
  <rect class=" imageannotationLine imageannotationLinked" fill="#FFFF00" fill-opacity="0.2" height="114.449256" id="svg_8" stroke="#000000" stroke-opacity="0.5" transform="rotate(177, 2237.55, 4958.27)" width="2113.636521" x="1180.733638" xlink:href="#lc" y="4901.041377"/>
  <rect class=" imageannotationLine imageannotationLinked" fill="#FFFF00" fill-opacity="0.2" height="119.999995" id="svg_20" stroke="#000000" stroke-opacity="0.5" transform="rotate(180, 2303.09, 4141)" width="1113.636663" x="1746.275084" xlink:href="#ld" y="4080.997861"/>
  <rect class=" imageannotationLine imageannotationLinked" fill="#FFFF00" fill-opacity="0.2" height="95" id="svg_32" stroke="#000000" stroke-opacity="0.5" transform="rotate(178, 3043.09, 3728.5)" width="623.636672" x="2731.27437" xlink:href="#le" y="3680.998291"/>
  <rect class=" imageannotationLine imageannotationLinked" fill="#FFFF00" fill-opacity="0.2" height="95" id="svg_34" stroke="#000000" stroke-opacity="0.5" transform="rotate(177, 1685.59, 3708.5)" width="1528.636517" x="921.274824" xlink:href="#lf" y="3660.998291"/>
  <rect class=" imageannotationLine imageannotationLinked" fill="#FFFF00" fill-opacity="0.2" height="95" id="svg_36" stroke="#000000" stroke-opacity="0.5" transform="rotate(177, 2725.59, 3558.5)" width="1458.636535" x="1996.275003" xlink:href="#lg" y="3510.998291"/>
  <rect class=" imageannotationLine imageannotationLinked" fill="#FFFF00" fill-opacity="0.2" height="59.999998" id="svg_38" stroke="#000000" stroke-opacity="0.5" transform="rotate(180, 3305.59, 3171)" width="268.636687" x="3171.274582" xlink:href="#lh" y="3140.998944"/>
  <rect class=" imageannotationLine imageannotationLinked" fill="#FFFF00" fill-opacity="0.2" height="95" id="svg_40" stroke="#000000" stroke-opacity="0.5" transform="rotate(177, 2658.09, 3063.5)" width="1553.636587" x="1881.274566" xlink:href="#li" y="3015.998291"/>
  <rect class=" imageannotationLine imageannotationLinked" fill="#FFFF00" fill-opacity="0.2" height="95" id="svg_42" stroke="#000000" stroke-opacity="0.5" transform="rotate(176, 2233.09, 2983.5)" width="2293.636508" x="1086.275102" xlink:href="#lj" y="2935.998291"/>
  <rect class=" imageannotationLine imageannotationLinked" fill="#FFFF00" fill-opacity="0.2" height="69.363331" id="svg_44" stroke="#000000" stroke-opacity="0.5" transform="rotate(176, 2207.2, 2910.71)" width="2483.636536" x="965.381336" xlink:href="#lk" y="2876.030015"/>
  <rect class=" imageannotationLine imageannotationLinked" fill="#FFFF00" fill-opacity="0.2" height="90.000002" id="svg_46" stroke="#000000" stroke-opacity="0.5" transform="rotate(177, 1842.49, 2792.08)" width="1604.890129" x="1040.044306" xlink:href="#ll" y="2747.081808"/>
  <rect class=" imageannotationLine imageannotationLinked" fill="#FFFF00" fill-opacity="0.2" height="90" id="svg_48" stroke="#000000" stroke-opacity="0.5" transform="rotate(176, 2080.59, 2596)" width="2588.636474" x="786.275336" xlink:href="#lm" y="2550.998291"/>
  <rect class=" imageannotationLine imageannotationLinked" fill="#FFFF00" fill-opacity="0.2" height="65.095131" id="svg_50" stroke="#000000" stroke-opacity="0.5" transform="rotate(175, 2382.01, 2563.59)" width="693.636648" x="2035.189734" xlink:href="#ln" y="2531.046154"/>
  <rect class=" imageannotationLine imageannotationLinked" fill="#FFFF00" fill-opacity="0.2" height="84.314613" id="svg_52" stroke="#000000" stroke-opacity="0.5" transform="rotate(176, 2086.31, 2483.8)" width="2666.843773" x="752.889382" xlink:href="#Am-nieder" y="2441.643682"/>
  <rect class=" imageannotationLine imageannotationLinked" fill="#FFFF00" fill-opacity="0.2" height="69.640328" id="svg_54" stroke="#000000" stroke-opacity="0.5" transform="rotate(175, 2232.21, 2375.86)" width="2173.636553" x="1145.38834" xlink:href="#lo" y="2341.037417"/>
  <rect class=" imageannotationLine imageannotationLinked" fill="#FFFF00" fill-opacity="0.2" height="104.507146" id="svg_56" stroke="#000000" stroke-opacity="0.5" transform="rotate(175, 2091.81, 2315.37)" width="2637.635759" x="772.994984" xlink:href="#lp" y="2263.114435"/>
  <rect class=" imageannotationLine imageannotationLinked" fill="#FFFF00" fill-opacity="0.2" height="90" id="svg_58" stroke="#000000" stroke-opacity="0.5" transform="rotate(175, 2253.28, 2143.17)" width="2283.446426" x="1111.559719" xlink:href="#Geniesse" y="2098.169"/>
  <rect class=" imageannotationLine imageannotationLinked" fill="#FFFF00" fill-opacity="0.2" height="99.526166" id="svg_62" stroke="#000000" stroke-opacity="0.5" transform="rotate(175, 2131.01, 1990.74)" width="2508.636483" x="876.690221" xlink:href="#lq" y="1940.980036"/>
  <rect class=" imageannotationLine imageannotationLinked" fill="#FFFF00" fill-opacity="0.2" height="90" id="svg_64" stroke="#000000" stroke-opacity="0.5" transform="rotate(180, 1665.59, 1851)" width="488.636643" x="1421.273502" xlink:href="#lr" y="1805.998291"/>
  <rect class=" imageannotationLine imageannotationLinked" fill="#FFFF00" fill-opacity="0.2" height="104.97944" id="svg_66" stroke="#000000" stroke-opacity="0.5" transform="rotate(177, 2560.98, 1588.48)" width="1568.636556" x="1776.666304" xlink:href="#ls" y="1535.987573"/>
  <rect class=" imageannotationLine imageannotationLinked" fill="#FFFF00" fill-opacity="0.2" height="85.003045" id="svg_68" stroke="#000000" stroke-opacity="0.5" transform="rotate(178, 2338, 1453.5)" width="1963.636519" x="1356.188234" xlink:href="#Saeusseln" y="1411.000168"/>
  <rect class=" imageannotationLine imageannotationLinked" fill="#FFFF00" fill-opacity="0.2" height="70.012184" id="svg_70" stroke="#000000" stroke-opacity="0.5" transform="rotate(178, 2047.74, 1346.01)" width="1303.636566" x="1395.925443" xlink:href="#lt" y="1311.004569"/>
  <rect class=" imageannotationLine imageannotationLinked" fill="#FFFF00" fill-opacity="0.2" height="114.449257" id="svg_72" stroke="#000000" stroke-opacity="0.5" transform="rotate(175, 2193.64, 4836.02)" width="2352.766141" x="1017.261209" xlink:href="#lu" y="4778.797384"/>
  <rect class=" imageannotationLine imageannotationLinked" fill="#FFFF00" fill-opacity="0.2" height="93.953301" id="svg_74" stroke="#000000" stroke-opacity="0.5" transform="rotate(177, 2205.39, 4800.21)" width="2278.130523" x="1066.319494" xlink:href="#lv" y="4753.232383"/>
  <rect class=" imageannotationLine imageannotationLinked" fill="#FFFF00" fill-opacity="0.2" height="63.966949" id="svg_76" stroke="#000000" stroke-opacity="0.5" transform="rotate(177, 1960.33, 4702.99)" width="508.6367" x="1706.009999" xlink:href="#lw" y="4671.007973"/>
  <rect class=" imageannotationLine imageannotationLinked" fill="#FFFF00" fill-opacity="0.2" height="93.663322" id="svg_80" stroke="#000000" stroke-opacity="0.5" transform="rotate(177, 2366.51, 4648.07)" width="1998.361199" x="1367.328243" xlink:href="#lx" y="4601.233951"/>
  <rect class=" imageannotationLine imageannotationLinked" fill="#FFFF00" fill-opacity="0.2" height="112.279736" id="svg_82" stroke="#000000" stroke-opacity="0.5" transform="rotate(175, 2310.23, 4547.05)" width="2078.744713" x="1270.860623" xlink:href="#ly" y="4490.912284"/>
  <rect class=" imageannotationLine imageannotationLinked" fill="#FFFF00" fill-opacity="0.2" height="86.790987" id="svg_88" stroke="#000000" stroke-opacity="0.5" transform="rotate(177, 2310.07, 4499.67)" width="2148.361103" x="1235.88596" xlink:href="#lz" y="4456.274204"/>
  <rect class=" imageannotationLine imageannotationLinked" fill="#FFFF00" fill-opacity="0.2" height="102.293577" id="svg_90" stroke="#000000" stroke-opacity="0.5" transform="rotate(177, 2285.33, 4358.97)" width="2158.636585" x="1206.014351" xlink:href="#laa" y="4307.821904"/>
  <rect class=" imageannotationLine imageannotationLinked" fill="#FFFF00" fill-opacity="0.2" height="144.283011" id="svg_93" stroke="#000000" stroke-opacity="0.5" transform="rotate(-2, 2204.75, 768.379)" width="1355.00004" x="1527.249923" xlink:href="#lab" y="696.238094"/>
  <rect class=" imageannotationLine imageannotationLinked" fill="#FFFF00" fill-opacity="0.2" height="109.282576" id="svg_96" stroke="#000000" stroke-opacity="0.5" transform="rotate(-2, 2271.5, 1386.36)" width="545" x="1999" xlink:href="#lac" y="1331.717233"/>
  <rect class=" imageannotationLine imageannotationLinked" fill="#FFFF00" fill-opacity="0.2" height="99.282455" id="svg_99" stroke="#000000" stroke-opacity="0.5" transform="rotate(-1, 2319, 2106.36)" width="559.999998" x="2038.999997" xlink:href="#lad" y="2056.717318"/>
  <rect class=" imageannotationLine imageannotationLinked" fill="#FFFF00" fill-opacity="0.2" height="109.28258" id="svg_104" stroke="#000000" stroke-opacity="0.5" transform="rotate(-2, 2511.5, 2391.36)" width="1115" x="1954" xlink:href="#lae" y="2336.717146"/>
 </g>

</svg>