<?xml version="1.0" encoding="UTF-8" standalone="no"?><svg xmlns="http://www.w3.org/2000/svg" xmlns:xlink="http://www.w3.org/1999/xlink" height="6144.000000000001" width="4096">
 <g>
  <title>Layer 1</title>
  <rect class=" imageannotationLine imageannotationLinked" fill="#FFFF00" fill-opacity="0.2" height="110.000002" id="svg_2" stroke="#000000" stroke-opacity="0.5" transform="rotate(90, 3170.92, 4257.8)" width="1003.847343" x="2668.99556" xlink:href="#la" y="4202.797091"/>
  <rect class=" imageannotationLine imageannotationLinked" fill="#FFFF00" fill-opacity="0.2" height="120" id="svg_4" stroke="#000000" stroke-opacity="0.5" transform="rotate(90, 2985.92, 3162.8)" width="3443.84651" x="1263.994253" xlink:href="#lb" y="3102.797119"/>
  <rect class=" imageannotationLine imageannotationLinked" fill="#FFFF00" fill-opacity="0.2" height="105" id="svg_6" stroke="#000000" stroke-opacity="0.5" transform="rotate(90, 2868.42, 4242.8)" width="1153.847296" x="2291.495419" xlink:href="#lc" y="4190.297089"/>
  <rect class=" imageannotationLine imageannotationLinked" fill="#FFFF00" fill-opacity="0.2" height="110.000006" id="svg_8" stroke="#000000" stroke-opacity="0.5" transform="rotate(90, 2765.92, 3215.3)" width="3488.846587" x="1021.493985" xlink:href="#ld" y="3160.296851"/>
  <rect class=" imageannotationLine imageannotationLinked" fill="#FFFF00" fill-opacity="0.2" height="120" id="svg_10" stroke="#000000" stroke-opacity="0.5" transform="rotate(91, 2585.92, 3245.3)" width="3418.846491" x="876.49427" xlink:href="#le" y="3185.297119"/>
  <rect class=" imageannotationLine imageannotationLinked" fill="#FFFF00" fill-opacity="0.2" height="141.567101" id="svg_12" stroke="#000000" stroke-opacity="0.5" transform="rotate(91, 2396.7, 3228.25)" width="3443.84651" x="674.774044" xlink:href="#lf" y="3157.462338"/>
  <rect class=" imageannotationLine imageannotationLinked" fill="#FFFF00" fill-opacity="0.2" height="120" id="svg_14" stroke="#000000" stroke-opacity="0.5" transform="rotate(90, 2145.92, 4357.8)" width="713.847456" x="1788.995658" xlink:href="#lg" y="4297.797119"/>
  <rect class=" imageannotationLine imageannotationLinked" fill="#FFFF00" fill-opacity="0.2" height="144.821663" id="svg_16" stroke="#000000" stroke-opacity="0.5" transform="rotate(89, 2018.33, 3215.08)" width="3458.846535" x="288.903498" xlink:href="#lh" y="3142.669658"/>
  <rect class=" imageannotationLine imageannotationLinked" fill="#FFFF00" fill-opacity="0.2" height="120" id="svg_18" stroke="#000000" stroke-opacity="0.5" transform="rotate(90, 1900.92, 3892.8)" width="303.847556" x="1748.995986" xlink:href="#li" y="3832.797119"/>
  <rect class=" imageannotationLine imageannotationLinked" fill="#FFFF00" fill-opacity="0.2" height="124.999237" id="svg_20" stroke="#000000" stroke-opacity="0.5" transform="rotate(89, 1783.42, 3300.25)" width="3578.846524" x="-6.006116" xlink:href="#lj" y="3237.7542"/>
  <rect class=" imageannotationLine imageannotationLinked" fill="#FFFF00" fill-opacity="0.2" height="120" id="svg_22" stroke="#000000" stroke-opacity="0.5" transform="rotate(90, 1680.92, 3380.3)" width="618.847438" x="1371.495746" xlink:href="#lk" y="3320.297119"/>
  <rect class=" imageannotationLine imageannotationLinked" fill="#FFFF00" fill-opacity="0.2" height="119.825499" id="svg_24" stroke="#000000" stroke-opacity="0.5" transform="rotate(88, 1556.01, 3215.29)" width="3398.846432" x="-143.419033" xlink:href="#ll" y="3155.38103"/>
  <rect class=" imageannotationLine imageannotationLinked" fill="#FFFF00" fill-opacity="0.2" height="120" id="svg_26" stroke="#000000" stroke-opacity="0.5" transform="rotate(88, 1350.92, 2797.8)" width="2603.846806" x="48.994702" xlink:href="#lm" y="2737.797119"/>
  <rect class=" imageannotationLine imageannotationLinked" fill="#FFFF00" fill-opacity="0.2" height="120" id="svg_28" stroke="#000000" stroke-opacity="0.5" transform="rotate(89, 1090.92, 2697.8)" width="2333.846711" x="-76.005095" xlink:href="#ln" y="2637.797119"/>
  <rect class=" imageannotationLine imageannotationLinked" fill="#FFFF00" fill-opacity="0.2" height="120" id="svg_30" stroke="#000000" stroke-opacity="0.5" transform="rotate(89, 975.92, 3187.8)" width="3273.846507" x="-661.005656" xlink:href="#lo" y="3127.797119"/>
 </g>
</svg>