<?xml version="1.0" encoding="UTF-8" standalone="no"?><svg xmlns="http://www.w3.org/2000/svg" xmlns:xlink="http://www.w3.org/1999/xlink" height="6144" width="4096">
 <g>
  <title>Layer 1</title>
  <rect class=" imageannotationLine imageannotationLinked" fill="#FFFF00" fill-opacity="0.2" height="115.665218" id="svg_2" stroke="#000000" stroke-opacity="0.5" transform="rotate(88, 3675.68, 4383.12)" width="778.260816" x="3286.547303" xlink:href="#la" y="4325.291962"/>
  <rect class=" imageannotationLine imageannotationLinked" fill="#FFFF00" fill-opacity="0.2" height="106.956525" id="svg_4" stroke="#000000" stroke-opacity="0.5" transform="rotate(88, 3698.27, 2915.35)" width="765.216665" x="3315.662585" xlink:href="#lb" y="2861.873222"/>
  <rect class=" imageannotationLine imageannotationLinked" fill="#FFFF00" fill-opacity="0.2" height="120" id="svg_6" stroke="#000000" stroke-opacity="0.5" transform="rotate(89, 3583.05, 3432.75)" width="2478.260645" x="2343.920179" xlink:href="#lc" y="3372.746138"/>
  <rect class=" imageannotationLine imageannotationLinked" fill="#FFFF00" fill-opacity="0.2" height="111.157908" id="svg_8" stroke="#000000" stroke-opacity="0.5" transform="rotate(88, 3413.41, 3193.77)" width="2052.173757" x="2387.327763" xlink:href="#ld" y="3138.187592"/>
  <rect class=" imageannotationLine imageannotationLinked" fill="#FFFF00" fill-opacity="0.2" height="128.69565" id="svg_10" stroke="#000000" stroke-opacity="0.5" transform="rotate(90, 3239.57, 2534.92)" width="743.478258" x="2867.834697" xlink:href="#le" y="2470.567453"/>
  <rect class=" imageannotationLine imageannotationLinked" fill="#FFFF00" fill-opacity="0.2" height="111.157908" id="svg_12" stroke="#000000" stroke-opacity="0.5" transform="rotate(88, 3096.02, 3843.77)" width="2247.8259" x="1972.111354" xlink:href="#lf" y="3788.187436"/>
  <rect class=" imageannotationLine imageannotationLinked" fill="#FFFF00" fill-opacity="0.2" height="102.467542" id="svg_14" stroke="#000000" stroke-opacity="0.5" transform="rotate(88, 2961.64, 3878.99)" width="2082.595075" x="1920.339921" xlink:href="#lg" y="3827.755253"/>
  <rect class=" imageannotationLine imageannotationLinked" fill="#FFFF00" fill-opacity="0.2" height="120" id="svg_16" stroke="#000000" stroke-opacity="0.5" transform="rotate(88, 2861.32, 4006.66)" width="2478.260562" x="1622.183278" xlink:href="#lh" y="3946.659571"/>
  <rect class=" imageannotationLine imageannotationLinked" fill="#FFFF00" fill-opacity="0.2" height="120" id="svg_18" stroke="#000000" stroke-opacity="0.5" transform="rotate(88, 2713.49, 3745.79)" width="1991.30426" x="1717.831366" xlink:href="#li" y="3685.787052"/>
  <rect class=" imageannotationLine imageannotationLinked" fill="#FFFF00" fill-opacity="0.2" height="120" id="svg_20" stroke="#000000" stroke-opacity="0.5" transform="rotate(88, 2465.66, 3519.7)" width="1756.521575" x="1587.400088" xlink:href="#lj" y="3459.701588"/>
  <rect class=" imageannotationLine imageannotationLinked" fill="#FFFF00" fill-opacity="0.2" height="119.999784" id="svg_22" stroke="#000000" stroke-opacity="0.5" transform="rotate(88, 2279.2, 3460.03)" width="1748.416951" x="1404.994117" xlink:href="#lk" y="3400.029247"/>
  <rect class=" imageannotationLine imageannotationLinked" fill="#FFFF00" fill-opacity="0.2" height="115.425196" id="svg_24" stroke="#000000" stroke-opacity="0.5" transform="rotate(89, 2137.29, 3493.65)" width="1860.86901" x="1206.853842" xlink:href="#ll" y="3435.938934"/>
  <rect class=" imageannotationLine imageannotationLinked" fill="#FFFF00" fill-opacity="0.2" height="107.26794" id="svg_26" stroke="#000000" stroke-opacity="0.5" transform="rotate(88, 1976.69, 3432.97)" width="1704.34785" x="1124.514688" xlink:href="#lm" y="3379.332937"/>
  <rect class=" imageannotationLine imageannotationLinked" fill="#FFFF00" fill-opacity="0.2" height="128.083405" id="svg_28" stroke="#000000" stroke-opacity="0.5" transform="rotate(88, 1761, 3713.03)" width="2213.043318" x="654.482516" xlink:href="#ln" y="3648.992301"/>
  <rect class=" imageannotationLine imageannotationLinked" fill="#FFFF00" fill-opacity="0.2" height="111.30435" id="svg_30" stroke="#000000" stroke-opacity="0.5" transform="rotate(90, 1396.11, 3302.32)" width="1495.652064" x="648.280974" xlink:href="#lo" y="3246.665291"/>
  <rect class=" imageannotationLine imageannotationLinked" fill="#FFFF00" fill-opacity="0.2" height="85.220817" id="svg_32" stroke="#000000" stroke-opacity="0.5" transform="rotate(89, 1256.98, 3365.55)" width="1734.782681" x="389.587336" xlink:href="#lp" y="3322.938834"/>
  <rect class=" imageannotationLine imageannotationLinked" fill="#FFFF00" fill-opacity="0.2" height="89.730268" id="svg_34" stroke="#000000" stroke-opacity="0.5" transform="rotate(88, 1159.24, 3450.52)" width="1904.347834" x="207.06294" xlink:href="#lq" y="3405.654818"/>
  <rect class=" imageannotationLine imageannotationLinked" fill="#FFFF00" fill-opacity="0.2" height="85.217474" id="svg_36" stroke="#000000" stroke-opacity="0.5" transform="rotate(88, 1048.28, 3324.06)" width="1695.652225" x="200.452955" xlink:href="#lr" y="3281.448776"/>
  <rect class=" imageannotationLine imageannotationLinked" fill="#FFFF00" fill-opacity="0.2" height="46.087157" id="svg_38" stroke="#000000" stroke-opacity="0.5" transform="rotate(90, 898.282, 2665.36)" width="195.652302" x="800.457169" xlink:href="#ls" y="2642.317179"/>
  <rect class=" imageannotationLine imageannotationLinked" fill="#FFFF00" fill-opacity="0.2" height="76.521848" id="svg_40" stroke="#000000" stroke-opacity="0.5" transform="rotate(89, 861.323, 3252.32)" width="1804.347561" x="-40.850574" xlink:href="#lt" y="3214.05463"/>
  <rect class=" imageannotationLine imageannotationLinked" fill="#FFFF00" fill-opacity="0.2" height="76.527279" id="svg_42" stroke="#000000" stroke-opacity="0.5" transform="rotate(89, 752.636, 3385.38)" width="2069.56537" x="-282.146667" xlink:href="#lu" y="3347.120418"/>
  <rect class=" imageannotationLine imageannotationLinked" fill="#FFFF00" fill-opacity="0.2" height="80.872399" id="svg_44" stroke="#000000" stroke-opacity="0.5" transform="rotate(89, 650.453, 3422.03)" width="2195.651777" x="-447.373152" xlink:href="#lv" y="3381.595895"/>
  <rect class=" imageannotationLine imageannotationLinked" fill="#FFFF00" fill-opacity="0.2" height="72.174035" id="svg_46" stroke="#000000" stroke-opacity="0.5" transform="rotate(90, 546.105, 3537.1)" width="2365.217132" x="-636.503025" xlink:href="#lw" y="3501.013436"/>
  <rect class=" imageannotationLine imageannotationLinked" fill="#FFFF00" fill-opacity="0.2" height="115.651238" id="svg_49" stroke="#000000" stroke-opacity="0.5" transform="rotate(180, 1668.71, 2122.01)" width="2395.6521" x="470.881708" xlink:href="#lx" y="2064.18273"/>
  <rect class=" imageannotationLine imageannotationLinked" fill="#FFFF00" fill-opacity="0.2" height="115.651237" id="svg_51" stroke="#000000" stroke-opacity="0.5" transform="rotate(179, 1716.53, 1943.75)" width="2239.130372" x="596.967817" xlink:href="#ly" y="1885.926372"/>
  <rect class=" imageannotationLine imageannotationLinked" fill="#FFFF00" fill-opacity="0.2" height="80.869061" id="svg_53" stroke="#000000" stroke-opacity="0.5" transform="rotate(180, 1270.88, 1817.67)" width="513.043964" x="1014.355523" xlink:href="#lz" y="1777.233826"/>
  <rect class=" imageannotationLine imageannotationLinked" fill="#FFFF00" fill-opacity="0.2" height="111.303456" id="svg_55" stroke="#000000" stroke-opacity="0.5" transform="rotate(180, 1636.1, 1580.71)" width="2426.086785" x="423.055567" xlink:href="#laa" y="1525.064229"/>
  <rect class=" imageannotationLine imageannotationLinked" fill="#FFFF00" fill-opacity="0.2" height="98.260099" id="svg_57" stroke="#000000" stroke-opacity="0.5" transform="rotate(179, 1760.01, 1417.67)" width="2169.565111" x="675.222474" xlink:href="#lab" y="1368.537052"/>
 </g>
</svg>