<?xml version="1.0" encoding="UTF-8" standalone="no"?><svg xmlns="http://www.w3.org/2000/svg" xmlns:xlink="http://www.w3.org/1999/xlink" height="6144" width="4096">
 <g>
  <title>Layer 1</title>
  <rect class=" imageannotationLine imageannotationLinked" fill="#FFFF00" fill-opacity="0.2" height="120" id="svg_4" stroke="#000000" stroke-opacity="0.5" transform="rotate(90, 3352.23, 2720.4)" width="199.523232" x="3252.474637" xlink:href="#la" y="2660.401058"/>
  <rect class=" imageannotationLine imageannotationLinked" fill="#FFFF00" fill-opacity="0.2" height="113.710697" id="svg_6" stroke="#000000" stroke-opacity="0.5" transform="rotate(88, 3278.49, 3005.4)" width="3523.054118" x="1516.963133" xlink:href="#lb" y="2948.541837"/>
  <rect class=" imageannotationLine imageannotationLinked" fill="#FFFF00" fill-opacity="0.2" height="108.235295" id="svg_8" stroke="#000000" stroke-opacity="0.5" transform="rotate(90, 3111.06, 2691)" width="199.525818" x="3011.290193" xlink:href="#lc" y="2636.876652"/>
  <rect class=" imageannotationLine imageannotationLinked" fill="#FFFF00" fill-opacity="0.2" height="102.568982" id="svg_10" stroke="#000000" stroke-opacity="0.5" transform="rotate(88, 3025.26, 3044.26)" width="3623.075489" x="1213.720154" xlink:href="#ld" y="2992.972729"/>
  <rect class=" imageannotationLine imageannotationLinked" fill="#FFFF00" fill-opacity="0.2" height="113.505356" id="svg_12" stroke="#000000" stroke-opacity="0.5" transform="rotate(88, 2871.59, 2788.09)" width="3087.586994" x="1327.796547" xlink:href="#le" y="2731.341901"/>
  <rect class=" imageannotationLine imageannotationLinked" fill="#FFFF00" fill-opacity="0.2" height="96.474173" id="svg_14" stroke="#000000" stroke-opacity="0.5" transform="rotate(89, 2711.06, 3123.55)" width="3734.818755" x="843.652979" xlink:href="#lf" y="3075.311815"/>
  <rect class=" imageannotationLine imageannotationLinked" fill="#FFFF00" fill-opacity="0.2" height="84.705884" id="svg_16" stroke="#000000" stroke-opacity="0.5" transform="rotate(90, 2616.94, 4629.23)" width="440.701156" x="2396.590467" xlink:href="#lg" y="4586.872088"/>
  <rect class=" imageannotationLine imageannotationLinked" fill="#FFFF00" fill-opacity="0.2" height="125.060163" id="svg_18" stroke="#000000" stroke-opacity="0.5" transform="rotate(89, 2460.65, 3164.48)" width="3723.053999" x="599.121259" xlink:href="#lh" y="3101.951792"/>
  <rect class=" imageannotationLine imageannotationLinked" fill="#FFFF00" fill-opacity="0.2" height="102.355692" id="svg_20" stroke="#000000" stroke-opacity="0.5" transform="rotate(89, 2149.39, 3170.35)" width="3675.993408" x="311.394137" xlink:href="#li" y="3119.171949"/>
  <rect class=" imageannotationLine imageannotationLinked" fill="#FFFF00" fill-opacity="0.2" height="102.360868" id="svg_22" stroke="#000000" stroke-opacity="0.5" transform="rotate(88, 2001.77, 3158.85)" width="3558.458891" x="222.544344" xlink:href="#lj" y="3107.669448"/>
  <rect class=" imageannotationLine imageannotationLinked" fill="#FFFF00" fill-opacity="0.2" height="96.484923" id="svg_24" stroke="#000000" stroke-opacity="0.5" transform="rotate(88, 1735, 3158.62)" width="3581.04221" x="-55.526948" xlink:href="#lk" y="3110.38175"/>
  <rect class=" imageannotationLine imageannotationLinked" fill="#FFFF00" fill-opacity="0.2" height="43.529216" id="svg_26" stroke="#000000" stroke-opacity="0.5" transform="rotate(90, 1578.7, 3717.46)" width="464.229921" x="1346.589755" xlink:href="#ll" y="3695.696346"/>
  <rect class=" imageannotationLine imageannotationLinked" fill="#FFFF00" fill-opacity="0.2" height="108.235832" id="svg_28" stroke="#000000" stroke-opacity="0.5" transform="rotate(89, 3240.47, 2646.88)" width="2464.230779" x="2008.358373" xlink:href="#lm" y="2592.757789"/>
  <rect class=" imageannotationLine imageannotationLinked" fill="#FFFF00" fill-opacity="0.2" height="108.235832" id="svg_30" stroke="#000000" stroke-opacity="0.5" transform="rotate(88, 3099.3, 2779.36)" width="2658.628413" x="1769.985692" xlink:href="#ln" y="2725.247187"/>
  <rect class=" imageannotationLine imageannotationLinked" fill="#FFFF00" fill-opacity="0.2" height="108.235832" id="svg_32" stroke="#000000" stroke-opacity="0.5" transform="rotate(88, 2924.75, 2877.69)" width="2882.781775" x="1483.35785" xlink:href="#lo" y="2823.570973"/>
  <rect class=" imageannotationLine imageannotationLinked" fill="#FFFF00" fill-opacity="0.2" height="108.235832" id="svg_34" stroke="#000000" stroke-opacity="0.5" transform="rotate(88, 2760.97, 2782.47)" width="2713.365867" x="1404.283735" xlink:href="#lp" y="2728.34957"/>
  <rect class=" imageannotationLine imageannotationLinked" fill="#FFFF00" fill-opacity="0.2" height="108.235832" id="svg_36" stroke="#000000" stroke-opacity="0.5" transform="rotate(88, 2546.36, 2902.75)" width="2917.172074" x="1087.769101" xlink:href="#lq" y="2848.638069"/>
  <rect class=" imageannotationLine imageannotationLinked" fill="#FFFF00" fill-opacity="0.2" height="108.235832" id="svg_38" stroke="#000000" stroke-opacity="0.5" transform="rotate(89, 2393.41, 2811.58)" width="2817.171598" x="984.827308" xlink:href="#lr" y="2757.462715"/>
  <rect class=" imageannotationLine imageannotationLinked" fill="#FFFF00" fill-opacity="0.2" height="90.655687" id="svg_40" stroke="#000000" stroke-opacity="0.5" transform="rotate(85, 2312.13, 2338.68)" width="1824.430409" x="1399.913818" xlink:href="#ls" y="2293.350308"/>
  <rect class=" imageannotationLine imageannotationLinked" fill="#FFFF00" fill-opacity="0.2" height="102.35569" id="svg_42" stroke="#000000" stroke-opacity="0.5" transform="rotate(86, 2008.12, 2635.11)" width="2240.701502" x="887.767276" xlink:href="#lt" y="2583.930298"/>
  <rect class=" imageannotationLine imageannotationLinked" fill="#FFFF00" fill-opacity="0.2" height="102.35569" id="svg_44" stroke="#000000" stroke-opacity="0.5" transform="rotate(86, 1842.33, 2055.73)" width="1493.648886" x="1095.506922" xlink:href="#lu" y="2004.549608"/>
  <rect class=" imageannotationLine imageannotationLinked" fill="#FFFF00" fill-opacity="0.2" height="137.336518" id="svg_46" stroke="#000000" stroke-opacity="0.5" transform="rotate(-91, 1011.5, 2967.61)" width="3541.003814" x="-759.002891" xlink:href="#lv" y="2898.942459"/>
  <rect class=" imageannotationLine imageannotationLinked" fill="#FFFF00" fill-opacity="0.2" height="114.120421" id="svg_48" stroke="#000000" stroke-opacity="0.5" transform="rotate(-90, 1205.77, 3093.92)" width="605.405489" x="903.062182" xlink:href="#lw" y="3036.864709"/>
  <rect class=" imageannotationLine imageannotationLinked" fill="#FFFF00" fill-opacity="0.2" height="131.544312" id="svg_50" stroke="#000000" stroke-opacity="0.5" transform="rotate(-92, 1344.12, 3523.85)" width="2452.465668" x="117.883772" xlink:href="#lx" y="3458.076255"/>
 </g>
</svg>