<?xml version="1.0" encoding="UTF-8" standalone="no"?><svg xmlns="http://www.w3.org/2000/svg" xmlns:xlink="http://www.w3.org/1999/xlink" height="6144.000000000001" width="4096">
 <g>
  <title>Layer 1</title>
  <rect class=" imageannotationLine imageannotationLinked" fill="#FFFF00" fill-opacity="0.2" height="120" id="svg_5" stroke="#000000" stroke-opacity="0.5" transform="rotate(90, 3356.08, 971.832)" width="304.999985" x="3203.582008" xlink:href="#la" y="911.830322"/>
  <rect class=" imageannotationLine imageannotationLinked" fill="#FFFF00" fill-opacity="0.2" height="105.020556" id="svg_7" stroke="#000000" stroke-opacity="0.5" transform="rotate(87, 3099.8, 2778.22)" width="3143.431299" x="1528.078984" xlink:href="#lb" y="2725.706302"/>
  <rect class=" imageannotationLine imageannotationLinked" fill="#FFFF00" fill-opacity="0.2" height="100.027406" id="svg_9" stroke="#000000" stroke-opacity="0.5" transform="rotate(87, 2925.04, 2670.65)" width="2900.736502" x="1474.664765" xlink:href="#lc" y="2620.631453"/>
  <rect class=" imageannotationLine imageannotationLinked" fill="#FFFF00" fill-opacity="0.2" height="75" id="svg_11" stroke="#000000" stroke-opacity="0.5" transform="rotate(86, 2855.28, 3227.06)" width="2815.23119" x="1447.660885" xlink:href="#ld" y="3189.56163"/>
  <rect class=" imageannotationLine imageannotationLinked" fill="#FFFF00" fill-opacity="0.2" height="109.951797" id="svg_13" stroke="#000000" stroke-opacity="0.5" transform="rotate(87, 2758.29, 2928.43)" width="3378.31211" x="1069.131648" xlink:href="#So" y="2873.45493"/>
  <rect class=" imageannotationLine imageannotationLinked" fill="#FFFF00" fill-opacity="0.2" height="104.958889" id="svg_15" stroke="#000000" stroke-opacity="0.5" transform="rotate(87, 2596.3, 2927.61)" width="3490.052032" x="851.278835" xlink:href="#le" y="2875.131437"/>
  <rect class=" imageannotationLine imageannotationLinked" fill="#FFFF00" fill-opacity="0.2" height="100.227419" id="svg_17" stroke="#000000" stroke-opacity="0.5" transform="rotate(87, 2434.59, 2960.08)" width="3514.777212" x="677.200353" xlink:href="#lf" y="2909.969655"/>
  <rect class=" imageannotationLine imageannotationLinked" fill="#FFFF00" fill-opacity="0.2" height="95.234272" id="svg_19" stroke="#000000" stroke-opacity="0.5" transform="rotate(87, 2250.54, 2539.62)" width="2610.427697" x="945.32865" xlink:href="#lg" y="2492.006769"/>
  <rect class=" imageannotationLine imageannotationLinked" fill="#FFFF00" fill-opacity="0.2" height="123.176237" id="svg_21" stroke="#000000" stroke-opacity="0.5" transform="rotate(87, 2095.41, 2850.98)" width="3324.067583" x="433.377898" xlink:href="#lh" y="2789.396659"/>
  <rect class=" imageannotationLine imageannotationLinked" fill="#FFFF00" fill-opacity="0.2" height="134.656108" id="svg_23" stroke="#000000" stroke-opacity="0.5" transform="rotate(87, 1919.54, 2879.56)" width="3373.903774" x="232.582443" xlink:href="#li" y="2812.229336"/>
  <rect class=" imageannotationLine imageannotationLinked" fill="#FFFF00" fill-opacity="0.2" height="105.000003" id="svg_25" stroke="#000000" stroke-opacity="0.5" transform="rotate(90, 1803.59, 3624.33)" width="439.999938" x="1583.586107" xlink:href="#lj" y="3571.833133"/>
  <rect class=" imageannotationLine imageannotationLinked" fill="#FFFF00" fill-opacity="0.2" height="118.134157" id="svg_29" stroke="#000000" stroke-opacity="0.5" transform="rotate(86, 1438.64, 2895.43)" width="3263.706539" x="-193.210692" xlink:href="#lk" y="2836.362571"/>
  <rect class=" imageannotationLine imageannotationLinked" fill="#FFFF00" fill-opacity="0.2" height="95.013705" id="svg_31" stroke="#000000" stroke-opacity="0.5" transform="rotate(87, 1333.6, 3487.09)" width="514.999947" x="1076.097579" xlink:href="#ll" y="3439.5872"/>
  <rect class=" imageannotationLine imageannotationLinked" fill="#FFFF00" fill-opacity="0.2" height="105.206862" id="svg_33" stroke="#000000" stroke-opacity="0.5" transform="rotate(87, 1161.44, 2801.95)" width="3117.680575" x="-397.398485" xlink:href="#lm" y="2749.343698"/>
  <rect class=" imageannotationLine imageannotationLinked" fill="#FFFF00" fill-opacity="0.2" height="145.675335" id="svg_35" stroke="#000000" stroke-opacity="0.5" transform="rotate(87, 808.514, 2996.85)" width="3371.022656" x="-876.996224" xlink:href="#ln" y="2924.011345"/>
  <rect class=" imageannotationLine imageannotationLinked" fill="#FFFF00" fill-opacity="0.2" height="119.924631" id="svg_37" stroke="#000000" stroke-opacity="0.5" transform="rotate(87, 650.917, 2897.09)" width="3239.347931" x="-968.756176" xlink:href="#lo" y="2837.123372"/>
  <rect class=" imageannotationLine imageannotationLinked" fill="#FFFF00" fill-opacity="0.2" height="144.999995" id="svg_39" stroke="#000000" stroke-opacity="0.5" transform="rotate(90, 543.586, 3389.33)" width="679.999937" x="203.585992" xlink:href="#lp" y="3316.831621"/>
  <rect class=" imageannotationLine imageannotationLinked" fill="#FFFF00" fill-opacity="0.2" height="120.787677" id="svg_41" stroke="#000000" stroke-opacity="0.5" transform="rotate(89, 411.046, 2976.92)" width="3314.920211" x="-1246.416313" xlink:href="#lq" y="2916.529242"/>
  <rect class=" imageannotationLine imageannotationLinked" fill="#FFFF00" fill-opacity="0.2" height="100.352763" id="svg_43" stroke="#000000" stroke-opacity="0.5" transform="rotate(89, 272.751, 2830.96)" width="3002.766718" x="-1228.63387" xlink:href="#Nicht" y="2780.783116"/>
  <rect class=" imageannotationLine imageannotationLinked" fill="#FFFF00" fill-opacity="0.2" height="120.000002" id="svg_45" stroke="#000000" stroke-opacity="0.5" transform="rotate(90, 2676.08, 1099.33)" width="150.000004" x="2601.084806" xlink:href="#lr" y="1039.332083"/>
  <rect class=" imageannotationLine imageannotationLinked" fill="#FFFF00" fill-opacity="0.2" height="139.999999" id="svg_47" stroke="#000000" stroke-opacity="0.5" transform="rotate(90, 231.082, 966.832)" width="144.999994" x="158.582" xlink:href="#ls" y="896.831683"/>
 </g>

</svg>