<?xml version="1.0" encoding="UTF-8" standalone="no"?><svg xmlns="http://www.w3.org/2000/svg" xmlns:xlink="http://www.w3.org/1999/xlink" height="6144.000000000001" width="4096">
 <g>
  <title>Layer 1</title>
  <rect class=" imageannotationLine imageannotationLinked" fill="#FFFF00" fill-opacity="0.2" height="170.000005" id="svg_4" stroke="#000000" stroke-opacity="0.5" transform="rotate(180, 1932.64, 4396)" width="1608.180739" x="1128.548667" xlink:href="#la" y="4311.003275"/>
  <rect class=" imageannotationLine imageannotationLinked" fill="#FFFF00" fill-opacity="0.2" height="165" id="svg_6" stroke="#000000" stroke-opacity="0.5" transform="rotate(180, 1742.64, 4003.5)" width="2968.181529" x="258.546886" xlink:href="#lb" y="3921.003265"/>
  <rect class=" imageannotationLine imageannotationLinked" fill="#FFFF00" fill-opacity="0.2" height="100.003045" id="svg_8" stroke="#000000" stroke-opacity="0.5" transform="rotate(179, 1859.96, 3756.01)" width="2973.181497" x="373.372746" xlink:href="#lc" y="3706.00492"/>
  <rect class=" imageannotationLine imageannotationLinked" fill="#FFFF00" fill-opacity="0.2" height="110.000005" id="svg_10" stroke="#000000" stroke-opacity="0.5" transform="rotate(180, 1790.14, 3571)" width="3073.181593" x="253.546891" xlink:href="#ld" y="3516.003647"/>
  <rect class=" imageannotationLine imageannotationLinked" fill="#FFFF00" fill-opacity="0.2" height="134.999993" id="svg_12" stroke="#000000" stroke-opacity="0.5" transform="rotate(180, 1770.14, 3348.51)" width="2933.18155" x="303.546844" xlink:href="#le" y="3281.007166"/>
  <rect class=" imageannotationLine imageannotationLinked" fill="#FFFF00" fill-opacity="0.2" height="130.000005" id="svg_14" stroke="#000000" stroke-opacity="0.5" transform="rotate(180, 1795.14, 3106)" width="3083.181528" x="253.546963" xlink:href="#lf" y="3041.003813"/>
  <rect class=" imageannotationLine imageannotationLinked" fill="#FFFF00" fill-opacity="0.2" height="154.999995" id="svg_16" stroke="#000000" stroke-opacity="0.5" transform="rotate(180, 1782.64, 2893.5)" width="2978.181517" x="293.546386" xlink:href="#lg" y="2816.002455"/>
  <rect class=" imageannotationLine imageannotationLinked" fill="#FFFF00" fill-opacity="0.2" height="55.000001" id="svg_18" stroke="#000000" stroke-opacity="0.5" transform="rotate(180, 2472.64, 2768.5)" width="1138.180349" x="1903.54524" xlink:href="#lh" y="2741.004101"/>
  <rect class=" imageannotationLine imageannotationLinked" fill="#FFFF00" fill-opacity="0.2" height="99.999998" id="svg_20" stroke="#000000" stroke-opacity="0.5" transform="rotate(180, 1855.14, 2656)" width="2683.181423" x="513.546897" xlink:href="#li" y="2606.004699"/>
  <rect class=" imageannotationLine imageannotationLinked" fill="#FFFF00" fill-opacity="0.2" height="94.654793" id="svg_22" stroke="#000000" stroke-opacity="0.5" transform="rotate(-179, 797.68, 2468.5)" width="788.180169" x="403.590416" xlink:href="#lj" y="2421.173336"/>
  <rect class=" imageannotationLine imageannotationLinked" fill="#FFFF00" fill-opacity="0.2" height="120" id="svg_24" stroke="#000000" stroke-opacity="0.5" transform="rotate(-179.106, 1762.64, 2286)" width="2898.18155" x="313.546823" xlink:href="#lk" y="2226.004272"/>
  <rect class=" imageannotationLine imageannotationLinked" fill="#FFFF00" fill-opacity="0.2" height="69.999998" id="svg_26" stroke="#000000" stroke-opacity="0.5" transform="rotate(180, 2020.14, 1941)" width="823.180214" x="1608.548176" xlink:href="#ll" y="1906.00434"/>
  <rect class=" imageannotationLine imageannotationLinked" fill="#FFFF00" fill-opacity="0.2" height="114.999998" id="svg_28" stroke="#000000" stroke-opacity="0.5" transform="rotate(180, 1772.64, 1718.5)" width="2958.181501" x="293.546427" xlink:href="#lm" y="1661.004218"/>
  <rect class=" imageannotationLine imageannotationLinked" fill="#FFFF00" fill-opacity="0.2" height="84.999998" id="svg_30" stroke="#000000" stroke-opacity="0.5" transform="rotate(180, 2822.64, 1558.5)" width="738.180192" x="2453.546079" xlink:href="#ln" y="1516.004388"/>
  <rect class=" imageannotationLine imageannotationLinked" fill="#FFFF00" fill-opacity="0.2" height="109.999999" id="svg_32" stroke="#000000" stroke-opacity="0.5" transform="rotate(180, 1810.14, 1421)" width="1753.180843" x="933.545974" xlink:href="#lo" y="1366.00446"/>
  <rect class=" imageannotationLine imageannotationLinked" fill="#FFFF00" fill-opacity="0.2" height="90" id="svg_34" stroke="#000000" stroke-opacity="0.5" transform="rotate(180, 1962.64, 1256)" width="1388.180555" x="1268.544944" xlink:href="#lp" y="1211.004146"/>
  <rect class=" imageannotationLine imageannotationLinked" fill="#FFFF00" fill-opacity="0.2" height="110.000006" id="svg_36" stroke="#000000" stroke-opacity="0.5" transform="rotate(180, 1732.64, 1131)" width="2338.181115" x="563.545922" xlink:href="#lq" y="1076.003948"/>
  <rect class=" imageannotationLine imageannotationLinked" fill="#FFFF00" fill-opacity="0.2" height="69.999998" id="svg_38" stroke="#000000" stroke-opacity="0.5" transform="rotate(180, 2060.14, 976.004)" width="453.179973" x="1833.547665" xlink:href="#lr" y="941.004096"/>
  <rect class=" imageannotationLine imageannotationLinked" fill="#FFFF00" fill-opacity="0.2" height="64.999995" id="svg_40" stroke="#000000" stroke-opacity="0.5" transform="rotate(180, 1785.14, 888.504)" width="1413.180556" x="1078.544066" xlink:href="#ls" y="856.004199"/>
  <rect class=" imageannotationLine imageannotationLinked" fill="#FFFF00" fill-opacity="0.2" height="80.000002" id="svg_42" stroke="#000000" stroke-opacity="0.5" transform="rotate(180, 925.137, 701.004)" width="243.179831" x="803.547331" xlink:href="#lt" y="661.004113"/>
 </g>

</svg>