<?xml version="1.0" encoding="UTF-8" standalone="no"?><svg xmlns="http://www.w3.org/2000/svg" xmlns:xlink="http://www.w3.org/1999/xlink" height="6144" width="4096">
 <g>
  <title>Layer 1</title>
  <rect class=" imageannotationLine imageannotationLinked" fill="#FFFF00" fill-opacity="0.2" height="75.999999" id="svg_4" stroke="#000000" stroke-opacity="0.5" width="82.546826" x="3097.089741" xlink:href="#la" y="627.999987"/>
  <rect class=" imageannotationLine imageannotationLinked" fill="#FFFF00" fill-opacity="0.2" height="76" id="svg_6" stroke="#000000" stroke-opacity="0.5" width="146.546785" x="2969.089919" xlink:href="#lb" y="720"/>
  <rect class=" imageannotationLine imageannotationLinked" fill="#FFFF00" fill-opacity="0.2" height="68.005129" id="svg_12" stroke="#000000" stroke-opacity="0.5" transform="rotate(-2, 2022.16, 818.287)" width="666.41656" x="1688.955297" xlink:href="#lc" y="784.284045"/>
  <rect class=" imageannotationLine imageannotationLinked" fill="#FFFF00" fill-opacity="0.2" height="67.382939" id="svg_14" stroke="#000000" stroke-opacity="0.5" transform="rotate(-3, 1497.94, 885.918)" width="330.546684" x="1332.666314" xlink:href="#ld" y="852.22587"/>
  <rect class=" imageannotationLine imageannotationLinked" fill="#FFFF00" fill-opacity="0.2" height="76" id="svg_16" stroke="#000000" stroke-opacity="0.5" transform="rotate(-1, 1350.36, 1010)" width="402.546629" x="1149.089878" xlink:href="#le" y="972"/>
  <rect class=" imageannotationLine imageannotationLinked" fill="#FFFF00" fill-opacity="0.2" height="76" id="svg_18" stroke="#000000" stroke-opacity="0.5" transform="rotate(-2, 1652.36, 1066)" width="1934.54564" x="685.089847" xlink:href="#lf" y="1028"/>
  <rect class=" imageannotationLine imageannotationLinked" fill="#FFFF00" fill-opacity="0.2" height="76" id="svg_20" stroke="#000000" stroke-opacity="0.5" transform="rotate(-1, 1790.36, 1210)" width="2378.545269" x="601.089844" xlink:href="#lg" y="1172"/>
  <rect class=" imageannotationLine imageannotationLinked" fill="#FFFF00" fill-opacity="0.2" height="76" id="svg_22" stroke="#000000" stroke-opacity="0.5" transform="rotate(-2, 1688.36, 1350)" width="2110.545539" x="633.089846" xlink:href="#lh" y="1312"/>
  <rect class=" imageannotationLine imageannotationLinked" fill="#FFFF00" fill-opacity="0.2" height="76" id="svg_24" stroke="#000000" stroke-opacity="0.5" transform="rotate(-2, 1802.36, 1490)" width="2282.545322" x="661.089844" xlink:href="#li" y="1452"/>
  <rect class=" imageannotationLine imageannotationLinked" fill="#FFFF00" fill-opacity="0.2" height="76" id="svg_26" stroke="#000000" stroke-opacity="0.5" transform="rotate(-1, 1830.36, 1642)" width="2322.545437" x="669.089844" xlink:href="#lj" y="1604"/>
  <rect class=" imageannotationLine imageannotationLinked" fill="#FFFF00" fill-opacity="0.2" height="76" id="svg_28" stroke="#000000" stroke-opacity="0.5" transform="rotate(-2, 1872.36, 1790)" width="2382.545356" x="681.089844" xlink:href="#lk" y="1752"/>
  <rect class=" imageannotationLine imageannotationLinked" fill="#FFFF00" fill-opacity="0.2" height="76" id="svg_30" stroke="#000000" stroke-opacity="0.5" transform="rotate(-2, 1830.36, 1962)" width="2282.545492" x="689.089844" xlink:href="#ll" y="1924.000004"/>
  <rect class=" imageannotationLine imageannotationLinked" fill="#FFFF00" fill-opacity="0.2" height="68.071028" id="svg_32" stroke="#000000" stroke-opacity="0.5" transform="rotate(-1, 1804.29, 2126.04)" width="2206.545484" x="701.020656" xlink:href="#lm" y="2092.000601"/>
  <rect class=" imageannotationLine imageannotationLinked" fill="#FFFF00" fill-opacity="0.2" height="76" id="svg_34" stroke="#000000" stroke-opacity="0.5" transform="rotate(-2, 1812.36, 2274)" width="2182.545489" x="721.089843" xlink:href="#ln" y="2236"/>
  <rect class=" imageannotationLine imageannotationLinked" fill="#FFFF00" fill-opacity="0.2" height="76" id="svg_36" stroke="#000000" stroke-opacity="0.5" transform="rotate(-2, 1892.36, 2410)" width="2302.545465" x="741.089844" xlink:href="#lo" y="2372"/>
  <rect class=" imageannotationLine imageannotationLinked" fill="#FFFF00" fill-opacity="0.2" height="76" id="svg_38" stroke="#000000" stroke-opacity="0.5" transform="rotate(-2, 1800.36, 2566)" width="2270.545425" x="665.089843" xlink:href="#lp" y="2528"/>
  <rect class=" imageannotationLine imageannotationLinked" fill="#FFFF00" fill-opacity="0.2" height="76" id="svg_40" stroke="#000000" stroke-opacity="0.5" transform="rotate(-2, 1914.36, 2730)" width="2378.545333" x="725.089843" xlink:href="#lq" y="2692"/>
  <rect class=" imageannotationLine imageannotationLinked" fill="#FFFF00" fill-opacity="0.2" height="76" id="svg_42" stroke="#000000" stroke-opacity="0.5" transform="rotate(-2, 1910.36, 2878)" width="2410.545234" x="705.089844" xlink:href="#lr" y="2840"/>
  <rect class=" imageannotationLine imageannotationLinked" fill="#FFFF00" fill-opacity="0.2" height="76" id="svg_44" stroke="#000000" stroke-opacity="0.5" transform="rotate(-2, 1554.36, 3050)" width="1650.545852" x="729.08985" xlink:href="#ls" y="3012"/>
  <rect class=" imageannotationLine imageannotationLinked" fill="#FFFF00" fill-opacity="0.2" height="95.999996" id="svg_46" stroke="#000000" stroke-opacity="0.5" transform="rotate(-1, 1564.36, 3268)" width="350.546648" x="1389.089887" xlink:href="#lt" y="3219.999973"/>
  <rect class=" imageannotationLine imageannotationLinked" fill="#FFFF00" fill-opacity="0.2" height="76" id="svg_48" stroke="#000000" stroke-opacity="0.5" transform="rotate(-2, 1744.36, 3454)" width="1606.545884" x="941.089838" xlink:href="#lu" y="3416"/>
  <rect class=" imageannotationLine imageannotationLinked" fill="#FFFF00" fill-opacity="0.2" height="76" id="svg_50" stroke="#000000" stroke-opacity="0.5" transform="rotate(-3, 1798.36, 3602)" width="1698.545842" x="949.089856" xlink:href="#lv" y="3564"/>
  <rect class=" imageannotationLine imageannotationLinked" fill="#FFFF00" fill-opacity="0.2" height="76" id="svg_52" stroke="#000000" stroke-opacity="0.5" transform="rotate(-2, 1738.36, 3766)" width="1610.545907" x="933.089844" xlink:href="#lw" y="3728"/>
  <rect class=" imageannotationLine imageannotationLinked" fill="#FFFF00" fill-opacity="0.2" height="76" id="svg_54" stroke="#000000" stroke-opacity="0.5" transform="rotate(-2, 1818.36, 3910)" width="1642.545807" x="997.089848" xlink:href="#lx" y="3872"/>
  <rect class=" imageannotationLine imageannotationLinked" fill="#FFFF00" fill-opacity="0.2" height="76" id="svg_56" stroke="#000000" stroke-opacity="0.5" transform="rotate(-1, 1708.36, 4134)" width="1486.545908" x="965.089844" xlink:href="#ly" y="4096"/>
  <rect class=" imageannotationLine imageannotationLinked" fill="#FFFF00" fill-opacity="0.2" height="76" id="svg_58" stroke="#000000" stroke-opacity="0.5" transform="rotate(-1, 1796.36, 4258)" width="1558.545894" x="1017.089841" xlink:href="#lz" y="4220"/>
  <rect class=" imageannotationLine imageannotationLinked" fill="#FFFF00" fill-opacity="0.2" height="64.001826" id="svg_60" stroke="#000000" stroke-opacity="0.5" transform="rotate(-1, 1686.26, 4408)" width="1346.546099" x="1012.985145" xlink:href="#laa" y="4376.00091"/>
  <rect class=" imageannotationLine imageannotationLinked" fill="#FFFF00" fill-opacity="0.2" height="76" id="svg_62" stroke="#000000" stroke-opacity="0.5" transform="rotate(-1, 1766.36, 4546)" width="1562.545916" x="985.089831" xlink:href="#lab" y="4508"/>
  <rect class=" imageannotationLine imageannotationLinked" fill="#FFFF00" fill-opacity="0.2" height="76" id="svg_64" stroke="#000000" stroke-opacity="0.5" transform="rotate(-1, 1956.36, 4762)" width="1862.545746" x="1025.089805" xlink:href="#lac" y="4724"/>
  <rect class=" imageannotationLine imageannotationLinked" fill="#FFFF00" fill-opacity="0.2" height="76" id="svg_66" stroke="#000000" stroke-opacity="0.5" width="1478.545934" x="1009.089819" xlink:href="#lad" y="4856"/>
  <rect class=" imageannotationLine imageannotationLinked" fill="#FFFF00" fill-opacity="0.2" height="76" id="svg_68" stroke="#000000" stroke-opacity="0.5" transform="rotate(-1, 1798.36, 5030)" width="1618.545812" x="989.089843" xlink:href="#lae" y="4992"/>
  <rect class=" imageannotationLine imageannotationLinked" fill="#FFFF00" fill-opacity="0.2" height="72.000002" id="svg_70" stroke="#000000" stroke-opacity="0.5" width="1750.545794" x="993.089854" xlink:href="#laf" y="5135.999997"/>
 </g>

</svg>