<?xml version="1.0" encoding="UTF-8" standalone="no"?><svg xmlns="http://www.w3.org/2000/svg" xmlns:xlink="http://www.w3.org/1999/xlink" height="6144" width="4096">
 <g>
  <title>Layer 1</title>
  <rect class=" imageannotationLine imageannotationLinked" fill="#FFFF00" fill-opacity="0.2" height="96.000001" id="svg_2" stroke="#000000" stroke-opacity="0.5" transform="rotate(-90, 976, 1746)" width="1674.54604" x="138.726642" xlink:href="#la" y="1698.00016"/>
  <rect class=" imageannotationLine imageannotationLinked" fill="#FFFF00" fill-opacity="0.2" height="72.000004" id="svg_4" stroke="#000000" stroke-opacity="0.5" transform="rotate(-90, 1136, 1728)" width="1814.545931" x="228.726331" xlink:href="#lb" y="1691.999969"/>
  <rect class=" imageannotationLine imageannotationLinked" fill="#FFFF00" fill-opacity="0.2" height="72.000008" id="svg_6" stroke="#000000" stroke-opacity="0.5" transform="rotate(-90, 1320, 1726)" width="1754.546028" x="442.726532" xlink:href="#lc" y="1689.999992"/>
  <rect class=" imageannotationLine imageannotationLinked" fill="#FFFF00" fill-opacity="0.2" height="60.000005" id="svg_8" stroke="#000000" stroke-opacity="0.5" transform="rotate(-90, 1508, 2438)" width="446.546675" x="1284.725885" xlink:href="#ld" y="2408.000413"/>
  <rect class=" imageannotationLine imageannotationLinked" fill="#FFFF00" fill-opacity="0.2" height="76.007314" id="svg_10" stroke="#000000" stroke-opacity="0.5" transform="rotate(-88, 1647.99, 1702.21)" width="1774.545945" x="760.719219" xlink:href="#le" y="1664.20562"/>
  <rect class=" imageannotationLine imageannotationLinked" fill="#FFFF00" fill-opacity="0.2" height="72.007339" id="svg_12" stroke="#000000" stroke-opacity="0.5" transform="rotate(-90, 1826, 1740)" width="1770.545874" x="940.726268" xlink:href="#lf" y="1703.99229"/>
  <rect class=" imageannotationLine imageannotationLinked" fill="#FFFF00" fill-opacity="0.2" height="80.007283" id="svg_14" stroke="#000000" stroke-opacity="0.5" transform="rotate(-90, 1988, 1802)" width="1626.546042" x="1174.727708" xlink:href="#lg" y="1761.991786"/>
  <rect class=" imageannotationLine imageannotationLinked" fill="#FFFF00" fill-opacity="0.2" height="76.007316" id="svg_16" stroke="#000000" stroke-opacity="0.5" transform="rotate(-90, 2182, 1774)" width="1674.546042" x="1344.726531" xlink:href="#lh" y="1735.992695"/>
  <rect class=" imageannotationLine imageannotationLinked" fill="#FFFF00" fill-opacity="0.2" height="88.00723" id="svg_18" stroke="#000000" stroke-opacity="0.5" transform="rotate(-90, 2354, 1798)" width="1766.54598" x="1470.729828" xlink:href="#wollen" y="1753.992719"/>
  <rect class=" imageannotationLine imageannotationLinked" fill="#FFFF00" fill-opacity="0.2" height="80.007287" id="svg_20" stroke="#000000" stroke-opacity="0.5" transform="rotate(-90, 2548, 1752)" width="1838.545921" x="1628.727615" xlink:href="#li" y="1711.991414"/>
  <rect class=" imageannotationLine imageannotationLinked" fill="#FFFF00" fill-opacity="0.2" height="96.232132" id="svg_22" stroke="#000000" stroke-opacity="0.5" transform="rotate(-88, 2736.57, 1702.52)" width="1835.458232" x="1818.847165" xlink:href="#lj" y="1654.407073"/>
  <rect class=" imageannotationLine imageannotationLinked" fill="#FFFF00" fill-opacity="0.2" height="80.241611" id="svg_24" stroke="#000000" stroke-opacity="0.5" transform="rotate(-88, 2900.01, 1755.61)" width="1654.546006" x="2072.732123" xlink:href="#lk" y="1715.486983"/>
  <rect class=" imageannotationLine imageannotationLinked" fill="#FFFF00" fill-opacity="0.2" height="68.249006" id="svg_26" stroke="#000000" stroke-opacity="0.5" transform="rotate(-88, 3058.92, 1720.59)" width="1831.399977" x="2143.220309" xlink:href="#ll" y="1686.46815"/>
  <rect class=" imageannotationLine imageannotationLinked" fill="#FFFF00" fill-opacity="0.2" height="56.25101" id="svg_28" stroke="#000000" stroke-opacity="0.5" transform="rotate(-89, 3198.18, 1605.84)" width="86.269948" x="3155.046954" xlink:href="#lm" y="1577.71668"/>
  <rect class=" imageannotationLine imageannotationLinked" fill="#FFFF00" fill-opacity="0.2" height="76.251372" id="svg_30" stroke="#000000" stroke-opacity="0.5" transform="rotate(-90, 3234, 1747.88)" width="1702.546015" x="2382.726665" xlink:href="#ln" y="1709.748738"/>
  <rect class=" imageannotationLine imageannotationLinked" fill="#FFFF00" fill-opacity="0.2" height="68.251231" id="svg_32" stroke="#000000" stroke-opacity="0.5" transform="rotate(-90, 3380, 1933.88)" width="1374.546094" x="2692.726947" xlink:href="#lo" y="1899.74914"/>
  <rect class=" imageannotationLine imageannotationLinked" fill="#FFFF00" fill-opacity="0.2" height="104.252695" id="svg_34" stroke="#000000" stroke-opacity="0.5" transform="rotate(90, 2214, 3847.88)" width="1130.546373" x="1648.727201" xlink:href="#lp" y="3795.749494"/>
  <rect class=" imageannotationLine imageannotationLinked" fill="#FFFF00" fill-opacity="0.2" height="84.252928" id="svg_36" stroke="#000000" stroke-opacity="0.5" transform="rotate(90, 1926, 3823.87)" width="1438.54614" x="1206.726927" xlink:href="#lq" y="3781.747345"/>
  <rect class=" imageannotationLine imageannotationLinked" fill="#FFFF00" fill-opacity="0.2" height="88.252886" id="svg_38" stroke="#000000" stroke-opacity="0.5" transform="rotate(90, 1714, 3745.87)" width="718.546519" x="1354.726328" xlink:href="#lr" y="3701.747363"/>
  <rect class=" imageannotationLine imageannotationLinked" fill="#FFFF00" fill-opacity="0.2" height="72.253069" id="svg_40" stroke="#000000" stroke-opacity="0.5" transform="rotate(-90, 3532, 1155.87)" width="598.54653" x="3232.727067" xlink:href="#ls" y="1119.747444"/>
 </g>
</svg>