<?xml version="1.0" encoding="UTF-8" standalone="no"?><svg xmlns="http://www.w3.org/2000/svg" xmlns:xlink="http://www.w3.org/1999/xlink" height="6144.000000000001" width="4096">
 <g>
  <title>Layer 1</title>
  <rect class=" imageannotationLine imageannotationLinked" fill="#FFFF00" fill-opacity="0.2" height="180" id="svg_2" stroke="#000000" stroke-opacity="0.5" transform="rotate(90, 3626.5, 2396.13)" width="183.847576" x="3534.578025" xlink:href="#la" y="2306.131348"/>
  <rect class=" imageannotationLine imageannotationLinked" fill="#FFFF00" fill-opacity="0.2" height="120" id="svg_4" stroke="#000000" stroke-opacity="0.5" transform="rotate(88, 3436.5, 2596.13)" width="2753.846444" x="2059.576655" xlink:href="#lb" y="2536.131836"/>
  <rect class=" imageannotationLine imageannotationLinked" fill="#FFFF00" fill-opacity="0.2" height="120" id="svg_6" stroke="#000000" stroke-opacity="0.5" transform="rotate(88, 3236.5, 2733.63)" width="3028.846391" x="1722.076506" xlink:href="#lc" y="2673.631836"/>
  <rect class=" imageannotationLine imageannotationLinked" fill="#FFFF00" fill-opacity="0.2" height="120" id="svg_8" stroke="#000000" stroke-opacity="0.5" transform="rotate(87, 3021.5, 2278.63)" width="2038.846931" x="2002.077042" xlink:href="#ld" y="2218.631836"/>
  <rect class=" imageannotationLine imageannotationLinked" fill="#FFFF00" fill-opacity="0.2" height="120.523353" id="svg_10" stroke="#000000" stroke-opacity="0.5" transform="rotate(87, 2843.46, 2473.53)" width="2398.75752" x="1644.083806" xlink:href="#le" y="2413.266548"/>
  <rect class=" imageannotationLine imageannotationLinked" fill="#FFFF00" fill-opacity="0.2" height="139.470463" id="svg_12" stroke="#000000" stroke-opacity="0.5" transform="rotate(87, 2686.22, 2723.12)" width="2948.846549" x="1211.798492" xlink:href="#lf" y="2653.386968"/>
  <rect class=" imageannotationLine imageannotationLinked" fill="#FFFF00" fill-opacity="0.2" height="110.18059" id="svg_14" stroke="#000000" stroke-opacity="0.5" transform="rotate(88, 2456.41, 2518.46)" width="2378.846695" x="1266.983637" xlink:href="#lg" y="2463.370261"/>
  <rect class=" imageannotationLine imageannotationLinked" fill="#FFFF00" fill-opacity="0.2" height="120" id="svg_16" stroke="#000000" stroke-opacity="0.5" transform="rotate(88, 2286.5, 2663.63)" width="2658.846578" x="957.076703" xlink:href="#lh" y="2603.631836"/>
  <rect class=" imageannotationLine imageannotationLinked" fill="#FFFF00" fill-opacity="0.2" height="129.724617" id="svg_18" stroke="#000000" stroke-opacity="0.5" transform="rotate(87, 2131.36, 2780.88)" width="2893.84652" x="684.431978" xlink:href="#li" y="2716.014871"/>
  <rect class=" imageannotationLine imageannotationLinked" fill="#FFFF00" fill-opacity="0.2" height="120" id="svg_20" stroke="#000000" stroke-opacity="0.5" transform="rotate(88, 1911.5, 2696.13)" width="2673.846602" x="574.576693" xlink:href="#lj" y="2636.131836"/>
  <rect class=" imageannotationLine imageannotationLinked" fill="#FFFF00" fill-opacity="0.2" height="134.990889" id="svg_22" stroke="#000000" stroke-opacity="0.5" transform="rotate(88, 1719.01, 2543.89)" width="2398.846656" x="519.588354" xlink:href="#lk" y="2476.3994"/>
  <rect class=" imageannotationLine imageannotationLinked" fill="#FFFF00" fill-opacity="0.2" height="120" id="svg_24" stroke="#000000" stroke-opacity="0.5" transform="rotate(89, 1476.5, 2973.63)" width="3228.846344" x="-137.923634" xlink:href="#ll" y="2913.631836"/>
  <rect class=" imageannotationLine imageannotationLinked" fill="#FFFF00" fill-opacity="0.2" height="130.168529" id="svg_26" stroke="#000000" stroke-opacity="0.5" transform="rotate(88, 1286.43, 3091.66)" width="3443.846279" x="-435.488945" xlink:href="#lm" y="3026.570971"/>
  <rect class=" imageannotationLine imageannotationLinked" fill="#FFFF00" fill-opacity="0.2" height="140.171485" id="svg_28" stroke="#000000" stroke-opacity="0.5" transform="rotate(89, 1066.42, 2988.81)" width="3208.846471" x="-538.008183" xlink:href="#ln" y="2918.721553"/>
  <rect class=" imageannotationLine imageannotationLinked" fill="#FFFF00" fill-opacity="0.2" height="120" id="svg_30" stroke="#000000" stroke-opacity="0.5" transform="rotate(89, 871.502, 3036.13)" width="3353.846348" x="-805.423669" xlink:href="#lo" y="2976.131836"/>
 </g>

</svg>