<?xml version="1.0" encoding="UTF-8" standalone="no"?><svg xmlns="http://www.w3.org/2000/svg" xmlns:xlink="http://www.w3.org/1999/xlink" height="6144" width="4096">
 <g>
  <title>Layer 1</title>
  <rect class=" imageannotationLine imageannotationLinked" fill="#FFFF00" fill-opacity="0.2" height="120" id="svg_2" stroke="#000000" stroke-opacity="0.5" transform="rotate(90, 3530.66, 1112.96)" width="415.756171" x="3322.783714" xlink:href="#la" y="1052.963852"/>
  <rect class=" imageannotationLine imageannotationLinked" fill="#FFFF00" fill-opacity="0.2" height="100.012186" id="svg_6" stroke="#000000" stroke-opacity="0.5" transform="rotate(88, 3583.74, 4170.11)" width="1195.882242" x="2985.796201" xlink:href="#lb" y="4120.103566"/>
  <rect class=" imageannotationLine imageannotationLinked" fill="#FFFF00" fill-opacity="0.2" height="120" id="svg_8" stroke="#000000" stroke-opacity="0.5" transform="rotate(90, 3350.66, 2492.97)" width="255.757878" x="3222.781112" xlink:href="#lc" y="2432.965175"/>
  <rect class=" imageannotationLine imageannotationLinked" fill="#FFFF00" fill-opacity="0.2" height="133.324903" id="svg_10" stroke="#000000" stroke-opacity="0.5" transform="rotate(88, 3207.16, 3079.61)" width="3782.207996" x="1316.052802" xlink:href="#ld" y="3012.947654"/>
  <rect class=" imageannotationLine imageannotationLinked" fill="#FFFF00" fill-opacity="0.2" height="99.999998" id="svg_12" stroke="#000000" stroke-opacity="0.5" transform="rotate(90, 3013.99, 2496.3)" width="262.423159" x="2882.782359" xlink:href="#le" y="2446.299623"/>
  <rect class=" imageannotationLine imageannotationLinked" fill="#FFFF00" fill-opacity="0.2" height="100" id="svg_14" stroke="#000000" stroke-opacity="0.5" transform="rotate(89, 2860.97, 3083.27)" width="3809.091064" x="956.421303" xlink:href="#lf" y="3033.269377"/>
  <rect class=" imageannotationLine imageannotationLinked" fill="#FFFF00" fill-opacity="0.2" height="100" id="svg_16" stroke="#000000" stroke-opacity="0.5" transform="rotate(88, 2667.63, 3063.27)" width="3809.091064" x="763.087912" xlink:href="#lg" y="3013.269389"/>
  <rect class=" imageannotationLine imageannotationLinked" fill="#FFFF00" fill-opacity="0.2" height="100" id="svg_18" stroke="#000000" stroke-opacity="0.5" transform="rotate(88, 2473.99, 2502.97)" width="2609.09071" x="1169.447392" xlink:href="#lh" y="2452.967334"/>
  <rect class=" imageannotationLine imageannotationLinked" fill="#FFFF00" fill-opacity="0.2" height="126.666665" id="svg_20" stroke="#000000" stroke-opacity="0.5" transform="rotate(90, 2287.33, 2446.3)" width="215.756468" x="2179.448066" xlink:href="#li" y="2382.968115"/>
  <rect class=" imageannotationLine imageannotationLinked" fill="#FFFF00" fill-opacity="0.2" height="100" id="svg_22" stroke="#000000" stroke-opacity="0.5" transform="rotate(90, 2187.33, 4249.63)" width="1502.423579" x="1436.117802" xlink:href="#lj" y="4199.635078"/>
  <rect class=" imageannotationLine imageannotationLinked" fill="#FFFF00" fill-opacity="0.2" height="100" id="svg_28" stroke="#000000" stroke-opacity="0.5" transform="rotate(90, 2140.66, 2422.97)" width="302.423178" x="1989.450672" xlink:href="#lk" y="2372.967185"/>
  <rect class=" imageannotationLine imageannotationLinked" fill="#FFFF00" fill-opacity="0.2" height="126.667228" id="svg_30" stroke="#000000" stroke-opacity="0.5" transform="rotate(91, 1994, 3102.97)" width="3809.091064" x="89.450849" xlink:href="#ll" y="3039.637889"/>
  <rect class=" imageannotationLine imageannotationLinked" fill="#FFFF00" fill-opacity="0.2" height="100" id="svg_34" stroke="#000000" stroke-opacity="0.5" transform="rotate(88, 1633.99, 2676.3)" width="2835.757431" x="216.11629" xlink:href="#lm" y="2626.30071"/>
  <rect class=" imageannotationLine imageannotationLinked" fill="#FFFF00" fill-opacity="0.2" height="126.666665" id="svg_36" stroke="#000000" stroke-opacity="0.5" transform="rotate(90, 1427.33, 2509.64)" width="289.089895" x="1282.783948" xlink:href="#ln" y="2446.30351"/>
  <rect class=" imageannotationLine imageannotationLinked" fill="#FFFF00" fill-opacity="0.2" height="139.975631" id="svg_38" stroke="#000000" stroke-opacity="0.5" transform="rotate(88, 1436.42, 3974.97)" width="1581.025621" x="645.911367" xlink:href="#lo" y="3904.987509"/>
  <rect class=" imageannotationLine imageannotationLinked" fill="#FFFF00" fill-opacity="0.2" height="126.666665" id="svg_40" stroke="#000000" stroke-opacity="0.5" transform="rotate(90, 1200.66, 2542.97)" width="289.088817" x="1056.116139" xlink:href="#lp" y="2479.635172"/>
  <rect class=" imageannotationLine imageannotationLinked" fill="#FFFF00" fill-opacity="0.2" height="100" id="svg_42" stroke="#000000" stroke-opacity="0.5" transform="rotate(89, 1060.66, 3096.3)" width="3729.090965" x="-803.882404" xlink:href="#lq" y="3046.29915"/>
  <rect class=" imageannotationLine imageannotationLinked" fill="#FFFF00" fill-opacity="0.2" height="100" id="svg_44" stroke="#000000" stroke-opacity="0.5" transform="rotate(89, 833.992, 2486.3)" width="2549.090522" x="-440.551484" xlink:href="#lr" y="2436.299361"/>
  <rect class=" imageannotationLine imageannotationLinked" fill="#FFFF00" fill-opacity="0.2" height="133.333337" id="svg_46" stroke="#000000" stroke-opacity="0.5" transform="rotate(90, 650.664, 2576.3)" width="209.089803" x="546.118964" xlink:href="#ls" y="2509.636258"/>
  <rect class=" imageannotationLine imageannotationLinked" fill="#FFFF00" fill-opacity="0.2" height="113.333333" id="svg_48" stroke="#000000" stroke-opacity="0.5" transform="rotate(90, 540.661, 4202.97)" width="1249.090331" x="-83.882568" xlink:href="#lt" y="4146.299637"/>
  <rect class=" imageannotationLine imageannotationLinked" fill="#FFFF00" fill-opacity="0.2" height="100" id="svg_50" stroke="#000000" stroke-opacity="0.5" transform="rotate(90, 240.661, 2209.63)" width="395.755697" x="42.782518" xlink:href="#lu" y="2159.634755"/>
  <rect class=" imageannotationLine imageannotationLinked" fill="#FFFF00" fill-opacity="0.2" height="100" id="svg_52" stroke="#000000" stroke-opacity="0.5" transform="rotate(90, 1800.66, 4212.97)" width="1095.756745" x="1252.778224" xlink:href="#lv" y="4162.965492"/>
 </g>

</svg>