<?xml version="1.0" encoding="UTF-8" standalone="no"?><svg xmlns="http://www.w3.org/2000/svg" xmlns:xlink="http://www.w3.org/1999/xlink" height="6144.000000000001" width="4096">
 <g>
  <title>Layer 1</title>
  <rect class=" imageannotationLine imageannotationLinked" fill="#FFFF00" fill-opacity="0.2" height="99.999995" id="svg_2" stroke="#000000" stroke-opacity="0.5" transform="rotate(90, 3467.27, 1150)" width="274.910059" x="3329.8196" xlink:href="#la" y="1100.000162"/>
  <rect class=" imageannotationLine imageannotationLinked" fill="#FFFF00" fill-opacity="0.2" height="85.183464" id="svg_4" stroke="#000000" stroke-opacity="0.5" transform="rotate(88, 3244.05, 2571.43)" width="2880.915278" x="1803.595841" xlink:href="#lb" y="2528.835359"/>
  <rect class=" imageannotationLine imageannotationLinked" fill="#FFFF00" fill-opacity="0.2" height="59.438473" id="svg_6" stroke="#000000" stroke-opacity="0.5" transform="rotate(89, 3078.38, 2800.74)" width="3446.43525" x="1355.162946" xlink:href="#lc" y="2771.015005"/>
  <rect class=" imageannotationLine imageannotationLinked" fill="#FFFF00" fill-opacity="0.2" height="69.524378" id="svg_8" stroke="#000000" stroke-opacity="0.5" transform="rotate(89, 2937.79, 2605.56)" width="3059.312422" x="1408.134075" xlink:href="#ld" y="2570.793838"/>
  <rect class=" imageannotationLine imageannotationLinked" fill="#FFFF00" fill-opacity="0.2" height="84.524577" id="svg_10" stroke="#000000" stroke-opacity="0.5" transform="rotate(90, 2793.78, 2568.74)" width="3065.9092" x="1260.82044" xlink:href="#le" y="2526.474269"/>
  <rect class=" imageannotationLine imageannotationLinked" fill="#FFFF00" fill-opacity="0.2" height="79.524508" id="svg_12" stroke="#000000" stroke-opacity="0.5" transform="rotate(90, 2733.78, 3103.74)" width="890.909842" x="2288.319986" xlink:href="#lf" y="3063.975496"/>
  <rect class=" imageannotationLine imageannotationLinked" fill="#FFFF00" fill-opacity="0.2" height="84.524568" id="svg_14" stroke="#000000" stroke-opacity="0.5" transform="rotate(90, 2648.78, 2811.24)" width="3490.908906" x="903.321133" xlink:href="#lg" y="2768.971988"/>
  <rect class=" imageannotationLine imageannotationLinked" fill="#FFFF00" fill-opacity="0.2" height="124.525096" id="svg_16" stroke="#000000" stroke-opacity="0.5" transform="rotate(90, 2508.78, 2506.24)" width="140.910096" x="2438.324055" xlink:href="#lh" y="2443.978284"/>
  <rect class=" imageannotationLine imageannotationLinked" fill="#FFFF00" fill-opacity="0.2" height="54.524158" id="svg_18" stroke="#000000" stroke-opacity="0.5" transform="rotate(90, 2563.78, 1726.24)" width="120.910122" x="2503.319929" xlink:href="#li" y="1698.975474"/>
  <rect class=" imageannotationLine imageannotationLinked" fill="#FFFF00" fill-opacity="0.2" height="59.522455" id="svg_20" stroke="#000000" stroke-opacity="0.5" transform="rotate(88, 2494.91, 1491.09)" width="866.330879" x="2061.739037" xlink:href="#lj" y="1461.328962"/>
  <rect class=" imageannotationLine imageannotationLinked" fill="#FFFF00" fill-opacity="0.2" height="89.430423" id="svg_24" stroke="#000000" stroke-opacity="0.5" transform="rotate(89, 2401.4, 2831.19)" width="3569.773221" x="616.518693" xlink:href="#lk" y="2786.474853"/>
  <rect class=" imageannotationLine imageannotationLinked" fill="#FFFF00" fill-opacity="0.2" height="84.430372" id="svg_26" stroke="#000000" stroke-opacity="0.5" transform="rotate(90, 2328.77, 3806.28)" width="220.910089" x="2218.320834" xlink:href="#ll" y="3764.065867"/>
  <rect class=" imageannotationLine imageannotationLinked" fill="#FFFF00" fill-opacity="0.2" height="89.430416" id="svg_28" stroke="#000000" stroke-opacity="0.5" transform="rotate(90, 2253.78, 2798.78)" width="3470.908869" x="518.323325" xlink:href="#lm" y="2754.068805"/>
  <rect class=" imageannotationLine imageannotationLinked" fill="#FFFF00" fill-opacity="0.2" height="59.430167" id="svg_30" stroke="#000000" stroke-opacity="0.5" transform="rotate(90, 2153.78, 1711.29)" width="1185.909759" x="1560.819522" xlink:href="#ln" y="1681.569667"/>
  <rect class=" imageannotationLine imageannotationLinked" fill="#FFFF00" fill-opacity="0.2" height="109.430576" id="svg_32" stroke="#000000" stroke-opacity="0.5" transform="rotate(90, 2118.78, 2486.29)" width="165.910114" x="2035.820214" xlink:href="#lo" y="2431.568904"/>
  <rect class=" imageannotationLine imageannotationLinked" fill="#FFFF00" fill-opacity="0.2" height="74.43029" id="svg_34" stroke="#000000" stroke-opacity="0.5" transform="rotate(90, 2123.78, 3078.79)" width="565.909984" x="1840.819924" xlink:href="#lp" y="3041.569545"/>
  <rect class=" imageannotationLine imageannotationLinked" fill="#FFFF00" fill-opacity="0.2" height="79.167955" id="svg_36" stroke="#000000" stroke-opacity="0.5" transform="rotate(89, 2009.82, 2530.87)" width="2936.076926" x="541.778973" xlink:href="#lq" y="2491.289237"/>
  <rect class=" imageannotationLine imageannotationLinked" fill="#FFFF00" fill-opacity="0.2" height="65.832018" id="svg_38" stroke="#000000" stroke-opacity="0.5" transform="rotate(89, 1893.78, 1626.42)" width="810.90986" x="1488.319745" xlink:href="#lr" y="1593.500183"/>
  <rect class=" imageannotationLine imageannotationLinked" fill="#FFFF00" fill-opacity="0.2" height="95.831998" id="svg_40" stroke="#000000" stroke-opacity="0.5" transform="rotate(90, 1796.28, 2788.08)" width="3460.909109" x="65.821879" xlink:href="#ls" y="2740.163866"/>
  <rect class=" imageannotationLine imageannotationLinked" fill="#FFFF00" fill-opacity="0.2" height="120.83199" id="svg_42" stroke="#000000" stroke-opacity="0.5" transform="rotate(90, 1663.77, 2438.08)" width="200.910088" x="1563.320134" xlink:href="#lt" y="2377.667202"/>
  <rect class=" imageannotationLine imageannotationLinked" fill="#FFFF00" fill-opacity="0.2" height="70.832013" id="svg_44" stroke="#000000" stroke-opacity="0.5" transform="rotate(90, 1681.28, 3448.08)" width="1145.909768" x="1108.319825" xlink:href="#lu" y="3412.668006"/>
  <rect class=" imageannotationLine imageannotationLinked" fill="#FFFF00" fill-opacity="0.2" height="76.005781" id="svg_48" stroke="#000000" stroke-opacity="0.5" transform="rotate(89, 1574.85, 2888.19)" width="3596.150637" x="-223.229068" xlink:href="#lv" y="2850.1919"/>
  <rect class=" imageannotationLine imageannotationLinked" fill="#FFFF00" fill-opacity="0.2" height="110.826673" id="svg_50" stroke="#000000" stroke-opacity="0.5" transform="rotate(89, 1455.12, 2590.08)" width="3116.398293" x="-103.080249" xlink:href="#lw" y="2534.663845"/>
  <rect class=" imageannotationLine imageannotationLinked" fill="#FFFF00" fill-opacity="0.2" height="135.825842" id="svg_52" stroke="#000000" stroke-opacity="0.5" transform="rotate(90, 1278.78, 2385.58)" width="240.91007" x="1158.322682" xlink:href="#lx" y="2317.672525"/>
  <rect class=" imageannotationLine imageannotationLinked" fill="#FFFF00" fill-opacity="0.2" height="95.825358" id="svg_54" stroke="#000000" stroke-opacity="0.5" transform="rotate(90, 1286.27, 2963.08)" width="580.909991" x="995.816207" xlink:href="#ly" y="2915.17064"/>
  <rect class=" imageannotationLine imageannotationLinked" fill="#FFFF00" fill-opacity="0.2" height="80.825176" id="svg_56" stroke="#000000" stroke-opacity="0.5" transform="rotate(90, 1178.78, 2358.09)" width="2640.908957" x="-141.675928" xlink:href="#lz" y="2317.675592"/>
  <rect class=" imageannotationLine imageannotationLinked" fill="#FFFF00" fill-opacity="0.2" height="75.825118" id="svg_58" stroke="#000000" stroke-opacity="0.5" transform="rotate(90, 1133.77, 3365.59)" width="460.909992" x="903.319888" xlink:href="#laa" y="3327.674042"/>
  <rect class=" imageannotationLine imageannotationLinked" fill="#FFFF00" fill-opacity="0.2" height="120.825656" id="svg_60" stroke="#000000" stroke-opacity="0.5" transform="rotate(90, 1048.78, 2703.08)" width="3270.909152" x="-586.677796" xlink:href="#lab" y="2642.670312"/>
  <rect class=" imageannotationLine imageannotationLinked" fill="#FFFF00" fill-opacity="0.2" height="80.825177" id="svg_62" stroke="#000000" stroke-opacity="0.5" transform="rotate(90, 973.775, 2513.09)" width="650.90995" x="648.319652" xlink:href="#lac" y="2472.674527"/>
  <rect class=" imageannotationLine imageannotationLinked" fill="#FFFF00" fill-opacity="0.2" height="120.825657" id="svg_64" stroke="#000000" stroke-opacity="0.5" transform="rotate(90, 836.275, 2398.09)" width="145.910112" x="763.320208" xlink:href="#lad" y="2337.673996"/>
  <rect class=" imageannotationLine imageannotationLinked" fill="#FFFF00" fill-opacity="0.2" height="110.825535" id="svg_66" stroke="#000000" stroke-opacity="0.5" transform="rotate(90, 801.275, 2733.08)" width="3335.909242" x="-866.677858" xlink:href="#lae" y="2677.670291"/>
  <rect class=" imageannotationLine imageannotationLinked" fill="#FFFF00" fill-opacity="0.2" height="85.825232" id="svg_68" stroke="#000000" stroke-opacity="0.5" transform="rotate(90, 653.775, 2765.58)" width="3440.908971" x="-1066.677985" xlink:href="#laf" y="2722.670698"/>
 </g>

</svg>