<?xml version="1.0" encoding="UTF-8" standalone="no"?><svg xmlns="http://www.w3.org/2000/svg" xmlns:xlink="http://www.w3.org/1999/xlink" height="6144" width="4096">
 <g>
  <title>Layer 1</title>
  <rect class=" imageannotationLine imageannotationLinked" fill="#FFFF00" fill-opacity="0.2" height="120" id="svg_3" stroke="#000000" stroke-opacity="0.5" transform="rotate(89, 3193.24, 1756.49)" width="926.635676" x="2729.924372" xlink:href="#la" y="1696.483754"/>
  <rect class=" imageannotationLine imageannotationLinked" fill="#FFFF00" fill-opacity="0.2" height="120" id="svg_5" stroke="#000000" stroke-opacity="0.5" transform="rotate(89, 3092.3, 2500.23)" width="2778.193679" x="1703.203247" xlink:href="#lb" y="2440.23624"/>
  <rect class=" imageannotationLine imageannotationLinked" fill="#FFFF00" fill-opacity="0.2" height="91.655216" id="svg_7" stroke="#000000" stroke-opacity="0.5" transform="rotate(89, 2963.4, 2689.19)" width="3152.530753" x="1387.138273" xlink:href="#lc" y="2643.36569"/>
  <rect class=" imageannotationLine imageannotationLinked" fill="#FFFF00" fill-opacity="0.2" height="104.00266" id="svg_9" stroke="#000000" stroke-opacity="0.5" transform="rotate(89, 2778.1, 2583.49)" width="2919.518956" x="1318.342938" xlink:href="#ld" y="2531.483411"/>
  <rect class=" imageannotationLine imageannotationLinked" fill="#FFFF00" fill-opacity="0.2" height="120" id="svg_11" stroke="#000000" stroke-opacity="0.5" transform="rotate(89, 2579.88, 2533.62)" width="2973.276208" x="1093.241591" xlink:href="#le" y="2473.619605"/>
  <rect class=" imageannotationLine imageannotationLinked" fill="#FFFF00" fill-opacity="0.2" height="120" id="svg_13" stroke="#000000" stroke-opacity="0.5" transform="rotate(89, 2240.59, 2725.92)" width="3304.158516" x="588.506409" xlink:href="#lf" y="2665.917224"/>
  <rect class=" imageannotationLine imageannotationLinked" fill="#FFFF00" fill-opacity="0.2" height="120" id="svg_15" stroke="#000000" stroke-opacity="0.5" transform="rotate(89, 2073.78, 2700.62)" width="3144.322557" x="501.622413" xlink:href="#lg" y="2640.619627"/>
  <rect class=" imageannotationLine imageannotationLinked" fill="#FFFF00" fill-opacity="0.2" height="120" id="svg_17" stroke="#000000" stroke-opacity="0.5" transform="rotate(89, 882.041, 2572.9)" width="2639.491596" x="-437.704563" xlink:href="#Komm" y="2512.896797"/>
  <rect class=" imageannotationLine imageannotationLinked" fill="#FFFF00" fill-opacity="0.2" height="120" id="svg_19" stroke="#000000" stroke-opacity="0.5" transform="rotate(89, 745.817, 2859.31)" width="3160.180268" x="-834.272195" xlink:href="#lh" y="2799.306526"/>
  <rect class=" imageannotationLine imageannotationLinked" fill="#FFFF00" fill-opacity="0.2" height="120" id="svg_22" stroke="#000000" stroke-opacity="0.5" transform="rotate(-90, 1084, 2370.7)" width="2831.999706" x="-332.004018" xlink:href="#li" y="2310.697022"/>
  <rect class=" imageannotationLine imageannotationLinked" fill="#FFFF00" fill-opacity="0.2" height="120" id="svg_24" stroke="#000000" stroke-opacity="0.5" transform="rotate(-90, 1288, 2550.7)" width="3111.99959" x="-267.999941" xlink:href="#lj" y="2490.693237"/>
  <rect class=" imageannotationLine imageannotationLinked" fill="#FFFF00" fill-opacity="0.2" height="111.861598" id="svg_26" stroke="#000000" stroke-opacity="0.5" transform="rotate(-91, 1494.02, 2496.1)" width="3111.024265" x="-61.492773" xlink:href="#lk" y="2440.16535"/>
  <rect class=" imageannotationLine imageannotationLinked" fill="#FFFF00" fill-opacity="0.2" height="100.072854" id="svg_28" stroke="#000000" stroke-opacity="0.5" transform="rotate(-91, 1687.29, 2494.64)" width="3039.743508" x="167.41702" xlink:href="#ll" y="2444.60521"/>
  <rect class=" imageannotationLine imageannotationLinked" fill="#FFFF00" fill-opacity="0.2" height="99.999998" id="svg_30" stroke="#000000" stroke-opacity="0.5" transform="rotate(-90, 1910, 3844.69)" width="1363.999846" x="1227.996234" xlink:href="#lm" y="3794.696275"/>
 </g>

</svg>