<?xml version="1.0" encoding="UTF-8" standalone="no"?><svg xmlns="http://www.w3.org/2000/svg" xmlns:xlink="http://www.w3.org/1999/xlink" height="6144.000000000001" width="4096">
 <g>
  <title>Layer 1</title>
  <rect class=" imageannotationLine imageannotationLinked" fill="#FFFF00" fill-opacity="0.2" height="100.000001" id="svg_2" stroke="#000000" stroke-opacity="0.5" transform="rotate(90, 3224, 2473.5)" width="559.546638" x="2944.227023" xlink:href="#la" y="2423.499631"/>
  <rect class=" imageannotationLine imageannotationLinked" fill="#FFFF00" fill-opacity="0.2" height="124.73832" id="svg_4" stroke="#000000" stroke-opacity="0.5" transform="rotate(87, 3076.12, 2343.78)" width="1700.083208" x="2226.082197" xlink:href="#lb" y="2281.410826"/>
  <rect class=" imageannotationLine imageannotationLinked" fill="#FFFF00" fill-opacity="0.2" height="105.117165" id="svg_6" stroke="#000000" stroke-opacity="0.5" transform="rotate(86, 2961.54, 2788.32)" width="2649.545878" x="1636.767605" xlink:href="#lc" y="2735.766412"/>
  <rect class=" imageannotationLine imageannotationLinked" fill="#FFFF00" fill-opacity="0.2" height="124.943" id="svg_8" stroke="#000000" stroke-opacity="0.5" transform="rotate(85, 2786.44, 2487.85)" width="2039.546075" x="1766.668799" xlink:href="#ld" y="2425.379463"/>
  <rect class=" imageannotationLine imageannotationLinked" fill="#FFFF00" fill-opacity="0.2" height="110" id="svg_10" stroke="#000000" stroke-opacity="0.5" transform="rotate(87, 2564, 2561)" width="2134.546077" x="1496.726566" xlink:href="#le" y="2505.999573"/>
  <rect class=" imageannotationLine imageannotationLinked" fill="#FFFF00" fill-opacity="0.2" height="105.352044" id="svg_12" stroke="#000000" stroke-opacity="0.5" transform="rotate(88, 2441.68, 2858.58)" width="2659.545721" x="1111.903867" xlink:href="#lf" y="2805.904436"/>
  <rect class=" imageannotationLine imageannotationLinked" fill="#FFFF00" fill-opacity="0.2" height="95.183636" id="svg_14" stroke="#000000" stroke-opacity="0.5" transform="rotate(88, 2336.16, 2618.86)" width="2219.356319" x="1226.482397" xlink:href="#Wir-begehren" y="2571.268542"/>
  <rect class=" imageannotationLine imageannotationLinked" fill="#FFFF00" fill-opacity="0.2" height="110" id="svg_16" stroke="#000000" stroke-opacity="0.5" transform="rotate(89, 2229, 2836)" width="2544.545866" x="956.726564" xlink:href="#lg" y="2780.999573"/>
  <rect class=" imageannotationLine imageannotationLinked" fill="#FFFF00" fill-opacity="0.2" height="124.99999" id="svg_18" stroke="#000000" stroke-opacity="0.5" transform="rotate(90, 2016.5, 2601)" width="2364.545843" x="834.227295" xlink:href="#lh" y="2538.499234"/>
  <rect class=" imageannotationLine imageannotationLinked" fill="#FFFF00" fill-opacity="0.2" height="104.99771" id="svg_20" stroke="#000000" stroke-opacity="0.5" transform="rotate(89, 1656.5, 2513.63)" width="2189.546023" x="561.729136" xlink:href="#li" y="2461.131865"/>
  <rect class=" imageannotationLine imageannotationLinked" fill="#FFFF00" fill-opacity="0.2" height="141.31391" id="svg_22" stroke="#000000" stroke-opacity="0.5" transform="rotate(88, 1484.88, 2610.84)" width="2414.632257" x="277.561502" xlink:href="#lj" y="2540.181785"/>
  <rect class=" imageannotationLine imageannotationLinked" fill="#FFFF00" fill-opacity="0.2" height="95.000001" id="svg_24" stroke="#000000" stroke-opacity="0.5" transform="rotate(88, 1391.5, 2878.5)" width="549.546605" x="1116.726586" xlink:href="#lk" y="2830.99964"/>
  <rect class=" imageannotationLine imageannotationLinked" fill="#FFFF00" fill-opacity="0.2" height="110" id="svg_26" stroke="#000000" stroke-opacity="0.5" transform="rotate(89, 1249, 2696)" width="2604.545775" x="-53.273437" xlink:href="#ll" y="2640.999573"/>
  <rect class=" imageannotationLine imageannotationLinked" fill="#FFFF00" fill-opacity="0.2" height="120.000004" id="svg_28" stroke="#000000" stroke-opacity="0.5" transform="rotate(90, 1064, 3443.5)" width="629.546589" x="749.226479" xlink:href="#lm" y="3383.499414"/>
  <rect class=" imageannotationLine imageannotationLinked" fill="#FFFF00" fill-opacity="0.2" height="114.999995" id="svg_30" stroke="#000000" stroke-opacity="0.5" transform="rotate(90, 981.5, 2651)" width="2374.54578" x="-205.773315" xlink:href="#ln" y="2593.499677"/>
  <rect class=" imageannotationLine imageannotationLinked" fill="#FFFF00" fill-opacity="0.2" height="80.000002" id="svg_32" stroke="#000000" stroke-opacity="0.5" transform="rotate(89, 859, 2236)" width="1574.546395" x="71.726609" xlink:href="#lo" y="2195.999798"/>
  <rect class=" imageannotationLine imageannotationLinked" fill="#FFFF00" fill-opacity="0.2" height="103.763285" id="svg_34" stroke="#000000" stroke-opacity="0.5" transform="rotate(88, 775.875, 2808.08)" width="2779.545715" x="-613.898866" xlink:href="#lp" y="2756.203535"/>
  <rect class=" imageannotationLine imageannotationLinked" fill="#FFFF00" fill-opacity="0.2" height="99.813318" id="svg_36" stroke="#000000" stroke-opacity="0.5" transform="rotate(88, 643.901, 2640.65)" width="2314.54598" x="-513.372782" xlink:href="#lq" y="2590.747168"/>
  <rect class=" imageannotationLine imageannotationLinked" fill="#FFFF00" fill-opacity="0.2" height="109.981728" id="svg_38" stroke="#000000" stroke-opacity="0.5" transform="rotate(88, 498.398, 2596.19)" width="2215.963273" x="-609.583015" xlink:href="#lr" y="2541.204995"/>
  <rect class=" imageannotationLine imageannotationLinked" fill="#FFFF00" fill-opacity="0.2" height="119.718656" id="svg_40" stroke="#000000" stroke-opacity="0.5" transform="rotate(89, 363.388, 2868.9)" width="2691.210623" x="-982.218412" xlink:href="#ls" y="2809.044582"/>
  <rect class=" imageannotationLine imageannotationLinked" fill="#FFFF00" fill-opacity="0.2" height="90.013707" id="svg_42" stroke="#000000" stroke-opacity="0.5" transform="rotate(87, 2258.99, 1180.74)" width="344.546724" x="2086.712678" xlink:href="#lt" y="1135.731095"/>
  <rect class=" imageannotationLine imageannotationLinked" fill="#FFFF00" fill-opacity="0.2" height="80.000004" id="svg_44" stroke="#000000" stroke-opacity="0.5" transform="rotate(90, 2134, 1233.5)" width="189.546806" x="2039.226623" xlink:href="#lu" y="1193.499567"/>
 </g>

</svg>