<?xml version="1.0" encoding="UTF-8" standalone="no"?><svg xmlns="http://www.w3.org/2000/svg" xmlns:xlink="http://www.w3.org/1999/xlink" height="6144.000000000001" width="4096">
 <g>
  <title>Layer 1</title>
  <rect class=" imageannotationLine imageannotationLinked" fill="#FFFF00" fill-opacity="0.2" height="105" id="svg_2" stroke="#000000" stroke-opacity="0.5" transform="rotate(90, 3846.5, 751)" width="362.500012" x="3665.249932" xlink:href="#la" y="698.500107"/>
  <rect class=" imageannotationLine imageannotationLinked" fill="#FFFF00" fill-opacity="0.2" height="89.657096" id="svg_4" stroke="#000000" stroke-opacity="0.5" transform="rotate(88, 3726.32, 2676.79)" width="3274.345493" x="2089.149736" xlink:href="#lb" y="2631.963197"/>
  <rect class=" imageannotationLine imageannotationLinked" fill="#FFFF00" fill-opacity="0.2" height="100" id="svg_6" stroke="#000000" stroke-opacity="0.5" transform="rotate(88, 3582.87, 2537.96)" width="3026.20615" x="2069.765499" xlink:href="#lc" y="2487.959862"/>
  <rect class=" imageannotationLine imageannotationLinked" fill="#FFFF00" fill-opacity="0.2" height="100" id="svg_8" stroke="#000000" stroke-opacity="0.5" transform="rotate(88, 3430.65, 2670.34)" width="3303.105664" x="1779.101973" xlink:href="#ld" y="2620.343742"/>
  <rect class=" imageannotationLine imageannotationLinked" fill="#FFFF00" fill-opacity="0.2" height="100" id="svg_10" stroke="#000000" stroke-opacity="0.5" transform="rotate(90, 3279, 2381)" width="202.499997" x="3177.750006" xlink:href="#le" y="2331.000061"/>
  <rect class=" imageannotationLine imageannotationLinked" fill="#FFFF00" fill-opacity="0.2" height="100" id="svg_12" stroke="#000000" stroke-opacity="0.5" transform="rotate(89, 3157.75, 2712.98)" width="3408.464491" x="1453.514418" xlink:href="#lf" y="2662.984389"/>
  <rect class=" imageannotationLine imageannotationLinked" fill="#FFFF00" fill-opacity="0.2" height="103.775477" id="svg_14" stroke="#000000" stroke-opacity="0.5" transform="rotate(88, 2976.79, 1902.8)" width="1832.36729" x="2060.602118" xlink:href="#lg" y="1850.914622"/>
  <rect class=" imageannotationLine imageannotationLinked" fill="#FFFF00" fill-opacity="0.2" height="59.999998" id="svg_16" stroke="#000000" stroke-opacity="0.5" transform="rotate(90, 2789, 1033.5)" width="87.499995" x="2745.249994" xlink:href="#lh" y="1003.500064"/>
  <rect class=" imageannotationLine imageannotationLinked" fill="#FFFF00" fill-opacity="0.2" height="101.215401" id="svg_18" stroke="#000000" stroke-opacity="0.5" transform="rotate(88, 2701.47, 2216.56)" width="2454.718146" x="1474.106962" xlink:href="#li" y="2165.955476"/>
  <rect class=" imageannotationLine imageannotationLinked" fill="#FFFF00" fill-opacity="0.2" height="125.079527" id="svg_20" stroke="#000000" stroke-opacity="0.5" transform="rotate(89, 2256.57, 2433.45)" width="2858.548202" x="827.294603" xlink:href="#lj" y="2370.913093"/>
  <rect class=" imageannotationLine imageannotationLinked" fill="#FFFF00" fill-opacity="0.2" height="93.770565" id="svg_22" stroke="#000000" stroke-opacity="0.5" transform="rotate(89, 2135.85, 2402.26)" width="2801.408366" x="735.141856" xlink:href="#lk" y="2355.377393"/>
  <rect class=" imageannotationLine imageannotationLinked" fill="#FFFF00" fill-opacity="0.2" height="89.292866" id="svg_24" stroke="#000000" stroke-opacity="0.5" transform="rotate(88, 2012.05, 2523)" width="2992.659993" x="515.720026" xlink:href="#ll" y="2478.355167"/>
  <rect class=" imageannotationLine imageannotationLinked" fill="#FFFF00" fill-opacity="0.2" height="104.981713" id="svg_26" stroke="#000000" stroke-opacity="0.5" transform="rotate(88, 1899.84, 2349.58)" width="2680.303577" x="559.685305" xlink:href="#lm" y="2297.091936"/>
  <rect class=" imageannotationLine imageannotationLinked" fill="#FFFF00" fill-opacity="0.2" height="104.737693" id="svg_28" stroke="#000000" stroke-opacity="0.5" transform="rotate(89, 1736.36, 2653.29)" width="1247.499975" x="1112.612789" xlink:href="#ln" y="2600.915618"/>
  <rect class=" imageannotationLine imageannotationLinked" fill="#FFFF00" fill-opacity="0.2" height="104.471852" id="svg_30" stroke="#000000" stroke-opacity="0.5" transform="rotate(89, 1610.39, 2667.41)" width="3221.826429" x="-0.521248" xlink:href="#lo" y="2615.1785"/>
  <rect class=" imageannotationLine imageannotationLinked" fill="#FFFF00" fill-opacity="0.2" height="120.69098" id="svg_32" stroke="#000000" stroke-opacity="0.5" transform="rotate(89, 1481.06, 2490.77)" width="2838.551262" x="61.789059" xlink:href="#lp" y="2430.427181"/>
  <rect class=" imageannotationLine imageannotationLinked" fill="#FFFF00" fill-opacity="0.2" height="100.694283" id="svg_34" stroke="#000000" stroke-opacity="0.5" transform="rotate(89, 1329.17, 2401)" width="2715.550908" x="-28.60318" xlink:href="#lq" y="2350.65219"/>
  <rect class=" imageannotationLine imageannotationLinked" fill="#FFFF00" fill-opacity="0.2" height="95.511299" id="svg_36" stroke="#000000" stroke-opacity="0.5" transform="rotate(88, 1195, 2518.46)" width="2964.8358" x="-287.418769" xlink:href="#lr" y="2470.699389"/>
  <rect class=" imageannotationLine imageannotationLinked" fill="#FFFF00" fill-opacity="0.2" height="84.999991" id="svg_38" stroke="#000000" stroke-opacity="0.5" transform="rotate(90, 1076.5, 2128.5)" width="157.500008" x="997.75012" xlink:href="#ls" y="2086.000196"/>
  <rect class=" imageannotationLine imageannotationLinked" fill="#FFFF00" fill-opacity="0.2" height="80.345938" id="svg_40" stroke="#000000" stroke-opacity="0.5" transform="rotate(88, 1048.97, 2860.07)" width="1240.824561" x="428.55842" xlink:href="#lt" y="2819.899948"/>
  <rect class=" imageannotationLine imageannotationLinked" fill="#FFFF00" fill-opacity="0.2" height="110.4354" id="svg_42" stroke="#000000" stroke-opacity="0.5" transform="rotate(89, 919.16, 2392.57)" width="2725.201769" x="-443.439734" xlink:href="#lu" y="2337.351471"/>
 </g>
</svg>