<?xml version="1.0" encoding="UTF-8" standalone="no"?><svg xmlns="http://www.w3.org/2000/svg" xmlns:xlink="http://www.w3.org/1999/xlink" height="6144" width="4096">
 <g>
  <title>Layer 1</title>
  <rect class=" imageannotationLine imageannotationLinked" fill="#FFFF00" fill-opacity="0.2" height="75" id="svg_2" stroke="#000000" stroke-opacity="0.5" transform="rotate(88, 2905.99, 1500.91)" width="2013.443367" x="1899.267707" xlink:href="#la" y="1463.412956"/>
  <rect class=" imageannotationLine imageannotationLinked" fill="#FFFF00" fill-opacity="0.2" height="60.009138" id="svg_4" stroke="#000000" stroke-opacity="0.5" transform="rotate(88, 2824.01, 1243.31)" width="697.726728" x="2475.145781" xlink:href="#lb" y="1213.302683"/>
  <rect class=" imageannotationLine imageannotationLinked" fill="#FFFF00" fill-opacity="0.2" height="75" id="svg_6" stroke="#000000" stroke-opacity="0.5" transform="rotate(88, 2756.5, 1720.55)" width="2272.727132" x="1620.136723" xlink:href="#Nach-jeder" y="1683.045471"/>
  <rect class=" imageannotationLine imageannotationLinked" fill="#FFFF00" fill-opacity="0.2" height="75" id="svg_8" stroke="#000000" stroke-opacity="0.5" transform="rotate(88, 2586.5, 1650.55)" width="2302.727115" x="1435.136722" xlink:href="#lc" y="1613.045471"/>
  <rect class=" imageannotationLine imageannotationLinked" fill="#FFFF00" fill-opacity="0.2" height="75" id="svg_10" stroke="#000000" stroke-opacity="0.5" transform="rotate(89, 2445.66, 1859.09)" width="2659.788222" x="1115.769849" xlink:href="#ld" y="1821.590614"/>
  <rect class=" imageannotationLine imageannotationLinked" fill="#FFFF00" fill-opacity="0.2" height="75" id="svg_12" stroke="#000000" stroke-opacity="0.5" transform="rotate(88, 2311.5, 1913.05)" width="2457.727224" x="1082.636725" xlink:href="#le" y="1875.545471"/>
  <rect class=" imageannotationLine imageannotationLinked" fill="#FFFF00" fill-opacity="0.2" height="90.000004" id="svg_14" stroke="#000000" stroke-opacity="0.5" transform="rotate(88, 2201, 1128.55)" width="1152.726915" x="1624.637088" xlink:href="#lf" y="1083.545587"/>
  <rect class=" imageannotationLine imageannotationLinked" fill="#FFFF00" fill-opacity="0.2" height="75" id="svg_16" stroke="#000000" stroke-opacity="0.5" transform="rotate(88, 2129.5, 1787.55)" width="2252.727199" x="1003.136719" xlink:href="#lg" y="1750.045471"/>
  <rect class=" imageannotationLine imageannotationLinked" fill="#FFFF00" fill-opacity="0.2" height="75" id="svg_20" stroke="#000000" stroke-opacity="0.5" transform="rotate(90, 2175.51, 3085.05)" width="259.726642" x="2045.641823" xlink:href="#lh" y="3047.552307"/>
  <rect class=" imageannotationLine imageannotationLinked" fill="#FFFF00" fill-opacity="0.2" height="75" id="svg_22" stroke="#000000" stroke-opacity="0.5" transform="rotate(88, 2009.5, 1964.55)" width="2724.727324" x="647.136718" xlink:href="#li" y="1927.051819"/>
  <rect class=" imageannotationLine imageannotationLinked" fill="#FFFF00" fill-opacity="0.2" height="75" id="svg_24" stroke="#000000" stroke-opacity="0.5" transform="rotate(88, 1872.5, 1916.55)" width="2620.727271" x="562.136722" xlink:href="#lj" y="1879.051819"/>
  <rect class=" imageannotationLine imageannotationLinked" fill="#FFFF00" fill-opacity="0.2" height="75" id="svg_11" stroke="#000000" stroke-opacity="0.5" transform="rotate(89, 2765.5, 4660)" width="2259.999983" x="1635.500018" xlink:href="#lk" y="4622.5"/>
  <rect class=" imageannotationLine imageannotationLinked" fill="#FFFF00" fill-opacity="0.2" height="75" id="svg_15" stroke="#000000" stroke-opacity="0.5" transform="rotate(89, 2605.5, 4452)" width="1844.00003" x="1683.499996" xlink:href="#ll" y="4414.5"/>
  <rect class=" imageannotationLine imageannotationLinked" fill="#FFFF00" fill-opacity="0.2" height="75" id="svg_18" stroke="#000000" stroke-opacity="0.5" transform="rotate(87, 2509.33, 4222.28)" width="1320.56154" x="1849.049342" xlink:href="#lm" y="4184.781929"/>
  <rect class=" imageannotationLine imageannotationLinked" fill="#FFFF00" fill-opacity="0.2" height="75" id="svg_21" stroke="#000000" stroke-opacity="0.5" transform="rotate(89, 2413.5, 4574)" width="2127.999996" x="1349.5" xlink:href="#ln" y="4536.5"/>
  <rect class=" imageannotationLine imageannotationLinked" fill="#FFFF00" fill-opacity="0.2" height="75" id="svg_25" stroke="#000000" stroke-opacity="0.5" transform="rotate(90, 2357.5, 5170)" width="144.000007" x="2285.500097" xlink:href="#lo" y="5132.5"/>
  <rect class=" imageannotationLine imageannotationLinked" fill="#FFFF00" fill-opacity="0.2" height="75" id="svg_27" stroke="#000000" stroke-opacity="0.5" transform="rotate(89, 2265.68, 4642.37)" width="2255.726292" x="1137.819902" xlink:href="#lp" y="4604.866087"/>
  <rect class=" imageannotationLine imageannotationLinked" fill="#FFFF00" fill-opacity="0.2" height="75" id="svg_29" stroke="#000000" stroke-opacity="0.5" transform="rotate(89, 2089.5, 4828)" width="723.999989" x="1727.500011" xlink:href="#lq" y="4790.5"/>
  <rect class=" imageannotationLine imageannotationLinked" fill="#FFFF00" fill-opacity="0.2" height="75" id="svg_31" stroke="#000000" stroke-opacity="0.5" transform="rotate(89, 1910, 4644.5)" width="2292" x="764" xlink:href="#lr" y="4607"/>
  <rect class=" imageannotationLine imageannotationLinked" fill="#FFFF00" fill-opacity="0.2" height="75" id="svg_33" stroke="#000000" stroke-opacity="0.5" transform="rotate(89, 1782, 4660.5)" width="2292" x="636" xlink:href="#ls" y="4623"/>
  <rect class=" imageannotationLine imageannotationLinked" fill="#FFFF00" fill-opacity="0.2" height="75" id="svg_35" stroke="#000000" stroke-opacity="0.5" transform="rotate(89, 1658, 4672.5)" width="2292" x="512" xlink:href="#Das-Licht" y="4635"/>
  <rect class=" imageannotationLine imageannotationLinked" fill="#FFFF00" fill-opacity="0.2" height="75" id="svg_37" stroke="#000000" stroke-opacity="0.5" transform="rotate(89, 1538, 4668.5)" width="2292" x="392" xlink:href="#Der-hohen" y="4631"/>
  <rect class=" imageannotationLine imageannotationLinked" fill="#FFFF00" fill-opacity="0.2" height="75" id="svg_40" stroke="#000000" stroke-opacity="0.5" transform="rotate(90, 1590, 3446)" width="96" x="1542" xlink:href="#lt" y="3337"/>
  <rect class=" imageannotationLine imageannotationLinked" fill="#FFFF00" fill-opacity="0.2" height="75" id="svg_42" stroke="#000000" stroke-opacity="0.5" transform="rotate(90, 1590, 3446)" width="96" x="1542" xlink:href="#lu" y="3513"/>
 </g>
</svg>