<?xml version="1.0" encoding="UTF-8" standalone="no"?><svg xmlns="http://www.w3.org/2000/svg" xmlns:xlink="http://www.w3.org/1999/xlink" height="6144.000000000001" width="4096">
 <g>
  <title>Layer 1</title>
  <rect class=" imageannotationLine imageannotationLinked" fill="#FFFF00" fill-opacity="0.2" height="120" id="svg_2" stroke="#000000" stroke-opacity="0.5" transform="rotate(86, 2959.39, 3407.4)" width="2975.833618" x="1471.471182" xlink:href="#la" y="3347.397956"/>
  <rect class=" imageannotationLine imageannotationLinked" fill="#FFFF00" fill-opacity="0.2" height="100.000008" id="svg_4" stroke="#000000" stroke-opacity="0.5" transform="rotate(90, 2339, 2036)" width="345.000004" x="2166.49993" xlink:href="#lb" y="1986.001729"/>
  <rect class=" imageannotationLine imageannotationLinked" fill="#FFFF00" fill-opacity="0.2" height="120" id="svg_6" stroke="#000000" stroke-opacity="0.5" transform="rotate(88, 2285.32, 3232.05)" width="2981.383342" x="794.626188" xlink:href="#lc" y="3172.054154"/>
  <rect class=" imageannotationLine imageannotationLinked" fill="#FFFF00" fill-opacity="0.2" height="120" id="svg_8" stroke="#000000" stroke-opacity="0.5" transform="rotate(88, 2112.49, 3226.22)" width="2819.624773" x="702.682555" xlink:href="#ld" y="3166.223724"/>
  <rect class=" imageannotationLine imageannotationLinked" fill="#FFFF00" fill-opacity="0.2" height="120" id="svg_10" stroke="#000000" stroke-opacity="0.5" transform="rotate(89, 1929, 3136)" width="2464.99998" x="696.499999" xlink:href="#le" y="3076.000061"/>
  <rect class=" imageannotationLine imageannotationLinked" fill="#FFFF00" fill-opacity="0.2" height="120" id="svg_12" stroke="#000000" stroke-opacity="0.5" transform="rotate(88, 1671.21, 2773.95)" width="2280.272441" x="531.069612" xlink:href="#lf" y="2713.946625"/>
  <rect class=" imageannotationLine imageannotationLinked" fill="#FFFF00" fill-opacity="0.2" height="75.000002" id="svg_14" stroke="#000000" stroke-opacity="0.5" transform="rotate(90, 1566.5, 2653.5)" width="249.999987" x="1441.499999" xlink:href="#lg" y="2616.000048"/>
  <rect class=" imageannotationLine imageannotationLinked" fill="#FFFF00" fill-opacity="0.2" height="120" id="svg_16" stroke="#000000" stroke-opacity="0.5" transform="rotate(88, 1478.81, 2890.74)" width="2608.531365" x="174.546021" xlink:href="#lh" y="2830.741608"/>
  <rect class=" imageannotationLine imageannotationLinked" fill="#FFFF00" fill-opacity="0.2" height="95.000002" id="svg_18" stroke="#000000" stroke-opacity="0.5" transform="rotate(90, 1321.5, 1918.5)" width="590.000008" x="1026.499997" xlink:href="#li" y="1871.000055"/>
  <rect class=" imageannotationLine imageannotationLinked" fill="#FFFF00" fill-opacity="0.2" height="105.020556" id="svg_20" stroke="#000000" stroke-opacity="0.5" transform="rotate(87, 1283.74, 2809.84)" width="2566.882038" x="0.296916" xlink:href="#lj" y="2757.326013"/>
  <rect class=" imageannotationLine imageannotationLinked" fill="#FFFF00" fill-opacity="0.2" height="114.999998" id="svg_22" stroke="#000000" stroke-opacity="0.5" transform="rotate(90, 1061.5, 2666)" width="384.999996" x="868.999866" xlink:href="#lk" y="2608.499933"/>
  <rect class=" imageannotationLine imageannotationLinked" fill="#FFFF00" fill-opacity="0.2" height="120" id="svg_24" stroke="#000000" stroke-opacity="0.5" transform="rotate(89, 837.906, 3011.01)" width="2909.456211" x="-616.822465" xlink:href="#ll" y="2951.011749"/>
 </g>

</svg>