<?xml version="1.0" encoding="UTF-8" standalone="no"?><svg xmlns="http://www.w3.org/2000/svg" xmlns:xlink="http://www.w3.org/1999/xlink" height="6144.000000000001" width="4096">
 <g>
  <title>Layer 1</title>
  <rect class=" imageannotationLine imageannotationLinked" fill="#FFFF00" fill-opacity="0.2" height="120" id="svg_2" stroke="#000000" stroke-opacity="0.5" transform="rotate(90, 3804, 4976.68)" width="244.089921" x="3681.953239" xlink:href="#la" y="4916.681686"/>
  <rect class=" imageannotationLine imageannotationLinked" fill="#FFFF00" fill-opacity="0.2" height="105" id="svg_4" stroke="#000000" stroke-opacity="0.5" transform="rotate(90, 3416.5, 2974.18)" width="2499.090639" x="2166.954795" xlink:href="#lb" y="2921.68145"/>
  <rect class=" imageannotationLine imageannotationLinked" fill="#FFFF00" fill-opacity="0.2" height="105" id="svg_6" stroke="#000000" stroke-opacity="0.5" transform="rotate(90, 3336.5, 2166.68)" width="694.090085" x="2989.453589" xlink:href="#lc" y="2114.181702"/>
  <rect class=" imageannotationLine imageannotationLinked" fill="#FFFF00" fill-opacity="0.2" height="114.999999" id="svg_8" stroke="#000000" stroke-opacity="0.5" transform="rotate(90, 3226.5, 2896.68)" width="2324.09054" x="2064.454447" xlink:href="#ld" y="2839.181652"/>
  <rect class=" imageannotationLine imageannotationLinked" fill="#FFFF00" fill-opacity="0.2" height="64.999999" id="svg_10" stroke="#000000" stroke-opacity="0.5" transform="rotate(90, 3091.5, 2394.18)" width="1489.090267" x="2346.953881" xlink:href="#le" y="2361.681218"/>
  <rect class=" imageannotationLine imageannotationLinked" fill="#FFFF00" fill-opacity="0.2" height="110.000006" id="svg_12" stroke="#000000" stroke-opacity="0.5" transform="rotate(90, 3024, 3134.18)" width="2749.090804" x="1649.455216" xlink:href="#lf" y="3079.182042"/>
  <rect class=" imageannotationLine imageannotationLinked" fill="#FFFF00" fill-opacity="0.2" height="105" id="svg_14" stroke="#000000" stroke-opacity="0.5" transform="rotate(90, 2811.5, 2959.18)" width="2319.090686" x="1651.954688" xlink:href="#lg" y="2906.681702"/>
  <rect class=" imageannotationLine imageannotationLinked" fill="#FFFF00" fill-opacity="0.2" height="80.000001" id="svg_22" stroke="#000000" stroke-opacity="0.5" transform="rotate(90, 2574, 3291.68)" width="2944.090667" x="1101.954857" xlink:href="#lh" y="3251.68098"/>
  <rect class=" imageannotationLine imageannotationLinked" fill="#FFFF00" fill-opacity="0.2" height="105" id="svg_24" stroke="#000000" stroke-opacity="0.5" transform="rotate(90, 2251.5, 3021.68)" width="2414.09069" x="1044.454746" xlink:href="#li" y="2969.181702"/>
  <rect class=" imageannotationLine imageannotationLinked" fill="#FFFF00" fill-opacity="0.2" height="100.000005" id="svg_26" stroke="#000000" stroke-opacity="0.5" transform="rotate(90, 2113.99, 3539.18)" width="1409.090297" x="1409.44994" xlink:href="#lj" y="3489.178349"/>
  <rect class=" imageannotationLine imageannotationLinked" fill="#FFFF00" fill-opacity="0.2" height="105" id="svg_28" stroke="#000000" stroke-opacity="0.5" transform="rotate(90, 2021.5, 3246.68)" width="2854.090864" x="594.455041" xlink:href="#lk" y="3194.181702"/>
  <rect class=" imageannotationLine imageannotationLinked" fill="#FFFF00" fill-opacity="0.2" height="125.000003" id="svg_32" stroke="#000000" stroke-opacity="0.5" transform="rotate(90, 1806.49, 3101.68)" width="2564.090651" x="524.451307" xlink:href="#ll" y="3039.178435"/>
  <rect class=" imageannotationLine imageannotationLinked" fill="#FFFF00" fill-opacity="0.2" height="105" id="svg_34" stroke="#000000" stroke-opacity="0.5" transform="rotate(90, 1696.5, 3109.18)" width="2449.09071" x="471.954768" xlink:href="#lm" y="3056.681702"/>
  <rect class=" imageannotationLine imageannotationLinked" fill="#FFFF00" fill-opacity="0.2" height="105" id="svg_36" stroke="#000000" stroke-opacity="0.5" transform="rotate(90, 1476.5, 3256.68)" width="2854.090723" x="49.451247" xlink:href="#ln" y="3204.185608"/>
  <rect class=" imageannotationLine imageannotationLinked" fill="#FFFF00" fill-opacity="0.2" height="51.698185" id="svg_38" stroke="#000000" stroke-opacity="0.5" transform="rotate(120, 1398.63, 2047.63)" width="151.278996" x="1322.990719" xlink:href="#lo" y="2021.782351"/>
  <rect class=" imageannotationLine imageannotationLinked" fill="#FFFF00" fill-opacity="0.2" height="105" id="svg_40" stroke="#000000" stroke-opacity="0.5" transform="rotate(90, 1276.5, 3301.68)" width="2874.090801" x="-160.544936" xlink:href="#lp" y="3249.181702"/>
  <rect class=" imageannotationLine imageannotationLinked" fill="#FFFF00" fill-opacity="0.2" height="105" id="svg_42" stroke="#000000" stroke-opacity="0.5" transform="rotate(90, 1046.5, 3294.18)" width="2849.090761" x="-378.048767" xlink:href="#lq" y="3241.685608"/>
  <rect class=" imageannotationLine imageannotationLinked" fill="#FFFF00" fill-opacity="0.2" height="105" id="svg_44" stroke="#000000" stroke-opacity="0.5" transform="rotate(90, 826.498, 3116.68)" width="2584.090761" x="-465.545142" xlink:href="#lr" y="3064.181702"/>
  <rect class=" imageannotationLine imageannotationLinked" fill="#FFFF00" fill-opacity="0.2" height="105" id="svg_46" stroke="#000000" stroke-opacity="0.5" transform="rotate(90, 2906.5, 2849.18)" width="2079.090589" x="1866.954524" xlink:href="#ls" y="2796.681702"/>
  <rect class=" imageannotationLine imageannotationLinked" fill="#FFFF00" fill-opacity="0.2" height="100.000764" id="svg_48" stroke="#000000" stroke-opacity="0.5" transform="rotate(89, 2444, 3181.73)" width="2804.090666" x="1041.951621" xlink:href="#lt" y="3131.728494"/>
  <rect class=" imageannotationLine imageannotationLinked" fill="#FFFF00" fill-opacity="0.2" height="105" id="svg_50" stroke="#000000" stroke-opacity="0.5" transform="rotate(90, 2151.5, 1959.18)" width="279.089941" x="2011.953325" xlink:href="#lu" y="1906.681702"/>
  <rect class=" imageannotationLine imageannotationLinked" fill="#FFFF00" fill-opacity="0.2" height="105" id="svg_52" stroke="#000000" stroke-opacity="0.5" transform="rotate(90, 1741.72, 1979.41)" width="309.089955" x="1587.179895" xlink:href="#lv" y="1926.904358"/>
 </g>

</svg>