<?xml version="1.0" encoding="UTF-8" standalone="no"?><svg xmlns="http://www.w3.org/2000/svg" xmlns:xlink="http://www.w3.org/1999/xlink" height="6144" width="4096">
 <g>
  <title>Layer 1</title>
  <rect class=" imageannotationLine imageannotationLinked" fill="#FFFF00" fill-opacity="0.2" height="127.995071" id="svg_5" stroke="#000000" stroke-opacity="0.5" transform="rotate(89, 3628.01, 2373.1)" width="3131.928389" x="2062.040767" xlink:href="#Es" y="2309.104711"/>
  <rect class=" imageannotationLine imageannotationLinked" fill="#FFFF00" fill-opacity="0.2" height="103.789491" id="svg_7" stroke="#000000" stroke-opacity="0.5" transform="rotate(89, 3456.55, 1989.05)" width="2674.542897" x="2119.282073" xlink:href="#la" y="1937.156989"/>
  <rect class=" imageannotationLine imageannotationLinked" fill="#FFFF00" fill-opacity="0.2" height="99.791911" id="svg_19" stroke="#000000" stroke-opacity="0.5" transform="rotate(88, 3297.62, 1959.24)" width="2705.821451" x="1944.714244" xlink:href="#lb" y="1909.340116"/>
  <rect class=" imageannotationLine imageannotationLinked" fill="#FFFF00" fill-opacity="0.2" height="64.092749" id="svg_21" stroke="#000000" stroke-opacity="0.5" transform="rotate(88, 3210.77, 1985.32)" width="208.599838" x="3106.47" xlink:href="#lc" y="1953.270468"/>
  <rect class=" imageannotationLine imageannotationLinked" fill="#FFFF00" fill-opacity="0.2" height="103.78949" id="svg_23" stroke="#000000" stroke-opacity="0.5" transform="rotate(88, 3111.51, 1801.27)" width="2384.810602" x="1919.100941" xlink:href="#ld" y="1749.377943"/>
  <rect class=" imageannotationLine imageannotationLinked" fill="#FFFF00" fill-opacity="0.2" height="103.78949" id="svg_25" stroke="#000000" stroke-opacity="0.5" transform="rotate(88, 2951.57, 1524.79)" width="1534.027794" x="2184.555236" xlink:href="#le" y="1472.895322"/>
  <rect class=" imageannotationLine imageannotationLinked" fill="#FFFF00" fill-opacity="0.2" height="111.366011" id="svg_27" stroke="#000000" stroke-opacity="0.5" transform="rotate(88, 2771.86, 1657)" width="554.941657" x="2494.388419" xlink:href="#lf" y="1601.313389"/>
  <rect class=" imageannotationLine imageannotationLinked" fill="#FFFF00" fill-opacity="0.2" height="64.897376" id="svg_29" stroke="#000000" stroke-opacity="0.5" transform="rotate(87, 2750.63, 2972.7)" width="174.736302" x="2663.259159" xlink:href="#lg" y="2940.25408"/>
  <rect class=" imageannotationLine imageannotationLinked" fill="#FFFF00" fill-opacity="0.2" height="107.161773" id="svg_31" stroke="#000000" stroke-opacity="0.5" transform="rotate(87, 2583.71, 2184.93)" width="2917.662112" x="1124.873626" xlink:href="#lh" y="2131.34437"/>
  <rect class=" imageannotationLine imageannotationLinked" fill="#FFFF00" fill-opacity="0.2" height="115.150803" id="svg_33" stroke="#000000" stroke-opacity="0.5" transform="rotate(87, 2434.35, 2279.69)" width="3180.02739" x="844.335975" xlink:href="#li" y="2222.118349"/>
  <rect class=" imageannotationLine imageannotationLinked" fill="#FFFF00" fill-opacity="0.2" height="111.366013" id="svg_35" stroke="#000000" stroke-opacity="0.5" transform="rotate(88, 2276.69, 2440.31)" width="3454.727173" x="549.323539" xlink:href="#lj" y="2384.62003"/>
  <rect class=" imageannotationLine imageannotationLinked" fill="#FFFF00" fill-opacity="0.2" height="107.790065" id="svg_37" stroke="#000000" stroke-opacity="0.5" transform="rotate(87, 2135.05, 2299.06)" width="3219.763184" x="525.169998" xlink:href="#lk" y="2245.170037"/>
  <rect class=" imageannotationLine imageannotationLinked" fill="#FFFF00" fill-opacity="0.2" height="111.366013" id="svg_39" stroke="#000000" stroke-opacity="0.5" transform="rotate(88, 1964.24, 2296.79)" width="3200" x="364.242188" xlink:href="#So" y="2241.11051"/>
  <rect class=" imageannotationLine imageannotationLinked" fill="#FFFF00" fill-opacity="0.2" height="99.382588" id="svg_41" stroke="#000000" stroke-opacity="0.5" transform="rotate(87, 1813.71, 2409.59)" width="3320.254135" x="153.585112" xlink:href="#Und" y="2359.901004"/>
  <rect class=" imageannotationLine imageannotationLinked" fill="#FFFF00" fill-opacity="0.2" height="111.366013" id="svg_43" stroke="#000000" stroke-opacity="0.5" transform="rotate(87, 1641.18, 1988.01)" width="2508.965302" x="386.700072" xlink:href="#ll" y="1932.328751"/>
  <rect class=" imageannotationLine imageannotationLinked" fill="#FFFF00" fill-opacity="0.2" height="111.366013" id="svg_45" stroke="#000000" stroke-opacity="0.5" transform="rotate(87, 1479.39, 1781.12)" width="2101.105881" x="428.838685" xlink:href="#lm" y="1725.440258"/>
  <rect class=" imageannotationLine imageannotationLinked" fill="#FFFF00" fill-opacity="0.2" height="111.366013" id="svg_47" stroke="#000000" stroke-opacity="0.5" transform="rotate(87, 1320.59, 2028.61)" width="2556.899643" x="42.138338" xlink:href="#ln" y="1972.924092"/>
  <rect class=" imageannotationLine imageannotationLinked" fill="#FFFF00" fill-opacity="0.2" height="111.366013" id="svg_49" stroke="#000000" stroke-opacity="0.5" transform="rotate(86, 1174.39, 1994.8)" width="2458.733368" x="-54.978606" xlink:href="#Heil" y="1939.120964"/>
  <rect class=" imageannotationLine imageannotationLinked" fill="#FFFF00" fill-opacity="0.2" height="111.366013" id="svg_52" stroke="#000000" stroke-opacity="0.5" transform="rotate(89, 1876.33, 628.558)" width="95.182387" x="1828.741567" xlink:href="#lo" y="572.874491"/>
  <rect class=" imageannotationLine imageannotationLinked" fill="#FFFF00" fill-opacity="0.2" height="111.366013" id="svg_54" stroke="#000000" stroke-opacity="0.5" transform="rotate(89, 1696.43, 634.047)" width="83.602781" x="1654.627583" xlink:href="#lp" y="578.362501"/>
  <rect class=" imageannotationLine imageannotationLinked" fill="#FFFF00" fill-opacity="0.2" height="83.510191" id="svg_56" stroke="#000000" stroke-opacity="0.5" transform="rotate(89, 1070.17, 603.084)" width="152.081381" x="994.126874" xlink:href="#lq" y="561.327722"/>
  <rect class=" imageannotationLine imageannotationLinked" fill="#FFFF00" fill-opacity="0.2" height="71.995519" id="svg_61" stroke="#000000" stroke-opacity="0.5" transform="rotate(90, 3600, 589.998)" width="156.000004" x="3521.996131" xlink:href="#lr" y="554.00051"/>
 </g>

</svg>