<?xml version="1.0" encoding="UTF-8" standalone="no"?><svg xmlns="http://www.w3.org/2000/svg" xmlns:xlink="http://www.w3.org/1999/xlink" height="6144.000000000001" width="4096">
 <g>
  <title>Layer 1</title>
  <rect class=" imageannotationLine imageannotationLinked" fill="#FFFF00" fill-opacity="0.2" height="113.96013" id="svg_4" stroke="#000000" stroke-opacity="0.5" transform="rotate(87, 3561.65, 2620.16)" width="1240.558913" x="2941.374154" xlink:href="#la" y="2563.181138"/>
  <rect class=" imageannotationLine imageannotationLinked" fill="#FFFF00" fill-opacity="0.2" height="100.28909" id="svg_6" stroke="#000000" stroke-opacity="0.5" transform="rotate(87, 3429.16, 2920.68)" width="619.99998" x="3119.158306" xlink:href="#lb" y="2870.538853"/>
  <rect class=" imageannotationLine imageannotationLinked" fill="#FFFF00" fill-opacity="0.2" height="105.020556" id="svg_8" stroke="#000000" stroke-opacity="0.5" transform="rotate(87, 3277.99, 2438.12)" width="2114.56701" x="2220.70002" xlink:href="#lc" y="2385.604237"/>
  <rect class=" imageannotationLine imageannotationLinked" fill="#FFFF00" fill-opacity="0.2" height="129.941454" id="svg_10" stroke="#000000" stroke-opacity="0.5" transform="rotate(86, 2810.69, 2118.02)" width="1915.5085" x="1852.932046" xlink:href="#ld" y="2053.052463"/>
  <rect class=" imageannotationLine imageannotationLinked" fill="#FFFF00" fill-opacity="0.2" height="105.244489" id="svg_12" stroke="#000000" stroke-opacity="0.5" transform="rotate(85, 2646.65, 2320.81)" width="2320.000018" x="1486.650094" xlink:href="#le" y="2268.188243"/>
  <rect class=" imageannotationLine imageannotationLinked" fill="#FFFF00" fill-opacity="0.2" height="100.027406" id="svg_14" stroke="#000000" stroke-opacity="0.5" transform="rotate(87, 2497.21, 2316.05)" width="2269.55867" x="1362.435813" xlink:href="#lf" y="2266.035057"/>
  <rect class=" imageannotationLine imageannotationLinked" fill="#FFFF00" fill-opacity="0.2" height="116.513772" id="svg_16" stroke="#000000" stroke-opacity="0.5" transform="rotate(86, 2314.3, 2099.71)" width="2019.388106" x="1304.600907" xlink:href="#lg" y="2041.452161"/>
  <rect class=" imageannotationLine imageannotationLinked" fill="#FFFF00" fill-opacity="0.2" height="125.33659" id="svg_18" stroke="#000000" stroke-opacity="0.5" transform="rotate(86, 2166.4, 2225.13)" width="2241.025387" x="1045.892961" xlink:href="#lh" y="2162.46471"/>
  <rect class=" imageannotationLine imageannotationLinked" fill="#FFFF00" fill-opacity="0.2" height="108.705293" id="svg_20" stroke="#000000" stroke-opacity="0.5" transform="rotate(87, 2003.79, 2371.24)" width="2471.625535" x="767.980348" xlink:href="#li" y="2316.883685"/>
  <rect class=" imageannotationLine imageannotationLinked" fill="#FFFF00" fill-opacity="0.2" height="105.020556" id="svg_22" stroke="#000000" stroke-opacity="0.5" transform="rotate(86, 1844.65, 2172.36)" width="2155.074689" x="767.111788" xlink:href="#lj" y="2119.849348"/>
  <rect class=" imageannotationLine imageannotationLinked" fill="#FFFF00" fill-opacity="0.2" height="134.820133" id="svg_24" stroke="#000000" stroke-opacity="0.5" transform="rotate(87, 1690.62, 2234.98)" width="2280.027455" x="550.60914" xlink:href="#lk" y="2167.573084"/>
  <rect class=" imageannotationLine imageannotationLinked" fill="#FFFF00" fill-opacity="0.2" height="100.048721" id="svg_26" stroke="#000000" stroke-opacity="0.5" transform="rotate(86, 1474.05, 1360.86)" width="570.000006" x="1189.048548" xlink:href="#ll" y="1310.839088"/>
  <rect class=" imageannotationLine imageannotationLinked" fill="#FFFF00" fill-opacity="0.2" height="113.43677" id="svg_28" stroke="#000000" stroke-opacity="0.5" transform="rotate(87, 1115.72, 2027.84)" width="1884.99996" x="173.222918" xlink:href="#lm" y="1971.120716"/>
  <rect class=" imageannotationLine imageannotationLinked" fill="#FFFF00" fill-opacity="0.2" height="120" id="svg_30" stroke="#000000" stroke-opacity="0.5" transform="rotate(87, 952.867, 2036.02)" width="1931.631799" x="-12.950322" xlink:href="#ln" y="1976.016969"/>
  <rect class=" imageannotationLine imageannotationLinked" fill="#FFFF00" fill-opacity="0.2" height="94.915783" id="svg_33" stroke="#000000" stroke-opacity="0.5" transform="rotate(89, 3786.46, 4489.51)" width="1115.000187" x="3228.959675" xlink:href="#lo" y="4442.049716"/>
  <rect class=" imageannotationLine imageannotationLinked" fill="#FFFF00" fill-opacity="0.2" height="90.009138" id="svg_35" stroke="#000000" stroke-opacity="0.5" transform="rotate(88, 3669.36, 4534.49)" width="1634.819613" x="2851.948174" xlink:href="#Ist" y="4489.491617"/>
  <rect class=" imageannotationLine imageannotationLinked" fill="#FFFF00" fill-opacity="0.2" height="99.939575" id="svg_37" stroke="#000000" stroke-opacity="0.5" transform="rotate(88, 3504.33, 4704.67)" width="2045.511708" x="2481.573741" xlink:href="#lp" y="4654.699594"/>
  <rect class=" imageannotationLine imageannotationLinked" fill="#FFFF00" fill-opacity="0.2" height="95.00609" id="svg_39" stroke="#000000" stroke-opacity="0.5" transform="rotate(88, 3346.09, 4719.96)" width="2015.887971" x="2338.142852" xlink:href="#lq" y="4672.456618"/>
  <rect class=" imageannotationLine imageannotationLinked" fill="#FFFF00" fill-opacity="0.2" height="97.560087" id="svg_41" stroke="#000000" stroke-opacity="0.5" transform="rotate(88, 3212.69, 4544.47)" width="1674.99714" x="2375.195974" xlink:href="#lr" y="4495.685072"/>
  <rect class=" imageannotationLine imageannotationLinked" fill="#FFFF00" fill-opacity="0.2" height="92.658588" id="svg_43" stroke="#000000" stroke-opacity="0.5" transform="rotate(87, 3085.34, 4657.15)" width="1890.000254" x="2140.338068" xlink:href="#ls" y="4610.825684"/>
  <rect class=" imageannotationLine imageannotationLinked" fill="#FFFF00" fill-opacity="0.2" height="119.456078" id="svg_45" stroke="#000000" stroke-opacity="0.5" transform="rotate(87, 2958.7, 4651.19)" width="1920.000161" x="1998.705104" xlink:href="#lt" y="4591.464118"/>
  <rect class=" imageannotationLine imageannotationLinked" fill="#FFFF00" fill-opacity="0.2" height="105" id="svg_47" stroke="#000000" stroke-opacity="0.5" transform="rotate(87, 2801.5, 4691.83)" width="1970.000231" x="1816.500002" xlink:href="#lu" y="4639.332092"/>
  <rect class=" imageannotationLine imageannotationLinked" fill="#FFFF00" fill-opacity="0.2" height="105" id="svg_49" stroke="#000000" stroke-opacity="0.5" transform="rotate(87, 2626.5, 4664.33)" width="1995.000203" x="1629.000002" xlink:href="#lv" y="4611.832092"/>
  <rect class=" imageannotationLine imageannotationLinked" fill="#FFFF00" fill-opacity="0.2" height="119.1944" id="svg_51" stroke="#000000" stroke-opacity="0.5" transform="rotate(87, 2313.64, 4717.38)" width="2088.650868" x="1269.308901" xlink:href="#lw" y="4657.78138"/>
  <rect class=" imageannotationLine imageannotationLinked" fill="#FFFF00" fill-opacity="0.2" height="75.073076" id="svg_53" stroke="#000000" stroke-opacity="0.5" transform="rotate(86, 2216.57, 4510.38)" width="625.000079" x="1904.072868" xlink:href="#lx" y="4472.839446"/>
  <rect class=" imageannotationLine imageannotationLinked" fill="#FFFF00" fill-opacity="0.2" height="105" id="svg_55" stroke="#000000" stroke-opacity="0.5" transform="rotate(88, 2119.03, 4595.55)" width="1887.112553" x="1175.475371" xlink:href="#ly" y="4543.052984"/>
  <rect class=" imageannotationLine imageannotationLinked" fill="#FFFF00" fill-opacity="0.2" height="100.020508" id="svg_59" stroke="#000000" stroke-opacity="0.5" transform="rotate(90, 3614.01, 3624.33)" width="120.000013" x="3554.006875" xlink:href="#lz" y="3574.319398"/>
  <rect class=" imageannotationLine imageannotationLinked" fill="#FFFF00" fill-opacity="0.2" height="155.021036" id="svg_61" stroke="#000000" stroke-opacity="0.5" transform="rotate(90, 3506.51, 3659.33)" width="190.00001" x="3411.508725" xlink:href="#laa" y="3581.818905"/>
  <rect class=" imageannotationLine imageannotationLinked" fill="#FFFF00" fill-opacity="0.2" height="105.020554" id="svg_63" stroke="#000000" stroke-opacity="0.5" transform="rotate(90, 3291.51, 3599.33)" width="109.999996" x="3236.507809" xlink:href="#lab" y="3546.819351"/>
  <rect class=" imageannotationLine imageannotationLinked" fill="#FFFF00" fill-opacity="0.2" height="105.020554" id="svg_65" stroke="#000000" stroke-opacity="0.5" transform="rotate(90, 3171.51, 3594.33)" width="99.999997" x="3121.507762" xlink:href="#lac" y="3541.819351"/>
 </g>

</svg>