<?xml version="1.0" encoding="UTF-8" standalone="no"?><svg xmlns="http://www.w3.org/2000/svg" xmlns:xlink="http://www.w3.org/1999/xlink" height="6144.000000000001" width="4096">
 <g>
  <title>Layer 1</title>
  <rect class=" imageannotationLine imageannotationLinked" fill="#FFFF00" fill-opacity="0.2" height="99.999998" id="svg_2" stroke="#000000" stroke-opacity="0.5" transform="rotate(-1, 2206.5, 1451)" width="2622.272911" x="895.363228" xlink:href="#la" y="1400.999794"/>
  <rect class=" imageannotationLine imageannotationLinked" fill="#FFFF00" fill-opacity="0.2" height="90.001523" id="svg_4" stroke="#000000" stroke-opacity="0.5" transform="rotate(-1, 2031.59, 1611)" width="2512.27289" x="775.450528" xlink:href="#lb" y="1565.997496"/>
  <rect class=" imageannotationLine imageannotationLinked" fill="#FFFF00" fill-opacity="0.2" height="70.00457" id="svg_6" stroke="#000000" stroke-opacity="0.5" transform="rotate(-1, 2171.76, 1761)" width="2842.272763" x="750.625026" xlink:href="#lc" y="1725.992956"/>
  <rect class=" imageannotationLine imageannotationLinked" fill="#FFFF00" fill-opacity="0.2" height="95.000762" id="svg_8" stroke="#000000" stroke-opacity="0.5" transform="rotate(-1, 2234.04, 1913.5)" width="3017.272747" x="725.4069" xlink:href="#ld" y="1865.998627"/>
  <rect class=" imageannotationLine imageannotationLinked" fill="#FFFF00" fill-opacity="0.2" height="94.913501" id="svg_10" stroke="#000000" stroke-opacity="0.5" transform="rotate(-1, 2176.54, 2058.54)" width="2892.272732" x="730.407669" xlink:href="#le" y="2011.085882"/>
  <rect class=" imageannotationLine imageannotationLinked" fill="#FFFF00" fill-opacity="0.2" height="84.915024" id="svg_12" stroke="#000000" stroke-opacity="0.5" transform="rotate(-1, 2239.13, 2213.54)" width="2987.272693" x="745.494915" xlink:href="#lf" y="2171.08361"/>
  <rect class=" imageannotationLine imageannotationLinked" fill="#FFFF00" fill-opacity="0.2" height="90.006089" id="svg_14" stroke="#000000" stroke-opacity="0.5" transform="rotate(-2, 2131.67, 2350.99)" width="2782.272835" x="740.537672" xlink:href="#lg" y="2305.990649"/>
  <rect class=" imageannotationLine imageannotationLinked" fill="#FFFF00" fill-opacity="0.2" height="85.089546" id="svg_16" stroke="#000000" stroke-opacity="0.5" transform="rotate(-1, 2074.13, 2508.45)" width="2677.272736" x="735.493393" xlink:href="#lh" y="2465.909101"/>
  <rect class=" imageannotationLine imageannotationLinked" fill="#FFFF00" fill-opacity="0.2" height="89.831597" id="svg_18" stroke="#000000" stroke-opacity="0.5" transform="rotate(-2, 2306.32, 2925.92)" width="2862.272754" x="875.185865" xlink:href="#li" y="2881.002869"/>
  <rect class=" imageannotationLine imageannotationLinked" fill="#FFFF00" fill-opacity="0.2" height="100" id="svg_20" stroke="#000000" stroke-opacity="0.5" transform="rotate(-2, 2164, 3061)" width="2857.272699" x="735.363282" xlink:href="#lj" y="3010.999756"/>
  <rect class=" imageannotationLine imageannotationLinked" fill="#FFFF00" fill-opacity="0.2" height="95.003045" id="svg_22" stroke="#000000" stroke-opacity="0.5" transform="rotate(-2, 2224.09, 3218.5)" width="3027.272705" x="710.450472" xlink:href="#lk" y="3170.995201"/>
  <rect class=" imageannotationLine imageannotationLinked" fill="#FFFF00" fill-opacity="0.2" height="89.914262" id="svg_24" stroke="#000000" stroke-opacity="0.5" transform="rotate(-1, 2213.91, 3405.96)" width="3047.272621" x="690.275269" xlink:href="#ll" y="3361.000561"/>
  <rect class=" imageannotationLine imageannotationLinked" fill="#FFFF00" fill-opacity="0.2" height="100" id="svg_26" stroke="#000000" stroke-opacity="0.5" transform="rotate(-1, 2136.5, 3566)" width="2882.272775" x="695.363282" xlink:href="#lm" y="3515.999756"/>
  <rect class=" imageannotationLine imageannotationLinked" fill="#FFFF00" fill-opacity="0.2" height="84.834641" id="svg_28" stroke="#000000" stroke-opacity="0.5" transform="rotate(-2, 2094.26, 3703.58)" width="2717.272748" x="735.627918" xlink:href="#ln" y="3661.160552"/>
  <rect class=" imageannotationLine imageannotationLinked" fill="#FFFF00" fill-opacity="0.2" height="100" id="svg_30" stroke="#000000" stroke-opacity="0.5" transform="rotate(-2, 2246.5, 3851)" width="3032.272684" x="730.363281" xlink:href="#lo" y="3800.999756"/>
  <rect class=" imageannotationLine imageannotationLinked" fill="#FFFF00" fill-opacity="0.2" height="100" id="svg_32" stroke="#000000" stroke-opacity="0.5" transform="rotate(-1, 2219, 4011)" width="3017.272747" x="710.363281" xlink:href="#lp" y="3960.999756"/>
 </g>

</svg>