<?xml version="1.0" encoding="UTF-8" standalone="no"?><svg xmlns="http://www.w3.org/2000/svg" xmlns:xlink="http://www.w3.org/1999/xlink" height="6144.000000000001" width="4096">
 <g>
  <title>Layer 1</title>
  <rect class=" imageannotationLine imageannotationLinked" fill="#FFFF00" fill-opacity="0.2" height="120" id="svg_2" stroke="#000000" stroke-opacity="0.5" transform="rotate(90, 2984.01, 2867.37)" width="2001.817402" x="1983.096343" xlink:href="#la" y="2807.366699"/>
  <rect class=" imageannotationLine imageannotationLinked" fill="#FFFF00" fill-opacity="0.2" height="110.006089" id="svg_4" stroke="#000000" stroke-opacity="0.5" transform="rotate(88, 2804, 2574.69)" width="696.816704" x="2455.591373" xlink:href="#lb" y="2519.689609"/>
  <rect class=" imageannotationLine imageannotationLinked" fill="#FFFF00" fill-opacity="0.2" height="120" id="svg_6" stroke="#000000" stroke-opacity="0.5" transform="rotate(88, 2631, 2529.18)" width="2971.823924" x="1145.083201" xlink:href="#lc" y="2469.176684"/>
  <rect class=" imageannotationLine imageannotationLinked" fill="#FFFF00" fill-opacity="0.2" height="120" id="svg_8" stroke="#000000" stroke-opacity="0.5" transform="rotate(90, 2434.01, 2872.37)" width="581.816691" x="2143.097329" xlink:href="#ld" y="2812.366699"/>
  <rect class=" imageannotationLine imageannotationLinked" fill="#FFFF00" fill-opacity="0.2" height="110.038054" id="svg_10" stroke="#000000" stroke-opacity="0.5" transform="rotate(85, 2329.04, 2040.3)" width="1386.817011" x="1635.634169" xlink:href="#le" y="1985.281638"/>
  <rect class=" imageannotationLine imageannotationLinked" fill="#FFFF00" fill-opacity="0.2" height="120" id="svg_12" stroke="#000000" stroke-opacity="0.5" transform="rotate(87, 2219.01, 2534.87)" width="2856.817737" x="790.595785" xlink:href="#lf" y="2474.866699"/>
  <rect class=" imageannotationLine imageannotationLinked" fill="#FFFF00" fill-opacity="0.2" height="120" id="svg_14" stroke="#000000" stroke-opacity="0.5" transform="rotate(90, 2049.01, 2657.37)" width="291.816542" x="1903.097471" xlink:href="#lg" y="2597.366699"/>
  <rect class=" imageannotationLine imageannotationLinked" fill="#FFFF00" fill-opacity="0.2" height="75" id="svg_16" stroke="#000000" stroke-opacity="0.5" transform="rotate(90, 1921.51, 2674.87)" width="836.816859" x="1503.097079" xlink:href="#lh" y="2637.366882"/>
  <rect class=" imageannotationLine imageannotationLinked" fill="#FFFF00" fill-opacity="0.2" height="134.990859" id="svg_18" stroke="#000000" stroke-opacity="0.5" transform="rotate(88, 1841.51, 2570.12)" width="2826.817834" x="428.108401" xlink:href="#li" y="2502.628918"/>
  <rect class=" imageannotationLine imageannotationLinked" fill="#FFFF00" fill-opacity="0.2" height="105.009141" id="svg_20" stroke="#000000" stroke-opacity="0.5" transform="rotate(88, 1666.51, 3195.13)" width="1446.817233" x="943.105581" xlink:href="#lj" y="3142.623815"/>
  <rect class=" imageannotationLine imageannotationLinked" fill="#FFFF00" fill-opacity="0.2" height="120" id="svg_22" stroke="#000000" stroke-opacity="0.5" transform="rotate(90, 1444.01, 2397.37)" width="231.816522" x="1328.097507" xlink:href="#lk" y="2337.366699"/>
  <rect class=" imageannotationLine imageannotationLinked" fill="#FFFF00" fill-opacity="0.2" height="120" id="svg_24" stroke="#000000" stroke-opacity="0.5" transform="rotate(90, 1449.01, 3477.37)" width="271.816534" x="1313.097433" xlink:href="#ll" y="3417.366699"/>
  <rect class=" imageannotationLine imageannotationLinked" fill="#FFFF00" fill-opacity="0.2" height="120" id="svg_26" stroke="#000000" stroke-opacity="0.5" transform="rotate(87, 1306.37, 2579.48)" width="2805.908209" x="-96.589824" xlink:href="#lm" y="2519.48106"/>
  <rect class=" imageannotationLine imageannotationLinked" fill="#FFFF00" fill-opacity="0.2" height="120" id="svg_28" stroke="#000000" stroke-opacity="0.5" transform="rotate(90, 1119.01, 2422.37)" width="501.816653" x="868.097345" xlink:href="#ln" y="2362.366699"/>
  <rect class=" imageannotationLine imageannotationLinked" fill="#FFFF00" fill-opacity="0.2" height="120" id="svg_30" stroke="#000000" stroke-opacity="0.5" transform="rotate(87, 964.006, 1992.37)" width="1521.817105" x="203.096656" xlink:href="#lo" y="1932.366699"/>
  <rect class=" imageannotationLine imageannotationLinked" fill="#FFFF00" fill-opacity="0.2" height="120" id="svg_32" stroke="#000000" stroke-opacity="0.5" transform="rotate(87, 804.39, 2044.71)" width="1606.513695" x="1.132984" xlink:href="#lp" y="1984.704841"/>
  <rect class=" imageannotationLine imageannotationLinked" fill="#FFFF00" fill-opacity="0.2" height="120" id="svg_34" stroke="#000000" stroke-opacity="0.5" transform="rotate(88, 629.006, 2129.87)" width="1706.817176" x="-224.403463" xlink:href="#lq" y="2069.866699"/>
  <rect class=" imageannotationLine imageannotationLinked" fill="#FFFF00" fill-opacity="0.2" height="110.006089" id="svg_36" stroke="#000000" stroke-opacity="0.5" transform="rotate(88, 504.012, 2172.54)" width="1801.817416" x="-396.894876" xlink:href="#lr" y="2117.53415"/>
 </g>
</svg>