<?xml version="1.0" encoding="UTF-8" standalone="no"?><svg xmlns="http://www.w3.org/2000/svg" xmlns:xlink="http://www.w3.org/1999/xlink" height="6144.000000000001" width="4096">
 <g>
  <title>Layer 1</title>
  <rect class=" imageannotationLine imageannotationLinked" fill="#FFFF00" fill-opacity="0.2" height="120" id="svg_2" stroke="#000000" stroke-opacity="0.5" transform="rotate(88, 3552.08, 3051.38)" width="3288.461659" x="1907.851562" xlink:href="#la" y="2991.383667"/>
  <rect class=" imageannotationLine imageannotationLinked" fill="#FFFF00" fill-opacity="0.2" height="120" id="svg_4" stroke="#000000" stroke-opacity="0.5" transform="rotate(88, 3337.08, 3118.88)" width="3393.461585" x="1640.351562" xlink:href="#lb" y="3058.883667"/>
  <rect class=" imageannotationLine imageannotationLinked" fill="#FFFF00" fill-opacity="0.2" height="120" id="svg_6" stroke="#000000" stroke-opacity="0.5" transform="rotate(88, 3116.61, 3114.26)" width="3282.412815" x="1475.404466" xlink:href="#lc" y="3054.26149"/>
  <rect class=" imageannotationLine imageannotationLinked" fill="#FFFF00" fill-opacity="0.2" height="120.349002" id="svg_8" stroke="#000000" stroke-opacity="0.5" transform="rotate(88, 2947.26, 3103.88)" width="3303.461619" x="1295.525895" xlink:href="#ld" y="3043.702988"/>
  <rect class=" imageannotationLine imageannotationLinked" fill="#FFFF00" fill-opacity="0.2" height="131.326419" id="svg_10" stroke="#000000" stroke-opacity="0.5" transform="rotate(88, 2752.92, 3053.85)" width="3203.461611" x="1151.189962" xlink:href="#le" y="2988.189296"/>
  <rect class=" imageannotationLine imageannotationLinked" fill="#FFFF00" fill-opacity="0.2" height="105" id="svg_12" stroke="#000000" stroke-opacity="0.5" transform="rotate(90, 2579.58, 3176.38)" width="458.461055" x="2350.351537" xlink:href="#lf" y="3123.88356"/>
  <rect class=" imageannotationLine imageannotationLinked" fill="#FFFF00" fill-opacity="0.2" height="120" id="svg_14" stroke="#000000" stroke-opacity="0.5" transform="rotate(89, 2502.08, 3108.88)" width="3313.461661" x="845.351563" xlink:href="#lg" y="3048.883667"/>
  <rect class=" imageannotationLine imageannotationLinked" fill="#FFFF00" fill-opacity="0.2" height="120" id="svg_16" stroke="#000000" stroke-opacity="0.5" transform="rotate(89, 2342.08, 2931.38)" width="2958.461511" x="862.851559" xlink:href="#lh" y="2871.383667"/>
  <rect class=" imageannotationLine imageannotationLinked" fill="#FFFF00" fill-opacity="0.2" height="120" id="svg_18" stroke="#000000" stroke-opacity="0.5" transform="rotate(89, 2167.09, 3408.16)" width="1522.005994" x="1406.08097" xlink:href="#li" y="3348.155396"/>
  <rect class=" imageannotationLine imageannotationLinked" fill="#FFFF00" fill-opacity="0.2" height="105.176843" id="svg_20" stroke="#000000" stroke-opacity="0.5" transform="rotate(89, 2009.59, 2999.1)" width="3043.461625" x="487.854771" xlink:href="#lj" y="2946.51643"/>
  <rect class=" imageannotationLine imageannotationLinked" fill="#FFFF00" fill-opacity="0.2" height="104.565976" id="svg_22" stroke="#000000" stroke-opacity="0.5" transform="rotate(89, 1859.37, 3541.52)" width="1558.461229" x="1080.135797" xlink:href="#lk" y="3489.235467"/>
  <rect class=" imageannotationLine imageannotationLinked" fill="#FFFF00" fill-opacity="0.2" height="120" id="svg_24" stroke="#000000" stroke-opacity="0.5" transform="rotate(88, 1682.09, 2221.47)" width="1388.635633" x="987.767397" xlink:href="#ll" y="2161.470833"/>
  <rect class=" imageannotationLine imageannotationLinked" fill="#FFFF00" fill-opacity="0.2" height="134.997711" id="svg_26" stroke="#000000" stroke-opacity="0.5" transform="rotate(89, 1549.58, 3776.25)" width="1638.461236" x="730.349245" xlink:href="#lm" y="3708.754034"/>
  <rect class=" imageannotationLine imageannotationLinked" fill="#FFFF00" fill-opacity="0.2" height="120" id="svg_28" stroke="#000000" stroke-opacity="0.5" transform="rotate(89, 1362.08, 2313.88)" width="1593.461245" x="565.351548" xlink:href="#ln" y="2253.883667"/>
  <rect class=" imageannotationLine imageannotationLinked" fill="#FFFF00" fill-opacity="0.2" height="129.819417" id="svg_30" stroke="#000000" stroke-opacity="0.5" transform="rotate(88, 1211.99, 3673.71)" width="1563.461183" x="430.258094" xlink:href="#lo" y="3608.802819"/>
  <rect class=" imageannotationLine imageannotationLinked" fill="#FFFF00" fill-opacity="0.2" height="114.305055" id="svg_32" stroke="#000000" stroke-opacity="0.5" transform="rotate(88, 1054.24, 1976.48)" width="908.461184" x="600.005749" xlink:href="#lp" y="1919.330612"/>
  <rect class=" imageannotationLine imageannotationLinked" fill="#FFFF00" fill-opacity="0.2" height="120" id="svg_34" stroke="#000000" stroke-opacity="0.5" transform="rotate(88, 1022.08, 3751.38)" width="1828.461454" x="107.851499" xlink:href="#lq" y="3691.383667"/>
  <rect class=" imageannotationLine imageannotationLinked" fill="#FFFF00" fill-opacity="0.2" height="120" id="svg_36" stroke="#000000" stroke-opacity="0.5" transform="rotate(88, 812.082, 3081.38)" width="3118.461564" x="-747.148436" xlink:href="#lr" y="3021.383667"/>
  <rect class=" imageannotationLine imageannotationLinked" fill="#FFFF00" fill-opacity="0.2" height="95.000003" id="svg_38" stroke="#000000" stroke-opacity="0.5" transform="rotate(90, 754.582, 4438.88)" width="353.461005" x="577.851479" xlink:href="#ls" y="4391.383377"/>
 </g>

</svg>