<?xml version="1.0" encoding="UTF-8" standalone="no"?><svg xmlns="http://www.w3.org/2000/svg" xmlns:xlink="http://www.w3.org/1999/xlink" height="6144" width="4096">
 <g>
  <title>Layer 1</title>
  <rect class=" imageannotationLine imageannotationLinked" fill="#FFFF00" fill-opacity="0.2" height="90.546206" id="svg_4" stroke="#000000" stroke-opacity="0.5" transform="rotate(88, 3397.08, 4189.1)" width="1550.839477" x="2621.660245" xlink:href="#la" y="4143.825666"/>
  <rect class=" imageannotationLine imageannotationLinked" fill="#FFFF00" fill-opacity="0.2" height="65.377452" id="svg_6" stroke="#000000" stroke-opacity="0.5" transform="rotate(87, 3313.67, 4229.2)" width="1582.59157" x="2522.376279" xlink:href="#lb" y="4196.513251"/>
  <rect class=" imageannotationLine imageannotationLinked" fill="#FFFF00" fill-opacity="0.2" height="65.179781" id="svg_8" stroke="#000000" stroke-opacity="0.5" transform="rotate(85, 3210.04, 3596.52)" width="358.322278" x="3030.883083" xlink:href="#lc" y="3563.927636"/>
  <rect class=" imageannotationLine imageannotationLinked" fill="#FFFF00" fill-opacity="0.2" height="78.208207" id="svg_10" stroke="#000000" stroke-opacity="0.5" transform="rotate(89, 3199.52, 4150.12)" width="1504.367707" x="2447.338259" xlink:href="#ld" y="4111.019623"/>
  <rect class=" imageannotationLine imageannotationLinked" fill="#FFFF00" fill-opacity="0.2" height="70" id="svg_12" stroke="#000000" stroke-opacity="0.5" transform="rotate(88, 3087.18, 4158.95)" width="1571.842572" x="2301.259007" xlink:href="#Und" y="4123.949402"/>
  <rect class=" imageannotationLine imageannotationLinked" fill="#FFFF00" fill-opacity="0.2" height="70" id="svg_14" stroke="#000000" stroke-opacity="0.5" transform="rotate(89, 2574.01, 4026.42)" width="1342.786513" x="1902.615617" xlink:href="#le" y="3991.41713"/>
  <rect class=" imageannotationLine imageannotationLinked" fill="#FFFF00" fill-opacity="0.2" height="82.835744" id="svg_16" stroke="#000000" stroke-opacity="0.5" transform="rotate(89, 2452.99, 4059.89)" width="1423.821439" x="1741.082698" xlink:href="#lf" y="4018.469659"/>
  <rect class=" imageannotationLine imageannotationLinked" fill="#FFFF00" fill-opacity="0.2" height="89.999999" id="svg_18" stroke="#000000" stroke-opacity="0.5" transform="rotate(90, 2346, 4077)" width="325.66782" x="2183.168308" xlink:href="#lg" y="4032.001334"/>
  <rect class=" imageannotationLine imageannotationLinked" fill="#FFFF00" fill-opacity="0.2" height="70" id="svg_20" stroke="#000000" stroke-opacity="0.5" transform="rotate(89, 2254.95, 4120.61)" width="1451.188921" x="1529.360393" xlink:href="#lh" y="4085.610344"/>
  <rect class=" imageannotationLine imageannotationLinked" fill="#FFFF00" fill-opacity="0.2" height="77.300684" id="svg_22" stroke="#000000" stroke-opacity="0.5" transform="rotate(89, 2166.73, 4049.2)" width="1330.525392" x="1501.472715" xlink:href="#li" y="4010.551854"/>
  <rect class=" imageannotationLine imageannotationLinked" fill="#FFFF00" fill-opacity="0.2" height="64.787524" id="svg_24" stroke="#000000" stroke-opacity="0.5" transform="rotate(89, 2069.39, 4086.37)" width="1436.727141" x="1351.02586" xlink:href="#lj" y="4053.978981"/>
  <rect class=" imageannotationLine imageannotationLinked" fill="#FFFF00" fill-opacity="0.2" height="103.000002" id="svg_26" stroke="#000000" stroke-opacity="0.5" transform="rotate(90, 2027.5, 4081.5)" width="274.667844" x="1890.165073" xlink:href="#lk" y="4029.997073"/>
  <rect class=" imageannotationLine imageannotationLinked" fill="#FFFF00" fill-opacity="0.2" height="90.862839" id="svg_28" stroke="#000000" stroke-opacity="0.5" transform="rotate(88, 1948.37, 4261.73)" width="1758.382647" x="1069.176421" xlink:href="#ll" y="4216.303317"/>
  <rect class=" imageannotationLine imageannotationLinked" fill="#FFFF00" fill-opacity="0.2" height="90.999995" id="svg_30" stroke="#000000" stroke-opacity="0.5" transform="rotate(90, 3050.5, 3231.5)" width="214.667871" x="2943.168772" xlink:href="#lm" y="3186.001071"/>
  <rect class=" imageannotationLine imageannotationLinked" fill="#FFFF00" fill-opacity="0.2" height="83.000002" id="svg_32" stroke="#000000" stroke-opacity="0.5" transform="rotate(-90, 1080.5, 3004)" width="739.66767" x="710.669827" xlink:href="#ln" y="2962.501038"/>
 </g>

</svg>