<?xml version="1.0" encoding="UTF-8" standalone="no"?><svg xmlns="http://www.w3.org/2000/svg" xmlns:xlink="http://www.w3.org/1999/xlink" height="6144.000000000001" width="4096">
 <g>
  <title>Layer 1</title>
  <rect class=" imageannotationLine imageannotationLinked" fill="#FFFF00" fill-opacity="0.2" height="120" id="svg_2" stroke="#000000" stroke-opacity="0.5" transform="rotate(180, 2896.5, 5451)" width="544.0901" x="2624.453519" xlink:href="#la" y="5390.99646"/>
  <rect class=" imageannotationLine imageannotationLinked" fill="#FFFF00" fill-opacity="0.2" height="90" id="svg_4" stroke="#000000" stroke-opacity="0.5" transform="rotate(-179, 2298.85, 5199.07)" width="2348.765904" x="1124.472155" xlink:href="#lb" y="5154.07029"/>
  <rect class=" imageannotationLine imageannotationLinked" fill="#FFFF00" fill-opacity="0.2" height="104.997711" id="svg_6" stroke="#000000" stroke-opacity="0.5" transform="rotate(-179, 2383.87, 5058.95)" width="2509.09082" x="1129.32423" xlink:href="#lc" y="5006.455994"/>
  <rect class=" imageannotationLine imageannotationLinked" fill="#FFFF00" fill-opacity="0.2" height="90" id="svg_8" stroke="#000000" stroke-opacity="0.5" transform="rotate(-179, 2428.94, 4897.42)" width="2399.194745" x="1229.342261" xlink:href="#ld" y="4852.415418"/>
  <rect class=" imageannotationLine imageannotationLinked" fill="#FFFF00" fill-opacity="0.2" height="90" id="svg_10" stroke="#000000" stroke-opacity="0.5" transform="rotate(-179, 2419, 4726.46)" width="2509.09082" x="1164.455078" xlink:href="#le" y="4681.457397"/>
  <rect class=" imageannotationLine imageannotationLinked" fill="#FFFF00" fill-opacity="0.2" height="90" id="svg_12" stroke="#000000" stroke-opacity="0.5" transform="rotate(-179, 2398.99, 4561.81)" width="2469.096933" x="1164.446375" xlink:href="#lf" y="4516.80664"/>
  <rect class=" imageannotationLine imageannotationLinked" fill="#FFFF00" fill-opacity="0.2" height="90" id="svg_16" stroke="#000000" stroke-opacity="0.5" transform="rotate(-179, 2476.5, 4401)" width="2374.0907" x="1289.454973" xlink:href="#lg" y="4355.99646"/>
  <rect class=" imageannotationLine imageannotationLinked" fill="#FFFF00" fill-opacity="0.2" height="64.999996" id="svg_18" stroke="#000000" stroke-opacity="0.5" transform="rotate(180, 1886.5, 4298.5)" width="184.089918" x="1794.454227" xlink:href="#lh" y="4265.995435"/>
  <rect class=" imageannotationLine imageannotationLinked" fill="#FFFF00" fill-opacity="0.2" height="90" id="svg_20" stroke="#000000" stroke-opacity="0.5" transform="rotate(-179, 2389, 4231.46)" width="2509.09082" x="1134.455078" xlink:href="#li" y="4186.457397"/>
  <rect class=" imageannotationLine imageannotationLinked" fill="#FFFF00" fill-opacity="0.2" height="90" id="svg_22" stroke="#000000" stroke-opacity="0.5" transform="rotate(180, 3024, 4091)" width="1259.09034" x="2394.45458" xlink:href="#lj" y="4045.99646"/>
  <rect class=" imageannotationLine imageannotationLinked" fill="#FFFF00" fill-opacity="0.2" height="90" id="svg_24" stroke="#000000" stroke-opacity="0.5" transform="rotate(180, 2464, 3496)" width="2389.090763" x="1269.455473" xlink:href="#lk" y="3450.99646"/>
  <rect class=" imageannotationLine imageannotationLinked" fill="#FFFF00" fill-opacity="0.2" height="90" id="svg_26" stroke="#000000" stroke-opacity="0.5" transform="rotate(180, 2414, 4128.73)" width="2509.09082" x="1159.455078" xlink:href="#ll" y="4871.457397"/>
  <rect class=" imageannotationLine imageannotationLinked" fill="#FFFF00" fill-opacity="0.2" height="90" id="svg_28" stroke="#000000" stroke-opacity="0.5" transform="rotate(-179, 2389, 3186.46)" width="2509.09082" x="1134.455078" xlink:href="#lm" y="3141.457397"/>
  <rect class=" imageannotationLine imageannotationLinked" fill="#FFFF00" fill-opacity="0.2" height="90" id="svg_30" stroke="#000000" stroke-opacity="0.5" transform="rotate(180, 2409, 4113.73)" width="2509.09082" x="1154.455078" xlink:href="#ln" y="5146.457397"/>
  <rect class=" imageannotationLine imageannotationLinked" fill="#FFFF00" fill-opacity="0.2" height="90" id="svg_34" stroke="#000000" stroke-opacity="0.5" transform="rotate(-179, 2649.06, 2865.65)" width="2028.902006" x="1634.606495" xlink:href="#lo" y="2820.647547"/>
 </g>

</svg>