<?xml version="1.0" encoding="UTF-8" standalone="no"?><svg xmlns="http://www.w3.org/2000/svg" xmlns:xlink="http://www.w3.org/1999/xlink" height="6144" width="4096">
 <g>
  <title>Layer 1</title>
  <rect class=" imageannotationLine imageannotationLinked" fill="#FFFF00" fill-opacity="0.2" height="91.999999" id="svg_2" stroke="#000000" stroke-opacity="0.5" transform="rotate(90, 3246.37, 4640)" width="132.363294" x="3180.187996" xlink:href="#la" y="4594.00047"/>
  <rect class=" imageannotationLine imageannotationLinked" fill="#FFFF00" fill-opacity="0.2" height="99.999995" id="svg_4" stroke="#000000" stroke-opacity="0.5" transform="rotate(90, 3074.37, 2814)" width="264.363305" x="2942.187496" xlink:href="#lb" y="2764.00026"/>
  <rect class=" imageannotationLine imageannotationLinked" fill="#FFFF00" fill-opacity="0.2" height="67.999994" id="svg_8" stroke="#000000" stroke-opacity="0.5" transform="rotate(90, 2874, 3280)" width="2320.363477" x="1713.818186" xlink:href="#lc" y="3246.001102"/>
  <rect class=" imageannotationLine imageannotationLinked" fill="#FFFF00" fill-opacity="0.2" height="63.999993" id="svg_10" stroke="#000000" stroke-opacity="0.5" transform="rotate(90, 2710.37, 3234)" width="2252.363449" x="1584.185692" xlink:href="#ld" y="3202"/>
  <rect class=" imageannotationLine imageannotationLinked" fill="#FFFF00" fill-opacity="0.2" height="67.999992" id="svg_12" stroke="#000000" stroke-opacity="0.5" transform="rotate(90, 2548.37, 3278)" width="2292.363494" x="1402.185449" xlink:href="#le" y="3243.999984"/>
  <rect class=" imageannotationLine imageannotationLinked" fill="#FFFF00" fill-opacity="0.2" height="63.999996" id="svg_14" stroke="#000000" stroke-opacity="0.5" transform="rotate(90, 2378.37, 3250)" width="2260.363541" x="1248.185931" xlink:href="#lf" y="3218.000264"/>
  <rect class=" imageannotationLine imageannotationLinked" fill="#FFFF00" fill-opacity="0.2" height="79.999999" id="svg_16" stroke="#000000" stroke-opacity="0.5" transform="rotate(90, 2206.37, 3310)" width="2316.363416" x="1048.185501" xlink:href="#lg" y="3269.999771"/>
  <rect class=" imageannotationLine imageannotationLinked" fill="#FFFF00" fill-opacity="0.2" height="120" id="svg_18" stroke="#000000" stroke-opacity="0.5" transform="rotate(90, 2048.37, 3490)" width="2680.363599" x="708.189284" xlink:href="#lh" y="3429.996094"/>
  <rect class=" imageannotationLine imageannotationLinked" fill="#FFFF00" fill-opacity="0.2" height="80.000002" id="svg_22" stroke="#000000" stroke-opacity="0.5" transform="rotate(90, 1856.37, 3488)" width="2676.363663" x="518.189385" xlink:href="#li" y="3447.996243"/>
  <rect class=" imageannotationLine imageannotationLinked" fill="#FFFF00" fill-opacity="0.2" height="80" id="svg_24" stroke="#000000" stroke-opacity="0.5" transform="rotate(90, 1668.37, 3256)" width="2268.363487" x="534.185681" xlink:href="#lj" y="3216"/>
  <rect class=" imageannotationLine imageannotationLinked" fill="#FFFF00" fill-opacity="0.2" height="83.999999" id="svg_26" stroke="#000000" stroke-opacity="0.5" transform="rotate(90, 1494.37, 3420)" width="2516.363571" x="236.185604" xlink:href="#lk" y="3377.999652"/>
  <rect class=" imageannotationLine imageannotationLinked" fill="#FFFF00" fill-opacity="0.2" height="68.002439" id="svg_28" stroke="#000000" stroke-opacity="0.5" transform="rotate(89, 1324.37, 3381.86)" width="2492.363586" x="78.186897" xlink:href="#ll" y="3347.855071"/>
  <rect class=" imageannotationLine imageannotationLinked" fill="#FFFF00" fill-opacity="0.2" height="68.002441" id="svg_30" stroke="#000000" stroke-opacity="0.5" transform="rotate(90, 1148.37, 3453.99)" width="2620.363424" x="-161.810706" xlink:href="#lm" y="3419.993652"/>
  <rect class=" imageannotationLine imageannotationLinked" fill="#FFFF00" fill-opacity="0.2" height="84.002094" id="svg_32" stroke="#000000" stroke-opacity="0.5" transform="rotate(90, 986.003, 3326)" width="2312.363702" x="-170.176892" xlink:href="#ln" y="3283.995929"/>
  <rect class=" imageannotationLine imageannotationLinked" fill="#FFFF00" fill-opacity="0.2" height="80.00218" id="svg_34" stroke="#000000" stroke-opacity="0.5" transform="rotate(90, 802.369, 3202)" width="2124.363434" x="-259.814262" xlink:href="#lo" y="3161.997676"/>
 </g>
</svg>