<?xml version="1.0" encoding="UTF-8" standalone="no"?><svg xmlns="http://www.w3.org/2000/svg" xmlns:xlink="http://www.w3.org/1999/xlink" height="6144.000000000001" width="4096">
 <g>
  <title>Layer 1</title>
  <rect class=" imageannotationLine imageannotationLinked" fill="#FFFF00" fill-opacity="0.2" height="104.834447" id="svg_2" stroke="#000000" stroke-opacity="0.5" transform="rotate(88, 3871.57, 3099.71)" width="1452.272999" x="3145.432717" xlink:href="#la" y="3047.290061"/>
  <rect class=" imageannotationLine imageannotationLinked" fill="#FFFF00" fill-opacity="0.2" height="105" id="svg_4" stroke="#000000" stroke-opacity="0.5" transform="rotate(90, 3546.5, 2870.32)" width="1832.272744" x="2630.367181" xlink:href="#lb" y="2817.82135"/>
  <rect class=" imageannotationLine imageannotationLinked" fill="#FFFF00" fill-opacity="0.2" height="90.089547" id="svg_6" stroke="#000000" stroke-opacity="0.5" transform="rotate(89, 3389.05, 3035.45)" width="2122.272778" x="2327.913307" xlink:href="#lc" y="2990.406788"/>
  <rect class=" imageannotationLine imageannotationLinked" fill="#FFFF00" fill-opacity="0.2" height="109.999242" id="svg_8" stroke="#000000" stroke-opacity="0.5" transform="rotate(89, 3239, 3220.28)" width="2522.272597" x="1977.866285" xlink:href="#ld" y="3165.278352"/>
  <rect class=" imageannotationLine imageannotationLinked" fill="#FFFF00" fill-opacity="0.2" height="90.002285" id="svg_10" stroke="#000000" stroke-opacity="0.5" transform="rotate(89, 3059, 3215.19)" width="2482.272735" x="1817.864975" xlink:href="#le" y="3170.189285"/>
  <rect class=" imageannotationLine imageannotationLinked" fill="#FFFF00" fill-opacity="0.2" height="105" id="svg_12" stroke="#000000" stroke-opacity="0.5" transform="rotate(90, 2791.5, 3030.32)" width="402.273299" x="2590.367163" xlink:href="#lf" y="2977.82135"/>
  <rect class=" imageannotationLine imageannotationLinked" fill="#FFFF00" fill-opacity="0.2" height="105" id="svg_14" stroke="#000000" stroke-opacity="0.5" transform="rotate(90, 2531.5, 3095.32)" width="2222.272646" x="1420.367189" xlink:href="#lg" y="3042.82135"/>
  <rect class=" imageannotationLine imageannotationLinked" fill="#FFFF00" fill-opacity="0.2" height="105" id="svg_16" stroke="#000000" stroke-opacity="0.5" transform="rotate(90, 2356.5, 2895.32)" width="1832.272744" x="1440.367187" xlink:href="#lh" y="2842.82135"/>
  <rect class=" imageannotationLine imageannotationLinked" fill="#FFFF00" fill-opacity="0.2" height="95.000001" id="svg_18" stroke="#000000" stroke-opacity="0.5" transform="rotate(90, 2201.5, 3150.32)" width="2302.272679" x="1050.367426" xlink:href="#li" y="3102.821494"/>
  <rect class=" imageannotationLine imageannotationLinked" fill="#FFFF00" fill-opacity="0.2" height="95.001521" id="svg_20" stroke="#000000" stroke-opacity="0.5" transform="rotate(89, 2041.5, 3082.73)" width="2127.27265" x="977.865638" xlink:href="#lj" y="3035.233376"/>
  <rect class=" imageannotationLine imageannotationLinked" fill="#FFFF00" fill-opacity="0.2" height="105" id="svg_22" stroke="#000000" stroke-opacity="0.5" transform="rotate(89, 1861.5, 3292.82)" width="2507.272634" x="607.867185" xlink:href="#lk" y="3240.32135"/>
  <rect class=" imageannotationLine imageannotationLinked" fill="#FFFF00" fill-opacity="0.2" height="89.915023" id="svg_24" stroke="#000000" stroke-opacity="0.5" transform="rotate(89, 1688.96, 3285.45)" width="2512.27268" x="432.825731" xlink:href="#ll" y="3240.495111"/>
  <rect class=" imageannotationLine imageannotationLinked" fill="#FFFF00" fill-opacity="0.2" height="105" id="svg_26" stroke="#000000" stroke-opacity="0.5" transform="rotate(89, 1506.5, 3307.82)" width="2497.272543" x="257.867189" xlink:href="#lm" y="3255.32135"/>
  <rect class=" imageannotationLine imageannotationLinked" fill="#FFFF00" fill-opacity="0.2" height="80.000001" id="svg_28" stroke="#000000" stroke-opacity="0.5" transform="rotate(90, 1289, 3180.32)" width="252.273344" x="1162.867338" xlink:href="#ln" y="3140.321203"/>
  <rect class=" imageannotationLine imageannotationLinked" fill="#FFFF00" fill-opacity="0.2" height="105" id="svg_30" stroke="#000000" stroke-opacity="0.5" transform="rotate(90, 1111.5, 3542.82)" width="2717.27246" x="-247.13274" xlink:href="#lo" y="3490.32135"/>
  <rect class=" imageannotationLine imageannotationLinked" fill="#FFFF00" fill-opacity="0.2" height="105" id="svg_32" stroke="#000000" stroke-opacity="0.5" transform="rotate(90, 976.504, 4745.32)" width="112.273405" x="920.367156" xlink:href="#lp" y="4692.82135"/>
  <rect class=" imageannotationLine imageannotationLinked" fill="#FFFF00" fill-opacity="0.2" height="105" id="svg_34" stroke="#000000" stroke-opacity="0.5" transform="rotate(90, 926.504, 3257.82)" width="2527.272558" x="-337.132798" xlink:href="#lq" y="3205.32135"/>
  <rect class=" imageannotationLine imageannotationLinked" fill="#FFFF00" fill-opacity="0.2" height="105" id="svg_36" stroke="#000000" stroke-opacity="0.5" transform="rotate(90, 761.504, 3307.82)" width="2507.272561" x="-492.132763" xlink:href="#lr" y="3255.32135"/>
  <rect class=" imageannotationLine imageannotationLinked" fill="#FFFF00" fill-opacity="0.2" height="95.001521" id="svg_38" stroke="#000000" stroke-opacity="0.5" transform="rotate(89, 596.505, 3497.91)" width="2827.272419" x="-817.131439" xlink:href="#ls" y="3450.407903"/>
  <rect class=" imageannotationLine imageannotationLinked" fill="#FFFF00" fill-opacity="0.2" height="80.000001" id="svg_40" stroke="#000000" stroke-opacity="0.5" transform="rotate(90, 369.004, 3270.32)" width="702.273189" x="17.867364" xlink:href="#lt" y="3230.321253"/>
  <rect class=" imageannotationLine imageannotationLinked" fill="#FFFF00" fill-opacity="0.2" height="90.000001" id="svg_43" stroke="#000000" stroke-opacity="0.5" transform="rotate(90, 321.5, 2001)" width="604.999989" x="18.999995" xlink:href="#lu" y="1955.999777"/>
 </g>

</svg>