<?xml version="1.0" encoding="UTF-8" standalone="no"?><svg xmlns="http://www.w3.org/2000/svg" xmlns:xlink="http://www.w3.org/1999/xlink" height="6143.999999999999" width="4096">
 <g>
  <title>Layer 1</title>
  <rect class=" imageannotationLine imageannotationLinked" fill="#FFFF00" fill-opacity="0.2" height="120" id="svg_2" stroke="#000000" stroke-opacity="0.5" transform="rotate(-1, 2543.97, 897.942)" width="1592.214213" x="1747.858285" xlink:href="#la" y="837.943014"/>
  <rect class=" imageannotationLine imageannotationLinked" fill="#FFFF00" fill-opacity="0.2" height="120" id="svg_6" stroke="#000000" stroke-opacity="0.5" transform="rotate(-1, 1483.39, 1107.64)" width="557.488554" x="1204.642316" xlink:href="#lb" y="1047.6347"/>
  <rect class=" imageannotationLine imageannotationLinked" fill="#FFFF00" fill-opacity="0.2" height="101.563584" id="svg_8" stroke="#000000" stroke-opacity="0.5" transform="rotate(-1, 2555.97, 1201.95)" width="1619.769606" x="1746.087977" xlink:href="#lc" y="1151.171893"/>
  <rect class=" imageannotationLine imageannotationLinked" fill="#FFFF00" fill-opacity="0.2" height="87.279891" id="svg_10" stroke="#000000" stroke-opacity="0.5" transform="rotate(-1, 2443.93, 1372.13)" width="1729.684615" x="1579.084285" xlink:href="#ld" y="1328.494254"/>
  <rect class=" imageannotationLine imageannotationLinked" fill="#FFFF00" fill-opacity="0.2" height="101.563583" id="svg_12" stroke="#000000" stroke-opacity="0.5" transform="rotate(-1, 2124.7, 1575.84)" width="1758.401815" x="1245.499639" xlink:href="#le" y="1525.061812"/>
  <rect class=" imageannotationLine imageannotationLinked" fill="#FFFF00" fill-opacity="0.2" height="101.563583" id="svg_14" stroke="#000000" stroke-opacity="0.5" transform="rotate(-1, 2191.57, 1728.36)" width="1835.383384" x="1273.882116" xlink:href="#lf" y="1677.581783"/>
  <rect class=" imageannotationLine imageannotationLinked" fill="#FFFF00" fill-opacity="0.2" height="101.563583" id="svg_16" stroke="#000000" stroke-opacity="0.5" transform="rotate(-1, 2184.79, 1894.1)" width="1884.296329" x="1242.642715" xlink:href="#lg" y="1843.314722"/>
  <rect class=" imageannotationLine imageannotationLinked" fill="#FFFF00" fill-opacity="0.2" height="101.563583" id="svg_18" stroke="#000000" stroke-opacity="0.5" transform="rotate(-1, 2148.47, 2073.27)" width="744.021362" x="1776.462817" xlink:href="#lh" y="2022.487938"/>
  <rect class=" imageannotationLine imageannotationLinked" fill="#FFFF00" fill-opacity="0.2" height="101.563583" id="svg_20" stroke="#000000" stroke-opacity="0.5" transform="rotate(-1, 2217.5, 2265.6)" width="1824.155954" x="1305.418002" xlink:href="#li" y="2214.820783"/>
  <rect class=" imageannotationLine imageannotationLinked" fill="#FFFF00" fill-opacity="0.2" height="101.563583" id="svg_22" stroke="#000000" stroke-opacity="0.5" transform="rotate(-1, 2362.15, 2430.39)" width="2106.471151" x="1308.914137" xlink:href="#lj" y="2379.605982"/>
  <rect class=" imageannotationLine imageannotationLinked" fill="#FFFF00" fill-opacity="0.2" height="101.563583" id="svg_24" stroke="#000000" stroke-opacity="0.5" transform="rotate(-1, 2556.44, 2586.03)" width="1564.993459" x="1773.947548" xlink:href="#lk" y="2535.252588"/>
  <rect class=" imageannotationLine imageannotationLinked" fill="#FFFF00" fill-opacity="0.2" height="101.563583" id="svg_26" stroke="#000000" stroke-opacity="0.5" transform="rotate(-1, 2912.11, 2709.07)" width="1028.282098" x="2397.963529" xlink:href="#ll" y="2658.291694"/>
  <rect class=" imageannotationLine imageannotationLinked" fill="#FFFF00" fill-opacity="0.2" height="67.532049" id="svg_28" stroke="#000000" stroke-opacity="0.5" transform="rotate(-1, 1896.66, 2798.04)" width="116.743958" x="1838.285461" xlink:href="#lm" y="2764.27257"/>
  <rect class=" imageannotationLine imageannotationLinked" fill="#FFFF00" fill-opacity="0.2" height="101.563583" id="svg_30" stroke="#000000" stroke-opacity="0.5" transform="rotate(-1, 2075.82, 2867.1)" width="1569.410553" x="1291.116071" xlink:href="#ln" y="2816.317271"/>
  <rect class=" imageannotationLine imageannotationLinked" fill="#FFFF00" fill-opacity="0.2" height="81.666143" id="svg_32" stroke="#000000" stroke-opacity="0.5" transform="rotate(-1, 2634.18, 3032.02)" width="1595.81899" x="1836.269611" xlink:href="#lo" y="2991.186208"/>
  <rect class=" imageannotationLine imageannotationLinked" fill="#FFFF00" fill-opacity="0.2" height="70.289055" id="svg_34" stroke="#000000" stroke-opacity="0.5" transform="rotate(-1, 2251.25, 3146.74)" width="209.416895" x="2146.538489" xlink:href="#lp" y="3111.592375"/>
  <rect class=" imageannotationLine imageannotationLinked" fill="#FFFF00" fill-opacity="0.2" height="101.563583" id="svg_36" stroke="#000000" stroke-opacity="0.5" transform="rotate(-1, 2314.67, 3229.79)" width="2012.798057" x="1308.275514" xlink:href="#lq" y="3179.00938"/>
  <rect class=" imageannotationLine imageannotationLinked" fill="#FFFF00" fill-opacity="0.2" height="101.563583" id="svg_38" stroke="#000000" stroke-opacity="0.5" transform="rotate(-1, 2268.98, 3392.11)" width="1966.59219" x="1285.690236" xlink:href="#lr" y="3341.332021"/>
  <rect class=" imageannotationLine imageannotationLinked" fill="#FFFF00" fill-opacity="0.2" height="101.563583" id="svg_40" stroke="#000000" stroke-opacity="0.5" transform="rotate(-1, 2284.21, 3542.23)" width="1974.763563" x="1296.832581" xlink:href="#ls" y="3491.44748"/>
  <rect class=" imageannotationLine imageannotationLinked" fill="#FFFF00" fill-opacity="0.2" height="101.563583" id="svg_42" stroke="#000000" stroke-opacity="0.5" transform="rotate(-1, 2340.16, 3697.86)" width="2132.829765" x="1273.74737" xlink:href="#lt" y="3647.07951"/>
  <rect class=" imageannotationLine imageannotationLinked" fill="#FFFF00" fill-opacity="0.2" height="101.563583" id="svg_44" stroke="#000000" stroke-opacity="0.5" transform="rotate(-1, 2304.48, 3853.42)" width="1951.610564" x="1328.675448" xlink:href="#lu" y="3802.636544"/>
  <rect class=" imageannotationLine imageannotationLinked" fill="#FFFF00" fill-opacity="0.2" height="101.563583" id="svg_46" stroke="#000000" stroke-opacity="0.5" transform="rotate(-1, 2620, 4011.81)" width="1429.531663" x="1905.236695" xlink:href="#lv" y="3961.025607"/>
  <rect class=" imageannotationLine imageannotationLinked" fill="#FFFF00" fill-opacity="0.2" height="101.563583" id="svg_48" stroke="#000000" stroke-opacity="0.5" transform="rotate(-1, 2332.99, 4192.76)" width="2049.486677" x="1308.243275" xlink:href="#lw" y="4141.974871"/>
  <rect class=" imageannotationLine imageannotationLinked" fill="#FFFF00" fill-opacity="0.2" height="73.395116" id="svg_50" stroke="#000000" stroke-opacity="0.5" transform="rotate(-1, 2104.58, 4354.22)" width="405.732168" x="1901.716196" xlink:href="#lx" y="4317.523346"/>
  <rect class=" imageannotationLine imageannotationLinked" fill="#FFFF00" fill-opacity="0.2" height="87.479353" id="svg_52" stroke="#000000" stroke-opacity="0.5" transform="rotate(-1, 2332.21, 4485.48)" width="1969.149786" x="1347.632463" xlink:href="#ly" y="4441.738287"/>
  <rect class=" imageannotationLine imageannotationLinked" fill="#FFFF00" fill-opacity="0.2" height="101.563583" id="svg_54" stroke="#000000" stroke-opacity="0.5" transform="rotate(-1, 2661.24, 4639.71)" width="1522.755846" x="1899.859555" xlink:href="#lz" y="4588.927135"/>
  <rect class=" imageannotationLine imageannotationLinked" fill="#FFFF00" fill-opacity="0.2" height="101.563583" id="svg_56" stroke="#000000" stroke-opacity="0.5" transform="rotate(-1, 2541.91, 4798.78)" width="1201.093808" x="1941.364969" xlink:href="#laa" y="4748.003224"/>
  <rect class=" imageannotationLine imageannotationLinked" fill="#FFFF00" fill-opacity="0.2" height="109.984202" id="svg_58" stroke="#000000" stroke-opacity="0.5" transform="rotate(-1, 2362.38, 4969.39)" width="2126.368341" x="1299.197561" xlink:href="#lab" y="4914.393691"/>
 </g>

</svg>