<?xml version="1.0" encoding="UTF-8" standalone="no"?><svg xmlns="http://www.w3.org/2000/svg" xmlns:xlink="http://www.w3.org/1999/xlink" height="6144" width="4096">
 <g>
  <title>Layer 1</title>
  <rect class=" imageannotationLine imageannotationLinked" fill="#FFFF00" fill-opacity="0.2" height="83.636363" id="svg_2" stroke="#000000" stroke-opacity="0.5" width="645.454766" x="1122.182681" xlink:href="#la" y="654.180997"/>
  <rect class=" imageannotationLine imageannotationLinked" fill="#FFFF00" fill-opacity="0.2" height="87.636347" id="svg_5" stroke="#000000" stroke-opacity="0.5" transform="rotate(90, 3498.81, 959.271)" width="247.636669" x="3374.992146" xlink:href="#lb" y="915.451529"/>
  <rect class=" imageannotationLine imageannotationLinked" fill="#FFFF00" fill-opacity="0.2" height="87.426304" id="svg_7" stroke="#000000" stroke-opacity="0.5" transform="rotate(89, 3374.71, 1999.24)" width="1775.636325" x="2486.888451" xlink:href="#lc" y="1955.523803"/>
  <rect class=" imageannotationLine imageannotationLinked" fill="#FFFF00" fill-opacity="0.2" height="91.704919" id="svg_9" stroke="#000000" stroke-opacity="0.5" transform="rotate(89, 3208.84, 1805.2)" width="2187.636274" x="2115.027607" xlink:href="#ld" y="1759.347111"/>
  <rect class=" imageannotationLine imageannotationLinked" fill="#FFFF00" fill-opacity="0.2" height="79.706798" id="svg_11" stroke="#000000" stroke-opacity="0.5" transform="rotate(89, 3042.85, 1795.31)" width="2239.636146" x="1923.029657" xlink:href="#le" y="1755.450761"/>
  <rect class=" imageannotationLine imageannotationLinked" fill="#FFFF00" fill-opacity="0.2" height="91.495485" id="svg_13" stroke="#000000" stroke-opacity="0.5" transform="rotate(89, 2888.74, 1735.2)" width="2143.636223" x="1816.922686" xlink:href="#lf" y="1689.45375"/>
  <rect class=" imageannotationLine imageannotationLinked" fill="#FFFF00" fill-opacity="0.2" height="99.913091" id="svg_15" stroke="#000000" stroke-opacity="0.5" transform="rotate(89, 2748.95, 1669.13)" width="1939.636321" x="1779.130988" xlink:href="#lg" y="1619.17115"/>
  <rect class=" imageannotationLine imageannotationLinked" fill="#FFFF00" fill-opacity="0.2" height="109.885201" id="svg_17" stroke="#000000" stroke-opacity="0.5" transform="rotate(88, 2605, 1756.94)" width="2155.636186" x="1527.185673" xlink:href="#lh" y="1701.998703"/>
  <rect class=" imageannotationLine imageannotationLinked" fill="#FFFF00" fill-opacity="0.2" height="94.930759" id="svg_19" stroke="#000000" stroke-opacity="0.5" transform="rotate(88, 2458.44, 1754.66)" width="2143.636252" x="1386.624395" xlink:href="#li" y="1707.19054"/>
  <rect class=" imageannotationLine imageannotationLinked" fill="#FFFF00" fill-opacity="0.2" height="83.63636" id="svg_21" stroke="#000000" stroke-opacity="0.5" transform="rotate(89, 2305.81, 1805.27)" width="2267.636416" x="1171.994001" xlink:href="#lj" y="1763.451836"/>
  <rect class=" imageannotationLine imageannotationLinked" fill="#FFFF00" fill-opacity="0.2" height="86.588942" id="svg_23" stroke="#000000" stroke-opacity="0.5" transform="rotate(89, 2161.39, 1773.07)" width="2307.567018" x="1007.601659" xlink:href="#lk" y="1729.776138"/>
  <rect class=" imageannotationLine imageannotationLinked" fill="#FFFF00" fill-opacity="0.2" height="87.217989" id="svg_25" stroke="#000000" stroke-opacity="0.5" transform="rotate(89, 2031.48, 1761.61)" width="2195.977258" x="933.492807" xlink:href="#ll" y="1718.002079"/>
  <rect class=" imageannotationLine imageannotationLinked" fill="#FFFF00" fill-opacity="0.2" height="95.285439" id="svg_27" stroke="#000000" stroke-opacity="0.5" transform="rotate(89, 1893.57, 1753.69)" width="2108.684736" x="839.232766" xlink:href="#lm" y="1706.05072"/>
  <rect class=" imageannotationLine imageannotationLinked" fill="#FFFF00" fill-opacity="0.2" height="86.728193" id="svg_29" stroke="#000000" stroke-opacity="0.5" transform="rotate(89, 1752.1, 1825.75)" width="2181.239882" x="661.482298" xlink:href="#ln" y="1782.390562"/>
  <rect class=" imageannotationLine imageannotationLinked" fill="#FFFF00" fill-opacity="0.2" height="99.638071" id="svg_31" stroke="#000000" stroke-opacity="0.5" transform="rotate(89, 1597.56, 1878.86)" width="2214.732904" x="490.195702" xlink:href="#lo" y="1829.040899"/>
  <rect class=" imageannotationLine imageannotationLinked" fill="#FFFF00" fill-opacity="0.2" height="94.587232" id="svg_33" stroke="#000000" stroke-opacity="0.5" transform="rotate(89, 1445.14, 1862.97)" width="2271.636282" x="309.324515" xlink:href="#lp" y="1815.678985"/>
  <rect class=" imageannotationLine imageannotationLinked" fill="#FFFF00" fill-opacity="0.2" height="115.352114" id="svg_35" stroke="#000000" stroke-opacity="0.5" transform="rotate(89, 1323.43, 1767.21)" width="1976.059329" x="335.399687" xlink:href="#lq" y="1709.532837"/>
  <rect class=" imageannotationLine imageannotationLinked" fill="#FFFF00" fill-opacity="0.2" height="91.087779" id="svg_37" stroke="#000000" stroke-opacity="0.5" transform="rotate(88, 1184.22, 1853.19)" width="2163.89146" x="102.27944" xlink:href="#lr" y="1807.64176"/>
  <rect class=" imageannotationLine imageannotationLinked" fill="#FFFF00" fill-opacity="0.2" height="99.766147" id="svg_39" stroke="#000000" stroke-opacity="0.5" transform="rotate(88, 1038.23, 1824.69)" width="2227.569251" x="-75.552865" xlink:href="#ls" y="1774.808344"/>
  <rect class=" imageannotationLine imageannotationLinked" fill="#FFFF00" fill-opacity="0.2" height="103.623647" id="svg_41" stroke="#000000" stroke-opacity="0.5" transform="rotate(88, 895.22, 1818.91)" width="2255.371599" x="-232.465682" xlink:href="#lt" y="1767.098799"/>
  <rect class=" imageannotationLine imageannotationLinked" fill="#FFFF00" fill-opacity="0.2" height="111.412895" id="svg_43" stroke="#000000" stroke-opacity="0.5" transform="rotate(89, 3443.71, 4389.2)" width="2323.636113" x="2281.892244" xlink:href="#willkommen" y="4333.496149"/>
  <rect class=" imageannotationLine imageannotationLinked" fill="#FFFF00" fill-opacity="0.2" height="103.62365" id="svg_45" stroke="#000000" stroke-opacity="0.5" transform="rotate(88, 3288.42, 4324.58)" width="2170.269096" x="2203.285732" xlink:href="#lu" y="4272.763724"/>
  <rect class=" imageannotationLine imageannotationLinked" fill="#FFFF00" fill-opacity="0.2" height="103.62365" id="svg_47" stroke="#000000" stroke-opacity="0.5" transform="rotate(88, 3139.68, 4403.34)" width="2271.780712" x="2003.789237" xlink:href="#lv" y="4351.532729"/>
  <rect class=" imageannotationLine imageannotationLinked" fill="#FFFF00" fill-opacity="0.2" height="103.62365" id="svg_49" stroke="#000000" stroke-opacity="0.5" transform="rotate(89, 2963.81, 4397.27)" width="2195.636231" x="1865.997951" xlink:href="#lw" y="4345.458382"/>
  <rect class=" imageannotationLine imageannotationLinked" fill="#FFFF00" fill-opacity="0.2" height="75.624013" id="svg_51" stroke="#000000" stroke-opacity="0.5" transform="rotate(90, 2789.81, 3459.27)" width="359.636649" x="2609.996393" xlink:href="#lx" y="3421.457531"/>
  <rect class=" imageannotationLine imageannotationLinked" fill="#FFFF00" fill-opacity="0.2" height="110.564017" id="svg_53" stroke="#000000" stroke-opacity="0.5" transform="rotate(88, 2659.41, 4462.84)" width="2246.845543" x="1535.989332" xlink:href="#ly" y="4407.562562"/>
  <rect class=" imageannotationLine imageannotationLinked" fill="#FFFF00" fill-opacity="0.2" height="94.511825" id="svg_55" stroke="#000000" stroke-opacity="0.5" transform="rotate(88, 2491.03, 4368.58)" width="2370.488532" x="1305.782493" xlink:href="#lz" y="4321.321361"/>
  <rect class=" imageannotationLine imageannotationLinked" fill="#FFFF00" fill-opacity="0.2" height="67.624119" id="svg_57" stroke="#000000" stroke-opacity="0.5" transform="rotate(88, 2421.81, 4735.27)" width="511.636603" x="2165.996549" xlink:href="#laa" y="4701.457943"/>
  <rect class=" imageannotationLine imageannotationLinked" fill="#FFFF00" fill-opacity="0.2" height="131.187547" id="svg_63" stroke="#000000" stroke-opacity="0.5" transform="rotate(88, 2353.08, 4358.27)" width="2274.629734" x="1215.767312" xlink:href="#lab" y="4292.679502"/>
  <rect class=" imageannotationLine imageannotationLinked" fill="#FFFF00" fill-opacity="0.2" height="111.47907" id="svg_65" stroke="#000000" stroke-opacity="0.5" transform="rotate(88, 2182.88, 4308.49)" width="2121.766751" x="1121.997785" xlink:href="#lac" y="4252.751599"/>
  <rect class=" imageannotationLine imageannotationLinked" fill="#FFFF00" fill-opacity="0.2" height="99.067751" id="svg_67" stroke="#000000" stroke-opacity="0.5" transform="rotate(88, 2036.79, 4379.68)" width="2227.251661" x="923.16125" xlink:href="#lad" y="4330.145418"/>
  <rect class=" imageannotationLine imageannotationLinked" fill="#FFFF00" fill-opacity="0.2" height="95.628629" id="svg_69" stroke="#000000" stroke-opacity="0.5" transform="rotate(88, 1896.8, 4483.3)" width="2400.02066" x="696.78669" xlink:href="#lae" y="4435.487718"/>
  <rect class=" imageannotationLine imageannotationLinked" fill="#FFFF00" fill-opacity="0.2" height="103.62365" id="svg_71" stroke="#000000" stroke-opacity="0.5" transform="rotate(88, 1739.81, 4393.27)" width="2211.636251" x="633.997967" xlink:href="#laf" y="4341.458382"/>
  <rect class=" imageannotationLine imageannotationLinked" fill="#FFFF00" fill-opacity="0.2" height="83.217183" id="svg_73" stroke="#000000" stroke-opacity="0.5" transform="rotate(88, 1597.7, 4421.9)" width="2269.044407" x="463.174933" xlink:href="#lag" y="4380.294118"/>
  <rect class=" imageannotationLine imageannotationLinked" fill="#FFFF00" fill-opacity="0.2" height="99.626031" id="svg_75" stroke="#000000" stroke-opacity="0.5" transform="rotate(88, 1453.82, 4517.48)" width="2443.636328" x="232.004642" xlink:href="#lah" y="4467.662278"/>
  <rect class=" imageannotationLine imageannotationLinked" fill="#FFFF00" fill-opacity="0.2" height="100.831727" id="svg_77" stroke="#000000" stroke-opacity="0.5" transform="rotate(88, 1314.42, 4429.32)" width="2243.63629" x="192.602742" xlink:href="#lai" y="4378.903135"/>
  <rect class=" imageannotationLine imageannotationLinked" fill="#FFFF00" fill-opacity="0.2" height="103.62365" id="svg_79" stroke="#000000" stroke-opacity="0.5" transform="rotate(89, 1163.81, 4323.27)" width="2087.636087" x="119.997798" xlink:href="#laj" y="4271.458382"/>
  <rect class=" imageannotationLine imageannotationLinked" fill="#FFFF00" fill-opacity="0.2" height="103.62365" id="svg_81" stroke="#000000" stroke-opacity="0.5" transform="rotate(89, 1035.57, 4435.36)" width="2239.80951" x="-84.331675" xlink:href="#lak" y="4383.547149"/>
  <rect class=" imageannotationLine imageannotationLinked" fill="#FFFF00" fill-opacity="0.2" height="103.62365" id="svg_83" stroke="#000000" stroke-opacity="0.5" transform="rotate(88, 867.814, 4205.27)" width="1827.636331" x="-46.002364" xlink:href="#lal" y="4153.458382"/>
  <rect class=" imageannotationLine imageannotationLinked" fill="#FFFF00" fill-opacity="0.2" height="123.623393" id="svg_85" stroke="#000000" stroke-opacity="0.5" transform="rotate(90, 3721.81, 3905.27)" width="1267.636471" x="3087.997415" xlink:href="#lam" y="3843.458853"/>
 </g>

</svg>