<?xml version="1.0" encoding="UTF-8" standalone="no"?><svg xmlns="http://www.w3.org/2000/svg" xmlns:xlink="http://www.w3.org/1999/xlink" height="6144" width="4096">
 <g>
  <title>Layer 1</title>
  <rect class=" imageannotationLine imageannotationLinked" fill="#FFFF00" fill-opacity="0.2" height="83.867558" id="svg_2" stroke="#000000" stroke-opacity="0.5" transform="rotate(-2, 2384.36, 937.897)" width="2366.909169" x="1200.902472" xlink:href="#la" y="895.964322"/>
  <rect class=" imageannotationLine imageannotationLinked" fill="#FFFF00" fill-opacity="0.2" height="96" id="svg_4" stroke="#000000" stroke-opacity="0.5" transform="rotate(-3, 2601.46, 1076)" width="1154.909699" x="2023.999133" xlink:href="#lb" y="1028"/>
  <rect class=" imageannotationLine imageannotationLinked" fill="#FFFF00" fill-opacity="0.2" height="95.790659" id="svg_6" stroke="#000000" stroke-opacity="0.5" transform="rotate(-3, 2483.46, 1264.1)" width="2502.909099" x="1232.00352" xlink:href="#lc" y="1216.209203"/>
  <rect class=" imageannotationLine imageannotationLinked" fill="#FFFF00" fill-opacity="0.2" height="115.34052" id="svg_8" stroke="#000000" stroke-opacity="0.5" transform="rotate(-4, 2644.9, 1418.13)" width="1290.909594" x="1999.44687" xlink:href="#ld" y="1360.466201"/>
  <rect class=" imageannotationLine imageannotationLinked" fill="#FFFF00" fill-opacity="0.2" height="103.570355" id="svg_10" stroke="#000000" stroke-opacity="0.5" transform="rotate(-3, 2465.66, 1631.99)" width="2306.909274" x="1312.207364" xlink:href="#le" y="1580.203893"/>
  <rect class=" imageannotationLine imageannotationLinked" fill="#FFFF00" fill-opacity="0.2" height="79.480923" id="svg_12" stroke="#000000" stroke-opacity="0.5" transform="rotate(-4, 2676.03, 1788.24)" width="1342.9096" x="2004.575132" xlink:href="#lf" y="1748.498943"/>
  <rect class=" imageannotationLine imageannotationLinked" fill="#FFFF00" fill-opacity="0.2" height="110.844921" id="svg_14" stroke="#000000" stroke-opacity="0.5" transform="rotate(-4, 2366.94, 2000.6)" width="2214.909247" x="1259.480502" xlink:href="#lg" y="1945.17315"/>
  <rect class=" imageannotationLine imageannotationLinked" fill="#FFFF00" fill-opacity="0.2" height="96" id="svg_16" stroke="#000000" stroke-opacity="0.5" transform="rotate(-5, 2443.38, 2169.41)" width="726.634272" x="2080.060786" xlink:href="#lh" y="2121.406504"/>
  <rect class=" imageannotationLine imageannotationLinked" fill="#FFFF00" fill-opacity="0.2" height="111.681984" id="svg_18" stroke="#000000" stroke-opacity="0.5" transform="rotate(-4, 2480.63, 2396.2)" width="2434.909208" x="1263.172759" xlink:href="#li" y="2340.356658"/>
  <rect class=" imageannotationLine imageannotationLinked" fill="#FFFF00" fill-opacity="0.2" height="84.00727" id="svg_20" stroke="#000000" stroke-opacity="0.5" transform="rotate(-2, 3257.38, 2586)" width="330.910025" x="3091.930008" xlink:href="#lj" y="2543.998878"/>
  <rect class=" imageannotationLine imageannotationLinked" fill="#FFFF00" fill-opacity="0.2" height="111.559387" id="svg_22" stroke="#000000" stroke-opacity="0.5" transform="rotate(-3, 2512.53, 2764.36)" width="2505.884874" x="1259.594395" xlink:href="#lk" y="2708.582803"/>
  <rect class=" imageannotationLine imageannotationLinked" fill="#FFFF00" fill-opacity="0.2" height="96" id="svg_24" stroke="#000000" stroke-opacity="0.5" width="454.90998" x="2271.999722" xlink:href="#ll" y="2880"/>
  <rect class=" imageannotationLine imageannotationLinked" fill="#FFFF00" fill-opacity="0.2" height="91.730694" id="svg_26" stroke="#000000" stroke-opacity="0.5" transform="rotate(-4, 2433.42, 3157.72)" width="2337.496414" x="1264.671306" xlink:href="#lm" y="3111.857342"/>
  <rect class=" imageannotationLine imageannotationLinked" fill="#FFFF00" fill-opacity="0.2" height="80.876055" id="svg_28" stroke="#000000" stroke-opacity="0.5" transform="rotate(-4, 2533.98, 3291.54)" width="682.909862" x="2192.526898" xlink:href="#ln" y="3251.105526"/>
  <rect class=" imageannotationLine imageannotationLinked" fill="#FFFF00" fill-opacity="0.2" height="106.139356" id="svg_30" stroke="#000000" stroke-opacity="0.5" transform="rotate(-3, 2433.72, 3490.97)" width="2330.909262" x="1268.260686" xlink:href="#lo" y="3437.895917"/>
  <rect class=" imageannotationLine imageannotationLinked" fill="#FFFF00" fill-opacity="0.2" height="96" id="svg_32" stroke="#000000" stroke-opacity="0.5" transform="rotate(-3, 2709.46, 3640)" width="1090.909712" x="2163.999179" xlink:href="#lp" y="3592"/>
  <rect class=" imageannotationLine imageannotationLinked" fill="#FFFF00" fill-opacity="0.2" height="99.650031" id="svg_34" stroke="#000000" stroke-opacity="0.5" transform="rotate(-2, 3099.42, 3838.17)" width="1166.9097" x="2515.967185" xlink:href="#lq" y="3788.350384"/>
  <rect class=" imageannotationLine imageannotationLinked" fill="#FFFF00" fill-opacity="0.2" height="96" id="svg_36" stroke="#000000" stroke-opacity="0.5" transform="rotate(-2, 2571.46, 4004)" width="902.909817" x="2119.999332" xlink:href="#schoenste" y="3956"/>
  <rect class=" imageannotationLine imageannotationLinked" fill="#FFFF00" fill-opacity="0.2" height="107.998115" id="svg_39" stroke="#000000" stroke-opacity="0.5" transform="rotate(179, 2221.99, 5409.96)" width="2784.36244" x="829.812611" xlink:href="#lr" y="5355.960581"/>
  <rect class=" imageannotationLine imageannotationLinked" fill="#FFFF00" fill-opacity="0.2" height="107.924677" id="svg_41" stroke="#000000" stroke-opacity="0.5" transform="rotate(179, 2269.61, 5221.97)" width="2872.57131" x="833.323966" xlink:href="#ls" y="5168.003786"/>
  <rect class=" imageannotationLine imageannotationLinked" fill="#FFFF00" fill-opacity="0.2" height="96" id="svg_43" stroke="#000000" stroke-opacity="0.5" transform="rotate(179, 2317.71, 5020)" width="2760.571178" x="937.429686" xlink:href="#lt" y="4971.996093"/>
  <rect class=" imageannotationLine imageannotationLinked" fill="#FFFF00" fill-opacity="0.2" height="96" id="svg_45" stroke="#000000" stroke-opacity="0.5" transform="rotate(179, 2341.71, 4840)" width="2736.571237" x="973.429198" xlink:href="#lu" y="4791.996093"/>
  <rect class=" imageannotationLine imageannotationLinked" fill="#FFFF00" fill-opacity="0.2" height="96" id="svg_47" stroke="#000000" stroke-opacity="0.5" transform="rotate(178, 2299.71, 4672)" width="2836.571311" x="881.4292" xlink:href="#lv" y="4623.996093"/>
  <rect class=" imageannotationLine imageannotationLinked" fill="#FFFF00" fill-opacity="0.2" height="107.998169" id="svg_49" stroke="#000000" stroke-opacity="0.5" transform="rotate(179, 2267.82, 4441.99)" width="2852.57133" x="841.534465" xlink:href="#lw" y="4387.994918"/>
  <rect class=" imageannotationLine imageannotationLinked" fill="#FFFF00" fill-opacity="0.2" height="83.995125" id="svg_51" stroke="#000000" stroke-opacity="0.5" transform="rotate(178, 2781.85, 4345.99)" width="1216.570752" x="2173.568991" xlink:href="#lx" y="4303.993642"/>
  <rect class=" imageannotationLine imageannotationLinked" fill="#FFFF00" fill-opacity="0.2" height="96" id="svg_53" stroke="#000000" stroke-opacity="0.5" transform="rotate(177, 2370.72, 4286.79)" width="2605.363491" x="1068.041441" xlink:href="#ly" y="4238.791418"/>
  <rect class=" imageannotationLine imageannotationLinked" fill="#FFFF00" fill-opacity="0.2" height="119.845779" id="svg_55" stroke="#000000" stroke-opacity="0.5" transform="rotate(178, 2284.13, 4171.91)" width="2684.571219" x="941.845637" xlink:href="#lz" y="4111.987675"/>
  <rect class=" imageannotationLine imageannotationLinked" fill="#FFFF00" fill-opacity="0.2" height="96" id="svg_57" stroke="#000000" stroke-opacity="0.5" transform="rotate(180, 1829.71, 4004)" width="544.57049" x="1557.429932" xlink:href="#laa" y="3955.996094"/>
 </g>

</svg>