<?xml version="1.0" encoding="UTF-8" standalone="no"?><svg xmlns="http://www.w3.org/2000/svg" xmlns:xlink="http://www.w3.org/1999/xlink" height="6144.000000000001" width="4096">
 <g>
  <title>Layer 1</title>
  <rect class=" imageannotationLine imageannotationLinked" fill="#FFFF00" fill-opacity="0.2" height="110.000006" id="svg_4" stroke="#000000" stroke-opacity="0.5" transform="rotate(90, 3499, 1532.59)" width="339.546689" x="3329.230513" xlink:href="#la" y="1477.59034"/>
  <rect class=" imageannotationLine imageannotationLinked" fill="#FFFF00" fill-opacity="0.2" height="124.999999" id="svg_6" stroke="#000000" stroke-opacity="0.5" transform="rotate(90, 3316.5, 1730.09)" width="494.54662" x="3069.230438" xlink:href="#lb" y="1667.590508"/>
  <rect class=" imageannotationLine imageannotationLinked" fill="#FFFF00" fill-opacity="0.2" height="164.999996" id="svg_8" stroke="#000000" stroke-opacity="0.5" transform="rotate(90, 3291.5, 3180.09)" width="404.546693" x="3089.230913" xlink:href="#lc" y="3097.590705"/>
  <rect class=" imageannotationLine imageannotationLinked" fill="#FFFF00" fill-opacity="0.2" height="105" id="svg_10" stroke="#000000" stroke-opacity="0.5" transform="rotate(90, 3041.5, 3450.09)" width="3044.545304" x="1519.230499" xlink:href="#ld" y="3397.590393"/>
  <rect class=" imageannotationLine imageannotationLinked" fill="#FFFF00" fill-opacity="0.2" height="105" id="svg_12" stroke="#000000" stroke-opacity="0.5" transform="rotate(90, 2806.5, 3235.09)" width="544.546589" x="2534.230395" xlink:href="#le" y="3182.590637"/>
  <rect class=" imageannotationLine imageannotationLinked" fill="#FFFF00" fill-opacity="0.2" height="109.999242" id="svg_14" stroke="#000000" stroke-opacity="0.5" transform="rotate(89, 2644, 3447.55)" width="3039.545322" x="1124.229602" xlink:href="#lf" y="3392.546882"/>
  <rect class=" imageannotationLine imageannotationLinked" fill="#FFFF00" fill-opacity="0.2" height="105" id="svg_16" stroke="#000000" stroke-opacity="0.5" transform="rotate(88, 2316.5, 3410.09)" width="2934.545238" x="849.230546" xlink:href="#lg" y="3357.590393"/>
  <rect class=" imageannotationLine imageannotationLinked" fill="#FFFF00" fill-opacity="0.2" height="100" id="svg_20" stroke="#000000" stroke-opacity="0.5" transform="rotate(90, 2239, 3827.59)" width="139.546796" x="2169.23047" xlink:href="#lh" y="3777.590369"/>
  <rect class=" imageannotationLine imageannotationLinked" fill="#FFFF00" fill-opacity="0.2" height="105" id="svg_22" stroke="#000000" stroke-opacity="0.5" transform="rotate(89, 2171.55, 3545.09)" width="3314.544284" x="514.276006" xlink:href="#li" y="3492.585878"/>
  <rect class=" imageannotationLine imageannotationLinked" fill="#FFFF00" fill-opacity="0.2" height="80.000006" id="svg_24" stroke="#000000" stroke-opacity="0.5" transform="rotate(90, 2084, 3560.09)" width="384.546682" x="1891.730515" xlink:href="#lj" y="3520.089824"/>
  <rect class=" imageannotationLine imageannotationLinked" fill="#FFFF00" fill-opacity="0.2" height="100.177541" id="svg_28" stroke="#000000" stroke-opacity="0.5" transform="rotate(88, 2024.09, 3432.67)" width="3039.545294" x="504.320846" xlink:href="#lk" y="3382.585551"/>
  <rect class=" imageannotationLine imageannotationLinked" fill="#FFFF00" fill-opacity="0.2" height="105" id="svg_2" stroke="#000000" stroke-opacity="0.5" transform="rotate(88, 1886.5, 3580.09)" width="3314.545044" x="229.226596" xlink:href="#ll" y="3527.589417"/>
  <rect class=" imageannotationLine imageannotationLinked" fill="#FFFF00" fill-opacity="0.2" height="60.000003" id="svg_5" stroke="#000000" stroke-opacity="0.5" transform="rotate(90, 1764, 2385.09)" width="264.546748" x="1631.726578" xlink:href="#lm" y="2355.089625"/>
  <rect class=" imageannotationLine imageannotationLinked" fill="#FFFF00" fill-opacity="0.2" height="105" id="svg_9" stroke="#000000" stroke-opacity="0.5" transform="rotate(88, 1742.19, 3494.98)" width="3184.346341" x="150.020371" xlink:href="#ln" y="3442.477661"/>
  <rect class=" imageannotationLine imageannotationLinked" fill="#FFFF00" fill-opacity="0.2" height="109.996877" id="svg_13" stroke="#000000" stroke-opacity="0.5" transform="rotate(88, 1594.8, 3412.91)" width="3019.349542" x="85.12175" xlink:href="#lo" y="3357.913089"/>
  <rect class=" imageannotationLine imageannotationLinked" fill="#FFFF00" fill-opacity="0.2" height="85.000001" id="svg_17" stroke="#000000" stroke-opacity="0.5" transform="rotate(90, 1466.5, 2132.59)" width="259.546739" x="1336.726554" xlink:href="#lp" y="2090.089482"/>
  <rect class=" imageannotationLine imageannotationLinked" fill="#FFFF00" fill-opacity="0.2" height="105" id="svg_19" stroke="#000000" stroke-opacity="0.5" transform="rotate(89, 1451.5, 3380.09)" width="2994.545468" x="-45.77352" xlink:href="#Das-immer" y="3327.589417"/>
  <rect class=" imageannotationLine imageannotationLinked" fill="#FFFF00" fill-opacity="0.2" height="100.175447" id="svg_23" stroke="#000000" stroke-opacity="0.5" transform="rotate(89, 1319.09, 3322.63)" width="2839.545485" x="-100.685995" xlink:href="#Zum" y="3272.54681"/>
  <rect class=" imageannotationLine imageannotationLinked" fill="#FFFF00" fill-opacity="0.2" height="105.348998" id="svg_26" stroke="#000000" stroke-opacity="0.5" transform="rotate(88, 1206.67, 3397.58)" width="2899.545403" x="-243.098548" xlink:href="#lq" y="3344.908745"/>
  <rect class=" imageannotationLine imageannotationLinked" fill="#FFFF00" fill-opacity="0.2" height="99.913502" id="svg_29" stroke="#000000" stroke-opacity="0.5" transform="rotate(89, 963.957, 3430.13)" width="3124.545413" x="-598.316621" xlink:href="#lr" y="3380.176892"/>
  <rect class=" imageannotationLine imageannotationLinked" fill="#FFFF00" fill-opacity="0.2" height="85.000001" id="svg_31" stroke="#000000" stroke-opacity="0.5" transform="rotate(88, 831.5, 2567.59)" width="539.546594" x="561.726576" xlink:href="#ls" y="2525.089492"/>
  <rect class=" imageannotationLine imageannotationLinked" fill="#FFFF00" fill-opacity="0.2" height="120.000005" id="svg_33" stroke="#000000" stroke-opacity="0.5" transform="rotate(90, 764, 3430.09)" width="3084.545247" x="-778.273256" xlink:href="#lt" y="3370.089546"/>
  <rect class=" imageannotationLine imageannotationLinked" fill="#FFFF00" fill-opacity="0.2" height="90.000001" id="svg_35" stroke="#000000" stroke-opacity="0.5" transform="rotate(90, 1409, 1835.09)" width="114.546814" x="1351.726309" xlink:href="#lu" y="1790.089475"/>
  <rect class=" imageannotationLine imageannotationLinked" fill="#FFFF00" fill-opacity="0.2" height="75.000002" id="svg_37" stroke="#000000" stroke-opacity="0.5" transform="rotate(90, 1261.5, 1825.09)" width="84.546836" x="1219.226701" xlink:href="#lv" y="1787.589673"/>
 </g>

</svg>