<?xml version="1.0" encoding="UTF-8" standalone="no"?><svg xmlns="http://www.w3.org/2000/svg" xmlns:xlink="http://www.w3.org/1999/xlink" height="6144.000000000001" width="4096">
 <g>
  <title>Layer 1</title>
  <rect class=" imageannotationLine imageannotationLinked" fill="#FFFF00" fill-opacity="0.2" height="120" id="svg_3" stroke="#000000" stroke-opacity="0.5" transform="rotate(90, 3234, 2603.5)" width="2452.499958" x="2007.750015" xlink:href="#la" y="2543.500061"/>
  <rect class=" imageannotationLine imageannotationLinked" fill="#FFFF00" fill-opacity="0.2" height="99.663191" id="svg_5" stroke="#000000" stroke-opacity="0.5" transform="rotate(88, 3055.92, 1765.93)" width="756.862932" x="2677.486221" xlink:href="#lb" y="1716.10351"/>
  <rect class=" imageannotationLine imageannotationLinked" fill="#FFFF00" fill-opacity="0.2" height="99.999998" id="svg_7" stroke="#000000" stroke-opacity="0.5" transform="rotate(90, 2999, 3196)" width="1547.500024" x="2225.250009" xlink:href="#lc" y="3146.00003"/>
  <rect class=" imageannotationLine imageannotationLinked" fill="#FFFF00" fill-opacity="0.2" height="84.342481" id="svg_9" stroke="#000000" stroke-opacity="0.5" transform="rotate(93, 2857.65, 3415.75)" width="1427.308089" x="2144.000507" xlink:href="#ld" y="3373.573682"/>
  <rect class=" imageannotationLine imageannotationLinked" fill="#FFFF00" fill-opacity="0.2" height="124.999997" id="svg_11" stroke="#000000" stroke-opacity="0.5" transform="rotate(90, 2801.5, 2698.5)" width="2392.50007" x="1605.249978" xlink:href="#le" y="2635.999574"/>
  <rect class=" imageannotationLine imageannotationLinked" fill="#FFFF00" fill-opacity="0.2" height="120" id="svg_13" stroke="#000000" stroke-opacity="0.5" transform="rotate(91, 2609, 2611)" width="2117.500126" x="1550.249942" xlink:href="#lf" y="2551.000061"/>
  <rect class=" imageannotationLine imageannotationLinked" fill="#FFFF00" fill-opacity="0.2" height="120" id="svg_15" stroke="#000000" stroke-opacity="0.5" transform="rotate(90, 2404, 2526)" width="2027.499991" x="1390.25" xlink:href="#lg" y="2466.000061"/>
  <rect class=" imageannotationLine imageannotationLinked" fill="#FFFF00" fill-opacity="0.2" height="120" id="svg_17" stroke="#000000" stroke-opacity="0.5" transform="rotate(90, 2194, 2613.5)" width="2152.499922" x="1117.750001" xlink:href="#lh" y="2553.500061"/>
  <rect class=" imageannotationLine imageannotationLinked" fill="#FFFF00" fill-opacity="0.2" height="120" id="svg_19" stroke="#000000" stroke-opacity="0.5" transform="rotate(90, 1959, 2711)" width="2477.500007" x="720.250013" xlink:href="#li" y="2651.000061"/>
  <rect class=" imageannotationLine imageannotationLinked" fill="#FFFF00" fill-opacity="0.2" height="120" id="svg_21" stroke="#000000" stroke-opacity="0.5" transform="rotate(90, 1754, 2706)" width="2327.49994" x="590.250055" xlink:href="#lj" y="2646.000061"/>
  <rect class=" imageannotationLine imageannotationLinked" fill="#FFFF00" fill-opacity="0.2" height="120" id="svg_23" stroke="#000000" stroke-opacity="0.5" transform="rotate(90, 1544, 2708.5)" width="2312.500056" x="387.749998" xlink:href="#lk" y="2648.500061"/>
  <rect class=" imageannotationLine imageannotationLinked" fill="#FFFF00" fill-opacity="0.2" height="120" id="svg_25" stroke="#000000" stroke-opacity="0.5" transform="rotate(90, 1329, 2623.5)" width="2142.499987" x="257.750067" xlink:href="#ll" y="2563.500061"/>
  <rect class=" imageannotationLine imageannotationLinked" fill="#FFFF00" fill-opacity="0.2" height="75" id="svg_27" stroke="#000000" stroke-opacity="0.5" transform="rotate(90, 1251.5, 3191)" width="107.500003" x="1197.749992" xlink:href="#lm" y="3153.500038"/>
  <rect class=" imageannotationLine imageannotationLinked" fill="#FFFF00" fill-opacity="0.2" height="144.999996" id="svg_29" stroke="#000000" stroke-opacity="0.5" transform="rotate(90, 1146.5, 1743.5)" width="402.500014" x="945.250233" xlink:href="#ln" y="1671.000415"/>
  <rect class=" imageannotationLine imageannotationLinked" fill="#FFFF00" fill-opacity="0.2" height="75.000004" id="svg_31" stroke="#000000" stroke-opacity="0.5" transform="rotate(90, 1061.5, 2703.5)" width="452.499957" x="835.249638" xlink:href="#lo" y="2666.000197"/>
 </g>

</svg>