<?xml version="1.0" encoding="UTF-8" standalone="no"?><svg xmlns="http://www.w3.org/2000/svg" xmlns:xlink="http://www.w3.org/1999/xlink" height="6144" width="4096">
 <g>
  <title>Layer 1</title>
  <rect class=" imageannotationLine imageannotationLinked" fill="#FFFF00" fill-opacity="0.2" height="111.666663" id="svg_2" stroke="#000000" stroke-opacity="0.5" transform="rotate(90, 3699.84, 2333.5)" width="1724.999433" x="2837.335363" xlink:href="#la" y="2277.669349"/>
  <rect class=" imageannotationLine imageannotationLinked" fill="#FFFF00" fill-opacity="0.2" height="111.520659" id="svg_4" stroke="#000000" stroke-opacity="0.5" transform="rotate(89, 3559.86, 3012.57)" width="3058.375269" x="2030.67072" xlink:href="#lb" y="2956.805807"/>
  <rect class=" imageannotationLine imageannotationLinked" fill="#FFFF00" fill-opacity="0.2" height="103.187242" id="svg_6" stroke="#000000" stroke-opacity="0.5" transform="rotate(90, 3374.83, 3966.9)" width="1183.332037" x="2783.165645" xlink:href="#lc" y="3915.308498"/>
  <rect class=" imageannotationLine imageannotationLinked" fill="#FFFF00" fill-opacity="0.2" height="155.248891" id="svg_8" stroke="#000000" stroke-opacity="0.5" transform="rotate(89, 3220.07, 3042.36)" width="3300.570411" x="1569.786669" xlink:href="#ld" y="2964.739721"/>
  <rect class=" imageannotationLine imageannotationLinked" fill="#FFFF00" fill-opacity="0.2" height="139.249002" id="svg_10" stroke="#000000" stroke-opacity="0.5" transform="rotate(90, 3065, 3530.37)" width="397.332194" x="2866.336461" xlink:href="#le" y="3460.751219"/>
  <rect class=" imageannotationLine imageannotationLinked" fill="#FFFF00" fill-opacity="0.2" height="191.101733" id="svg_12" stroke="#000000" stroke-opacity="0.5" transform="rotate(89, 2906.72, 3102.45)" width="3357.539341" x="1227.951979" xlink:href="#lf" y="3006.898499"/>
  <rect class=" imageannotationLine imageannotationLinked" fill="#FFFF00" fill-opacity="0.2" height="131.101679" id="svg_14" stroke="#000000" stroke-opacity="0.5" transform="rotate(90, 2719, 3654.45)" width="689.332328" x="2374.335346" xlink:href="#lg" y="3588.898075"/>
  <rect class=" imageannotationLine imageannotationLinked" fill="#FFFF00" fill-opacity="0.2" height="139.030775" id="svg_16" stroke="#000000" stroke-opacity="0.5" transform="rotate(89, 2598.18, 3172.25)" width="3465.243747" x="865.561603" xlink:href="#lh" y="3102.736936"/>
  <rect class=" imageannotationLine imageannotationLinked" fill="#FFFF00" fill-opacity="0.2" height="125.642154" id="svg_18" stroke="#000000" stroke-opacity="0.5" transform="rotate(88, 2449.28, 3171.7)" width="3498.21068" x="700.175413" xlink:href="#li" y="3108.882236"/>
  <rect class=" imageannotationLine imageannotationLinked" fill="#FFFF00" fill-opacity="0.2" height="121.64365" id="svg_20" stroke="#000000" stroke-opacity="0.5" transform="rotate(89, 2248.57, 3143.08)" width="3506.913135" x="495.112259" xlink:href="#lj" y="3082.258956"/>
  <rect class=" imageannotationLine imageannotationLinked" fill="#FFFF00" fill-opacity="0.2" height="125.643627" id="svg_22" stroke="#000000" stroke-opacity="0.5" transform="rotate(90, 2119, 3723.18)" width="1389.332759" x="1424.335202" xlink:href="#lk" y="3660.356372"/>
  <rect class=" imageannotationLine imageannotationLinked" fill="#FFFF00" fill-opacity="0.2" height="125.643631" id="svg_26" stroke="#000000" stroke-opacity="0.5" transform="rotate(90, 2041, 2921.18)" width="269.33215" x="1906.335764" xlink:href="#ll" y="2858.356369"/>
  <rect class=" imageannotationLine imageannotationLinked" fill="#FFFF00" fill-opacity="0.2" height="153.359904" id="svg_28" stroke="#000000" stroke-opacity="0.5" transform="rotate(89, 1948.77, 3178.33)" width="3552.302084" x="172.616338" xlink:href="#lm" y="3101.648606"/>
  <rect class=" imageannotationLine imageannotationLinked" fill="#FFFF00" fill-opacity="0.2" height="133.359837" id="svg_30" stroke="#000000" stroke-opacity="0.5" transform="rotate(90, 1855, 3687.32)" width="621.332316" x="1544.335013" xlink:href="#ln" y="3620.640185"/>
  <rect class=" imageannotationLine imageannotationLinked" fill="#FFFF00" fill-opacity="0.2" height="157.426106" id="svg_32" stroke="#000000" stroke-opacity="0.5" transform="rotate(89, 1689.04, 3149.53)" width="3357.333564" x="10.370358" xlink:href="#lo" y="3070.817853"/>
  <rect class=" imageannotationLine imageannotationLinked" fill="#FFFF00" fill-opacity="0.2" height="125.426039" id="svg_34" stroke="#000000" stroke-opacity="0.5" transform="rotate(90, 1605, 4039.29)" width="505.332277" x="1352.335889" xlink:href="#lp" y="3976.574204"/>
  <rect class=" imageannotationLine imageannotationLinked" fill="#FFFF00" fill-opacity="0.2" height="109.219367" id="svg_36" stroke="#000000" stroke-opacity="0.5" transform="rotate(89, 1466.64, 3209.22)" width="3510.353737" x="-288.535629" xlink:href="#lq" y="3154.609808"/>
  <rect class=" imageannotationLine imageannotationLinked" fill="#FFFF00" fill-opacity="0.2" height="105.219342" id="svg_38" stroke="#000000" stroke-opacity="0.5" transform="rotate(90, 1447, 4071.39)" width="257.332163" x="1318.334782" xlink:href="#lr" y="4018.780166"/>
  <rect class=" imageannotationLine imageannotationLinked" fill="#FFFF00" fill-opacity="0.2" height="137.022244" id="svg_40" stroke="#000000" stroke-opacity="0.5" transform="rotate(88, 1331.45, 3032.59)" width="3257.323803" x="-297.211698" xlink:href="#ls" y="2964.073709"/>
  <rect class=" imageannotationLine imageannotationLinked" fill="#FFFF00" fill-opacity="0.2" height="148.875143" id="svg_42" stroke="#000000" stroke-opacity="0.5" transform="rotate(88, 1160.89, 3175.7)" width="3446.800877" x="-562.507786" xlink:href="#lt" y="3101.259945"/>
  <rect class=" imageannotationLine imageannotationLinked" fill="#FFFF00" fill-opacity="0.2" height="72.154225" id="svg_44" stroke="#000000" stroke-opacity="0.5" transform="rotate(87, 1047.88, 3069.78)" width="3161.99654" x="-533.11929" xlink:href="#lu" y="3033.704098"/>
  <rect class=" imageannotationLine imageannotationLinked" fill="#FFFF00" fill-opacity="0.2" height="72.154228" id="svg_48" stroke="#000000" stroke-opacity="0.5" transform="rotate(87, 957.273, 2831.49)" width="1668.611767" x="122.966589" xlink:href="#lv" y="2795.410377"/>
  <rect class=" imageannotationLine imageannotationLinked" fill="#FFFF00" fill-opacity="0.2" height="110.652006" id="svg_50" stroke="#000000" stroke-opacity="0.5" transform="rotate(88, 771.738, 3078.63)" width="3225.062799" x="-840.794445" xlink:href="#lw" y="3023.306886"/>
  <rect class=" imageannotationLine imageannotationLinked" fill="#FFFF00" fill-opacity="0.2" height="110.652008" id="svg_52" stroke="#000000" stroke-opacity="0.5" transform="rotate(90, 597.002, 2750.67)" width="1921.332807" x="-363.665193" xlink:href="#lx" y="2695.347992"/>
 </g>

</svg>