<?xml version="1.0" encoding="UTF-8" standalone="no"?><svg xmlns="http://www.w3.org/2000/svg" xmlns:xlink="http://www.w3.org/1999/xlink" height="6144" style="vector-effect: non-scaling-stroke;" width="4096">
 <g>
  <title>Layer 1</title>
  <rect class=" imageannotationLine imageannotationLinked" fill="#FFFF00" fill-opacity="0.2" height="120" id="svg_4" stroke="#000000" stroke-opacity="0.5" transform="rotate(84, 3267.51, 1616.96)" width="1789.319582" x="2372.848815" xlink:href="#la" y="1556.954497"/>
  <rect class=" imageannotationLine imageannotationLinked" fill="#FFFF00" fill-opacity="0.2" height="88.259325" id="svg_6" stroke="#000000" stroke-opacity="0.5" transform="rotate(85, 3124.15, 1643.44)" width="1997.934291" x="2125.182115" xlink:href="#lb" y="1599.306965"/>
  <rect class=" imageannotationLine imageannotationLinked" fill="#FFFF00" fill-opacity="0.2" height="125.804023" id="svg_10" stroke="#000000" stroke-opacity="0.5" transform="rotate(86, 2884.95, 1676.89)" width="2180.451443" x="1794.729123" xlink:href="#lc" y="1613.990599"/>
  <rect class=" imageannotationLine imageannotationLinked" fill="#FFFF00" fill-opacity="0.2" height="125.804024" id="svg_12" stroke="#000000" stroke-opacity="0.5" transform="rotate(86, 2564.79, 827.544)" width="368.475256" x="2380.551937" xlink:href="#ld" y="764.643059"/>
  <rect class=" imageannotationLine imageannotationLinked" fill="#FFFF00" fill-opacity="0.2" height="103.449303" id="svg_14" stroke="#000000" stroke-opacity="0.5" transform="rotate(86, 2533.06, 1756.25)" width="184.022561" x="2441.044674" xlink:href="#le" y="1704.530278"/>
  <rect class=" imageannotationLine imageannotationLinked" fill="#FFFF00" fill-opacity="0.2" height="103.449303" id="svg_16" stroke="#000000" stroke-opacity="0.5" transform="rotate(88, 2402.42, 1669.04)" width="1883.858473" x="1460.48642" xlink:href="#lf" y="1617.318443"/>
  <rect class=" imageannotationLine imageannotationLinked" fill="#FFFF00" fill-opacity="0.2" height="80.259951" id="svg_18" stroke="#000000" stroke-opacity="0.5" transform="rotate(88, 2282.88, 1621.99)" width="511.808698" x="2026.980873" xlink:href="#lg" y="1581.859815"/>
  <rect class=" imageannotationLine imageannotationLinked" fill="#FFFF00" fill-opacity="0.2" height="107.992096" id="svg_20" stroke="#000000" stroke-opacity="0.5" transform="rotate(88, 2177.8, 1496.1)" width="1715.086922" x="1320.26014" xlink:href="#lh" y="1442.106613"/>
  <rect class=" imageannotationLine imageannotationLinked" fill="#FFFF00" fill-opacity="0.2" height="103.449303" id="svg_22" stroke="#000000" stroke-opacity="0.5" transform="rotate(88, 2033.2, 1989.48)" width="590.087205" x="1738.160642" xlink:href="#li" y="1937.757511"/>
  <rect class=" imageannotationLine imageannotationLinked" fill="#FFFF00" fill-opacity="0.2" height="117.575368" id="svg_24" stroke="#000000" stroke-opacity="0.5" transform="rotate(92, 1908.96, 1669.08) matrix(1, 0, 0, 1, 0, 0) matrix(1, 0, 0, 1, 0, 0) matrix(1, 0, 0, 1, 0, 0)" width="1985.32194" x="916.297251" xlink:href="#lj" y="1610.295323"/>
  <rect class=" imageannotationLine imageannotationLinked" fill="#FFFF00" fill-opacity="0.2" height="117.575371" id="svg_26" stroke="#000000" stroke-opacity="0.5" transform="rotate(88, 1906.2, 1349.36)" width="210.403814" x="1801.000527" xlink:href="#lk" y="1290.569835"/>
  <rect class=" imageannotationLine imageannotationLinked" fill="#FFFF00" fill-opacity="0.2" height="117.575371" id="svg_28" stroke="#000000" stroke-opacity="0.5" transform="rotate(88, 1704.57, 926.506)" width="588.646837" x="1410.247314" xlink:href="#ll" y="867.718421"/>
  <rect class=" imageannotationLine imageannotationLinked" fill="#FFFF00" fill-opacity="0.2" height="117.575371" id="svg_32" stroke="#000000" stroke-opacity="0.5" transform="rotate(88, 1544.92, 3241.05)" width="850.18817" x="1119.82908" xlink:href="#lm" y="3182.259643"/>
  <rect class=" imageannotationLine imageannotationLinked" fill="#FFFF00" fill-opacity="0.2" height="161.040285" id="svg_34" stroke="#000000" stroke-opacity="0.5" transform="rotate(89, 1468.16, 2108.19)" width="2686.901488" x="124.706736" xlink:href="#ln" y="2027.673666"/>
  <rect class=" imageannotationLine imageannotationLinked" fill="#FFFF00" fill-opacity="0.2" height="111.278972" id="svg_36" stroke="#000000" stroke-opacity="0.5" transform="rotate(92, 1361.96, 2449.05)" width="2278.711744" x="222.604414" xlink:href="#lo" y="2393.413603"/>
  <rect class=" imageannotationLine imageannotationLinked" fill="#FFFF00" fill-opacity="0.2" height="111.278969" id="svg_38" stroke="#000000" stroke-opacity="0.5" transform="rotate(93, 1234.7, 2095.27)" width="2820.521945" x="-175.560258" xlink:href="#lp" y="2039.633572"/>
  <rect class=" imageannotationLine imageannotationLinked" fill="#FFFF00" fill-opacity="0.2" height="129.458284" id="svg_40" stroke="#000000" stroke-opacity="0.5" transform="rotate(91, 1118.76, 1790.39)" width="2168.109715" x="34.708311" xlink:href="#lq" y="1725.662068"/>
  <rect class=" imageannotationLine imageannotationLinked" fill="#FFFF00" fill-opacity="0.2" height="147.946621" id="svg_42" stroke="#000000" stroke-opacity="0.5" transform="rotate(88, 944.834, 1623.7)" width="1929.184599" x="-19.759805" xlink:href="#lr" y="1549.729114"/>
  <rect class=" imageannotationLine imageannotationLinked" fill="#FFFF00" fill-opacity="0.2" height="111.984851" id="svg_46" stroke="#000000" stroke-opacity="0.5" transform="rotate(89, 3386.89, 3992.85)" width="1623.65035" x="2575.066967" xlink:href="#ls" y="3936.862809"/>
  <rect class=" imageannotationLine imageannotationLinked" fill="#FFFF00" fill-opacity="0.2" height="116.529655" id="svg_48" stroke="#000000" stroke-opacity="0.5" transform="rotate(89, 3245.85, 4120.32)" width="1882.543051" x="2304.579895" xlink:href="#lt" y="4062.052103"/>
  <rect class=" imageannotationLine imageannotationLinked" fill="#FFFF00" fill-opacity="0.2" height="107.043406" id="svg_50" stroke="#000000" stroke-opacity="0.5" transform="rotate(89, 3101.27, 4222.48)" width="2009.240967" x="2096.648285" xlink:href="#lu" y="4168.961483"/>
  <rect class=" imageannotationLine imageannotationLinked" fill="#FFFF00" fill-opacity="0.2" height="114.708176" id="svg_53" stroke="#000000" stroke-opacity="0.5" transform="rotate(-1, 1352.46, 3779.17)" width="292.497708" x="1206.214011" xlink:href="#lv" y="3721.814188"/>
  <rect class=" imageannotationLine imageannotationLinked" fill="#FFFF00" fill-opacity="0.2" height="118.088224" id="svg_55" stroke="#000000" stroke-opacity="0.5" transform="rotate(-1, 1842, 3883.15)" width="1461.010511" x="1111.500107" xlink:href="#Stumm" y="3824.103865"/>
  <rect class=" imageannotationLine imageannotationLinked" fill="#FFFF00" fill-opacity="0.2" height="88.398351" id="svg_57" stroke="#000000" stroke-opacity="0.5" transform="rotate(-1, 1469.71, 4020.57)" width="785.662611" x="1076.874705" xlink:href="#Wir" y="3976.37311"/>
  <rect class=" imageannotationLine imageannotationLinked" fill="#FFFF00" fill-opacity="0.2" height="107.237295" id="svg_59" stroke="#000000" stroke-opacity="0.5" transform="rotate(-1, 2009.3, 4172.79)" width="1844.308866" x="1087.148848" xlink:href="#lw" y="4119.169401"/>
  <rect class=" imageannotationLine imageannotationLinked" fill="#FFFF00" fill-opacity="0.2" height="103.404887" id="svg_61" stroke="#000000" stroke-opacity="0.5" transform="rotate(-1, 1832.67, 4336.88)" width="1522.91111" x="1071.211341" xlink:href="#lx" y="4285.173554"/>
  <rect class=" imageannotationLine imageannotationLinked" fill="#FFFF00" fill-opacity="0.2" height="88.527628" id="svg_63" stroke="#000000" stroke-opacity="0.5" transform="rotate(-1, 2105.02, 4515.29)" width="2084.04312" x="1062.998867" xlink:href="#ly" y="4471.026429"/>
  <rect class=" imageannotationLine imageannotationLinked" fill="#FFFF00" fill-opacity="0.2" height="107.043404" id="svg_65" stroke="#000000" stroke-opacity="0.5" transform="rotate(-2, 1778.72, 4684.4)" width="1358.012779" x="1099.716715" xlink:href="#lz" y="4630.87948"/>
  <rect class=" imageannotationLine imageannotationLinked" fill="#FFFF00" fill-opacity="0.2" height="91.462003" id="svg_67" stroke="#000000" stroke-opacity="0.5" transform="rotate(-2, 1834.52, 4823.72)" width="1380.131022" x="1144.45531" xlink:href="#Vertreibt" y="4777.986994"/>
  <rect class=" imageannotationLine imageannotationLinked" fill="#FFFF00" fill-opacity="0.2" height="92.101506" id="svg_69" stroke="#000000" stroke-opacity="0.5" transform="rotate(-1, 1252.33, 4969.87)" width="222.332737" x="1141.161502" xlink:href="#laa" y="4923.818832"/>
  <rect class=" imageannotationLine imageannotationLinked" fill="#FFFF00" fill-opacity="0.2" height="107.043404" id="svg_71" stroke="#000000" stroke-opacity="0.5" transform="rotate(-1, 1598.76, 5018.73)" width="978.74315" x="1109.386099" xlink:href="#lab" y="4965.209872"/>
  <rect class=" imageannotationLine imageannotationLinked" fill="#FFFF00" fill-opacity="0.2" height="95.416829" id="svg_73" stroke="#000000" stroke-opacity="0.5" transform="rotate(-1, 2064.39, 5071.33)" width="351.683155" x="1888.550328" xlink:href="#lac" y="5023.623996"/>
  <rect class=" imageannotationLine imageannotationLinked" fill="#FFFF00" fill-opacity="0.2" height="107.043404" id="svg_75" stroke="#000000" stroke-opacity="0.5" transform="rotate(-1, 1974.73, 5170.26)" width="1837.03159" x="1056.217555" xlink:href="#lad" y="5116.741684"/>
  <rect class=" imageannotationLine imageannotationLinked" fill="#FFFF00" fill-opacity="0.2" height="1455.193237" id="svg_78" stroke="#000000" stroke-opacity="0.5" width="259.258885" x="778.075766" xlink:href="#lae" y="3852.66596"/>
  <rect class=" imageannotationLine imageannotationLinked" fill="#FFFF00" fill-opacity="0.2" height="91.462006" id="svg_81" stroke="#000000" stroke-opacity="0.5" width="211.111336" x="933.631857" xlink:href="#laf" y="4827.500884"/>
 </g>

</svg>