<?xml version="1.0" encoding="UTF-8" standalone="no"?><svg xmlns="http://www.w3.org/2000/svg" xmlns:xlink="http://www.w3.org/1999/xlink" height="6144" width="4096">
 <g>
  <title>Layer 1</title>
  <rect class=" imageannotationLine imageannotationLinked" fill="#FFFF00" fill-opacity="0.2" height="100.003045" id="svg_2" stroke="#000000" stroke-opacity="0.5" transform="rotate(-1, 2321.7, 853.102)" width="1764.720097" x="1439.337992" xlink:href="#la" y="803.100348"/>
  <rect class=" imageannotationLine imageannotationLinked" fill="#FFFF00" fill-opacity="0.2" height="84.005485" id="svg_4" stroke="#000000" stroke-opacity="0.5" transform="rotate(-1, 1985.49, 1058.94)" width="2293.407772" x="838.782551" xlink:href="#lb" y="1016.937991"/>
  <rect class=" imageannotationLine imageannotationLinked" fill="#FFFF00" fill-opacity="0.2" height="76.565703" id="svg_6" stroke="#000000" stroke-opacity="0.5" transform="rotate(-1, 1948.72, 1199.2)" width="2237.904955" x="829.767166" xlink:href="#lc" y="1160.914211"/>
  <rect class=" imageannotationLine imageannotationLinked" fill="#FFFF00" fill-opacity="0.2" height="76.565704" id="svg_8" stroke="#000000" stroke-opacity="0.5" transform="rotate(-1, 1887.56, 1348.1)" width="2109.156515" x="832.984984" xlink:href="#ld" y="1309.821212"/>
  <rect class=" imageannotationLine imageannotationLinked" fill="#FFFF00" fill-opacity="0.2" height="88.493955" id="svg_10" stroke="#000000" stroke-opacity="0.5" transform="rotate(-1, 2005.64, 1479.36)" width="2269.969937" x="870.659892" xlink:href="#le" y="1435.112428"/>
  <rect class=" imageannotationLine imageannotationLinked" fill="#FFFF00" fill-opacity="0.2" height="76.565704" id="svg_12" stroke="#000000" stroke-opacity="0.5" transform="rotate(-1, 1869.26, 1692.57)" width="428.92265" x="1654.800556" xlink:href="#lf" y="1654.289407"/>
  <rect class=" imageannotationLine imageannotationLinked" fill="#FFFF00" fill-opacity="0.2" height="76.565704" id="svg_14" stroke="#000000" stroke-opacity="0.5" transform="rotate(-1, 2039.87, 1835.85)" width="2293.687196" x="893.023756" xlink:href="#lg" y="1797.566011"/>
  <rect class=" imageannotationLine imageannotationLinked" fill="#FFFF00" fill-opacity="0.2" height="76.565704" id="svg_16" stroke="#000000" stroke-opacity="0.5" transform="rotate(-1, 1947.74, 2025.53)" width="636.262301" x="1629.605308" xlink:href="#lh" y="1987.243951"/>
  <rect class=" imageannotationLine imageannotationLinked" fill="#FFFF00" fill-opacity="0.2" height="76.565704" id="svg_18" stroke="#000000" stroke-opacity="0.5" transform="rotate(-1, 1786.47, 2192.31)" width="1724.5869" x="924.179842" xlink:href="#li" y="2154.029491"/>
  <rect class=" imageannotationLine imageannotationLinked" fill="#FFFF00" fill-opacity="0.2" height="76.565704" id="svg_20" stroke="#000000" stroke-opacity="0.5" transform="rotate(-1, 2143.47, 2263.62)" width="629.241588" x="1828.853229" xlink:href="#lj" y="2225.343134"/>
  <rect class=" imageannotationLine imageannotationLinked" fill="#FFFF00" fill-opacity="0.2" height="68.427377" id="svg_22" stroke="#000000" stroke-opacity="0.5" transform="rotate(-1, 1892.81, 2345.84)" width="2028.400707" x="878.603648" xlink:href="#lk" y="2311.623159"/>
  <rect class=" imageannotationLine imageannotationLinked" fill="#FFFF00" fill-opacity="0.2" height="76.565704" id="svg_24" stroke="#000000" stroke-opacity="0.5" transform="rotate(-1, 1894.91, 2488.27)" width="2013.03174" x="888.390534" xlink:href="#ll" y="2449.981415"/>
  <rect class=" imageannotationLine imageannotationLinked" fill="#FFFF00" fill-opacity="0.2" height="100.422216" id="svg_26" stroke="#000000" stroke-opacity="0.5" transform="rotate(-1, 2413.59, 2685.98)" width="1560.03255" x="1633.572983" xlink:href="#lm" y="2635.772128"/>
  <rect class=" imageannotationLine imageannotationLinked" fill="#FFFF00" fill-opacity="0.2" height="76.565704" id="svg_28" stroke="#000000" stroke-opacity="0.5" transform="rotate(-1, 2726.31, 2809.81)" width="490.240088" x="2481.189236" xlink:href="#ln" y="2771.527884"/>
  <rect class=" imageannotationLine imageannotationLinked" fill="#FFFF00" fill-opacity="0.2" height="68.427377" id="svg_30" stroke="#000000" stroke-opacity="0.5" transform="rotate(1, 2035.39, 2938.85)" width="2229.417544" x="920.683595" xlink:href="#lo" y="2904.633589"/>
  <rect class=" imageannotationLine imageannotationLinked" fill="#FFFF00" fill-opacity="0.2" height="72.915097" id="svg_32" stroke="#000000" stroke-opacity="0.5" transform="rotate(1, 1890.86, 3083.76)" width="1985.873915" x="897.925929" xlink:href="#lp" y="3047.298217"/>
  <rect class=" imageannotationLine imageannotationLinked" fill="#FFFF00" fill-opacity="0.2" height="108.002104" id="svg_34" stroke="#000000" stroke-opacity="0.5" transform="rotate(1, 1870.77, 3261.41)" width="411.947884" x="1664.798939" xlink:href="#lq" y="3207.409902"/>
  <rect class=" imageannotationLine imageannotationLinked" fill="#FFFF00" fill-opacity="0.2" height="76.565704" id="svg_36" stroke="#000000" stroke-opacity="0.5" transform="rotate(1, 1810.76, 3441.76)" width="1726.192749" x="947.657545" xlink:href="#lr" y="3403.476607"/>
  <rect class=" imageannotationLine imageannotationLinked" fill="#FFFF00" fill-opacity="0.2" height="76.565704" id="svg_38" stroke="#000000" stroke-opacity="0.5" transform="rotate(1, 1871.6, 3624.57)" width="1871.217324" x="935.988523" xlink:href="#ls" y="3586.28409"/>
  <rect class=" imageannotationLine imageannotationLinked" fill="#FFFF00" fill-opacity="0.2" height="76.565704" id="svg_40" stroke="#000000" stroke-opacity="0.5" transform="rotate(1, 2034.72, 3783.35)" width="2201.700989" x="933.870849" xlink:href="#lt" y="3745.061629"/>
  <rect class=" imageannotationLine imageannotationLinked" fill="#FFFF00" fill-opacity="0.2" height="76.565704" id="svg_42" stroke="#000000" stroke-opacity="0.5" transform="rotate(1, 1860.61, 3968.74)" width="325.496847" x="1697.863333" xlink:href="#lu" y="3930.461718"/>
  <rect class=" imageannotationLine imageannotationLinked" fill="#FFFF00" fill-opacity="0.2" height="76.565704" id="svg_44" stroke="#000000" stroke-opacity="0.5" transform="rotate(1, 2008.36, 4119.88)" width="2281.688932" x="867.513862" xlink:href="#lv" y="4081.599197"/>
  <rect class=" imageannotationLine imageannotationLinked" fill="#FFFF00" fill-opacity="0.2" height="76.565704" id="svg_46" stroke="#000000" stroke-opacity="0.5" transform="rotate(1, 1994.21, 4291.2)" width="2209.699871" x="889.355839" xlink:href="#lw" y="4252.913039"/>
  <rect class=" imageannotationLine imageannotationLinked" fill="#FFFF00" fill-opacity="0.2" height="76.565704" id="svg_48" stroke="#000000" stroke-opacity="0.5" transform="rotate(1, 1994.36, 4457.3)" width="2266.598931" x="861.064525" xlink:href="#lx" y="4419.010345"/>
  <rect class=" imageannotationLine imageannotationLinked" fill="#FFFF00" fill-opacity="0.2" height="76.565704" id="svg_50" stroke="#000000" stroke-opacity="0.5" transform="rotate(1, 2035.61, 4626.99)" width="2330.030678" x="870.596129" xlink:href="#ly" y="4588.707831"/>
  <rect class=" imageannotationLine imageannotationLinked" fill="#FFFF00" fill-opacity="0.2" height="76.565704" id="svg_52" stroke="#000000" stroke-opacity="0.5" transform="rotate(1, 1981.65, 4773.12)" width="2225.138978" x="869.084628" xlink:href="#lz" y="4734.838097"/>
  <rect class=" imageannotationLine imageannotationLinked" fill="#FFFF00" fill-opacity="0.2" height="76.565704" id="svg_54" stroke="#000000" stroke-opacity="0.5" transform="rotate(1, 2006.21, 4916.2)" width="2258.181269" x="877.12358" xlink:href="#sie-spiel" y="4877.910884"/>
  <rect class=" imageannotationLine imageannotationLinked" fill="#FFFF00" fill-opacity="0.2" height="76.565704" id="svg_56" stroke="#000000" stroke-opacity="0.5" transform="rotate(1, 1862.3, 5057.61)" width="1965.667008" x="879.470562" xlink:href="#laa" y="5019.329086"/>
  <rect class=" imageannotationLine imageannotationLinked" fill="#FFFF00" fill-opacity="0.2" height="76.565704" id="svg_58" stroke="#000000" stroke-opacity="0.5" transform="rotate(1, 1821.96, 5154.02)" width="346.680975" x="1648.617606" xlink:href="#lab" y="5115.742002"/>
  <rect class=" imageannotationLine imageannotationLinked" fill="#FFFF00" fill-opacity="0.2" height="68.566998" id="svg_60" stroke="#000000" stroke-opacity="0.5" transform="rotate(1, 1305.87, 5215.3)" width="882.738956" x="864.496331" xlink:href="#lac" y="5181.016891"/>
  <rect class=" imageannotationLine imageannotationLinked" fill="#FFFF00" fill-opacity="0.2" height="72.566511" id="svg_62" stroke="#000000" stroke-opacity="0.5" transform="rotate(1, 1814.36, 5305.22)" width="298.777811" x="1664.975472" xlink:href="#lad" y="5268.935168"/>
  <rect class=" imageannotationLine imageannotationLinked" fill="#FFFF00" fill-opacity="0.2" height="76.565704" id="svg_64" stroke="#000000" stroke-opacity="0.5" transform="rotate(1, 2499.15, 5353)" width="1313.765921" x="1842.265152" xlink:href="#lae" y="5314.715466"/>
  <rect class=" imageannotationLine imageannotationLinked" fill="#FFFF00" fill-opacity="0.2" height="68.012476" id="svg_67" stroke="#000000" stroke-opacity="0.5" transform="rotate(-2, 824.901, 4855.45)" width="204.732524" x="722.53258" xlink:href="#laf" y="4821.444597"/>
 </g>

</svg>