<?xml version="1.0" encoding="UTF-8" standalone="no"?><svg xmlns="http://www.w3.org/2000/svg" xmlns:xlink="http://www.w3.org/1999/xlink" height="6144" width="4096">
 <g>
  <title>Layer 1</title>
  <rect class=" imageannotationLine imageannotationLinked" fill="#FFFF00" fill-opacity="0.2" height="84.142057" id="svg_2" stroke="#000000" stroke-opacity="0.5" transform="rotate(-1, 2817, 820.072)" width="1885.143066" x="1874.429709" xlink:href="#la" y="778.001203"/>
  <rect class=" imageannotationLine imageannotationLinked" fill="#FFFF00" fill-opacity="0.2" height="64" id="svg_4" stroke="#000000" stroke-opacity="0.5" width="697.143944" x="2946.569504" xlink:href="#lb" y="910.000007"/>
  <rect class=" imageannotationLine imageannotationLinked" fill="#FFFF00" fill-opacity="0.2" height="80.070421" id="svg_6" stroke="#000000" stroke-opacity="0.5" transform="rotate(-1, 2413.11, 1074.04)" width="1445.143317" x="1690.534509" xlink:href="#lc" y="1034.000322"/>
  <rect class=" imageannotationLine imageannotationLinked" fill="#FFFF00" fill-opacity="0.2" height="72.007311" id="svg_8" stroke="#000000" stroke-opacity="0.5" transform="rotate(-2, 2484.93, 1222.01)" width="1589.143205" x="1690.3594" xlink:href="#ld" y="1186.003647"/>
  <rect class=" imageannotationLine imageannotationLinked" fill="#FFFF00" fill-opacity="0.2" height="84" id="svg_10" stroke="#000000" stroke-opacity="0.5" transform="rotate(-2, 2433.14, 1372)" width="1461.143342" x="1702.568791" xlink:href="#le" y="1330"/>
  <rect class=" imageannotationLine imageannotationLinked" fill="#FFFF00" fill-opacity="0.2" height="71.932019" id="svg_12" stroke="#000000" stroke-opacity="0.5" transform="rotate(-1, 2537.25, 1530.03)" width="1701.143156" x="1686.673864" xlink:href="#lf" y="1494.067071"/>
  <rect class=" imageannotationLine imageannotationLinked" fill="#FFFF00" fill-opacity="0.2" height="84" id="svg_14" stroke="#000000" stroke-opacity="0.5" transform="rotate(-2, 2567.14, 1790)" width="1681.143068" x="1726.568573" xlink:href="#lg" y="1748"/>
  <rect class=" imageannotationLine imageannotationLinked" fill="#FFFF00" fill-opacity="0.2" height="84" id="svg_16" stroke="#000000" stroke-opacity="0.5" transform="rotate(-2, 2525.14, 1942)" width="1589.143205" x="1730.568656" xlink:href="#lh" y="1900"/>
  <rect class=" imageannotationLine imageannotationLinked" fill="#FFFF00" fill-opacity="0.2" height="79.862927" id="svg_18" stroke="#000000" stroke-opacity="0.5" transform="rotate(-2, 2501.08, 2088.21)" width="1557.143267" x="1722.506215" xlink:href="#li" y="2048.280244"/>
  <rect class=" imageannotationLine imageannotationLinked" fill="#FFFF00" fill-opacity="0.2" height="75.865278" id="svg_20" stroke="#000000" stroke-opacity="0.5" transform="rotate(-2, 2402.98, 2235.52)" width="1345.158" x="1730.405078" xlink:href="#lj" y="2197.584092"/>
  <rect class=" imageannotationLine imageannotationLinked" fill="#FFFF00" fill-opacity="0.2" height="75.586079" id="svg_22" stroke="#000000" stroke-opacity="0.5" transform="rotate(-2, 2611.29, 2486.2)" width="1753.143069" x="1734.71532" xlink:href="#lk" y="2448.411359"/>
  <rect class=" imageannotationLine imageannotationLinked" fill="#FFFF00" fill-opacity="0.2" height="72.007311" id="svg_24" stroke="#000000" stroke-opacity="0.5" transform="rotate(-2, 2551.35, 2637.99)" width="1641.143118" x="1730.777884" xlink:href="#ll" y="2601.989032"/>
  <rect class=" imageannotationLine imageannotationLinked" fill="#FFFF00" fill-opacity="0.2" height="84" id="svg_26" stroke="#000000" stroke-opacity="0.5" transform="rotate(-2, 2699.14, 2780)" width="1873.142919" x="1762.568376" xlink:href="#lm" y="2738"/>
  <rect class=" imageannotationLine imageannotationLinked" fill="#FFFF00" fill-opacity="0.2" height="72.007311" id="svg_28" stroke="#000000" stroke-opacity="0.5" transform="rotate(-2, 2611.35, 2945.99)" width="1713.143118" x="1754.777799" xlink:href="#ln" y="2909.989052"/>
  <rect class=" imageannotationLine imageannotationLinked" fill="#FFFF00" fill-opacity="0.2" height="84" id="svg_30" stroke="#000000" stroke-opacity="0.5" transform="rotate(-2, 2625.14, 3218)" width="1781.143056" x="1734.568475" xlink:href="#lo" y="3176"/>
  <rect class=" imageannotationLine imageannotationLinked" fill="#FFFF00" fill-opacity="0.2" height="79.583641" id="svg_32" stroke="#000000" stroke-opacity="0.5" transform="rotate(-2, 2651.22, 3380.21)" width="1753.143069" x="1774.645552" xlink:href="#lp" y="3340.41501"/>
  <rect class=" imageannotationLine imageannotationLinked" fill="#FFFF00" fill-opacity="0.2" height="84" id="svg_34" stroke="#000000" stroke-opacity="0.5" transform="rotate(-2, 2773.14, 3538)" width="1933.142957" x="1806.568313" xlink:href="#lq" y="3496"/>
  <rect class=" imageannotationLine imageannotationLinked" fill="#FFFF00" fill-opacity="0.2" height="84" id="svg_36" stroke="#000000" stroke-opacity="0.5" transform="rotate(-2, 2593.14, 3710)" width="1605.14323" x="1790.568646" xlink:href="#lr" y="3668"/>
  <rect class=" imageannotationLine imageannotationLinked" fill="#FFFF00" fill-opacity="0.2" height="75.446547" id="svg_38" stroke="#000000" stroke-opacity="0.5" transform="rotate(-2, 2621.29, 3988.28)" width="1605.14323" x="1818.717937" xlink:href="#ls" y="3950.550965"/>
  <rect class=" imageannotationLine imageannotationLinked" fill="#FFFF00" fill-opacity="0.2" height="84" id="svg_40" stroke="#000000" stroke-opacity="0.5" transform="rotate(-2, 2537.14, 4148)" width="1453.143329" x="1810.568814" xlink:href="#lt" y="4106"/>
  <rect class=" imageannotationLine imageannotationLinked" fill="#FFFF00" fill-opacity="0.2" height="84" id="svg_42" stroke="#000000" stroke-opacity="0.5" transform="rotate(-2, 2679.14, 4308)" width="1769.143094" x="1794.568483" xlink:href="#lu" y="4266"/>
  <rect class=" imageannotationLine imageannotationLinked" fill="#FFFF00" fill-opacity="0.2" height="84" id="svg_44" stroke="#000000" stroke-opacity="0.5" transform="rotate(-1, 2733.14, 4472)" width="1837.143032" x="1814.568414" xlink:href="#lv" y="4430"/>
 </g>

</svg>