<?xml version="1.0" encoding="UTF-8" standalone="no"?><svg xmlns="http://www.w3.org/2000/svg" xmlns:xlink="http://www.w3.org/1999/xlink" height="6144.000000000001" width="4096">
 <g>
  <title>Layer 1</title>
  <rect class=" imageannotationLine imageannotationLinked" fill="#FFFF00" fill-opacity="0.2" height="120" id="svg_2" stroke="#000000" stroke-opacity="0.5" transform="rotate(90, 3109, 1351)" width="289.999988" x="2963.99998" xlink:href="#la" y="1291.000061"/>
  <rect class=" imageannotationLine imageannotationLinked" fill="#FFFF00" fill-opacity="0.2" height="135" id="svg_4" stroke="#000000" stroke-opacity="0.5" transform="rotate(90, 2936.5, 2541)" width="2249.99989" x="1811.500065" xlink:href="#lb" y="2473.500069"/>
  <rect class=" imageannotationLine imageannotationLinked" fill="#FFFF00" fill-opacity="0.2" height="120" id="svg_6" stroke="#000000" stroke-opacity="0.5" transform="rotate(90, 2724, 2613.5)" width="2555.000102" x="1446.499952" xlink:href="#lc" y="2553.500061"/>
  <rect class=" imageannotationLine imageannotationLinked" fill="#FFFF00" fill-opacity="0.2" height="120" id="svg_8" stroke="#000000" stroke-opacity="0.5" transform="rotate(90, 2529, 2711)" width="2779.999977" x="1139.000062" xlink:href="#ld" y="2651.000061"/>
  <rect class=" imageannotationLine imageannotationLinked" fill="#FFFF00" fill-opacity="0.2" height="99.999998" id="svg_10" stroke="#000000" stroke-opacity="0.5" transform="rotate(90, 2319, 2771)" width="2960.000017" x="838.999958" xlink:href="#le" y="2721.000038"/>
  <rect class=" imageannotationLine imageannotationLinked" fill="#FFFF00" fill-opacity="0.2" height="120" id="svg_12" stroke="#000000" stroke-opacity="0.5" transform="rotate(90, 2124, 2633.5)" width="2715.000068" x="766.499999" xlink:href="#lf" y="2573.500061"/>
  <rect class=" imageannotationLine imageannotationLinked" fill="#FFFF00" fill-opacity="0.2" height="120" id="svg_14" stroke="#000000" stroke-opacity="0.5" transform="rotate(90, 1939, 2891)" width="3250.000088" x="314" xlink:href="#lg" y="2831.000061"/>
  <rect class=" imageannotationLine imageannotationLinked" fill="#FFFF00" fill-opacity="0.2" height="115.000763" id="svg_16" stroke="#000000" stroke-opacity="0.5" transform="rotate(91, 1746.63, 2646.26)" width="2770.438533" x="361.407046" xlink:href="#lh" y="2588.764495"/>
  <rect class=" imageannotationLine imageannotationLinked" fill="#FFFF00" fill-opacity="0.2" height="120" id="svg_18" stroke="#000000" stroke-opacity="0.5" transform="rotate(90, 1599, 2648.5)" width="2865.00009" x="166.499998" xlink:href="#li" y="2588.500061"/>
  <rect class=" imageannotationLine imageannotationLinked" fill="#FFFF00" fill-opacity="0.2" height="110.000002" id="svg_20" stroke="#000000" stroke-opacity="0.5" transform="rotate(90, 1419, 2358.5)" width="2275.000042" x="281.499463" xlink:href="#lj" y="2303.499923"/>
  <rect class=" imageannotationLine imageannotationLinked" fill="#FFFF00" fill-opacity="0.2" height="120" id="svg_22" stroke="#000000" stroke-opacity="0.5" transform="rotate(90, 1249, 2638.5)" width="2845.000008" x="-173.499999" xlink:href="#lk" y="2578.500061"/>
 </g>

</svg>