<?xml version="1.0" encoding="UTF-8" standalone="no"?><svg xmlns="http://www.w3.org/2000/svg" xmlns:xlink="http://www.w3.org/1999/xlink" height="6144.000000000001" width="4096">
 <g>
  <title>Layer 1</title>
  <rect class=" imageannotationLine imageannotationLinked" fill="#FFFF00" fill-opacity="0.2" height="115.000004" id="svg_2" stroke="#000000" stroke-opacity="0.5" transform="rotate(90, 3211.5, 2556)" width="397.500016" x="3012.750738" xlink:href="#la" y="2498.499849"/>
  <rect class=" imageannotationLine imageannotationLinked" fill="#FFFF00" fill-opacity="0.2" height="100" id="svg_12" stroke="#000000" stroke-opacity="0.5" transform="rotate(90, 3184, 3521)" width="267.500006" x="3050.249571" xlink:href="#lb" y="3471.000056"/>
  <rect class=" imageannotationLine imageannotationLinked" fill="#FFFF00" fill-opacity="0.2" height="105" id="svg_14" stroke="#000000" stroke-opacity="0.5" transform="rotate(89, 3022.52, 3139.39)" width="3338.752074" x="1353.139885" xlink:href="#lc" y="3086.891357"/>
  <rect class=" imageannotationLine imageannotationLinked" fill="#FFFF00" fill-opacity="0.2" height="105" id="svg_16" stroke="#000000" stroke-opacity="0.5" transform="rotate(88, 2853.73, 2804.41)" width="2648.280056" x="1529.593346" xlink:href="#ld" y="2751.911011"/>
  <rect class=" imageannotationLine imageannotationLinked" fill="#FFFF00" fill-opacity="0.2" height="90.000001" id="svg_18" stroke="#000000" stroke-opacity="0.5" transform="rotate(90, 2759, 3546)" width="437.500014" x="2540.250014" xlink:href="#le" y="3501.000065"/>
  <rect class=" imageannotationLine imageannotationLinked" fill="#FFFF00" fill-opacity="0.2" height="105" id="svg_20" stroke="#000000" stroke-opacity="0.5" transform="rotate(88, 2657.42, 3186.49)" width="3432.913052" x="940.968383" xlink:href="#lf" y="3133.988167"/>
  <rect class=" imageannotationLine imageannotationLinked" fill="#FFFF00" fill-opacity="0.2" height="105" id="svg_22" stroke="#000000" stroke-opacity="0.5" transform="rotate(88, 2464.14, 2672.97)" width="2385.23404" x="1271.526243" xlink:href="#lg" y="2620.46814"/>
  <rect class=" imageannotationLine imageannotationLinked" fill="#FFFF00" fill-opacity="0.2" height="112.788831" id="svg_24" stroke="#000000" stroke-opacity="0.5" transform="rotate(88, 2303.3, 3233.26)" width="3537.5" x="534.55339" xlink:href="#lh" y="3176.866494"/>
  <rect class=" imageannotationLine imageannotationLinked" fill="#FFFF00" fill-opacity="0.2" height="105" id="svg_26" stroke="#000000" stroke-opacity="0.5" transform="rotate(88, 2129.25, 3233.75)" width="3537.5" x="360.5" xlink:href="#li" y="3181.250061"/>
  <rect class=" imageannotationLine imageannotationLinked" fill="#FFFF00" fill-opacity="0.2" height="105" id="svg_28" stroke="#000000" stroke-opacity="0.5" transform="rotate(88, 1953.01, 3143.09)" width="3466.146611" x="219.931881" xlink:href="#lj" y="3090.595261"/>
  <rect class=" imageannotationLine imageannotationLinked" fill="#FFFF00" fill-opacity="0.2" height="105" id="svg_30" stroke="#000000" stroke-opacity="0.5" transform="rotate(88, 1759.98, 2908.2)" width="3006.077855" x="256.937622" xlink:href="#lk" y="2855.700836"/>
  <rect class=" imageannotationLine imageannotationLinked" fill="#FFFF00" fill-opacity="0.2" height="105" id="svg_32" stroke="#000000" stroke-opacity="0.5" transform="rotate(88, 1588.22, 2734.75)" width="2618.93291" x="278.755005" xlink:href="#ll" y="2682.246246"/>
  <rect class=" imageannotationLine imageannotationLinked" fill="#FFFF00" fill-opacity="0.2" height="105" id="svg_34" stroke="#000000" stroke-opacity="0.5" transform="rotate(88, 1458.1, 3185.94)" width="3471.841708" x="-277.816435" xlink:href="#lm" y="3133.441189"/>
  <rect class=" imageannotationLine imageannotationLinked" fill="#FFFF00" fill-opacity="0.2" height="105" id="svg_36" stroke="#000000" stroke-opacity="0.5" transform="rotate(88, 1300.33, 3131.39)" width="3312.63707" x="-355.992057" xlink:href="#ln" y="3078.886765"/>
  <rect class=" imageannotationLine imageannotationLinked" fill="#FFFF00" fill-opacity="0.2" height="105" id="svg_38" stroke="#000000" stroke-opacity="0.5" transform="rotate(90, 3456.5, 1086)" width="337.50002" x="3287.750012" xlink:href="#lo" y="1033.500183"/>
 </g>
</svg>