<?xml version="1.0" encoding="UTF-8" standalone="no"?><svg xmlns="http://www.w3.org/2000/svg" xmlns:xlink="http://www.w3.org/1999/xlink" height="6144" width="4096">
 <g>
  <title>Layer 1</title>
  <rect class=" imageannotationLine imageannotationLinked" fill="#FFFF00" fill-opacity="0.2" height="120" id="svg_3" stroke="#000000" stroke-opacity="0.5" transform="rotate(90, 3468.18, 1122)" width="285.08995" x="3325.632907" xlink:href="#la" y="1062.000122"/>
  <rect class=" imageannotationLine imageannotationLinked" fill="#FFFF00" fill-opacity="0.2" height="108.1469" id="svg_5" stroke="#000000" stroke-opacity="0.5" transform="rotate(88, 3461.16, 3007.41)" width="3177.826236" x="1872.248882" xlink:href="#lb" y="2953.336836"/>
  <rect class=" imageannotationLine imageannotationLinked" fill="#FFFF00" fill-opacity="0.2" height="96.147063" id="svg_7" stroke="#000000" stroke-opacity="0.5" transform="rotate(90, 3322.18, 4039.93)" width="893.09015" x="2875.633129" xlink:href="#lc" y="3991.853201"/>
  <rect class=" imageannotationLine imageannotationLinked" fill="#FFFF00" fill-opacity="0.2" height="127.987522" id="svg_9" stroke="#000000" stroke-opacity="0.5" transform="rotate(88, 3148.83, 3159.69)" width="3434.926662" x="1431.370999" xlink:href="#ld" y="3095.697186"/>
  <rect class=" imageannotationLine imageannotationLinked" fill="#FFFF00" fill-opacity="0.2" height="107.987647" id="svg_11" stroke="#000000" stroke-opacity="0.5" transform="rotate(90, 3050.18, 4034.01)" width="893.090143" x="2603.63342" xlink:href="#le" y="3980.012377"/>
  <rect class=" imageannotationLine imageannotationLinked" fill="#FFFF00" fill-opacity="0.2" height="99.987692" id="svg_13" stroke="#000000" stroke-opacity="0.5" transform="rotate(90, 2996.18, 3106.01)" width="321.089949" x="2835.633489" xlink:href="#lf" y="3056.012307"/>
  <rect class=" imageannotationLine imageannotationLinked" fill="#FFFF00" fill-opacity="0.2" height="131.524963" id="svg_15" stroke="#000000" stroke-opacity="0.5" transform="rotate(87, 2867.55, 3097.62)" width="3260.100434" x="1237.49642" xlink:href="#lg" y="3031.858133"/>
  <rect class=" imageannotationLine imageannotationLinked" fill="#FFFF00" fill-opacity="0.2" height="103.524637" id="svg_17" stroke="#000000" stroke-opacity="0.5" transform="rotate(90, 2802.18, 3860.24)" width="589.09005" x="2507.633923" xlink:href="#lh" y="3808.475571"/>
  <rect class=" imageannotationLine imageannotationLinked" fill="#FFFF00" fill-opacity="0.2" height="139.685" id="svg_19" stroke="#000000" stroke-opacity="0.5" transform="rotate(87, 2604.31, 3165.6)" width="3536.559696" x="836.03131" xlink:href="#li" y="3095.762105"/>
  <rect class=" imageannotationLine imageannotationLinked" fill="#FFFF00" fill-opacity="0.2" height="47.684074" id="svg_21" stroke="#000000" stroke-opacity="0.5" transform="rotate(90, 2582.18, 3936.16)" width="101.089871" x="2531.63284" xlink:href="#lj" y="3912.315895"/>
  <rect class=" imageannotationLine imageannotationLinked" fill="#FFFF00" fill-opacity="0.2" height="127.736111" id="svg_23" stroke="#000000" stroke-opacity="0.5" transform="rotate(87, 2417.31, 3204.18)" width="3587.475343" x="623.578198" xlink:href="#lk" y="3140.307602"/>
  <rect class=" imageannotationLine imageannotationLinked" fill="#FFFF00" fill-opacity="0.2" height="67.735297" id="svg_25" stroke="#000000" stroke-opacity="0.5" transform="rotate(90, 2246.18, 1972.13)" width="457.089971" x="2017.633086" xlink:href="#ll" y="1938.264682"/>
  <rect class=" imageannotationLine imageannotationLinked" fill="#FFFF00" fill-opacity="0.2" height="111.349688" id="svg_27" stroke="#000000" stroke-opacity="0.5" transform="rotate(86, 2251.37, 3104.79)" width="3394.38759" x="554.175122" xlink:href="#lm" y="3049.116919"/>
  <rect class=" imageannotationLine imageannotationLinked" fill="#FFFF00" fill-opacity="0.2" height="119.128766" id="svg_29" stroke="#000000" stroke-opacity="0.5" transform="rotate(87, 2085.12, 3181.22)" width="3508.807616" x="330.712723" xlink:href="#ln" y="3121.657661"/>
  <rect class=" imageannotationLine imageannotationLinked" fill="#FFFF00" fill-opacity="0.2" height="98.318952" id="svg_31" stroke="#000000" stroke-opacity="0.5" transform="rotate(87, 1920.31, 2973.17)" width="3092.556907" x="374.03647" xlink:href="#lo" y="2924.012607"/>
  <rect class=" imageannotationLine imageannotationLinked" fill="#FFFF00" fill-opacity="0.2" height="134.269574" id="svg_33" stroke="#000000" stroke-opacity="0.5" transform="rotate(87, 1762.97, 3074.58)" width="3348.172267" x="88.883101" xlink:href="#lp" y="3007.445563"/>
  <rect class=" imageannotationLine imageannotationLinked" fill="#FFFF00" fill-opacity="0.2" height="130.269585" id="svg_35" stroke="#000000" stroke-opacity="0.5" transform="rotate(90, 1670.18, 4168.87)" width="1169.090255" x="1085.633624" xlink:href="#lq" y="4103.730536"/>
  <rect class=" imageannotationLine imageannotationLinked" fill="#FFFF00" fill-opacity="0.2" height="134.055573" id="svg_37" stroke="#000000" stroke-opacity="0.5" transform="rotate(87, 1484.69, 3033.07)" width="3220.381713" x="-125.504864" xlink:href="#lr" y="2966.039155"/>
  <rect class=" imageannotationLine imageannotationLinked" fill="#FFFF00" fill-opacity="0.2" height="150.055675" id="svg_39" stroke="#000000" stroke-opacity="0.5" transform="rotate(90, 1292.18, 2878.97)" width="565.090008" x="1009.633178" xlink:href="#ls" y="2803.944309"/>
  <rect class=" imageannotationLine imageannotationLinked" fill="#FFFF00" fill-opacity="0.2" height="126.070087" id="svg_41" stroke="#000000" stroke-opacity="0.5" transform="rotate(88, 1113.42, 3213.65)" width="3538.216226" x="-655.683733" xlink:href="#lt" y="3150.619482"/>
  <rect class=" imageannotationLine imageannotationLinked" fill="#FFFF00" fill-opacity="0.2" height="126.070084" id="svg_43" stroke="#000000" stroke-opacity="0.5" transform="rotate(88, 919.349, 3188.16)" width="3515.017631" x="-838.156607" xlink:href="#lu" y="3125.120392"/>
  <rect class=" imageannotationLine imageannotationLinked" fill="#FFFF00" fill-opacity="0.2" height="110.070115" id="svg_45" stroke="#000000" stroke-opacity="0.5" transform="rotate(90, 820.178, 4028.96)" width="793.090081" x="423.633541" xlink:href="#lv" y="3973.929579"/>
 </g>

</svg>