<?xml version="1.0" encoding="UTF-8" standalone="no"?><svg xmlns="http://www.w3.org/2000/svg" xmlns:xlink="http://www.w3.org/1999/xlink" height="6144.000000000001" width="4096">
 <g>
  <title>Layer 1</title>
  <rect class=" imageannotationLine imageannotationLinked" fill="#FFFF00" fill-opacity="0.2" height="120" id="svg_2" stroke="#000000" stroke-opacity="0.5" transform="rotate(89, 3621.64, 2943.5)" width="5034.9999" x="1104.144499" xlink:href="#la" y="2883.498581"/>
  <rect class=" imageannotationLine imageannotationLinked" fill="#FFFF00" fill-opacity="0.2" height="120" id="svg_4" stroke="#000000" stroke-opacity="0.5" transform="rotate(90, 3401.05, 1110.27)" width="868.528318" x="2966.790234" xlink:href="#lb" y="1050.265036"/>
  <rect class=" imageannotationLine imageannotationLinked" fill="#FFFF00" fill-opacity="0.2" height="119.738158" id="svg_6" stroke="#000000" stroke-opacity="0.5" transform="rotate(87, 3251.78, 1022.25)" width="1383.528834" x="2560.01397" xlink:href="#lc" y="962.382915"/>
  <rect class=" imageannotationLine imageannotationLinked" fill="#FFFF00" fill-opacity="0.2" height="90.588233" id="svg_8" stroke="#000000" stroke-opacity="0.5" transform="rotate(88, 3102.23, 1005.27)" width="1338.528806" x="2432.965188" xlink:href="#ld" y="959.971918"/>
  <rect class=" imageannotationLine imageannotationLinked" fill="#FFFF00" fill-opacity="0.2" height="90.588234" id="svg_10" stroke="#000000" stroke-opacity="0.5" transform="rotate(89, 2987.82, 995.264)" width="1398.528871" x="2288.552688" xlink:href="#le" y="949.967924"/>
  <rect class=" imageannotationLine imageannotationLinked" fill="#FFFF00" fill-opacity="0.2" height="90.588234" id="svg_12" stroke="#000000" stroke-opacity="0.5" transform="rotate(89, 2852.52, 982.764)" width="1333.528822" x="2185.759629" xlink:href="#lf" y="937.46907"/>
  <rect class=" imageannotationLine imageannotationLinked" fill="#FFFF00" fill-opacity="0.2" height="85.595173" id="svg_14" stroke="#000000" stroke-opacity="0.5" transform="rotate(87, 2690.62, 885.394)" width="1168.528665" x="2106.356198" xlink:href="#lg" y="842.597694"/>
  <rect class=" imageannotationLine imageannotationLinked" fill="#FFFF00" fill-opacity="0.2" height="90.588234" id="svg_16" stroke="#000000" stroke-opacity="0.5" transform="rotate(90, 3414, 2327.03)" width="1128.528545" x="2849.735918" xlink:href="#lh" y="2281.734821"/>
  <rect class=" imageannotationLine imageannotationLinked" fill="#FFFF00" fill-opacity="0.2" height="90.588234" id="svg_18" stroke="#000000" stroke-opacity="0.5" transform="rotate(87, 3261.65, 2437.03)" width="1338.528804" x="2592.384634" xlink:href="#li" y="2391.736197"/>
  <rect class=" imageannotationLine imageannotationLinked" fill="#FFFF00" fill-opacity="0.2" height="72.941488" id="svg_20" stroke="#000000" stroke-opacity="0.5" transform="rotate(88, 3161.88, 2399.37)" width="1273.19195" x="2525.283639" xlink:href="#lj" y="2362.895662"/>
  <rect class=" imageannotationLine imageannotationLinked" fill="#FFFF00" fill-opacity="0.2" height="72.94149" id="svg_22" stroke="#000000" stroke-opacity="0.5" transform="rotate(88, 3062.24, 2397.03)" width="1318.528785" x="2402.97445" xlink:href="#lk" y="2360.561016"/>
  <rect class=" imageannotationLine imageannotationLinked" fill="#FFFF00" fill-opacity="0.2" height="72.94149" id="svg_24" stroke="#000000" stroke-opacity="0.5" transform="rotate(90, 2946.36, 1862.03)" width="198.527552" x="2847.09398" xlink:href="#ll" y="1825.564461"/>
  <rect class=" imageannotationLine imageannotationLinked" fill="#FFFF00" fill-opacity="0.2" height="72.94149" id="svg_26" stroke="#000000" stroke-opacity="0.5" transform="rotate(87, 2860.47, 2397.03)" width="1318.528785" x="2201.212735" xlink:href="#lm" y="2360.563999"/>
  <rect class=" imageannotationLine imageannotationLinked" fill="#FFFF00" fill-opacity="0.2" height="72.94149" id="svg_28" stroke="#000000" stroke-opacity="0.5" transform="rotate(87, 2767.24, 2374.53)" width="1273.528757" x="2130.474395" xlink:href="#ln" y="2338.06101"/>
  <rect class=" imageannotationLine imageannotationLinked" fill="#FFFF00" fill-opacity="0.2" height="72.94149" id="svg_30" stroke="#000000" stroke-opacity="0.5" transform="rotate(87, 2670.47, 2384.53)" width="1283.528758" x="2028.712696" xlink:href="#lo" y="2348.063995"/>
  <rect class=" imageannotationLine imageannotationLinked" fill="#FFFF00" fill-opacity="0.2" height="72.94149" id="svg_32" stroke="#000000" stroke-opacity="0.5" transform="rotate(87, 2549.59, 1944.53)" width="433.527805" x="2332.82884" xlink:href="#lp" y="1908.063412"/>
  <rect class=" imageannotationLine imageannotationLinked" fill="#FFFF00" fill-opacity="0.2" height="72.94149" id="svg_34" stroke="#000000" stroke-opacity="0.5" transform="rotate(87, 2467.24, 2432.03)" width="1418.528893" x="1757.974589" xlink:href="#lq" y="2395.561005"/>
  <rect class=" imageannotationLine imageannotationLinked" fill="#FFFF00" fill-opacity="0.2" height="72.94149" id="svg_36" stroke="#000000" stroke-opacity="0.5" transform="rotate(87, 2344.59, 2382.03)" width="1298.528763" x="1695.329894" xlink:href="#lr" y="2345.56353"/>
  <rect class=" imageannotationLine imageannotationLinked" fill="#FFFF00" fill-opacity="0.2" height="72.94149" id="svg_44" stroke="#000000" stroke-opacity="0.5" transform="rotate(87, 2253.12, 2382.03)" width="1298.528763" x="1603.857234" xlink:href="#ls" y="2345.561461"/>
  <rect class=" imageannotationLine imageannotationLinked" fill="#FFFF00" fill-opacity="0.2" height="72.94149" id="svg_46" stroke="#000000" stroke-opacity="0.5" transform="rotate(88, 2160.47, 2427.03)" width="1398.528871" x="1461.212843" xlink:href="#lt" y="2390.563942"/>
  <rect class=" imageannotationLine imageannotationLinked" fill="#FFFF00" fill-opacity="0.2" height="62.955181" id="svg_9" stroke="#000000" stroke-opacity="0.5" transform="rotate(90, 1766.5, 2476)" width="1524.999878" x="1004" xlink:href="#ltt" y="2150.54488"/>
  <rect class=" imageannotationLine imageannotationLinked" fill="#FFFF00" fill-opacity="0.2" height="82.95368" id="svg_17" stroke="#000000" stroke-opacity="0.5" transform="rotate(89, 1955.48, 2501.35)" width="1554.999878" x="1177.98489" xlink:href="#lst" y="2459.874114"/>
  <rect class=" imageannotationLine imageannotationLinked" fill="#FFFF00" fill-opacity="0.2" height="87.950637" id="svg_21" stroke="#000000" stroke-opacity="0.5" transform="rotate(88, 1854.01, 2502.29)" width="1554.999878" x="1076.50914" xlink:href="#lsu" y="2458.31584"/>
  <rect class=" imageannotationLine imageannotationLinked" fill="#FFFF00" fill-opacity="0.2" height="97.941505" id="svg_25" stroke="#000000" stroke-opacity="0.5" transform="rotate(90, 1742.97, 2051)" width="674.999962" x="1405.472631" xlink:href="#lu" y="2002.031204"/>
  <rect class=" imageannotationLine imageannotationLinked" fill="#FFFF00" fill-opacity="0.2" height="92.941513" id="svg_40" stroke="#000000" stroke-opacity="0.5" transform="rotate(90, 1590.47, 3121)" width="320.000008" x="1430.47266" xlink:href="#lv" y="3074.531204"/>
  <rect class=" imageannotationLine imageannotationLinked" fill="#FFFF00" fill-opacity="0.2" height="92.941513" id="svg_42" stroke="#000000" stroke-opacity="0.5" transform="rotate(90, 1435.47, 613.502)" width="435.000024" x="1217.972637" xlink:href="#lw" y="567.031204"/>
  <rect class=" imageannotationLine imageannotationLinked" fill="#FFFF00" fill-opacity="0.2" height="92.941513" id="svg_45" stroke="#000000" stroke-opacity="0.5" transform="rotate(87, 1305.05, 686.974)" width="724.945148" x="942.572725" xlink:href="#lx" y="640.503744"/>
  <rect class=" imageannotationLine imageannotationLinked" fill="#FFFF00" fill-opacity="0.2" height="92.941513" id="svg_48" stroke="#000000" stroke-opacity="0.5" transform="rotate(90, 1155.47, 543.502)" width="464.999998" x="922.97265" xlink:href="#ly" y="497.031204"/>
  <rect class=" imageannotationLine imageannotationLinked" fill="#FFFF00" fill-opacity="0.2" height="92.941513" id="svg_50" stroke="#000000" stroke-opacity="0.5" transform="rotate(90, 1440.47, 1328.5)" width="534.999988" x="1172.972652" xlink:href="#lz" y="1282.031204"/>
  <rect class=" imageannotationLine imageannotationLinked" fill="#FFFF00" fill-opacity="0.2" height="92.941513" id="svg_52" stroke="#000000" stroke-opacity="0.5" transform="rotate(90, 1310.47, 1416)" width="609.999991" x="1005.472665" xlink:href="#laa" y="1369.531204"/>
  <rect class=" imageannotationLine imageannotationLinked" fill="#FFFF00" fill-opacity="0.2" height="67.975745" id="svg_54" stroke="#000000" stroke-opacity="0.5" transform="rotate(87, 1188.01, 1274.16)" width="415.000017" x="980.506798" xlink:href="#lab" y="1240.167352"/>
  <rect class=" imageannotationLine imageannotationLinked" fill="#FFFF00" fill-opacity="0.2" height="82.941502" id="svg_56" stroke="#000000" stroke-opacity="0.5" transform="rotate(88, 1100.47, 1328.5)" width="594.99999" x="802.972656" xlink:href="#lac" y="1287.031209"/>
  <rect class=" imageannotationLine imageannotationLinked" fill="#FFFF00" fill-opacity="0.2" height="72.94149" id="svg_58" stroke="#000000" stroke-opacity="0.5" transform="rotate(88, 995.473, 1343.5)" width="674.999994" x="657.972778" xlink:href="#lad" y="1307.03134"/>
  <rect class=" imageannotationLine imageannotationLinked" fill="#FFFF00" fill-opacity="0.2" height="77.941493" id="svg_60" stroke="#000000" stroke-opacity="0.5" transform="rotate(88, 897.973, 1276)" width="499.999997" x="647.972653" xlink:href="#lae" y="1237.031217"/>
  <rect class=" imageannotationLine imageannotationLinked" fill="#FFFF00" fill-opacity="0.2" height="82.941502" id="svg_62" stroke="#000000" stroke-opacity="0.5" transform="rotate(90, 790.473, 1291)" width="520.000009" x="530.472656" xlink:href="#laf" y="1249.531204"/>
  <rect class=" imageannotationLine imageannotationLinked" fill="#FFFF00" fill-opacity="0.2" height="87.941505" id="svg_64" stroke="#000000" stroke-opacity="0.5" transform="rotate(90, 677.973, 1368.5)" width="685" x="335.472778" xlink:href="#lag" y="1324.531329"/>
  <rect class=" imageannotationLine imageannotationLinked" fill="#FFFF00" fill-opacity="0.2" height="117.941538" id="svg_66" stroke="#000000" stroke-opacity="0.5" transform="rotate(90, 1467.97, 1978.5)" width="514.999985" x="1210.472418" xlink:href="#lah" y="1919.530968"/>
  <rect class=" imageannotationLine imageannotationLinked" fill="#FFFF00" fill-opacity="0.2" height="87.941505" id="svg_68" stroke="#000000" stroke-opacity="0.5" transform="rotate(90, 1312.97, 2061)" width="580.000002" x="1022.972656" xlink:href="#lai" y="2017.031212"/>
  <rect class=" imageannotationLine imageannotationLinked" fill="#FFFF00" fill-opacity="0.2" height="87.941505" id="svg_70" stroke="#000000" stroke-opacity="0.5" transform="rotate(88, 1226.5, 2087.03)" width="685" x="884" xlink:href="#laj" y="2043.058556"/>
  <rect class=" imageannotationLine imageannotationLinked" fill="#FFFF00" fill-opacity="0.2" height="87.941505" id="svg_72" stroke="#000000" stroke-opacity="0.5" transform="rotate(88, 1093.16, 2134.47)" width="779.942138" x="703.185561" xlink:href="#lak" y="2090.500595"/>
  <rect class=" imageannotationLine imageannotationLinked" fill="#FFFF00" fill-opacity="0.2" height="87.941505" id="svg_74" stroke="#000000" stroke-opacity="0.5" transform="rotate(90, 1046.5, 2078.5)" width="685" x="704" xlink:href="#lal" y="2113.058556"/>
  <rect class=" imageannotationLine imageannotationLinked" fill="#FFFF00" fill-opacity="0.2" height="87.941505" id="svg_76" stroke="#000000" stroke-opacity="0.5" transform="rotate(88, 1451.5, 2702.03)" width="685" x="1109" xlink:href="#lam" y="2658.058556"/>
  <rect class=" imageannotationLine imageannotationLinked" fill="#FFFF00" fill-opacity="0.2" height="87.941505" id="svg_78" stroke="#000000" stroke-opacity="0.5" transform="rotate(87, 1037.97, 2823.5)" width="434.999997" x="820.472642" xlink:href="#lan" y="2779.531212"/>
  <rect class=" imageannotationLine imageannotationLinked" fill="#FFFF00" fill-opacity="0.2" height="97.941516" id="svg_80" stroke="#000000" stroke-opacity="0.5" transform="rotate(90, 3422.97, 3568.5)" width="955.00003" x="2945.472692" xlink:href="#lao" y="3519.531222"/>
  <rect class=" imageannotationLine imageannotationLinked" fill="#FFFF00" fill-opacity="0.2" height="127.941552" id="svg_82" stroke="#000000" stroke-opacity="0.5" transform="rotate(88, 2653.84, 3738.3)" width="645.024461" x="2331.325892" xlink:href="#lap" y="3674.325489"/>
  <rect class=" imageannotationLine imageannotationLinked" fill="#FFFF00" fill-opacity="0.2" height="127.941551" id="svg_84" stroke="#000000" stroke-opacity="0.5" transform="rotate(90, 1462.97, 3388.5)" width="534.99999" x="1195.47266" xlink:href="#laq" y="3324.531166"/>
  <rect class=" imageannotationLine imageannotationLinked" fill="#FFFF00" fill-opacity="0.2" height="112.941537" id="svg_86" stroke="#000000" stroke-opacity="0.5" transform="rotate(87, 1088.39, 3401.24)" width="520.37133" x="828.203246" xlink:href="#lar" y="3344.771376"/>
  <rect class=" imageannotationLine imageannotationLinked" fill="#FFFF00" fill-opacity="0.2" height="127.941551" id="svg_88" stroke="#000000" stroke-opacity="0.5" transform="rotate(90, 1502.97, 3963.5)" width="515.000031" x="1245.472644" xlink:href="#las" y="3899.531166"/>
  <rect class=" imageannotationLine imageannotationLinked" fill="#FFFF00" fill-opacity="0.2" height="127.941551" id="svg_90" stroke="#000000" stroke-opacity="0.5" transform="rotate(87, 1114.8, 3977.12)" width="505.130054" x="862.235182" xlink:href="#lat" y="3913.147802"/>
  <rect class=" imageannotationLine imageannotationLinked" fill="#FFFF00" fill-opacity="0.2" height="127.941551" id="svg_94" stroke="#000000" stroke-opacity="0.5" transform="rotate(87, 3461.41, 4871.08)" width="990.08224" x="2966.36404" xlink:href="#lau" y="4807.113505"/>
  <rect class=" imageannotationLine imageannotationLinked" fill="#FFFF00" fill-opacity="0.2" height="127.941161" id="svg_96" stroke="#000000" stroke-opacity="0.5" transform="rotate(86, 2702.85, 5019.26)" width="720.000029" x="2342.849619" xlink:href="#lav" y="4955.286994"/>
  <rect class=" imageannotationLine imageannotationLinked" fill="#FFFF00" fill-opacity="0.2" height="107.941197" id="svg_102" stroke="#000000" stroke-opacity="0.5" transform="rotate(90, 1492.97, 4643.5)" width="454.999999" x="1265.472887" xlink:href="#law" y="4589.531333"/>
  <rect class=" imageannotationLine imageannotationLinked" fill="#FFFF00" fill-opacity="0.2" height="97.982337" id="svg_104" stroke="#000000" stroke-opacity="0.5" transform="rotate(87, 1342.93, 4697.72)" width="735.000014" x="975.431707" xlink:href="#lax" y="4648.727316"/>
  <rect class=" imageannotationLine imageannotationLinked" fill="#FFFF00" fill-opacity="0.2" height="97.982338" id="svg_106" stroke="#000000" stroke-opacity="0.5" transform="rotate(88, 1502.99, 5416)" width="450.000016" x="1277.99217" xlink:href="#lay" y="5367.009423"/>
  <rect class=" imageannotationLine imageannotationLinked" fill="#FFFF00" fill-opacity="0.2" height="97.982338" id="svg_108" stroke="#000000" stroke-opacity="0.5" transform="rotate(90, 767.992, 5426)" width="540.000012" x="497.992182" xlink:href="#laz" y="5377.009423"/>
  <rect class=" imageannotationLine imageannotationLinked" fill="#FFFF00" fill-opacity="0.2" height="87.982148" id="svg_110" stroke="#000000" stroke-opacity="0.5" transform="rotate(90, 632.992, 5438.5)" width="475.000001" x="395.491996" xlink:href="#lba" y="5394.509084"/>
 </g>
</svg>