<?xml version="1.0" encoding="UTF-8" standalone="no"?><svg xmlns="http://www.w3.org/2000/svg" xmlns:xlink="http://www.w3.org/1999/xlink" height="6144" width="4096">
 <g>
  <title>Layer 1</title>
  <rect class=" imageannotationLine imageannotationLinked" fill="#FFFF00" fill-opacity="0.2" height="99.999998" id="svg_2" stroke="#000000" stroke-opacity="0.5" transform="rotate(90, 3672.73, 2776.26)" width="307.999978" x="3518.734303" xlink:href="#la" y="2726.256189"/>
  <rect class=" imageannotationLine imageannotationLinked" fill="#FFFF00" fill-opacity="0.2" height="116.925335" id="svg_4" stroke="#000000" stroke-opacity="0.5" transform="rotate(89, 3533.2, 2882.11)" width="2295.999731" x="2385.195569" xlink:href="#lb" y="2823.644952"/>
  <rect class=" imageannotationLine imageannotationLinked" fill="#FFFF00" fill-opacity="0.2" height="115.999997" id="svg_6" stroke="#000000" stroke-opacity="0.5" transform="rotate(90, 3372.73, 2872.26)" width="1099.999883" x="2822.734359" xlink:href="#lc" y="2814.255546"/>
  <rect class=" imageannotationLine imageannotationLinked" fill="#FFFF00" fill-opacity="0.2" height="84.021926" id="svg_8" stroke="#000000" stroke-opacity="0.5" transform="rotate(87, 3260.76, 2944.68)" width="1155.999994" x="2682.756453" xlink:href="#ld" y="2902.663258"/>
  <rect class=" imageannotationLine imageannotationLinked" fill="#FFFF00" fill-opacity="0.2" height="100" id="svg_10" stroke="#000000" stroke-opacity="0.5" transform="rotate(87, 3136.73, 2798.26)" width="2271.999863" x="2000.734376" xlink:href="#le" y="2748.255859"/>
  <rect class=" imageannotationLine imageannotationLinked" fill="#FFFF00" fill-opacity="0.2" height="100" id="svg_12" stroke="#000000" stroke-opacity="0.5" transform="rotate(87, 2992.74, 3206.26)" width="495.999977" x="2744.737911" xlink:href="#lf" y="3156.259033"/>
  <rect class=" imageannotationLine imageannotationLinked" fill="#FFFF00" fill-opacity="0.2" height="114.035881" id="svg_14" stroke="#000000" stroke-opacity="0.5" transform="rotate(88, 2831.75, 2996.01)" width="2587.99973" x="1537.747526" xlink:href="#lg" y="2938.992275"/>
  <rect class=" imageannotationLine imageannotationLinked" fill="#FFFF00" fill-opacity="0.2" height="100" id="svg_16" stroke="#000000" stroke-opacity="0.5" transform="rotate(90, 2644.73, 3206.26)" width="647.999917" x="2320.734625" xlink:href="#lh" y="3156.255615"/>
  <rect class=" imageannotationLine imageannotationLinked" fill="#FFFF00" fill-opacity="0.2" height="122.67822" id="svg_18" stroke="#000000" stroke-opacity="0.5" transform="rotate(88, 2500.07, 3035.86)" width="2563.999701" x="1218.06667" xlink:href="#li" y="2974.520648"/>
  <rect class=" imageannotationLine imageannotationLinked" fill="#FFFF00" fill-opacity="0.2" height="100" id="svg_20" stroke="#000000" stroke-opacity="0.5" transform="rotate(90, 2320.73, 3054.26)" width="287.999971" x="2176.734409" xlink:href="#lj" y="3004.25586"/>
  <rect class=" imageannotationLine imageannotationLinked" fill="#FFFF00" fill-opacity="0.2" height="100" id="svg_22" stroke="#000000" stroke-opacity="0.5" transform="rotate(89, 2180.73, 2954.26)" width="2423.999829" x="968.734373" xlink:href="#lk" y="2904.25586"/>
  <rect class=" imageannotationLine imageannotationLinked" fill="#FFFF00" fill-opacity="0.2" height="100" id="svg_24" stroke="#000000" stroke-opacity="0.5" transform="rotate(89, 1996.73, 3398.26)" width="1047.999947" x="1472.734314" xlink:href="#ll" y="3348.25586"/>
  <rect class=" imageannotationLine imageannotationLinked" fill="#FFFF00" fill-opacity="0.2" height="96.000612" id="svg_26" stroke="#000000" stroke-opacity="0.5" transform="rotate(89, 1814.73, 2898.22)" width="2255.99979" x="686.733656" xlink:href="#lm" y="2850.220598"/>
  <rect class=" imageannotationLine imageannotationLinked" fill="#FFFF00" fill-opacity="0.2" height="100" id="svg_28" stroke="#000000" stroke-opacity="0.5" transform="rotate(88, 1652.73, 3158.26)" width="2167.999792" x="568.734318" xlink:href="#ln" y="3108.25586"/>
  <rect class=" imageannotationLine imageannotationLinked" fill="#FFFF00" fill-opacity="0.2" height="92.000002" id="svg_30" stroke="#000000" stroke-opacity="0.5" transform="rotate(90, 1552.73, 3632.26)" width="627.999957" x="1238.734383" xlink:href="#lo" y="3586.256017"/>
  <rect class=" imageannotationLine imageannotationLinked" fill="#FFFF00" fill-opacity="0.2" height="96.002299" id="svg_32" stroke="#000000" stroke-opacity="0.5" transform="rotate(88, 1434.73, 3048.19)" width="2531.99971" x="168.733327" xlink:href="#lp" y="3000.184411"/>
  <rect class=" imageannotationLine imageannotationLinked" fill="#FFFF00" fill-opacity="0.2" height="101.765478" id="svg_34" stroke="#000000" stroke-opacity="0.5" transform="rotate(89, 1201.62, 3088.24)" width="2475.999704" x="-36.38308" xlink:href="#lq" y="3037.35767"/>
  <rect class=" imageannotationLine imageannotationLinked" fill="#FFFF00" fill-opacity="0.2" height="111.015477" id="svg_36" stroke="#000000" stroke-opacity="0.5" transform="rotate(88, 1022.24, 3018.07)" width="2391.999845" x="-173.761391" xlink:href="#lr" y="2962.558316"/>
  <rect class=" imageannotationLine imageannotationLinked" fill="#FFFF00" fill-opacity="0.2" height="100" id="svg_38" stroke="#000000" stroke-opacity="0.5" transform="rotate(90, 828.734, 3274.26)" width="335.999979" x="660.73439" xlink:href="#ls" y="3224.25586"/>
  <rect class=" imageannotationLine imageannotationLinked" fill="#FFFF00" fill-opacity="0.2" height="100" id="svg_40" stroke="#000000" stroke-opacity="0.5" transform="rotate(89, 708.734, 2962.26)" width="2295.999731" x="-439.265626" xlink:href="#lt" y="2912.25586"/>
  <rect class=" imageannotationLine imageannotationLinked" fill="#FFFF00" fill-opacity="0.2" height="100" id="svg_42" stroke="#000000" stroke-opacity="0.5" transform="rotate(90, 584.734, 3390.26)" width="1087.999851" x="40.734377" xlink:href="#lu" y="3340.25586"/>
  <rect class=" imageannotationLine imageannotationLinked" fill="#FFFF00" fill-opacity="0.2" height="100" id="svg_44" stroke="#000000" stroke-opacity="0.5" transform="rotate(88, 444.734, 2958.26)" width="2335.999832" x="-723.265627" xlink:href="#lv" y="2908.25586"/>
  <rect class=" imageannotationLine imageannotationLinked" fill="#FFFF00" fill-opacity="0.2" height="100" id="svg_46" stroke="#000000" stroke-opacity="0.5" transform="rotate(90, 340.738, 3522.26)" width="871.99992" x="-95.261816" xlink:href="#lw" y="3472.259277"/>
 </g>

</svg>