<?xml version="1.0" encoding="UTF-8" standalone="no"?><svg xmlns="http://www.w3.org/2000/svg" xmlns:xlink="http://www.w3.org/1999/xlink" height="6144" width="4096">
 <g>
  <title>Layer 1</title>
  <rect class=" imageannotationLine imageannotationLinked" fill="#FFFF00" fill-opacity="0.2" height="120" id="svg_2" stroke="#000000" stroke-opacity="0.5" transform="rotate(90, 3869.88, 1034.31)" width="319.11758" x="3710.320813" xlink:href="#la" y="974.30666"/>
  <rect class=" imageannotationLine imageannotationLinked" fill="#FFFF00" fill-opacity="0.2" height="67.058266" id="svg_4" stroke="#000000" stroke-opacity="0.5" transform="rotate(90, 3873.1, 2947)" width="3368.049542" x="2189.074862" xlink:href="#Sie" y="2913.476279"/>
  <rect class=" imageannotationLine imageannotationLinked" fill="#FFFF00" fill-opacity="0.2" height="96.470589" id="svg_6" stroke="#000000" stroke-opacity="0.5" transform="rotate(89, 3741.02, 2716.23)" width="2920.045708" x="2280.999668" xlink:href="#lb" y="2668.001225"/>
  <rect class=" imageannotationLine imageannotationLinked" fill="#FFFF00" fill-opacity="0.2" height="96.470589" id="svg_8" stroke="#000000" stroke-opacity="0.5" transform="rotate(90, 3564, 2610.78)" width="483.82392" x="3322.088139" xlink:href="#lc" y="2562.54509"/>
  <rect class=" imageannotationLine imageannotationLinked" fill="#FFFF00" fill-opacity="0.2" height="131.657342" id="svg_10" stroke="#000000" stroke-opacity="0.5" transform="rotate(89, 3450.86, 2945.86)" width="3379.971741" x="1760.873014" xlink:href="#ld" y="2880.029793"/>
  <rect class=" imageannotationLine imageannotationLinked" fill="#FFFF00" fill-opacity="0.2" height="84.707452" id="svg_12" stroke="#000000" stroke-opacity="0.5" transform="rotate(89, 3292.14, 2936.9)" width="3384.753655" x="1599.758185" xlink:href="#le" y="2894.544699"/>
  <rect class=" imageannotationLine imageannotationLinked" fill="#FFFF00" fill-opacity="0.2" height="96.470589" id="svg_14" stroke="#000000" stroke-opacity="0.5" transform="rotate(90, 3116.94, 2569.6)" width="425.001528" x="2904.440235" xlink:href="#lf" y="2521.369171"/>
  <rect class=" imageannotationLine imageannotationLinked" fill="#FFFF00" fill-opacity="0.2" height="119.688875" id="svg_16" stroke="#000000" stroke-opacity="0.5" transform="rotate(89, 2985.96, 2940.56)" width="3369.162442" x="1301.377883" xlink:href="#lg" y="2880.714347"/>
  <rect class=" imageannotationLine imageannotationLinked" fill="#FFFF00" fill-opacity="0.2" height="84.705658" id="svg_18" stroke="#000000" stroke-opacity="0.5" transform="rotate(90, 2875.76, 3854.9)" width="289.705216" x="2730.91142" xlink:href="#lh" y="3812.543921"/>
  <rect class=" imageannotationLine imageannotationLinked" fill="#FFFF00" fill-opacity="0.2" height="84.706202" id="svg_20" stroke="#000000" stroke-opacity="0.5" transform="rotate(90, 2787.53, 3428.43)" width="436.76552" x="2569.143879" xlink:href="#li" y="3386.073774"/>
  <rect class=" imageannotationLine imageannotationLinked" fill="#FFFF00" fill-opacity="0.2" height="84.502122" id="svg_22" stroke="#000000" stroke-opacity="0.5" transform="rotate(89, 2697.79, 2850.96)" width="3129.062039" x="1133.253792" xlink:href="#lj" y="2808.70421"/>
  <rect class=" imageannotationLine imageannotationLinked" fill="#FFFF00" fill-opacity="0.2" height="96.470589" id="svg_24" stroke="#000000" stroke-opacity="0.5" transform="rotate(89, 2553.29, 2756.78)" width="2977.598727" x="1064.487702" xlink:href="#lk" y="2708.541939"/>
  <rect class=" imageannotationLine imageannotationLinked" fill="#FFFF00" fill-opacity="0.2" height="72.940728" id="svg_26" stroke="#000000" stroke-opacity="0.5" transform="rotate(90, 2469.88, 3787.25)" width="283.822291" x="2327.96776" xlink:href="#ll" y="3750.779823"/>
  <rect class=" imageannotationLine imageannotationLinked" fill="#FFFF00" fill-opacity="0.2" height="101.937095" id="svg_28" stroke="#000000" stroke-opacity="0.5" transform="rotate(89, 2397.88, 2754.7)" width="3056.316164" x="869.724789" xlink:href="#lm" y="2703.72721"/>
  <rect class=" imageannotationLine imageannotationLinked" fill="#FFFF00" fill-opacity="0.2" height="62.102599" id="svg_30" stroke="#000000" stroke-opacity="0.5" transform="rotate(89, 2311.37, 2960.88)" width="266.174317" x="2178.284198" xlink:href="#ln" y="2929.827451"/>
  <rect class=" imageannotationLine imageannotationLinked" fill="#FFFF00" fill-opacity="0.2" height="96.055697" id="svg_32" stroke="#000000" stroke-opacity="0.5" transform="rotate(89, 2238.76, 2923.91)" width="3359.379952" x="559.068366" xlink:href="#lo" y="2875.87842"/>
  <rect class=" imageannotationLine imageannotationLinked" fill="#FFFF00" fill-opacity="0.2" height="100.807866" id="svg_34" stroke="#000000" stroke-opacity="0.5" transform="rotate(89, 2044.07, 2604.32)" width="483.824285" x="1802.161304" xlink:href="#lp" y="2553.91803"/>
  <rect class=" imageannotationLine imageannotationLinked" fill="#FFFF00" fill-opacity="0.2" height="108.235015" id="svg_36" stroke="#000000" stroke-opacity="0.5" transform="rotate(90, 1828.7, 1793.14)" width="1036.764754" x="1310.321024" xlink:href="#lq" y="1739.017701"/>
  <rect class=" imageannotationLine imageannotationLinked" fill="#FFFF00" fill-opacity="0.2" height="153.227152" id="svg_40" stroke="#000000" stroke-opacity="0.5" transform="rotate(89, 1662.96, 3092.43)" width="1319.117126" x="1003.403289" xlink:href="#lr" y="3015.816174"/>
  <rect class=" imageannotationLine imageannotationLinked" fill="#FFFF00" fill-opacity="0.2" height="154.901636" id="svg_42" stroke="#000000" stroke-opacity="0.5" transform="rotate(88, 1416.4, 2233.3)" width="1833.301482" x="499.752264" xlink:href="#ls" y="2155.847292"/>
  <rect class=" imageannotationLine imageannotationLinked" fill="#FFFF00" fill-opacity="0.2" height="134.657389" id="svg_44" stroke="#000000" stroke-opacity="0.5" transform="rotate(88, 1141.8, 2905.26)" width="3090.059441" x="-403.226614" xlink:href="#lt" y="2837.935001"/>
  <rect class=" imageannotationLine imageannotationLinked" fill="#FFFF00" fill-opacity="0.2" height="105.338966" id="svg_46" stroke="#000000" stroke-opacity="0.5" transform="rotate(88, 992.904, 2843.81)" width="2858.398747" x="-436.294574" xlink:href="#lu" y="2791.135635"/>
  <rect class=" imageannotationLine imageannotationLinked" fill="#FFFF00" fill-opacity="0.2" height="141.227125" id="svg_48" stroke="#000000" stroke-opacity="0.5" transform="rotate(88, 850.643, 2984.09)" width="3116.840526" x="-707.777682" xlink:href="#lv" y="2913.480226"/>
  <rect class=" imageannotationLine imageannotationLinked" fill="#FFFF00" fill-opacity="0.2" height="149.410839" id="svg_50" stroke="#000000" stroke-opacity="0.5" transform="rotate(88, 631.65, 2034.31)" width="1083.823146" x="89.737389" xlink:href="#lw" y="1959.606732"/>
  <rect class=" imageannotationLine imageannotationLinked" fill="#FFFF00" fill-opacity="0.2" height="144.470796" id="svg_52" stroke="#000000" stroke-opacity="0.5" transform="rotate(87, 447.078, 2039.07)" width="1095.587721" x="-100.713995" xlink:href="#lx" y="1966.838542"/>
 </g>

</svg>