<?xml version="1.0" encoding="UTF-8" standalone="no"?><svg xmlns="http://www.w3.org/2000/svg" xmlns:xlink="http://www.w3.org/1999/xlink" height="6144" width="4096">
 <g>
  <title>Layer 1</title>
  <rect class=" imageannotationLine imageannotationLinked" fill="#FFFF00" fill-opacity="0.2" height="100.590657" id="svg_5" stroke="#000000" stroke-opacity="0.5" transform="rotate(175, 3713.26, 5561.49)" width="255.010942" x="3585.75284" xlink:href="#la" y="5511.20006"/>
  <rect class=" imageannotationLine imageannotationLinked" fill="#FFFF00" fill-opacity="0.2" height="139.999994" id="svg_7" stroke="#000000" stroke-opacity="0.5" transform="rotate(180, 886.953, 5701)" width="172.273372" x="800.816581" xlink:href="#lb" y="5631.001248"/>
  <rect class=" imageannotationLine imageannotationLinked" fill="#FFFF00" fill-opacity="0.2" height="70.000005" id="svg_9" stroke="#000000" stroke-opacity="0.5" transform="rotate(180, 1939.45, 5516)" width="307.273288" x="1785.815039" xlink:href="#lc" y="5481.000213"/>
  <rect class=" imageannotationLine imageannotationLinked" fill="#FFFF00" fill-opacity="0.2" height="95.000015" id="svg_11" stroke="#000000" stroke-opacity="0.5" transform="rotate(180, 1506.95, 5418.5)" width="1402.272894" x="805.816384" xlink:href="#ld" y="5371.001702"/>
  <rect class=" imageannotationLine imageannotationLinked" fill="#FFFF00" fill-opacity="0.2" height="51.000005" id="svg_13" stroke="#000000" stroke-opacity="0.5" transform="rotate(180, 1806.45, 5311.5)" width="217.273351" x="1697.814628" xlink:href="#le" y="5286.0002"/>
  <rect class=" imageannotationLine imageannotationLinked" fill="#FFFF00" fill-opacity="0.2" height="70.139605" id="svg_15" stroke="#000000" stroke-opacity="0.5" transform="rotate(178, 1533.28, 5245.93)" width="1543.607644" x="761.477733" xlink:href="#lf" y="5210.863507"/>
  <rect class=" imageannotationLine imageannotationLinked" fill="#FFFF00" fill-opacity="0.2" height="58.000005" id="svg_17" stroke="#000000" stroke-opacity="0.5" transform="rotate(180, 1471.45, 5171)" width="467.273233" x="1237.817387" xlink:href="#lg" y="5141.998172"/>
  <rect class=" imageannotationLine imageannotationLinked" fill="#FFFF00" fill-opacity="0.2" height="77.99879" id="svg_19" stroke="#000000" stroke-opacity="0.5" transform="rotate(179, 1537.35, 5101.32)" width="1487.616415" x="793.543584" xlink:href="#lh" y="5062.318887"/>
  <rect class=" imageannotationLine imageannotationLinked" fill="#FFFF00" fill-opacity="0.2" height="85.990262" id="svg_21" stroke="#000000" stroke-opacity="0.5" transform="rotate(178, 1541.73, 4961.99)" width="1519.272795" x="782.095538" xlink:href="#li" y="4918.994347"/>
  <rect class=" imageannotationLine imageannotationLinked" fill="#FFFF00" fill-opacity="0.2" height="81.858558" id="svg_23" stroke="#000000" stroke-opacity="0.5" transform="rotate(179, 1545.56, 4812.93)" width="1495.272882" x="797.920212" xlink:href="#lj" y="4771.998117"/>
  <rect class=" imageannotationLine imageannotationLinked" fill="#FFFF00" fill-opacity="0.2" height="78.134732" id="svg_25" stroke="#000000" stroke-opacity="0.5" transform="rotate(178, 1561.54, 4666.55)" width="1455.395313" x="833.844643" xlink:href="#lk" y="4627.485539"/>
  <rect class=" imageannotationLine imageannotationLinked" fill="#FFFF00" fill-opacity="0.2" height="81.992654" id="svg_27" stroke="#000000" stroke-opacity="0.5" transform="rotate(178, 1579.25, 4515.22)" width="1443.823953" x="857.341252" xlink:href="#ll" y="4474.218909"/>
  <rect class=" imageannotationLine imageannotationLinked" fill="#FFFF00" fill-opacity="0.2" height="85.850664" id="svg_29" stroke="#000000" stroke-opacity="0.5" transform="rotate(178, 1543.81, 4357.03)" width="1539.125994" x="774.241342" xlink:href="#lm" y="4314.104842"/>
  <rect class=" imageannotationLine imageannotationLinked" fill="#FFFF00" fill-opacity="0.2" height="78.27433" id="svg_31" stroke="#000000" stroke-opacity="0.5" transform="rotate(178, 1535.25, 4198.15)" width="1435.970778" x="817.263306" xlink:href="#ln" y="4159.013152"/>
  <rect class=" imageannotationLine imageannotationLinked" fill="#FFFF00" fill-opacity="0.2" height="85.850664" id="svg_33" stroke="#000000" stroke-opacity="0.5" transform="rotate(178, 1553.73, 4053.92)" width="1487.27285" x="810.092806" xlink:href="#lo" y="4010.994768"/>
  <rect class=" imageannotationLine imageannotationLinked" fill="#FFFF00" fill-opacity="0.2" height="85.990262" id="svg_35" stroke="#000000" stroke-opacity="0.5" transform="rotate(178, 1793.73, 3867.99)" width="1031.273034" x="1278.095478" xlink:href="#lp" y="3824.995854"/>
  <rect class=" imageannotationLine imageannotationLinked" fill="#FFFF00" fill-opacity="0.2" height="70.000008" id="svg_37" stroke="#000000" stroke-opacity="0.5" transform="rotate(180, 1571.45, 3650)" width="1483.272831" x="829.81688" xlink:href="#lq" y="3615.000236"/>
  <rect class=" imageannotationLine imageannotationLinked" fill="#FFFF00" fill-opacity="0.2" height="90.000011" id="svg_39" stroke="#000000" stroke-opacity="0.5" transform="rotate(180, 1515.45, 3479)" width="1547.272861" x="741.816406" xlink:href="#lr" y="3434.001784"/>
  <rect class=" imageannotationLine imageannotationLinked" fill="#FFFF00" fill-opacity="0.2" height="46.000007" id="svg_41" stroke="#000000" stroke-opacity="0.5" transform="rotate(180, 1383.45, 3368)" width="219.273363" x="1273.816398" xlink:href="#ls" y="3344.99921"/>
  <rect class=" imageannotationLine imageannotationLinked" fill="#FFFF00" fill-opacity="0.2" height="82.000008" id="svg_43" stroke="#000000" stroke-opacity="0.5" transform="rotate(180, 1553.45, 3275)" width="1407.272875" x="849.816643" xlink:href="#lt" y="3234.00028"/>
  <rect class=" imageannotationLine imageannotationLinked" fill="#FFFF00" fill-opacity="0.2" height="82.000008" id="svg_45" stroke="#000000" stroke-opacity="0.5" transform="rotate(180, 1965.45, 3068)" width="575.273204" x="1677.816398" xlink:href="#lu" y="3027.000265"/>
 </g>
</svg>