<?xml version="1.0" encoding="UTF-8" standalone="no"?><svg xmlns="http://www.w3.org/2000/svg" xmlns:xlink="http://www.w3.org/1999/xlink" height="6144" width="4096">
 <g>
  <title>Layer 1</title>
  <rect class=" imageannotationLine imageannotationLinked" fill="#FFFF00" fill-opacity="0.2" height="101.043298" id="svg_2" stroke="#000000" stroke-opacity="0.5" transform="rotate(88, 3366.66, 2546.3)" width="3315.340851" x="1708.989679" xlink:href="#la" y="2495.780486"/>
  <rect class=" imageannotationLine imageannotationLinked" fill="#FFFF00" fill-opacity="0.2" height="120" id="svg_4" stroke="#000000" stroke-opacity="0.5" transform="rotate(88, 3157.75, 2802.88)" width="3802.840956" x="1256.333884" xlink:href="#lb" y="2742.881226"/>
  <rect class=" imageannotationLine imageannotationLinked" fill="#FFFF00" fill-opacity="0.2" height="113.750002" id="svg_6" stroke="#000000" stroke-opacity="0.5" transform="rotate(90, 2979.63, 2343.51)" width="221.589917" x="2868.832112" xlink:href="#lc" y="2286.63131"/>
  <rect class=" imageannotationLine imageannotationLinked" fill="#FFFF00" fill-opacity="0.2" height="120" id="svg_8" stroke="#000000" stroke-opacity="0.5" transform="rotate(89, 2816.5, 2856.87)" width="3978.718763" x="827.144741" xlink:href="#ld" y="2796.869513"/>
  <rect class=" imageannotationLine imageannotationLinked" fill="#FFFF00" fill-opacity="0.2" height="95.003808" id="svg_10" stroke="#000000" stroke-opacity="0.5" transform="rotate(89, 2651.51, 1437.48)" width="1109.090237" x="2096.9611" xlink:href="#le" y="1389.972757"/>
  <rect class=" imageannotationLine imageannotationLinked" fill="#FFFF00" fill-opacity="0.2" height="120" id="svg_12" stroke="#000000" stroke-opacity="0.5" transform="rotate(90, 2545.25, 2468.51)" width="521.590041" x="2284.457195" xlink:href="#lf" y="2408.506226"/>
  <rect class=" imageannotationLine imageannotationLinked" fill="#FFFF00" fill-opacity="0.2" height="120" id="svg_14" stroke="#000000" stroke-opacity="0.5" transform="rotate(90, 2439, 2337.26)" width="221.589915" x="2328.207134" xlink:href="#lg" y="2277.256226"/>
  <rect class=" imageannotationLine imageannotationLinked" fill="#FFFF00" fill-opacity="0.2" height="82.5" id="svg_16" stroke="#000000" stroke-opacity="0.5" transform="rotate(90, 2389, 3159.13)" width="315.339946" x="2231.332197" xlink:href="#lh" y="3117.881722"/>
  <rect class=" imageannotationLine imageannotationLinked" fill="#FFFF00" fill-opacity="0.2" height="120" id="svg_18" stroke="#000000" stroke-opacity="0.5" transform="rotate(89, 2276.5, 2262.26)" width="2796.590693" x="878.208394" xlink:href="#li" y="2202.256226"/>
  <rect class=" imageannotationLine imageannotationLinked" fill="#FFFF00" fill-opacity="0.2" height="101.25" id="svg_20" stroke="#000000" stroke-opacity="0.5" transform="rotate(90, 2223.38, 2956.01)" width="421.589956" x="2012.58203" xlink:href="#lj" y="2905.38123"/>
  <rect class=" imageannotationLine imageannotationLinked" fill="#FFFF00" fill-opacity="0.2" height="120" id="svg_22" stroke="#000000" stroke-opacity="0.5" transform="rotate(88, 2132.42, 2774.66)" width="3908.884194" x="177.981556" xlink:href="#lk" y="2714.658551"/>
  <rect class=" imageannotationLine imageannotationLinked" fill="#FFFF00" fill-opacity="0.2" height="107.499998" id="svg_24" stroke="#000000" stroke-opacity="0.5" transform="rotate(90, 2026.5, 2602.88)" width="827.840071" x="1612.582896" xlink:href="#ll" y="2549.132307"/>
  <rect class=" imageannotationLine imageannotationLinked" fill="#FFFF00" fill-opacity="0.2" height="107.507615" id="svg_26" stroke="#000000" stroke-opacity="0.5" transform="rotate(88, 1882.74, 2515.16)" width="3365.340935" x="200.076247" xlink:href="#lm" y="2461.409727"/>
  <rect class=" imageannotationLine imageannotationLinked" fill="#FFFF00" fill-opacity="0.2" height="120" id="svg_28" stroke="#000000" stroke-opacity="0.5" transform="rotate(89, 1714, 1727.88)" width="1727.840325" x="850.082872" xlink:href="#ln" y="1667.881226"/>
  <rect class=" imageannotationLine imageannotationLinked" fill="#FFFF00" fill-opacity="0.2" height="120" id="svg_30" stroke="#000000" stroke-opacity="0.5" transform="rotate(89, 1445.76, 3383.13)" width="1112.382975" x="889.565721" xlink:href="#lo" y="3323.127548"/>
  <rect class=" imageannotationLine imageannotationLinked" fill="#FFFF00" fill-opacity="0.2" height="120" id="svg_32" stroke="#000000" stroke-opacity="0.5" transform="rotate(89, 1251.5, 2618.51)" width="3521.590959" x="-509.291254" xlink:href="#lp" y="2558.506226"/>
  <rect class=" imageannotationLine imageannotationLinked" fill="#FFFF00" fill-opacity="0.2" height="120" id="svg_34" stroke="#000000" stroke-opacity="0.5" transform="rotate(89, 1007.75, 2774.76)" width="3709.091037" x="-846.791161" xlink:href="#lq" y="2714.756226"/>
 </g>
</svg>