<?xml version="1.0" encoding="UTF-8" standalone="no"?><svg xmlns="http://www.w3.org/2000/svg" xmlns:xlink="http://www.w3.org/1999/xlink" height="6144" width="4096">
 <g>
  <title>Layer 1</title>
  <rect class=" imageannotationLine imageannotationLinked" fill="#FFFF00" fill-opacity="0.2" height="132.000003" id="svg_2" stroke="#000000" stroke-opacity="0.5" transform="rotate(90, 3714.55, 1546)" width="352.726654" x="3538.183587" xlink:href="#la" y="1479.999999"/>
  <rect class=" imageannotationLine imageannotationLinked" fill="#FFFF00" fill-opacity="0.2" height="128.00001" id="svg_4" stroke="#000000" stroke-opacity="0.5" transform="rotate(90, 3430.55, 3064)" width="1152.726909" x="2854.183352" xlink:href="#lb" y="2999.999751"/>
  <rect class=" imageannotationLine imageannotationLinked" fill="#FFFF00" fill-opacity="0.2" height="108.000014" id="svg_6" stroke="#000000" stroke-opacity="0.5" transform="rotate(90, 3178.55, 3084)" width="1940.727114" x="2208.183377" xlink:href="#lc" y="3030.00025"/>
  <rect class=" imageannotationLine imageannotationLinked" fill="#FFFF00" fill-opacity="0.2" height="96.00002" id="svg_8" stroke="#000000" stroke-opacity="0.5" transform="rotate(90, 3010.55, 2728)" width="1224.726899" x="2398.183325" xlink:href="#ld" y="2679.999738"/>
  <rect class=" imageannotationLine imageannotationLinked" fill="#FFFF00" fill-opacity="0.2" height="108.000025" id="svg_10" stroke="#000000" stroke-opacity="0.5" transform="rotate(90, 2818.55, 3624)" width="2356.727204" x="1640.183349" xlink:href="#le" y="3569.999738"/>
  <rect class=" imageannotationLine imageannotationLinked" fill="#FFFF00" fill-opacity="0.2" height="80.000017" id="svg_12" stroke="#000000" stroke-opacity="0.5" transform="rotate(90, 2698.55, 4194)" width="532.726747" x="2432.183584" xlink:href="#lf" y="4153.999995"/>
  <rect class=" imageannotationLine imageannotationLinked" fill="#FFFF00" fill-opacity="0.2" height="95.987837" id="svg_14" stroke="#000000" stroke-opacity="0.5" transform="rotate(88, 2556.93, 3052.68)" width="1878.250078" x="1617.803481" xlink:href="#lg" y="3004.692238"/>
  <rect class=" imageannotationLine imageannotationLinked" fill="#FFFF00" fill-opacity="0.2" height="87.989094" id="svg_16" stroke="#000000" stroke-opacity="0.5" transform="rotate(89, 2411.78, 3069.95)" width="1912.740505" x="1455.407572" xlink:href="#lh" y="3025.958113"/>
  <rect class=" imageannotationLine imageannotationLinked" fill="#FFFF00" fill-opacity="0.2" height="111.989316" id="svg_18" stroke="#000000" stroke-opacity="0.5" transform="rotate(90, 2192.55, 2840.01)" width="372.726662" x="2006.183616" xlink:href="#li" y="2784.010649"/>
  <rect class=" imageannotationLine imageannotationLinked" fill="#FFFF00" fill-opacity="0.2" height="108.059704" id="svg_20" stroke="#000000" stroke-opacity="0.5" transform="rotate(89, 1966.65, 3256.18)" width="2349.143572" x="792.083482" xlink:href="#lj" y="3202.147451"/>
  <rect class=" imageannotationLine imageannotationLinked" fill="#FFFF00" fill-opacity="0.2" height="88.071768" id="svg_22" stroke="#000000" stroke-opacity="0.5" transform="rotate(88, 1830.22, 3418.12)" width="2524.459428" x="567.993488" xlink:href="#lk" y="3374.085577"/>
  <rect class=" imageannotationLine imageannotationLinked" fill="#FFFF00" fill-opacity="0.2" height="88.07177" id="svg_24" stroke="#000000" stroke-opacity="0.5" transform="rotate(88, 1682.6, 3412.1)" width="2660.93512" x="352.128784" xlink:href="#ll" y="3368.065987"/>
  <rect class=" imageannotationLine imageannotationLinked" fill="#FFFF00" fill-opacity="0.2" height="75.939436" id="svg_26" stroke="#000000" stroke-opacity="0.5" transform="rotate(88, 1528.87, 3409.88)" width="2672.369312" x="192.683899" xlink:href="#lm" y="3371.9157"/>
  <rect class=" imageannotationLine imageannotationLinked" fill="#FFFF00" fill-opacity="0.2" height="75.52075" id="svg_28" stroke="#000000" stroke-opacity="0.5" transform="rotate(88, 1366.86, 3467.98)" width="2806.350626" x="-36.315972" xlink:href="#ln" y="3430.225994"/>
  <rect class=" imageannotationLine imageannotationLinked" fill="#FFFF00" fill-opacity="0.2" height="75.520752" id="svg_30" stroke="#000000" stroke-opacity="0.5" transform="rotate(88, 1235.35, 3273.31)" width="2474.673834" x="-1.989648" xlink:href="#lo" y="3235.547573"/>
  <rect class=" imageannotationLine imageannotationLinked" fill="#FFFF00" fill-opacity="0.2" height="75.520752" id="svg_32" stroke="#000000" stroke-opacity="0.5" transform="rotate(88, 1093.5, 3216.42)" width="2368.833704" x="-90.917619" xlink:href="#lp" y="3178.65538"/>
  <rect class=" imageannotationLine imageannotationLinked" fill="#FFFF00" fill-opacity="0.2" height="75.520752" id="svg_34" stroke="#000000" stroke-opacity="0.5" transform="rotate(88, 963.897, 3230.54)" width="2277.029302" x="-174.617325" xlink:href="#lq" y="3192.781158"/>
 </g>

</svg>