<?xml version="1.0" encoding="UTF-8" standalone="no"?><svg xmlns="http://www.w3.org/2000/svg" xmlns:xlink="http://www.w3.org/1999/xlink" height="6144.000000000001" width="4096">
 <g>
  <title>Layer 1</title>
  <rect class=" imageannotationLine imageannotationLinked" fill="#FFFF00" fill-opacity="0.2" height="120" id="svg_2" stroke="#000000" stroke-opacity="0.5" transform="rotate(90, 3294, 4048.5)" width="174.999995" x="3206.50007" xlink:href="#la" y="3988.500061"/>
  <rect class=" imageannotationLine imageannotationLinked" fill="#FFFF00" fill-opacity="0.2" height="107.558184" id="svg_4" stroke="#000000" stroke-opacity="0.5" transform="rotate(89, 3127.78, 2708.61)" width="1565.000044" x="2345.280159" xlink:href="#lb" y="2654.829828"/>
  <rect class=" imageannotationLine imageannotationLinked" fill="#FFFF00" fill-opacity="0.2" height="120" id="svg_6" stroke="#000000" stroke-opacity="0.5" transform="rotate(88, 2934, 2418.5)" width="1545.000018" x="2161.500003" xlink:href="#lc" y="2358.500061"/>
  <rect class=" imageannotationLine imageannotationLinked" fill="#FFFF00" fill-opacity="0.2" height="105.009141" id="svg_8" stroke="#000000" stroke-opacity="0.5" transform="rotate(88, 2781.51, 2261.26)" width="1289.999971" x="2136.509142" xlink:href="#ld" y="2208.757351"/>
  <rect class=" imageannotationLine imageannotationLinked" fill="#FFFF00" fill-opacity="0.2" height="115.003114" id="svg_10" stroke="#000000" stroke-opacity="0.5" transform="rotate(88, 2621.5, 2396.09)" width="1510.000049" x="1866.50274" xlink:href="#le" y="2338.584711"/>
  <rect class=" imageannotationLine imageannotationLinked" fill="#FFFF00" fill-opacity="0.2" height="99.999998" id="svg_12" stroke="#000000" stroke-opacity="0.5" transform="rotate(90, 2459, 2261)" width="1250.000022" x="1833.999988" xlink:href="#Strahlenreiche" y="2211.000048"/>
  <rect class=" imageannotationLine imageannotationLinked" fill="#FFFF00" fill-opacity="0.2" height="105" id="svg_14" stroke="#000000" stroke-opacity="0.5" transform="rotate(90, 2321.5, 2151)" width="1079.999957" x="1781.50001" xlink:href="#Ohnegleiche" y="2098.500042"/>
  <rect class=" imageannotationLine imageannotationLinked" fill="#FFFF00" fill-opacity="0.2" height="99.999998" id="svg_16" stroke="#000000" stroke-opacity="0.5" transform="rotate(90, 2134, 2891)" width="1549.999958" x="1359.000038" xlink:href="#lf" y="2841.000066"/>
  <rect class=" imageannotationLine imageannotationLinked" fill="#FFFF00" fill-opacity="0.2" height="95.000002" id="svg_18" stroke="#000000" stroke-opacity="0.5" transform="rotate(90, 1946.5, 2336)" width="1309.999997" x="1291.500125" xlink:href="#lg" y="2288.500175"/>
  <rect class=" imageannotationLine imageannotationLinked" fill="#FFFF00" fill-opacity="0.2" height="100.177567" id="svg_20" stroke="#000000" stroke-opacity="0.5" transform="rotate(89, 1814.09, 2903.67)" width="2505.000025" x="561.5902" xlink:href="#lh" y="2853.583908"/>
  <rect class=" imageannotationLine imageannotationLinked" fill="#FFFF00" fill-opacity="0.2" height="105.002282" id="svg_22" stroke="#000000" stroke-opacity="0.5" transform="rotate(89, 1671.5, 2303.63)" width="1355.000029" x="994.002215" xlink:href="#li" y="2251.129673"/>
  <rect class=" imageannotationLine imageannotationLinked" fill="#FFFF00" fill-opacity="0.2" height="99.914266" id="svg_24" stroke="#000000" stroke-opacity="0.5" transform="rotate(89, 1528.96, 2446.09)" width="1659.999987" x="698.95776" xlink:href="#lj" y="2396.131035"/>
  <rect class=" imageannotationLine imageannotationLinked" fill="#FFFF00" fill-opacity="0.2" height="100.000005" id="svg_26" stroke="#000000" stroke-opacity="0.5" transform="rotate(90, 1369, 2271)" width="1239.999958" x="748.99989" xlink:href="#lk" y="2220.999925"/>
  <rect class=" imageannotationLine imageannotationLinked" fill="#FFFF00" fill-opacity="0.2" height="120" id="svg_28" stroke="#000000" stroke-opacity="0.5" transform="rotate(90, 1219, 2246)" width="1300.000035" x="568.999996" xlink:href="#ll" y="2186.000061"/>
  <rect class=" imageannotationLine imageannotationLinked" fill="#FFFF00" fill-opacity="0.2" height="80.000003" id="svg_30" stroke="#000000" stroke-opacity="0.5" transform="rotate(90, 2424, 1531)" width="90.000007" x="2379.000036" xlink:href="#lm" y="1491.000035"/>
  <rect class=" imageannotationLine imageannotationLinked" fill="#FFFF00" fill-opacity="0.2" height="84.999998" id="svg_32" stroke="#000000" stroke-opacity="0.5" transform="rotate(90, 2301.5, 1551)" width="80.000007" x="2261.500012" xlink:href="#ln" y="1508.500044"/>
  <rect class=" imageannotationLine imageannotationLinked" fill="#FFFF00" fill-opacity="0.2" height="125.610101" id="svg_34" stroke="#000000" stroke-opacity="0.5" transform="rotate(74.6498, 3271.44, 4518.27)" width="240.000016" x="3151.437382" xlink:href="#lo" y="4455.466867"/>
  <rect class=" imageannotationLine imageannotationLinked" fill="#FFFF00" fill-opacity="0.2" height="110.000002" id="svg_36" stroke="#000000" stroke-opacity="0.5" transform="rotate(90, 3099, 4558.5)" width="425.000043" x="2886.499992" xlink:href="#lp" y="4503.500054"/>
 </g>

</svg>